<svg xmlns:xlink="http://www.w3.org/1999/xlink" xmlns="http://www.w3.org/2000/svg" width="972" zoomAndPan="magnify" viewBox="0 0 729 142.499996" height="190" preserveAspectRatio="xMidYMid meet" version="1.0"><defs><g/></defs>
    <g fill="#a6a6a6" fill-opacity="0.302">
        <g transform="translate(27.471613, 132.962018)">
            <g><path d="M 42.921875 -1.734375 C 43.003906 -1.523438 43.046875 -1.269531 43.046875 -0.96875 C 43.046875 -0.320312 42.640625 0 41.828125 0 L 29.34375 0 C 28.875 0 28.507812 -0.113281 28.25 -0.34375 C 27.988281 -0.582031 27.796875 -1.023438 27.671875 -1.671875 L 23.9375 -18.28125 C 23.851562 -18.53125 23.753906 -18.707031 23.640625 -18.8125 C 23.535156 -18.925781 23.3125 -18.984375 22.96875 -18.984375 L 19.109375 -18.984375 C 18.765625 -18.984375 18.523438 -18.914062 18.390625 -18.78125 C 18.265625 -18.65625 18.179688 -18.460938 18.140625 -18.203125 L 15.765625 -1.484375 C 15.679688 -0.835938 15.476562 -0.425781 15.15625 -0.25 C 14.832031 -0.0820312 14.265625 0 13.453125 0 L 2.640625 0 C 1.523438 0 1.050781 -0.664062 1.21875 -2 L 7.53125 -46.65625 C 7.570312 -47.125 7.664062 -47.421875 7.8125 -47.546875 C 7.96875 -47.679688 8.238281 -47.75 8.625 -47.75 L 30.109375 -47.75 C 35.816406 -47.75 40.242188 -46.664062 43.390625 -44.5 C 46.546875 -42.332031 48.125 -39.316406 48.125 -35.453125 C 48.125 -32.316406 47.210938 -29.421875 45.390625 -26.765625 C 43.566406 -24.109375 41.195312 -22.203125 38.28125 -21.046875 C 37.726562 -20.828125 37.394531 -20.628906 37.28125 -20.453125 C 37.175781 -20.285156 37.164062 -20.050781 37.25 -19.75 Z M 26.828125 -28.5625 C 28.585938 -28.5625 30.054688 -29.160156 31.234375 -30.359375 C 32.421875 -31.566406 33.015625 -32.960938 33.015625 -34.546875 C 33.015625 -35.753906 32.570312 -36.664062 31.6875 -37.28125 C 30.8125 -37.90625 29.6875 -38.21875 28.3125 -38.21875 L 21.75 -38.21875 C 21.445312 -38.21875 21.226562 -38.128906 21.09375 -37.953125 C 20.96875 -37.785156 20.863281 -37.445312 20.78125 -36.9375 L 19.6875 -29.53125 L 19.6875 -29.21875 C 19.6875 -28.957031 19.738281 -28.78125 19.84375 -28.6875 C 19.957031 -28.601562 20.140625 -28.5625 20.390625 -28.5625 Z M 26.828125 -28.5625 "/>
            </g>
        </g>
    </g>
    <g fill="#a6a6a6" fill-opacity="0.302">
        <g transform="translate(75.022242, 132.962018)">
            <g><path d="M 7.53125 -46.65625 C 7.570312 -47.125 7.664062 -47.421875 7.8125 -47.546875 C 7.96875 -47.679688 8.238281 -47.75 8.625 -47.75 L 43.625 -47.75 C 44.269531 -47.75 44.59375 -47.359375 44.59375 -46.578125 C 44.59375 -46.328125 44.570312 -46.132812 44.53125 -46 L 43.4375 -38.546875 C 43.34375 -38.023438 43.1875 -37.664062 42.96875 -37.46875 C 42.757812 -37.28125 42.378906 -37.1875 41.828125 -37.1875 L 21.875 -37.1875 C 21.488281 -37.1875 21.195312 -37.109375 21 -36.953125 C 20.8125 -36.804688 20.695312 -36.5 20.65625 -36.03125 L 19.8125 -30.109375 L 19.75 -29.65625 C 19.75 -29.445312 19.800781 -29.304688 19.90625 -29.234375 C 20.019531 -29.171875 20.226562 -29.140625 20.53125 -29.140625 L 32.6875 -29.140625 C 33.113281 -29.140625 33.390625 -29.054688 33.515625 -28.890625 C 33.648438 -28.722656 33.675781 -28.441406 33.59375 -28.046875 L 32.421875 -19.625 C 32.378906 -19.28125 32.296875 -19.050781 32.171875 -18.9375 C 32.046875 -18.832031 31.789062 -18.78125 31.40625 -18.78125 L 18.984375 -18.78125 C 18.679688 -18.78125 18.460938 -18.707031 18.328125 -18.5625 C 18.203125 -18.414062 18.097656 -18.148438 18.015625 -17.765625 L 17.109375 -11.390625 L 17.109375 -11.0625 C 17.109375 -10.71875 17.257812 -10.546875 17.5625 -10.546875 L 39 -10.546875 C 39.425781 -10.546875 39.703125 -10.457031 39.828125 -10.28125 C 39.953125 -10.113281 39.972656 -9.796875 39.890625 -9.328125 L 38.796875 -1.03125 C 38.710938 -0.644531 38.582031 -0.375 38.40625 -0.21875 C 38.238281 -0.0703125 37.898438 0 37.390625 0 L 2.765625 0 C 2.210938 0 1.804688 -0.113281 1.546875 -0.34375 C 1.285156 -0.582031 1.15625 -0.941406 1.15625 -1.421875 L 1.21875 -2 Z M 7.53125 -46.65625 "/>
            </g>
        </g>
    </g>
    <g fill="#a6a6a6" fill-opacity="0.302">
        <g transform="translate(118.197458, 132.962018)">
        <g><path d="M 34.6875 -35.515625 C 32.40625 -37.492188 29.460938 -38.484375 25.859375 -38.484375 C 23.722656 -38.484375 22.019531 -38.140625 20.75 -37.453125 C 19.488281 -36.765625 18.859375 -35.773438 18.859375 -34.484375 C 18.859375 -32.984375 20.144531 -31.847656 22.71875 -31.078125 L 33.015625 -27.734375 C 36.441406 -26.617188 38.988281 -25.171875 40.65625 -23.390625 C 42.332031 -21.609375 43.171875 -19.367188 43.171875 -16.671875 C 43.171875 -13.066406 42.179688 -9.953125 40.203125 -7.328125 C 38.234375 -4.710938 35.546875 -2.726562 32.140625 -1.375 C 28.734375 -0.03125 24.90625 0.640625 20.65625 0.640625 C 15.757812 0.640625 11.609375 -0.160156 8.203125 -1.765625 C 4.796875 -3.378906 2.316406 -5.597656 0.765625 -8.421875 C 0.515625 -9.023438 0.390625 -9.367188 0.390625 -9.453125 C 0.390625 -9.710938 0.582031 -9.972656 0.96875 -10.234375 L 7.78125 -14.40625 C 8.125 -14.625 8.488281 -14.734375 8.875 -14.734375 C 9.476562 -14.734375 10.035156 -14.410156 10.546875 -13.765625 C 11.710938 -12.484375 12.722656 -11.519531 13.578125 -10.875 C 14.429688 -10.226562 15.5 -9.722656 16.78125 -9.359375 C 18.070312 -8.992188 19.789062 -8.8125 21.9375 -8.8125 C 23.957031 -8.8125 25.617188 -9.144531 26.921875 -9.8125 C 28.234375 -10.476562 28.890625 -11.582031 28.890625 -13.125 C 28.890625 -14.664062 27.582031 -15.820312 24.96875 -16.59375 L 15.5 -19.5 C 12.238281 -20.476562 9.707031 -22.019531 7.90625 -24.125 C 6.113281 -26.226562 5.21875 -28.695312 5.21875 -31.53125 C 5.21875 -34.832031 6.179688 -37.769531 8.109375 -40.34375 C 10.035156 -42.914062 12.617188 -44.898438 15.859375 -46.296875 C 19.097656 -47.691406 22.601562 -48.390625 26.375 -48.390625 C 30.363281 -48.390625 33.910156 -47.691406 37.015625 -46.296875 C 40.128906 -44.898438 42.460938 -43.171875 44.015625 -41.109375 C 44.359375 -40.640625 44.53125 -40.253906 44.53125 -39.953125 C 44.53125 -39.648438 44.378906 -39.414062 44.078125 -39.25 L 36.671875 -34.484375 C 36.460938 -34.316406 36.226562 -34.304688 35.96875 -34.453125 C 35.707031 -34.609375 35.445312 -34.800781 35.1875 -35.03125 C 34.9375 -35.269531 34.769531 -35.429688 34.6875 -35.515625 Z M 34.6875 -35.515625 "/>
        </g></g></g>
    <g fill="#a6a6a6" fill-opacity="0.302">
        <g transform="translate(163.302999, 132.962018)">
            <g><path d="M 44.203125 -18.46875 C 43.210938 -11.4375 40.796875 -6.492188 36.953125 -3.640625 C 33.117188 -0.785156 27.941406 0.640625 21.421875 0.640625 C 14.898438 0.640625 10.179688 -0.675781 7.265625 -3.3125 C 4.347656 -5.945312 2.890625 -9.863281 2.890625 -15.0625 C 2.890625 -16.476562 3.039062 -18.300781 3.34375 -20.53125 L 7.015625 -46.65625 C 7.054688 -47.125 7.148438 -47.421875 7.296875 -47.546875 C 7.453125 -47.679688 7.722656 -47.75 8.109375 -47.75 L 20.328125 -47.75 C 20.710938 -47.75 21.023438 -47.566406 21.265625 -47.203125 C 21.503906 -46.835938 21.578125 -46.4375 21.484375 -46 L 17.625 -18.203125 C 17.457031 -16.835938 17.375 -15.914062 17.375 -15.4375 C 17.375 -13.34375 17.84375 -11.84375 18.78125 -10.9375 C 19.726562 -10.039062 21.125 -9.59375 22.96875 -9.59375 C 25.332031 -9.59375 27.359375 -10.351562 29.046875 -11.875 C 30.742188 -13.394531 31.828125 -15.828125 32.296875 -19.171875 L 36.15625 -46.65625 C 36.195312 -47.125 36.289062 -47.421875 36.4375 -47.546875 C 36.59375 -47.679688 36.863281 -47.75 37.25 -47.75 L 46.90625 -47.75 C 47.289062 -47.75 47.597656 -47.566406 47.828125 -47.203125 C 48.066406 -46.835938 48.144531 -46.4375 48.0625 -46 Z M 44.203125 -18.46875 "/></g></g></g><g fill="#a6a6a6" fill-opacity="0.302"><g transform="translate(210.145848, 132.962018)"><g><path d="M 7.46875 -46.453125 C 7.507812 -46.921875 7.625 -47.253906 7.8125 -47.453125 C 8.007812 -47.648438 8.28125 -47.75 8.625 -47.75 L 21.234375 -47.75 C 21.785156 -47.75 22.0625 -47.359375 22.0625 -46.578125 C 22.0625 -46.328125 22.039062 -46.132812 22 -46 L 17.1875 -11.640625 L 17.109375 -11.328125 C 17.109375 -10.804688 17.367188 -10.546875 17.890625 -10.546875 L 37.453125 -10.546875 C 38.222656 -10.546875 38.539062 -10.007812 38.40625 -8.9375 L 37.3125 -1.03125 C 37.269531 -0.601562 37.140625 -0.320312 36.921875 -0.1875 C 36.710938 -0.0625 36.351562 0 35.84375 0 L 2.765625 0 C 1.609375 0 1.09375 -0.664062 1.21875 -2 Z M 7.46875 -46.453125 "/></g></g></g><g fill="#a6a6a6" fill-opacity="0.302"><g transform="translate(251.519408, 132.962018)"><g><path d="M 5.984375 -46.65625 C 6.066406 -47.082031 6.203125 -47.367188 6.390625 -47.515625 C 6.585938 -47.671875 6.945312 -47.75 7.46875 -47.75 L 46.578125 -47.75 C 47.097656 -47.75 47.421875 -47.671875 47.546875 -47.515625 C 47.679688 -47.367188 47.703125 -47.082031 47.609375 -46.65625 L 46.453125 -38.21875 C 46.410156 -37.875 46.289062 -37.648438 46.09375 -37.546875 C 45.90625 -37.441406 45.597656 -37.390625 45.171875 -37.390625 L 33.78125 -37.390625 C 33.351562 -37.390625 33.070312 -37.320312 32.9375 -37.1875 C 32.8125 -37.0625 32.707031 -36.785156 32.625 -36.359375 L 27.671875 -1.21875 C 27.628906 -0.75 27.507812 -0.425781 27.3125 -0.25 C 27.125 -0.0820312 26.832031 0 26.4375 0 L 14.34375 0 C 13.488281 0 13.0625 -0.34375 13.0625 -1.03125 C 13.0625 -1.289062 13.082031 -1.503906 13.125 -1.671875 L 18.078125 -36.609375 L 18.078125 -36.796875 C 18.078125 -37.191406 17.863281 -37.390625 17.4375 -37.390625 L 5.921875 -37.390625 C 5.453125 -37.390625 5.140625 -37.460938 4.984375 -37.609375 C 4.835938 -37.753906 4.785156 -38.019531 4.828125 -38.40625 Z M 5.984375 -46.65625 "/></g></g></g><g fill="#a6a6a6" fill-opacity="0.302"><g transform="translate(296.817985, 132.962018)"><g><path d="M 34.6875 -35.515625 C 32.40625 -37.492188 29.460938 -38.484375 25.859375 -38.484375 C 23.722656 -38.484375 22.019531 -38.140625 20.75 -37.453125 C 19.488281 -36.765625 18.859375 -35.773438 18.859375 -34.484375 C 18.859375 -32.984375 20.144531 -31.847656 22.71875 -31.078125 L 33.015625 -27.734375 C 36.441406 -26.617188 38.988281 -25.171875 40.65625 -23.390625 C 42.332031 -21.609375 43.171875 -19.367188 43.171875 -16.671875 C 43.171875 -13.066406 42.179688 -9.953125 40.203125 -7.328125 C 38.234375 -4.710938 35.546875 -2.726562 32.140625 -1.375 C 28.734375 -0.03125 24.90625 0.640625 20.65625 0.640625 C 15.757812 0.640625 11.609375 -0.160156 8.203125 -1.765625 C 4.796875 -3.378906 2.316406 -5.597656 0.765625 -8.421875 C 0.515625 -9.023438 0.390625 -9.367188 0.390625 -9.453125 C 0.390625 -9.710938 0.582031 -9.972656 0.96875 -10.234375 L 7.78125 -14.40625 C 8.125 -14.625 8.488281 -14.734375 8.875 -14.734375 C 9.476562 -14.734375 10.035156 -14.410156 10.546875 -13.765625 C 11.710938 -12.484375 12.722656 -11.519531 13.578125 -10.875 C 14.429688 -10.226562 15.5 -9.722656 16.78125 -9.359375 C 18.070312 -8.992188 19.789062 -8.8125 21.9375 -8.8125 C 23.957031 -8.8125 25.617188 -9.144531 26.921875 -9.8125 C 28.234375 -10.476562 28.890625 -11.582031 28.890625 -13.125 C 28.890625 -14.664062 27.582031 -15.820312 24.96875 -16.59375 L 15.5 -19.5 C 12.238281 -20.476562 9.707031 -22.019531 7.90625 -24.125 C 6.113281 -26.226562 5.21875 -28.695312 5.21875 -31.53125 C 5.21875 -34.832031 6.179688 -37.769531 8.109375 -40.34375 C 10.035156 -42.914062 12.617188 -44.898438 15.859375 -46.296875 C 19.097656 -47.691406 22.601562 -48.390625 26.375 -48.390625 C 30.363281 -48.390625 33.910156 -47.691406 37.015625 -46.296875 C 40.128906 -44.898438 42.460938 -43.171875 44.015625 -41.109375 C 44.359375 -40.640625 44.53125 -40.253906 44.53125 -39.953125 C 44.53125 -39.648438 44.378906 -39.414062 44.078125 -39.25 L 36.671875 -34.484375 C 36.460938 -34.316406 36.226562 -34.304688 35.96875 -34.453125 C 35.707031 -34.609375 35.445312 -34.800781 35.1875 -35.03125 C 34.9375 -35.269531 34.769531 -35.429688 34.6875 -35.515625 Z M 34.6875 -35.515625 "/></g></g></g><g fill="#a6a6a6" fill-opacity="0.502"><g transform="translate(23.489471, 128.979875)"><g><path d="M 42.921875 -1.734375 C 43.003906 -1.523438 43.046875 -1.269531 43.046875 -0.96875 C 43.046875 -0.320312 42.640625 0 41.828125 0 L 29.34375 0 C 28.875 0 28.507812 -0.113281 28.25 -0.34375 C 27.988281 -0.582031 27.796875 -1.023438 27.671875 -1.671875 L 23.9375 -18.28125 C 23.851562 -18.53125 23.753906 -18.707031 23.640625 -18.8125 C 23.535156 -18.925781 23.3125 -18.984375 22.96875 -18.984375 L 19.109375 -18.984375 C 18.765625 -18.984375 18.523438 -18.914062 18.390625 -18.78125 C 18.265625 -18.65625 18.179688 -18.460938 18.140625 -18.203125 L 15.765625 -1.484375 C 15.679688 -0.835938 15.476562 -0.425781 15.15625 -0.25 C 14.832031 -0.0820312 14.265625 0 13.453125 0 L 2.640625 0 C 1.523438 0 1.050781 -0.664062 1.21875 -2 L 7.53125 -46.65625 C 7.570312 -47.125 7.664062 -47.421875 7.8125 -47.546875 C 7.96875 -47.679688 8.238281 -47.75 8.625 -47.75 L 30.109375 -47.75 C 35.816406 -47.75 40.242188 -46.664062 43.390625 -44.5 C 46.546875 -42.332031 48.125 -39.316406 48.125 -35.453125 C 48.125 -32.316406 47.210938 -29.421875 45.390625 -26.765625 C 43.566406 -24.109375 41.195312 -22.203125 38.28125 -21.046875 C 37.726562 -20.828125 37.394531 -20.628906 37.28125 -20.453125 C 37.175781 -20.285156 37.164062 -20.050781 37.25 -19.75 Z M 26.828125 -28.5625 C 28.585938 -28.5625 30.054688 -29.160156 31.234375 -30.359375 C 32.421875 -31.566406 33.015625 -32.960938 33.015625 -34.546875 C 33.015625 -35.753906 32.570312 -36.664062 31.6875 -37.28125 C 30.8125 -37.90625 29.6875 -38.21875 28.3125 -38.21875 L 21.75 -38.21875 C 21.445312 -38.21875 21.226562 -38.128906 21.09375 -37.953125 C 20.96875 -37.785156 20.863281 -37.445312 20.78125 -36.9375 L 19.6875 -29.53125 L 19.6875 -29.21875 C 19.6875 -28.957031 19.738281 -28.78125 19.84375 -28.6875 C 19.957031 -28.601562 20.140625 -28.5625 20.390625 -28.5625 Z M 26.828125 -28.5625 "/></g></g></g><g fill="#a6a6a6" fill-opacity="0.502"><g transform="translate(71.0401, 128.979875)"><g><path d="M 7.53125 -46.65625 C 7.570312 -47.125 7.664062 -47.421875 7.8125 -47.546875 C 7.96875 -47.679688 8.238281 -47.75 8.625 -47.75 L 43.625 -47.75 C 44.269531 -47.75 44.59375 -47.359375 44.59375 -46.578125 C 44.59375 -46.328125 44.570312 -46.132812 44.53125 -46 L 43.4375 -38.546875 C 43.34375 -38.023438 43.1875 -37.664062 42.96875 -37.46875 C 42.757812 -37.28125 42.378906 -37.1875 41.828125 -37.1875 L 21.875 -37.1875 C 21.488281 -37.1875 21.195312 -37.109375 21 -36.953125 C 20.8125 -36.804688 20.695312 -36.5 20.65625 -36.03125 L 19.8125 -30.109375 L 19.75 -29.65625 C 19.75 -29.445312 19.800781 -29.304688 19.90625 -29.234375 C 20.019531 -29.171875 20.226562 -29.140625 20.53125 -29.140625 L 32.6875 -29.140625 C 33.113281 -29.140625 33.390625 -29.054688 33.515625 -28.890625 C 33.648438 -28.722656 33.675781 -28.441406 33.59375 -28.046875 L 32.421875 -19.625 C 32.378906 -19.28125 32.296875 -19.050781 32.171875 -18.9375 C 32.046875 -18.832031 31.789062 -18.78125 31.40625 -18.78125 L 18.984375 -18.78125 C 18.679688 -18.78125 18.460938 -18.707031 18.328125 -18.5625 C 18.203125 -18.414062 18.097656 -18.148438 18.015625 -17.765625 L 17.109375 -11.390625 L 17.109375 -11.0625 C 17.109375 -10.71875 17.257812 -10.546875 17.5625 -10.546875 L 39 -10.546875 C 39.425781 -10.546875 39.703125 -10.457031 39.828125 -10.28125 C 39.953125 -10.113281 39.972656 -9.796875 39.890625 -9.328125 L 38.796875 -1.03125 C 38.710938 -0.644531 38.582031 -0.375 38.40625 -0.21875 C 38.238281 -0.0703125 37.898438 0 37.390625 0 L 2.765625 0 C 2.210938 0 1.804688 -0.113281 1.546875 -0.34375 C 1.285156 -0.582031 1.15625 -0.941406 1.15625 -1.421875 L 1.21875 -2 Z M 7.53125 -46.65625 "/></g></g></g><g fill="#a6a6a6" fill-opacity="0.502"><g transform="translate(114.215316, 128.979875)"><g><path d="M 34.6875 -35.515625 C 32.40625 -37.492188 29.460938 -38.484375 25.859375 -38.484375 C 23.722656 -38.484375 22.019531 -38.140625 20.75 -37.453125 C 19.488281 -36.765625 18.859375 -35.773438 18.859375 -34.484375 C 18.859375 -32.984375 20.144531 -31.847656 22.71875 -31.078125 L 33.015625 -27.734375 C 36.441406 -26.617188 38.988281 -25.171875 40.65625 -23.390625 C 42.332031 -21.609375 43.171875 -19.367188 43.171875 -16.671875 C 43.171875 -13.066406 42.179688 -9.953125 40.203125 -7.328125 C 38.234375 -4.710938 35.546875 -2.726562 32.140625 -1.375 C 28.734375 -0.03125 24.90625 0.640625 20.65625 0.640625 C 15.757812 0.640625 11.609375 -0.160156 8.203125 -1.765625 C 4.796875 -3.378906 2.316406 -5.597656 0.765625 -8.421875 C 0.515625 -9.023438 0.390625 -9.367188 0.390625 -9.453125 C 0.390625 -9.710938 0.582031 -9.972656 0.96875 -10.234375 L 7.78125 -14.40625 C 8.125 -14.625 8.488281 -14.734375 8.875 -14.734375 C 9.476562 -14.734375 10.035156 -14.410156 10.546875 -13.765625 C 11.710938 -12.484375 12.722656 -11.519531 13.578125 -10.875 C 14.429688 -10.226562 15.5 -9.722656 16.78125 -9.359375 C 18.070312 -8.992188 19.789062 -8.8125 21.9375 -8.8125 C 23.957031 -8.8125 25.617188 -9.144531 26.921875 -9.8125 C 28.234375 -10.476562 28.890625 -11.582031 28.890625 -13.125 C 28.890625 -14.664062 27.582031 -15.820312 24.96875 -16.59375 L 15.5 -19.5 C 12.238281 -20.476562 9.707031 -22.019531 7.90625 -24.125 C 6.113281 -26.226562 5.21875 -28.695312 5.21875 -31.53125 C 5.21875 -34.832031 6.179688 -37.769531 8.109375 -40.34375 C 10.035156 -42.914062 12.617188 -44.898438 15.859375 -46.296875 C 19.097656 -47.691406 22.601562 -48.390625 26.375 -48.390625 C 30.363281 -48.390625 33.910156 -47.691406 37.015625 -46.296875 C 40.128906 -44.898438 42.460938 -43.171875 44.015625 -41.109375 C 44.359375 -40.640625 44.53125 -40.253906 44.53125 -39.953125 C 44.53125 -39.648438 44.378906 -39.414062 44.078125 -39.25 L 36.671875 -34.484375 C 36.460938 -34.316406 36.226562 -34.304688 35.96875 -34.453125 C 35.707031 -34.609375 35.445312 -34.800781 35.1875 -35.03125 C 34.9375 -35.269531 34.769531 -35.429688 34.6875 -35.515625 Z M 34.6875 -35.515625 "/></g></g></g><g fill="#a6a6a6" fill-opacity="0.502"><g transform="translate(159.320856, 128.979875)"><g><path d="M 44.203125 -18.46875 C 43.210938 -11.4375 40.796875 -6.492188 36.953125 -3.640625 C 33.117188 -0.785156 27.941406 0.640625 21.421875 0.640625 C 14.898438 0.640625 10.179688 -0.675781 7.265625 -3.3125 C 4.347656 -5.945312 2.890625 -9.863281 2.890625 -15.0625 C 2.890625 -16.476562 3.039062 -18.300781 3.34375 -20.53125 L 7.015625 -46.65625 C 7.054688 -47.125 7.148438 -47.421875 7.296875 -47.546875 C 7.453125 -47.679688 7.722656 -47.75 8.109375 -47.75 L 20.328125 -47.75 C 20.710938 -47.75 21.023438 -47.566406 21.265625 -47.203125 C 21.503906 -46.835938 21.578125 -46.4375 21.484375 -46 L 17.625 -18.203125 C 17.457031 -16.835938 17.375 -15.914062 17.375 -15.4375 C 17.375 -13.34375 17.84375 -11.84375 18.78125 -10.9375 C 19.726562 -10.039062 21.125 -9.59375 22.96875 -9.59375 C 25.332031 -9.59375 27.359375 -10.351562 29.046875 -11.875 C 30.742188 -13.394531 31.828125 -15.828125 32.296875 -19.171875 L 36.15625 -46.65625 C 36.195312 -47.125 36.289062 -47.421875 36.4375 -47.546875 C 36.59375 -47.679688 36.863281 -47.75 37.25 -47.75 L 46.90625 -47.75 C 47.289062 -47.75 47.597656 -47.566406 47.828125 -47.203125 C 48.066406 -46.835938 48.144531 -46.4375 48.0625 -46 Z M 44.203125 -18.46875 "/></g></g></g><g fill="#a6a6a6" fill-opacity="0.502"><g transform="translate(206.163706, 128.979875)"><g><path d="M 7.46875 -46.453125 C 7.507812 -46.921875 7.625 -47.253906 7.8125 -47.453125 C 8.007812 -47.648438 8.28125 -47.75 8.625 -47.75 L 21.234375 -47.75 C 21.785156 -47.75 22.0625 -47.359375 22.0625 -46.578125 C 22.0625 -46.328125 22.039062 -46.132812 22 -46 L 17.1875 -11.640625 L 17.109375 -11.328125 C 17.109375 -10.804688 17.367188 -10.546875 17.890625 -10.546875 L 37.453125 -10.546875 C 38.222656 -10.546875 38.539062 -10.007812 38.40625 -8.9375 L 37.3125 -1.03125 C 37.269531 -0.601562 37.140625 -0.320312 36.921875 -0.1875 C 36.710938 -0.0625 36.351562 0 35.84375 0 L 2.765625 0 C 1.609375 0 1.09375 -0.664062 1.21875 -2 Z M 7.46875 -46.453125 "/></g></g></g><g fill="#a6a6a6" fill-opacity="0.502"><g transform="translate(247.537266, 128.979875)"><g><path d="M 5.984375 -46.65625 C 6.066406 -47.082031 6.203125 -47.367188 6.390625 -47.515625 C 6.585938 -47.671875 6.945312 -47.75 7.46875 -47.75 L 46.578125 -47.75 C 47.097656 -47.75 47.421875 -47.671875 47.546875 -47.515625 C 47.679688 -47.367188 47.703125 -47.082031 47.609375 -46.65625 L 46.453125 -38.21875 C 46.410156 -37.875 46.289062 -37.648438 46.09375 -37.546875 C 45.90625 -37.441406 45.597656 -37.390625 45.171875 -37.390625 L 33.78125 -37.390625 C 33.351562 -37.390625 33.070312 -37.320312 32.9375 -37.1875 C 32.8125 -37.0625 32.707031 -36.785156 32.625 -36.359375 L 27.671875 -1.21875 C 27.628906 -0.75 27.507812 -0.425781 27.3125 -0.25 C 27.125 -0.0820312 26.832031 0 26.4375 0 L 14.34375 0 C 13.488281 0 13.0625 -0.34375 13.0625 -1.03125 C 13.0625 -1.289062 13.082031 -1.503906 13.125 -1.671875 L 18.078125 -36.609375 L 18.078125 -36.796875 C 18.078125 -37.191406 17.863281 -37.390625 17.4375 -37.390625 L 5.921875 -37.390625 C 5.453125 -37.390625 5.140625 -37.460938 4.984375 -37.609375 C 4.835938 -37.753906 4.785156 -38.019531 4.828125 -38.40625 Z M 5.984375 -46.65625 "/></g></g></g><g fill="#a6a6a6" fill-opacity="0.502"><g transform="translate(292.835842, 128.979875)"><g><path d="M 34.6875 -35.515625 C 32.40625 -37.492188 29.460938 -38.484375 25.859375 -38.484375 C 23.722656 -38.484375 22.019531 -38.140625 20.75 -37.453125 C 19.488281 -36.765625 18.859375 -35.773438 18.859375 -34.484375 C 18.859375 -32.984375 20.144531 -31.847656 22.71875 -31.078125 L 33.015625 -27.734375 C 36.441406 -26.617188 38.988281 -25.171875 40.65625 -23.390625 C 42.332031 -21.609375 43.171875 -19.367188 43.171875 -16.671875 C 43.171875 -13.066406 42.179688 -9.953125 40.203125 -7.328125 C 38.234375 -4.710938 35.546875 -2.726562 32.140625 -1.375 C 28.734375 -0.03125 24.90625 0.640625 20.65625 0.640625 C 15.757812 0.640625 11.609375 -0.160156 8.203125 -1.765625 C 4.796875 -3.378906 2.316406 -5.597656 0.765625 -8.421875 C 0.515625 -9.023438 0.390625 -9.367188 0.390625 -9.453125 C 0.390625 -9.710938 0.582031 -9.972656 0.96875 -10.234375 L 7.78125 -14.40625 C 8.125 -14.625 8.488281 -14.734375 8.875 -14.734375 C 9.476562 -14.734375 10.035156 -14.410156 10.546875 -13.765625 C 11.710938 -12.484375 12.722656 -11.519531 13.578125 -10.875 C 14.429688 -10.226562 15.5 -9.722656 16.78125 -9.359375 C 18.070312 -8.992188 19.789062 -8.8125 21.9375 -8.8125 C 23.957031 -8.8125 25.617188 -9.144531 26.921875 -9.8125 C 28.234375 -10.476562 28.890625 -11.582031 28.890625 -13.125 C 28.890625 -14.664062 27.582031 -15.820312 24.96875 -16.59375 L 15.5 -19.5 C 12.238281 -20.476562 9.707031 -22.019531 7.90625 -24.125 C 6.113281 -26.226562 5.21875 -28.695312 5.21875 -31.53125 C 5.21875 -34.832031 6.179688 -37.769531 8.109375 -40.34375 C 10.035156 -42.914062 12.617188 -44.898438 15.859375 -46.296875 C 19.097656 -47.691406 22.601562 -48.390625 26.375 -48.390625 C 30.363281 -48.390625 33.910156 -47.691406 37.015625 -46.296875 C 40.128906 -44.898438 42.460938 -43.171875 44.015625 -41.109375 C 44.359375 -40.640625 44.53125 -40.253906 44.53125 -39.953125 C 44.53125 -39.648438 44.378906 -39.414062 44.078125 -39.25 L 36.671875 -34.484375 C 36.460938 -34.316406 36.226562 -34.304688 35.96875 -34.453125 C 35.707031 -34.609375 35.445312 -34.800781 35.1875 -35.03125 C 34.9375 -35.269531 34.769531 -35.429688 34.6875 -35.515625 Z M 34.6875 -35.515625 "/></g></g></g><g fill="#333333" fill-opacity="1"><g transform="translate(19.507329, 124.997733)"><g><path d="M 42.921875 -1.734375 C 43.003906 -1.523438 43.046875 -1.269531 43.046875 -0.96875 C 43.046875 -0.320312 42.640625 0 41.828125 0 L 29.34375 0 C 28.875 0 28.507812 -0.113281 28.25 -0.34375 C 27.988281 -0.582031 27.796875 -1.023438 27.671875 -1.671875 L 23.9375 -18.28125 C 23.851562 -18.53125 23.753906 -18.707031 23.640625 -18.8125 C 23.535156 -18.925781 23.3125 -18.984375 22.96875 -18.984375 L 19.109375 -18.984375 C 18.765625 -18.984375 18.523438 -18.914062 18.390625 -18.78125 C 18.265625 -18.65625 18.179688 -18.460938 18.140625 -18.203125 L 15.765625 -1.484375 C 15.679688 -0.835938 15.476562 -0.425781 15.15625 -0.25 C 14.832031 -0.0820312 14.265625 0 13.453125 0 L 2.640625 0 C 1.523438 0 1.050781 -0.664062 1.21875 -2 L 7.53125 -46.65625 C 7.570312 -47.125 7.664062 -47.421875 7.8125 -47.546875 C 7.96875 -47.679688 8.238281 -47.75 8.625 -47.75 L 30.109375 -47.75 C 35.816406 -47.75 40.242188 -46.664062 43.390625 -44.5 C 46.546875 -42.332031 48.125 -39.316406 48.125 -35.453125 C 48.125 -32.316406 47.210938 -29.421875 45.390625 -26.765625 C 43.566406 -24.109375 41.195312 -22.203125 38.28125 -21.046875 C 37.726562 -20.828125 37.394531 -20.628906 37.28125 -20.453125 C 37.175781 -20.285156 37.164062 -20.050781 37.25 -19.75 Z M 26.828125 -28.5625 C 28.585938 -28.5625 30.054688 -29.160156 31.234375 -30.359375 C 32.421875 -31.566406 33.015625 -32.960938 33.015625 -34.546875 C 33.015625 -35.753906 32.570312 -36.664062 31.6875 -37.28125 C 30.8125 -37.90625 29.6875 -38.21875 28.3125 -38.21875 L 21.75 -38.21875 C 21.445312 -38.21875 21.226562 -38.128906 21.09375 -37.953125 C 20.96875 -37.785156 20.863281 -37.445312 20.78125 -36.9375 L 19.6875 -29.53125 L 19.6875 -29.21875 C 19.6875 -28.957031 19.738281 -28.78125 19.84375 -28.6875 C 19.957031 -28.601562 20.140625 -28.5625 20.390625 -28.5625 Z M 26.828125 -28.5625 "/></g></g></g><g fill="#333333" fill-opacity="1"><g transform="translate(67.057958, 124.997733)"><g><path d="M 7.53125 -46.65625 C 7.570312 -47.125 7.664062 -47.421875 7.8125 -47.546875 C 7.96875 -47.679688 8.238281 -47.75 8.625 -47.75 L 43.625 -47.75 C 44.269531 -47.75 44.59375 -47.359375 44.59375 -46.578125 C 44.59375 -46.328125 44.570312 -46.132812 44.53125 -46 L 43.4375 -38.546875 C 43.34375 -38.023438 43.1875 -37.664062 42.96875 -37.46875 C 42.757812 -37.28125 42.378906 -37.1875 41.828125 -37.1875 L 21.875 -37.1875 C 21.488281 -37.1875 21.195312 -37.109375 21 -36.953125 C 20.8125 -36.804688 20.695312 -36.5 20.65625 -36.03125 L 19.8125 -30.109375 L 19.75 -29.65625 C 19.75 -29.445312 19.800781 -29.304688 19.90625 -29.234375 C 20.019531 -29.171875 20.226562 -29.140625 20.53125 -29.140625 L 32.6875 -29.140625 C 33.113281 -29.140625 33.390625 -29.054688 33.515625 -28.890625 C 33.648438 -28.722656 33.675781 -28.441406 33.59375 -28.046875 L 32.421875 -19.625 C 32.378906 -19.28125 32.296875 -19.050781 32.171875 -18.9375 C 32.046875 -18.832031 31.789062 -18.78125 31.40625 -18.78125 L 18.984375 -18.78125 C 18.679688 -18.78125 18.460938 -18.707031 18.328125 -18.5625 C 18.203125 -18.414062 18.097656 -18.148438 18.015625 -17.765625 L 17.109375 -11.390625 L 17.109375 -11.0625 C 17.109375 -10.71875 17.257812 -10.546875 17.5625 -10.546875 L 39 -10.546875 C 39.425781 -10.546875 39.703125 -10.457031 39.828125 -10.28125 C 39.953125 -10.113281 39.972656 -9.796875 39.890625 -9.328125 L 38.796875 -1.03125 C 38.710938 -0.644531 38.582031 -0.375 38.40625 -0.21875 C 38.238281 -0.0703125 37.898438 0 37.390625 0 L 2.765625 0 C 2.210938 0 1.804688 -0.113281 1.546875 -0.34375 C 1.285156 -0.582031 1.15625 -0.941406 1.15625 -1.421875 L 1.21875 -2 Z M 7.53125 -46.65625 "/></g></g></g><g fill="#333333" fill-opacity="1"><g transform="translate(110.233174, 124.997733)"><g><path d="M 34.6875 -35.515625 C 32.40625 -37.492188 29.460938 -38.484375 25.859375 -38.484375 C 23.722656 -38.484375 22.019531 -38.140625 20.75 -37.453125 C 19.488281 -36.765625 18.859375 -35.773438 18.859375 -34.484375 C 18.859375 -32.984375 20.144531 -31.847656 22.71875 -31.078125 L 33.015625 -27.734375 C 36.441406 -26.617188 38.988281 -25.171875 40.65625 -23.390625 C 42.332031 -21.609375 43.171875 -19.367188 43.171875 -16.671875 C 43.171875 -13.066406 42.179688 -9.953125 40.203125 -7.328125 C 38.234375 -4.710938 35.546875 -2.726562 32.140625 -1.375 C 28.734375 -0.03125 24.90625 0.640625 20.65625 0.640625 C 15.757812 0.640625 11.609375 -0.160156 8.203125 -1.765625 C 4.796875 -3.378906 2.316406 -5.597656 0.765625 -8.421875 C 0.515625 -9.023438 0.390625 -9.367188 0.390625 -9.453125 C 0.390625 -9.710938 0.582031 -9.972656 0.96875 -10.234375 L 7.78125 -14.40625 C 8.125 -14.625 8.488281 -14.734375 8.875 -14.734375 C 9.476562 -14.734375 10.035156 -14.410156 10.546875 -13.765625 C 11.710938 -12.484375 12.722656 -11.519531 13.578125 -10.875 C 14.429688 -10.226562 15.5 -9.722656 16.78125 -9.359375 C 18.070312 -8.992188 19.789062 -8.8125 21.9375 -8.8125 C 23.957031 -8.8125 25.617188 -9.144531 26.921875 -9.8125 C 28.234375 -10.476562 28.890625 -11.582031 28.890625 -13.125 C 28.890625 -14.664062 27.582031 -15.820312 24.96875 -16.59375 L 15.5 -19.5 C 12.238281 -20.476562 9.707031 -22.019531 7.90625 -24.125 C 6.113281 -26.226562 5.21875 -28.695312 5.21875 -31.53125 C 5.21875 -34.832031 6.179688 -37.769531 8.109375 -40.34375 C 10.035156 -42.914062 12.617188 -44.898438 15.859375 -46.296875 C 19.097656 -47.691406 22.601562 -48.390625 26.375 -48.390625 C 30.363281 -48.390625 33.910156 -47.691406 37.015625 -46.296875 C 40.128906 -44.898438 42.460938 -43.171875 44.015625 -41.109375 C 44.359375 -40.640625 44.53125 -40.253906 44.53125 -39.953125 C 44.53125 -39.648438 44.378906 -39.414062 44.078125 -39.25 L 36.671875 -34.484375 C 36.460938 -34.316406 36.226562 -34.304688 35.96875 -34.453125 C 35.707031 -34.609375 35.445312 -34.800781 35.1875 -35.03125 C 34.9375 -35.269531 34.769531 -35.429688 34.6875 -35.515625 Z M 34.6875 -35.515625 "/></g></g></g><g fill="#333333" fill-opacity="1"><g transform="translate(155.338714, 124.997733)"><g><path d="M 44.203125 -18.46875 C 43.210938 -11.4375 40.796875 -6.492188 36.953125 -3.640625 C 33.117188 -0.785156 27.941406 0.640625 21.421875 0.640625 C 14.898438 0.640625 10.179688 -0.675781 7.265625 -3.3125 C 4.347656 -5.945312 2.890625 -9.863281 2.890625 -15.0625 C 2.890625 -16.476562 3.039062 -18.300781 3.34375 -20.53125 L 7.015625 -46.65625 C 7.054688 -47.125 7.148438 -47.421875 7.296875 -47.546875 C 7.453125 -47.679688 7.722656 -47.75 8.109375 -47.75 L 20.328125 -47.75 C 20.710938 -47.75 21.023438 -47.566406 21.265625 -47.203125 C 21.503906 -46.835938 21.578125 -46.4375 21.484375 -46 L 17.625 -18.203125 C 17.457031 -16.835938 17.375 -15.914062 17.375 -15.4375 C 17.375 -13.34375 17.84375 -11.84375 18.78125 -10.9375 C 19.726562 -10.039062 21.125 -9.59375 22.96875 -9.59375 C 25.332031 -9.59375 27.359375 -10.351562 29.046875 -11.875 C 30.742188 -13.394531 31.828125 -15.828125 32.296875 -19.171875 L 36.15625 -46.65625 C 36.195312 -47.125 36.289062 -47.421875 36.4375 -47.546875 C 36.59375 -47.679688 36.863281 -47.75 37.25 -47.75 L 46.90625 -47.75 C 47.289062 -47.75 47.597656 -47.566406 47.828125 -47.203125 C 48.066406 -46.835938 48.144531 -46.4375 48.0625 -46 Z M 44.203125 -18.46875 "/></g></g></g><g fill="#333333" fill-opacity="1"><g transform="translate(202.181564, 124.997733)"><g><path d="M 7.46875 -46.453125 C 7.507812 -46.921875 7.625 -47.253906 7.8125 -47.453125 C 8.007812 -47.648438 8.28125 -47.75 8.625 -47.75 L 21.234375 -47.75 C 21.785156 -47.75 22.0625 -47.359375 22.0625 -46.578125 C 22.0625 -46.328125 22.039062 -46.132812 22 -46 L 17.1875 -11.640625 L 17.109375 -11.328125 C 17.109375 -10.804688 17.367188 -10.546875 17.890625 -10.546875 L 37.453125 -10.546875 C 38.222656 -10.546875 38.539062 -10.007812 38.40625 -8.9375 L 37.3125 -1.03125 C 37.269531 -0.601562 37.140625 -0.320312 36.921875 -0.1875 C 36.710938 -0.0625 36.351562 0 35.84375 0 L 2.765625 0 C 1.609375 0 1.09375 -0.664062 1.21875 -2 Z M 7.46875 -46.453125 "/></g></g></g><g fill="#333333" fill-opacity="1"><g transform="translate(243.555124, 124.997733)"><g><path d="M 5.984375 -46.65625 C 6.066406 -47.082031 6.203125 -47.367188 6.390625 -47.515625 C 6.585938 -47.671875 6.945312 -47.75 7.46875 -47.75 L 46.578125 -47.75 C 47.097656 -47.75 47.421875 -47.671875 47.546875 -47.515625 C 47.679688 -47.367188 47.703125 -47.082031 47.609375 -46.65625 L 46.453125 -38.21875 C 46.410156 -37.875 46.289062 -37.648438 46.09375 -37.546875 C 45.90625 -37.441406 45.597656 -37.390625 45.171875 -37.390625 L 33.78125 -37.390625 C 33.351562 -37.390625 33.070312 -37.320312 32.9375 -37.1875 C 32.8125 -37.0625 32.707031 -36.785156 32.625 -36.359375 L 27.671875 -1.21875 C 27.628906 -0.75 27.507812 -0.425781 27.3125 -0.25 C 27.125 -0.0820312 26.832031 0 26.4375 0 L 14.34375 0 C 13.488281 0 13.0625 -0.34375 13.0625 -1.03125 C 13.0625 -1.289062 13.082031 -1.503906 13.125 -1.671875 L 18.078125 -36.609375 L 18.078125 -36.796875 C 18.078125 -37.191406 17.863281 -37.390625 17.4375 -37.390625 L 5.921875 -37.390625 C 5.453125 -37.390625 5.140625 -37.460938 4.984375 -37.609375 C 4.835938 -37.753906 4.785156 -38.019531 4.828125 -38.40625 Z M 5.984375 -46.65625 "/></g></g></g><g fill="#333333" fill-opacity="1"><g transform="translate(288.8537, 124.997733)"><g><path d="M 34.6875 -35.515625 C 32.40625 -37.492188 29.460938 -38.484375 25.859375 -38.484375 C 23.722656 -38.484375 22.019531 -38.140625 20.75 -37.453125 C 19.488281 -36.765625 18.859375 -35.773438 18.859375 -34.484375 C 18.859375 -32.984375 20.144531 -31.847656 22.71875 -31.078125 L 33.015625 -27.734375 C 36.441406 -26.617188 38.988281 -25.171875 40.65625 -23.390625 C 42.332031 -21.609375 43.171875 -19.367188 43.171875 -16.671875 C 43.171875 -13.066406 42.179688 -9.953125 40.203125 -7.328125 C 38.234375 -4.710938 35.546875 -2.726562 32.140625 -1.375 C 28.734375 -0.03125 24.90625 0.640625 20.65625 0.640625 C 15.757812 0.640625 11.609375 -0.160156 8.203125 -1.765625 C 4.796875 -3.378906 2.316406 -5.597656 0.765625 -8.421875 C 0.515625 -9.023438 0.390625 -9.367188 0.390625 -9.453125 C 0.390625 -9.710938 0.582031 -9.972656 0.96875 -10.234375 L 7.78125 -14.40625 C 8.125 -14.625 8.488281 -14.734375 8.875 -14.734375 C 9.476562 -14.734375 10.035156 -14.410156 10.546875 -13.765625 C 11.710938 -12.484375 12.722656 -11.519531 13.578125 -10.875 C 14.429688 -10.226562 15.5 -9.722656 16.78125 -9.359375 C 18.070312 -8.992188 19.789062 -8.8125 21.9375 -8.8125 C 23.957031 -8.8125 25.617188 -9.144531 26.921875 -9.8125 C 28.234375 -10.476562 28.890625 -11.582031 28.890625 -13.125 C 28.890625 -14.664062 27.582031 -15.820312 24.96875 -16.59375 L 15.5 -19.5 C 12.238281 -20.476562 9.707031 -22.019531 7.90625 -24.125 C 6.113281 -26.226562 5.21875 -28.695312 5.21875 -31.53125 C 5.21875 -34.832031 6.179688 -37.769531 8.109375 -40.34375 C 10.035156 -42.914062 12.617188 -44.898438 15.859375 -46.296875 C 19.097656 -47.691406 22.601562 -48.390625 26.375 -48.390625 C 30.363281 -48.390625 33.910156 -47.691406 37.015625 -46.296875 C 40.128906 -44.898438 42.460938 -43.171875 44.015625 -41.109375 C 44.359375 -40.640625 44.53125 -40.253906 44.53125 -39.953125 C 44.53125 -39.648438 44.378906 -39.414062 44.078125 -39.25 L 36.671875 -34.484375 C 36.460938 -34.316406 36.226562 -34.304688 35.96875 -34.453125 C 35.707031 -34.609375 35.445312 -34.800781 35.1875 -35.03125 C 34.9375 -35.269531 34.769531 -35.429688 34.6875 -35.515625 Z M 34.6875 -35.515625 "/></g></g></g><g fill="#a6a6a6" fill-opacity="0.302"><g transform="translate(161.745683, 68.762424)"><g><path d="M 23.15625 0.640625 C 18.914062 0.640625 15.257812 -0.179688 12.1875 -1.828125 C 9.125 -3.484375 6.773438 -5.832031 5.140625 -8.875 C 3.515625 -11.925781 2.703125 -15.53125 2.703125 -19.6875 C 2.703125 -21.488281 2.8125 -23.078125 3.03125 -24.453125 C 3.707031 -29.253906 5.222656 -33.46875 7.578125 -37.09375 C 9.941406 -40.71875 12.96875 -43.503906 16.65625 -45.453125 C 20.351562 -47.410156 24.472656 -48.390625 29.015625 -48.390625 C 33.179688 -48.390625 36.796875 -47.539062 39.859375 -45.84375 C 42.929688 -44.144531 45.28125 -41.738281 46.90625 -38.625 C 48.539062 -35.519531 49.359375 -31.890625 49.359375 -27.734375 C 49.359375 -25.929688 49.25 -24.363281 49.03125 -23.03125 C 48.34375 -18.226562 46.828125 -14.046875 44.484375 -10.484375 C 42.148438 -6.921875 39.148438 -4.175781 35.484375 -2.25 C 31.816406 -0.320312 27.707031 0.640625 23.15625 0.640625 Z M 23.546875 -9.390625 C 26.460938 -9.390625 28.734375 -10.546875 30.359375 -12.859375 C 31.992188 -15.179688 33.175781 -18.976562 33.90625 -24.25 C 34.25 -26.875 34.421875 -29 34.421875 -30.625 C 34.421875 -33.414062 33.96875 -35.421875 33.0625 -36.640625 C 32.164062 -37.867188 30.710938 -38.484375 28.703125 -38.484375 C 25.785156 -38.484375 23.488281 -37.25 21.8125 -34.78125 C 20.132812 -32.3125 18.910156 -28.332031 18.140625 -22.84375 C 17.796875 -20.3125 17.625 -18.273438 17.625 -16.734375 C 17.625 -14.066406 18.082031 -12.175781 19 -11.0625 C 19.925781 -9.945312 21.441406 -9.390625 23.546875 -9.390625 Z M 23.546875 -9.390625 "/></g></g></g><g fill="#a6a6a6" fill-opacity="0.302"><g transform="translate(211.934437, 68.762424)"><g><path d="M 18.984375 -17.109375 C 18.554688 -17.109375 18.265625 -17.019531 18.109375 -16.84375 C 17.960938 -16.675781 17.867188 -16.398438 17.828125 -16.015625 L 15.765625 -1.484375 C 15.679688 -0.835938 15.507812 -0.425781 15.25 -0.25 C 14.988281 -0.0820312 14.472656 0 13.703125 0 L 2.3125 0 C 1.882812 0 1.582031 -0.0820312 1.40625 -0.25 C 1.238281 -0.425781 1.15625 -0.726562 1.15625 -1.15625 C 1.15625 -1.5 1.175781 -1.78125 1.21875 -2 L 7.53125 -46.65625 C 7.570312 -47.125 7.664062 -47.421875 7.8125 -47.546875 C 7.96875 -47.679688 8.238281 -47.75 8.625 -47.75 L 29.921875 -47.75 C 33.222656 -47.75 36.203125 -47.222656 38.859375 -46.171875 C 41.523438 -45.117188 43.628906 -43.550781 45.171875 -41.46875 C 46.710938 -39.382812 47.484375 -36.863281 47.484375 -33.90625 C 47.484375 -30.476562 46.625 -27.5 44.90625 -24.96875 C 43.195312 -22.4375 40.847656 -20.492188 37.859375 -19.140625 C 34.878906 -17.785156 31.523438 -17.109375 27.796875 -17.109375 Z M 32.625 -33.84375 C 32.625 -35 32.210938 -35.890625 31.390625 -36.515625 C 30.578125 -37.140625 29.488281 -37.453125 28.125 -37.453125 L 22.140625 -37.453125 C 21.617188 -37.453125 21.25 -37.34375 21.03125 -37.125 C 20.820312 -36.90625 20.675781 -36.539062 20.59375 -36.03125 L 19.5625 -28.4375 L 19.5 -28.046875 C 19.5 -27.796875 19.5625 -27.625 19.6875 -27.53125 C 19.8125 -27.445312 20.003906 -27.40625 20.265625 -27.40625 L 26.578125 -27.40625 C 27.691406 -27.40625 28.707031 -27.71875 29.625 -28.34375 C 30.550781 -28.96875 31.28125 -29.78125 31.8125 -30.78125 C 32.351562 -31.789062 32.625 -32.8125 32.625 -33.84375 Z M 32.625 -33.84375 "/></g></g></g><g fill="#a6a6a6" fill-opacity="0.302"><g transform="translate(258.970323, 68.762424)"><g><path d="M 7.53125 -46.65625 C 7.570312 -47.125 7.664062 -47.421875 7.8125 -47.546875 C 7.96875 -47.679688 8.238281 -47.75 8.625 -47.75 L 43.625 -47.75 C 44.269531 -47.75 44.59375 -47.359375 44.59375 -46.578125 C 44.59375 -46.328125 44.570312 -46.132812 44.53125 -46 L 43.4375 -38.546875 C 43.34375 -38.023438 43.1875 -37.664062 42.96875 -37.46875 C 42.757812 -37.28125 42.378906 -37.1875 41.828125 -37.1875 L 21.875 -37.1875 C 21.488281 -37.1875 21.195312 -37.109375 21 -36.953125 C 20.8125 -36.804688 20.695312 -36.5 20.65625 -36.03125 L 19.8125 -30.109375 L 19.75 -29.65625 C 19.75 -29.445312 19.800781 -29.304688 19.90625 -29.234375 C 20.019531 -29.171875 20.226562 -29.140625 20.53125 -29.140625 L 32.6875 -29.140625 C 33.113281 -29.140625 33.390625 -29.054688 33.515625 -28.890625 C 33.648438 -28.722656 33.675781 -28.441406 33.59375 -28.046875 L 32.421875 -19.625 C 32.378906 -19.28125 32.296875 -19.050781 32.171875 -18.9375 C 32.046875 -18.832031 31.789062 -18.78125 31.40625 -18.78125 L 18.984375 -18.78125 C 18.679688 -18.78125 18.460938 -18.707031 18.328125 -18.5625 C 18.203125 -18.414062 18.097656 -18.148438 18.015625 -17.765625 L 17.109375 -11.390625 L 17.109375 -11.0625 C 17.109375 -10.71875 17.257812 -10.546875 17.5625 -10.546875 L 39 -10.546875 C 39.425781 -10.546875 39.703125 -10.457031 39.828125 -10.28125 C 39.953125 -10.113281 39.972656 -9.796875 39.890625 -9.328125 L 38.796875 -1.03125 C 38.710938 -0.644531 38.582031 -0.375 38.40625 -0.21875 C 38.238281 -0.0703125 37.898438 0 37.390625 0 L 2.765625 0 C 2.210938 0 1.804688 -0.113281 1.546875 -0.34375 C 1.285156 -0.582031 1.15625 -0.941406 1.15625 -1.421875 L 1.21875 -2 Z M 7.53125 -46.65625 "/></g></g></g><g fill="#a6a6a6" fill-opacity="0.302"><g transform="translate(302.145539, 68.762424)"><g><path d="M 49.03125 -47.75 C 49.632812 -47.75 49.890625 -47.40625 49.796875 -46.71875 L 43.296875 -0.765625 C 43.253906 -0.472656 43.132812 -0.269531 42.9375 -0.15625 C 42.75 -0.0507812 42.441406 0 42.015625 0 L 33.203125 0 C 32.898438 0 32.640625 -0.09375 32.421875 -0.28125 C 32.210938 -0.476562 31.957031 -0.8125 31.65625 -1.28125 L 17.1875 -25.28125 C 17.050781 -25.5 16.921875 -25.609375 16.796875 -25.609375 C 16.535156 -25.609375 16.382812 -25.328125 16.34375 -24.765625 L 13 -1.21875 C 12.957031 -0.707031 12.835938 -0.375 12.640625 -0.21875 C 12.453125 -0.0703125 12.054688 0 11.453125 0 L 2.1875 0 C 1.375 0 1.03125 -0.554688 1.15625 -1.671875 L 7.53125 -46.65625 C 7.570312 -47.125 7.675781 -47.421875 7.84375 -47.546875 C 8.019531 -47.679688 8.34375 -47.75 8.8125 -47.75 L 19.296875 -47.75 C 19.773438 -47.75 20.148438 -47.628906 20.421875 -47.390625 C 20.703125 -47.148438 20.992188 -46.773438 21.296875 -46.265625 L 33.84375 -24.90625 C 34.0625 -24.5625 34.273438 -24.390625 34.484375 -24.390625 C 34.617188 -24.390625 34.738281 -24.460938 34.84375 -24.609375 C 34.945312 -24.765625 35.019531 -24.96875 35.0625 -25.21875 L 38.09375 -46.78125 C 38.132812 -47.207031 38.238281 -47.472656 38.40625 -47.578125 C 38.582031 -47.691406 38.90625 -47.75 39.375 -47.75 Z M 49.03125 -47.75 "/></g></g></g><g fill="#a6a6a6" fill-opacity="0.502"><g transform="translate(157.763541, 64.780281)"><g><path d="M 23.15625 0.640625 C 18.914062 0.640625 15.257812 -0.179688 12.1875 -1.828125 C 9.125 -3.484375 6.773438 -5.832031 5.140625 -8.875 C 3.515625 -11.925781 2.703125 -15.53125 2.703125 -19.6875 C 2.703125 -21.488281 2.8125 -23.078125 3.03125 -24.453125 C 3.707031 -29.253906 5.222656 -33.46875 7.578125 -37.09375 C 9.941406 -40.71875 12.96875 -43.503906 16.65625 -45.453125 C 20.351562 -47.410156 24.472656 -48.390625 29.015625 -48.390625 C 33.179688 -48.390625 36.796875 -47.539062 39.859375 -45.84375 C 42.929688 -44.144531 45.28125 -41.738281 46.90625 -38.625 C 48.539062 -35.519531 49.359375 -31.890625 49.359375 -27.734375 C 49.359375 -25.929688 49.25 -24.363281 49.03125 -23.03125 C 48.34375 -18.226562 46.828125 -14.046875 44.484375 -10.484375 C 42.148438 -6.921875 39.148438 -4.175781 35.484375 -2.25 C 31.816406 -0.320312 27.707031 0.640625 23.15625 0.640625 Z M 23.546875 -9.390625 C 26.460938 -9.390625 28.734375 -10.546875 30.359375 -12.859375 C 31.992188 -15.179688 33.175781 -18.976562 33.90625 -24.25 C 34.25 -26.875 34.421875 -29 34.421875 -30.625 C 34.421875 -33.414062 33.96875 -35.421875 33.0625 -36.640625 C 32.164062 -37.867188 30.710938 -38.484375 28.703125 -38.484375 C 25.785156 -38.484375 23.488281 -37.25 21.8125 -34.78125 C 20.132812 -32.3125 18.910156 -28.332031 18.140625 -22.84375 C 17.796875 -20.3125 17.625 -18.273438 17.625 -16.734375 C 17.625 -14.066406 18.082031 -12.175781 19 -11.0625 C 19.925781 -9.945312 21.441406 -9.390625 23.546875 -9.390625 Z M 23.546875 -9.390625 "/></g></g></g><g fill="#a6a6a6" fill-opacity="0.502"><g transform="translate(207.952295, 64.780281)"><g><path d="M 18.984375 -17.109375 C 18.554688 -17.109375 18.265625 -17.019531 18.109375 -16.84375 C 17.960938 -16.675781 17.867188 -16.398438 17.828125 -16.015625 L 15.765625 -1.484375 C 15.679688 -0.835938 15.507812 -0.425781 15.25 -0.25 C 14.988281 -0.0820312 14.472656 0 13.703125 0 L 2.3125 0 C 1.882812 0 1.582031 -0.0820312 1.40625 -0.25 C 1.238281 -0.425781 1.15625 -0.726562 1.15625 -1.15625 C 1.15625 -1.5 1.175781 -1.78125 1.21875 -2 L 7.53125 -46.65625 C 7.570312 -47.125 7.664062 -47.421875 7.8125 -47.546875 C 7.96875 -47.679688 8.238281 -47.75 8.625 -47.75 L 29.921875 -47.75 C 33.222656 -47.75 36.203125 -47.222656 38.859375 -46.171875 C 41.523438 -45.117188 43.628906 -43.550781 45.171875 -41.46875 C 46.710938 -39.382812 47.484375 -36.863281 47.484375 -33.90625 C 47.484375 -30.476562 46.625 -27.5 44.90625 -24.96875 C 43.195312 -22.4375 40.847656 -20.492188 37.859375 -19.140625 C 34.878906 -17.785156 31.523438 -17.109375 27.796875 -17.109375 Z M 32.625 -33.84375 C 32.625 -35 32.210938 -35.890625 31.390625 -36.515625 C 30.578125 -37.140625 29.488281 -37.453125 28.125 -37.453125 L 22.140625 -37.453125 C 21.617188 -37.453125 21.25 -37.34375 21.03125 -37.125 C 20.820312 -36.90625 20.675781 -36.539062 20.59375 -36.03125 L 19.5625 -28.4375 L 19.5 -28.046875 C 19.5 -27.796875 19.5625 -27.625 19.6875 -27.53125 C 19.8125 -27.445312 20.003906 -27.40625 20.265625 -27.40625 L 26.578125 -27.40625 C 27.691406 -27.40625 28.707031 -27.71875 29.625 -28.34375 C 30.550781 -28.96875 31.28125 -29.78125 31.8125 -30.78125 C 32.351562 -31.789062 32.625 -32.8125 32.625 -33.84375 Z M 32.625 -33.84375 "/></g></g></g><g fill="#a6a6a6" fill-opacity="0.502"><g transform="translate(254.988181, 64.780281)"><g><path d="M 7.53125 -46.65625 C 7.570312 -47.125 7.664062 -47.421875 7.8125 -47.546875 C 7.96875 -47.679688 8.238281 -47.75 8.625 -47.75 L 43.625 -47.75 C 44.269531 -47.75 44.59375 -47.359375 44.59375 -46.578125 C 44.59375 -46.328125 44.570312 -46.132812 44.53125 -46 L 43.4375 -38.546875 C 43.34375 -38.023438 43.1875 -37.664062 42.96875 -37.46875 C 42.757812 -37.28125 42.378906 -37.1875 41.828125 -37.1875 L 21.875 -37.1875 C 21.488281 -37.1875 21.195312 -37.109375 21 -36.953125 C 20.8125 -36.804688 20.695312 -36.5 20.65625 -36.03125 L 19.8125 -30.109375 L 19.75 -29.65625 C 19.75 -29.445312 19.800781 -29.304688 19.90625 -29.234375 C 20.019531 -29.171875 20.226562 -29.140625 20.53125 -29.140625 L 32.6875 -29.140625 C 33.113281 -29.140625 33.390625 -29.054688 33.515625 -28.890625 C 33.648438 -28.722656 33.675781 -28.441406 33.59375 -28.046875 L 32.421875 -19.625 C 32.378906 -19.28125 32.296875 -19.050781 32.171875 -18.9375 C 32.046875 -18.832031 31.789062 -18.78125 31.40625 -18.78125 L 18.984375 -18.78125 C 18.679688 -18.78125 18.460938 -18.707031 18.328125 -18.5625 C 18.203125 -18.414062 18.097656 -18.148438 18.015625 -17.765625 L 17.109375 -11.390625 L 17.109375 -11.0625 C 17.109375 -10.71875 17.257812 -10.546875 17.5625 -10.546875 L 39 -10.546875 C 39.425781 -10.546875 39.703125 -10.457031 39.828125 -10.28125 C 39.953125 -10.113281 39.972656 -9.796875 39.890625 -9.328125 L 38.796875 -1.03125 C 38.710938 -0.644531 38.582031 -0.375 38.40625 -0.21875 C 38.238281 -0.0703125 37.898438 0 37.390625 0 L 2.765625 0 C 2.210938 0 1.804688 -0.113281 1.546875 -0.34375 C 1.285156 -0.582031 1.15625 -0.941406 1.15625 -1.421875 L 1.21875 -2 Z M 7.53125 -46.65625 "/></g></g></g><g fill="#a6a6a6" fill-opacity="0.502"><g transform="translate(298.163397, 64.780281)"><g><path d="M 49.03125 -47.75 C 49.632812 -47.75 49.890625 -47.40625 49.796875 -46.71875 L 43.296875 -0.765625 C 43.253906 -0.472656 43.132812 -0.269531 42.9375 -0.15625 C 42.75 -0.0507812 42.441406 0 42.015625 0 L 33.203125 0 C 32.898438 0 32.640625 -0.09375 32.421875 -0.28125 C 32.210938 -0.476562 31.957031 -0.8125 31.65625 -1.28125 L 17.1875 -25.28125 C 17.050781 -25.5 16.921875 -25.609375 16.796875 -25.609375 C 16.535156 -25.609375 16.382812 -25.328125 16.34375 -24.765625 L 13 -1.21875 C 12.957031 -0.707031 12.835938 -0.375 12.640625 -0.21875 C 12.453125 -0.0703125 12.054688 0 11.453125 0 L 2.1875 0 C 1.375 0 1.03125 -0.554688 1.15625 -1.671875 L 7.53125 -46.65625 C 7.570312 -47.125 7.675781 -47.421875 7.84375 -47.546875 C 8.019531 -47.679688 8.34375 -47.75 8.8125 -47.75 L 19.296875 -47.75 C 19.773438 -47.75 20.148438 -47.628906 20.421875 -47.390625 C 20.703125 -47.148438 20.992188 -46.773438 21.296875 -46.265625 L 33.84375 -24.90625 C 34.0625 -24.5625 34.273438 -24.390625 34.484375 -24.390625 C 34.617188 -24.390625 34.738281 -24.460938 34.84375 -24.609375 C 34.945312 -24.765625 35.019531 -24.96875 35.0625 -25.21875 L 38.09375 -46.78125 C 38.132812 -47.207031 38.238281 -47.472656 38.40625 -47.578125 C 38.582031 -47.691406 38.90625 -47.75 39.375 -47.75 Z M 49.03125 -47.75 "/></g></g></g><g fill="#333333" fill-opacity="1"><g transform="translate(153.781399, 60.798139)"><g><path d="M 23.15625 0.640625 C 18.914062 0.640625 15.257812 -0.179688 12.1875 -1.828125 C 9.125 -3.484375 6.773438 -5.832031 5.140625 -8.875 C 3.515625 -11.925781 2.703125 -15.53125 2.703125 -19.6875 C 2.703125 -21.488281 2.8125 -23.078125 3.03125 -24.453125 C 3.707031 -29.253906 5.222656 -33.46875 7.578125 -37.09375 C 9.941406 -40.71875 12.96875 -43.503906 16.65625 -45.453125 C 20.351562 -47.410156 24.472656 -48.390625 29.015625 -48.390625 C 33.179688 -48.390625 36.796875 -47.539062 39.859375 -45.84375 C 42.929688 -44.144531 45.28125 -41.738281 46.90625 -38.625 C 48.539062 -35.519531 49.359375 -31.890625 49.359375 -27.734375 C 49.359375 -25.929688 49.25 -24.363281 49.03125 -23.03125 C 48.34375 -18.226562 46.828125 -14.046875 44.484375 -10.484375 C 42.148438 -6.921875 39.148438 -4.175781 35.484375 -2.25 C 31.816406 -0.320312 27.707031 0.640625 23.15625 0.640625 Z M 23.546875 -9.390625 C 26.460938 -9.390625 28.734375 -10.546875 30.359375 -12.859375 C 31.992188 -15.179688 33.175781 -18.976562 33.90625 -24.25 C 34.25 -26.875 34.421875 -29 34.421875 -30.625 C 34.421875 -33.414062 33.96875 -35.421875 33.0625 -36.640625 C 32.164062 -37.867188 30.710938 -38.484375 28.703125 -38.484375 C 25.785156 -38.484375 23.488281 -37.25 21.8125 -34.78125 C 20.132812 -32.3125 18.910156 -28.332031 18.140625 -22.84375 C 17.796875 -20.3125 17.625 -18.273438 17.625 -16.734375 C 17.625 -14.066406 18.082031 -12.175781 19 -11.0625 C 19.925781 -9.945312 21.441406 -9.390625 23.546875 -9.390625 Z M 23.546875 -9.390625 "/></g></g></g><g fill="#333333" fill-opacity="1"><g transform="translate(203.970153, 60.798139)"><g><path d="M 18.984375 -17.109375 C 18.554688 -17.109375 18.265625 -17.019531 18.109375 -16.84375 C 17.960938 -16.675781 17.867188 -16.398438 17.828125 -16.015625 L 15.765625 -1.484375 C 15.679688 -0.835938 15.507812 -0.425781 15.25 -0.25 C 14.988281 -0.0820312 14.472656 0 13.703125 0 L 2.3125 0 C 1.882812 0 1.582031 -0.0820312 1.40625 -0.25 C 1.238281 -0.425781 1.15625 -0.726562 1.15625 -1.15625 C 1.15625 -1.5 1.175781 -1.78125 1.21875 -2 L 7.53125 -46.65625 C 7.570312 -47.125 7.664062 -47.421875 7.8125 -47.546875 C 7.96875 -47.679688 8.238281 -47.75 8.625 -47.75 L 29.921875 -47.75 C 33.222656 -47.75 36.203125 -47.222656 38.859375 -46.171875 C 41.523438 -45.117188 43.628906 -43.550781 45.171875 -41.46875 C 46.710938 -39.382812 47.484375 -36.863281 47.484375 -33.90625 C 47.484375 -30.476562 46.625 -27.5 44.90625 -24.96875 C 43.195312 -22.4375 40.847656 -20.492188 37.859375 -19.140625 C 34.878906 -17.785156 31.523438 -17.109375 27.796875 -17.109375 Z M 32.625 -33.84375 C 32.625 -35 32.210938 -35.890625 31.390625 -36.515625 C 30.578125 -37.140625 29.488281 -37.453125 28.125 -37.453125 L 22.140625 -37.453125 C 21.617188 -37.453125 21.25 -37.34375 21.03125 -37.125 C 20.820312 -36.90625 20.675781 -36.539062 20.59375 -36.03125 L 19.5625 -28.4375 L 19.5 -28.046875 C 19.5 -27.796875 19.5625 -27.625 19.6875 -27.53125 C 19.8125 -27.445312 20.003906 -27.40625 20.265625 -27.40625 L 26.578125 -27.40625 C 27.691406 -27.40625 28.707031 -27.71875 29.625 -28.34375 C 30.550781 -28.96875 31.28125 -29.78125 31.8125 -30.78125 C 32.351562 -31.789062 32.625 -32.8125 32.625 -33.84375 Z M 32.625 -33.84375 "/></g></g></g><g fill="#333333" fill-opacity="1"><g transform="translate(251.006039, 60.798139)"><g><path d="M 7.53125 -46.65625 C 7.570312 -47.125 7.664062 -47.421875 7.8125 -47.546875 C 7.96875 -47.679688 8.238281 -47.75 8.625 -47.75 L 43.625 -47.75 C 44.269531 -47.75 44.59375 -47.359375 44.59375 -46.578125 C 44.59375 -46.328125 44.570312 -46.132812 44.53125 -46 L 43.4375 -38.546875 C 43.34375 -38.023438 43.1875 -37.664062 42.96875 -37.46875 C 42.757812 -37.28125 42.378906 -37.1875 41.828125 -37.1875 L 21.875 -37.1875 C 21.488281 -37.1875 21.195312 -37.109375 21 -36.953125 C 20.8125 -36.804688 20.695312 -36.5 20.65625 -36.03125 L 19.8125 -30.109375 L 19.75 -29.65625 C 19.75 -29.445312 19.800781 -29.304688 19.90625 -29.234375 C 20.019531 -29.171875 20.226562 -29.140625 20.53125 -29.140625 L 32.6875 -29.140625 C 33.113281 -29.140625 33.390625 -29.054688 33.515625 -28.890625 C 33.648438 -28.722656 33.675781 -28.441406 33.59375 -28.046875 L 32.421875 -19.625 C 32.378906 -19.28125 32.296875 -19.050781 32.171875 -18.9375 C 32.046875 -18.832031 31.789062 -18.78125 31.40625 -18.78125 L 18.984375 -18.78125 C 18.679688 -18.78125 18.460938 -18.707031 18.328125 -18.5625 C 18.203125 -18.414062 18.097656 -18.148438 18.015625 -17.765625 L 17.109375 -11.390625 L 17.109375 -11.0625 C 17.109375 -10.71875 17.257812 -10.546875 17.5625 -10.546875 L 39 -10.546875 C 39.425781 -10.546875 39.703125 -10.457031 39.828125 -10.28125 C 39.953125 -10.113281 39.972656 -9.796875 39.890625 -9.328125 L 38.796875 -1.03125 C 38.710938 -0.644531 38.582031 -0.375 38.40625 -0.21875 C 38.238281 -0.0703125 37.898438 0 37.390625 0 L 2.765625 0 C 2.210938 0 1.804688 -0.113281 1.546875 -0.34375 C 1.285156 -0.582031 1.15625 -0.941406 1.15625 -1.421875 L 1.21875 -2 Z M 7.53125 -46.65625 "/></g></g></g><g fill="#333333" fill-opacity="1"><g transform="translate(294.181255, 60.798139)"><g><path d="M 49.03125 -47.75 C 49.632812 -47.75 49.890625 -47.40625 49.796875 -46.71875 L 43.296875 -0.765625 C 43.253906 -0.472656 43.132812 -0.269531 42.9375 -0.15625 C 42.75 -0.0507812 42.441406 0 42.015625 0 L 33.203125 0 C 32.898438 0 32.640625 -0.09375 32.421875 -0.28125 C 32.210938 -0.476562 31.957031 -0.8125 31.65625 -1.28125 L 17.1875 -25.28125 C 17.050781 -25.5 16.921875 -25.609375 16.796875 -25.609375 C 16.535156 -25.609375 16.382812 -25.328125 16.34375 -24.765625 L 13 -1.21875 C 12.957031 -0.707031 12.835938 -0.375 12.640625 -0.21875 C 12.453125 -0.0703125 12.054688 0 11.453125 0 L 2.1875 0 C 1.375 0 1.03125 -0.554688 1.15625 -1.671875 L 7.53125 -46.65625 C 7.570312 -47.125 7.675781 -47.421875 7.84375 -47.546875 C 8.019531 -47.679688 8.34375 -47.75 8.8125 -47.75 L 19.296875 -47.75 C 19.773438 -47.75 20.148438 -47.628906 20.421875 -47.390625 C 20.703125 -47.148438 20.992188 -46.773438 21.296875 -46.265625 L 33.84375 -24.90625 C 34.0625 -24.5625 34.273438 -24.390625 34.484375 -24.390625 C 34.617188 -24.390625 34.738281 -24.460938 34.84375 -24.609375 C 34.945312 -24.765625 35.019531 -24.96875 35.0625 -25.21875 L 38.09375 -46.78125 C 38.132812 -47.207031 38.238281 -47.472656 38.40625 -47.578125 C 38.582031 -47.691406 38.90625 -47.75 39.375 -47.75 Z M 49.03125 -47.75 "/></g></g></g><g fill="#a6a6a6" fill-opacity="0.302"><g transform="translate(352.382804, 113.061214)"><g><path d="M 2.671875 18.359375 C 1.554688 18.359375 0.738281 17.953125 0.21875 17.140625 C -0.300781 16.328125 -0.484375 15.285156 -0.328125 14.015625 L 14.578125 -92.046875 C 14.722656 -93.078125 14.941406 -93.703125 15.234375 -93.921875 C 15.535156 -94.148438 16.207031 -94.265625 17.25 -94.265625 L 27.609375 -94.265625 C 28.421875 -94.265625 29.085938 -93.96875 29.609375 -93.375 C 30.128906 -92.78125 30.3125 -92.148438 30.15625 -91.484375 L 14.90625 17.03125 C 14.832031 17.625 14.6875 17.992188 14.46875 18.140625 C 14.25 18.285156 13.765625 18.359375 13.015625 18.359375 Z M 2.671875 18.359375 "/></g></g></g><g fill="#a6a6a6" fill-opacity="0.302"><g transform="translate(379.644765, 113.061214)"><g><path d="M 2.671875 18.359375 C 1.554688 18.359375 0.738281 17.953125 0.21875 17.140625 C -0.300781 16.328125 -0.484375 15.285156 -0.328125 14.015625 L 14.578125 -92.046875 C 14.722656 -93.078125 14.941406 -93.703125 15.234375 -93.921875 C 15.535156 -94.148438 16.207031 -94.265625 17.25 -94.265625 L 27.609375 -94.265625 C 28.421875 -94.265625 29.085938 -93.96875 29.609375 -93.375 C 30.128906 -92.78125 30.3125 -92.148438 30.15625 -91.484375 L 14.90625 17.03125 C 14.832031 17.625 14.6875 17.992188 14.46875 18.140625 C 14.25 18.285156 13.765625 18.359375 13.015625 18.359375 Z M 2.671875 18.359375 "/></g></g></g><g fill="#a6a6a6" fill-opacity="0.502"><g transform="translate(348.939526, 109.617942)"><g><path d="M 2.671875 18.359375 C 1.554688 18.359375 0.738281 17.953125 0.21875 17.140625 C -0.300781 16.328125 -0.484375 15.285156 -0.328125 14.015625 L 14.578125 -92.046875 C 14.722656 -93.078125 14.941406 -93.703125 15.234375 -93.921875 C 15.535156 -94.148438 16.207031 -94.265625 17.25 -94.265625 L 27.609375 -94.265625 C 28.421875 -94.265625 29.085938 -93.96875 29.609375 -93.375 C 30.128906 -92.78125 30.3125 -92.148438 30.15625 -91.484375 L 14.90625 17.03125 C 14.832031 17.625 14.6875 17.992188 14.46875 18.140625 C 14.25 18.285156 13.765625 18.359375 13.015625 18.359375 Z M 2.671875 18.359375 "/></g></g></g><g fill="#a6a6a6" fill-opacity="0.502"><g transform="translate(376.201488, 109.617942)"><g><path d="M 2.671875 18.359375 C 1.554688 18.359375 0.738281 17.953125 0.21875 17.140625 C -0.300781 16.328125 -0.484375 15.285156 -0.328125 14.015625 L 14.578125 -92.046875 C 14.722656 -93.078125 14.941406 -93.703125 15.234375 -93.921875 C 15.535156 -94.148438 16.207031 -94.265625 17.25 -94.265625 L 27.609375 -94.265625 C 28.421875 -94.265625 29.085938 -93.96875 29.609375 -93.375 C 30.128906 -92.78125 30.3125 -92.148438 30.15625 -91.484375 L 14.90625 17.03125 C 14.832031 17.625 14.6875 17.992188 14.46875 18.140625 C 14.25 18.285156 13.765625 18.359375 13.015625 18.359375 Z M 2.671875 18.359375 "/></g></g></g><g fill="#f4b120" fill-opacity="1"><g transform="translate(345.496247, 106.174669)"><g><path d="M 2.671875 18.359375 C 1.554688 18.359375 0.738281 17.953125 0.21875 17.140625 C -0.300781 16.328125 -0.484375 15.285156 -0.328125 14.015625 L 14.578125 -92.046875 C 14.722656 -93.078125 14.941406 -93.703125 15.234375 -93.921875 C 15.535156 -94.148438 16.207031 -94.265625 17.25 -94.265625 L 27.609375 -94.265625 C 28.421875 -94.265625 29.085938 -93.96875 29.609375 -93.375 C 30.128906 -92.78125 30.3125 -92.148438 30.15625 -91.484375 L 14.90625 17.03125 C 14.832031 17.625 14.6875 17.992188 14.46875 18.140625 C 14.25 18.285156 13.765625 18.359375 13.015625 18.359375 Z M 2.671875 18.359375 "/></g></g></g><g fill="#f4b120" fill-opacity="1"><g transform="translate(372.758208, 106.174669)"><g><path d="M 2.671875 18.359375 C 1.554688 18.359375 0.738281 17.953125 0.21875 17.140625 C -0.300781 16.328125 -0.484375 15.285156 -0.328125 14.015625 L 14.578125 -92.046875 C 14.722656 -93.078125 14.941406 -93.703125 15.234375 -93.921875 C 15.535156 -94.148438 16.207031 -94.265625 17.25 -94.265625 L 27.609375 -94.265625 C 28.421875 -94.265625 29.085938 -93.96875 29.609375 -93.375 C 30.128906 -92.78125 30.3125 -92.148438 30.15625 -91.484375 L 14.90625 17.03125 C 14.832031 17.625 14.6875 17.992188 14.46875 18.140625 C 14.25 18.285156 13.765625 18.359375 13.015625 18.359375 Z M 2.671875 18.359375 "/></g></g></g><g fill="#737373" fill-opacity="1"><g transform="translate(416.783339, 36.929466)"><g><path d="M 1.816406 0 L 5.449219 0 L 5.449219 -6.175781 L 17.316406 -6.175781 L 21.132812 0 L 25.371094 0 L 21.3125 -6.539062 C 24.554688 -7.449219 26.582031 -9.960938 26.582031 -13.683594 C 26.582031 -18.40625 23.28125 -21.191406 18.46875 -21.191406 L 1.816406 -21.191406 Z M 5.449219 -9.203125 L 5.449219 -18.164062 L 16.953125 -18.164062 C 19.253906 -18.164062 22.949219 -18.164062 22.949219 -13.683594 C 22.949219 -9.203125 19.253906 -9.203125 16.953125 -9.203125 Z M 5.449219 -9.203125 "/></g></g></g><g fill="#737373" fill-opacity="1"><g transform="translate(445.145354, 36.929466)"><g><path d="M 1.816406 0 L 24.21875 0 L 24.21875 -3.027344 L 5.449219 -3.027344 L 5.449219 -9.082031 L 24.21875 -9.082031 L 24.21875 -12.109375 L 5.449219 -12.109375 L 5.449219 -18.164062 L 24.21875 -18.164062 L 24.21875 -21.191406 L 1.816406 -21.191406 Z M 1.816406 0 "/></g></g></g><g fill="#737373" fill-opacity="1"><g transform="translate(471.146408, 36.929466)"><g><path d="M 15.652344 0.304688 C 22.828125 0.304688 28.578125 -0.574219 28.578125 -6.117188 C 28.578125 -11.351562 23.402344 -11.714844 15.046875 -12.261719 C 7.71875 -12.746094 6.054688 -13.320312 6.054688 -15.5625 C 6.054688 -17.679688 7.71875 -18.46875 14.289062 -18.46875 C 21.3125 -18.46875 24.039062 -17.621094 24.039062 -14.378906 L 27.671875 -14.378906 C 27.671875 -19.496094 22.707031 -21.496094 14.894531 -21.496094 C 7.296875 -21.496094 2.421875 -20.40625 2.421875 -15.742188 C 2.421875 -11.109375 6.085938 -9.75 15.046875 -9.234375 C 23.34375 -8.75 24.945312 -8.355469 24.945312 -5.933594 C 24.945312 -3.632812 22.433594 -2.726562 15.953125 -2.726562 C 7.628906 -2.726562 5.148438 -4.027344 5.148438 -7.175781 L 1.515625 -7.175781 C 1.515625 -1.179688 6.964844 0.304688 15.652344 0.304688 Z M 15.652344 0.304688 "/></g></g></g><g fill="#737373" fill-opacity="1"><g transform="translate(501.506156, 36.929466)"><g><path d="M 15.136719 0.304688 C 24.433594 0.304688 28.457031 -3.269531 28.457031 -10.625 L 28.457031 -21.191406 L 24.824219 -21.191406 L 24.824219 -10.625 C 24.824219 -7.175781 24.007812 -2.726562 15.136719 -2.726562 C 6.265625 -2.726562 5.449219 -7.144531 5.449219 -10.625 L 5.449219 -21.191406 L 1.816406 -21.191406 L 1.816406 -10.625 C 1.816406 -3.238281 5.8125 0.304688 15.136719 0.304688 Z M 15.136719 0.304688 "/></g></g></g><g fill="#737373" fill-opacity="1"><g transform="translate(532.047518, 36.929466)"><g><path d="M 1.816406 0 L 23.613281 0 L 23.613281 -3.027344 L 5.449219 -3.027344 L 5.449219 -21.191406 L 1.816406 -21.191406 Z M 1.816406 0 "/></g></g></g><g fill="#737373" fill-opacity="1"><g transform="translate(557.443199, 36.929466)"><g><path d="M 12.714844 0 L 16.347656 0 L 16.347656 -18.164062 L 27.550781 -18.164062 L 27.550781 -21.191406 L 1.515625 -21.191406 L 1.515625 -18.164062 L 12.714844 -18.164062 Z M 12.714844 0 "/></g></g></g><g fill="#737373" fill-opacity="1"><g transform="translate(586.773816, 36.929466)"><g><path d="M 1.515625 0 L 5.539062 0 L 8.539062 -5.027344 L 23.734375 -5.027344 L 26.734375 0 L 30.757812 0 L 18.195312 -21.191406 L 14.078125 -21.191406 Z M 10.324219 -8.054688 L 16.136719 -17.863281 L 21.949219 -8.054688 Z M 10.324219 -8.054688 "/></g></g></g><g fill="#737373" fill-opacity="1"><g transform="translate(619.312937, 36.929466)"><g><path d="M 1.816406 0 L 16.953125 0 C 22.675781 0 27.488281 -3.390625 27.488281 -10.597656 C 27.488281 -17.800781 22.675781 -21.191406 16.953125 -21.191406 L 1.816406 -21.191406 Z M 5.449219 -3.027344 L 5.449219 -18.164062 L 15.136719 -18.164062 C 21.070312 -18.164062 23.855469 -16.652344 23.855469 -10.597656 C 23.855469 -4.542969 21.070312 -3.027344 15.136719 -3.027344 Z M 5.449219 -3.027344 "/></g></g></g><g fill="#737373" fill-opacity="1"><g transform="translate(648.583023, 36.929466)"><g><path d="M 14.835938 0.304688 C 24.128906 0.304688 28.15625 -3.875 28.15625 -10.625 C 28.15625 -17.347656 24.128906 -21.496094 14.835938 -21.496094 C 5.511719 -21.496094 1.515625 -17.378906 1.515625 -10.625 C 1.515625 -3.84375 5.511719 0.304688 14.835938 0.304688 Z M 14.835938 -2.726562 C 8.386719 -2.726562 5.148438 -4.722656 5.148438 -10.625 C 5.148438 -16.5 8.355469 -18.46875 14.835938 -18.46875 C 21.3125 -18.46875 24.523438 -16.46875 24.523438 -10.625 C 24.523438 -4.753906 21.285156 -2.726562 14.835938 -2.726562 Z M 14.835938 -2.726562 "/></g></g></g><g fill="#737373" fill-opacity="1"><g transform="translate(678.519013, 36.929466)"><g><path d="M 15.652344 0.304688 C 22.828125 0.304688 28.578125 -0.574219 28.578125 -6.117188 C 28.578125 -11.351562 23.402344 -11.714844 15.046875 -12.261719 C 7.71875 -12.746094 6.054688 -13.320312 6.054688 -15.5625 C 6.054688 -17.679688 7.71875 -18.46875 14.289062 -18.46875 C 21.3125 -18.46875 24.039062 -17.621094 24.039062 -14.378906 L 27.671875 -14.378906 C 27.671875 -19.496094 22.707031 -21.496094 14.894531 -21.496094 C 7.296875 -21.496094 2.421875 -20.40625 2.421875 -15.742188 C 2.421875 -11.109375 6.085938 -9.75 15.046875 -9.234375 C 23.34375 -8.75 24.945312 -8.355469 24.945312 -5.933594 C 24.945312 -3.632812 22.433594 -2.726562 15.953125 -2.726562 C 7.628906 -2.726562 5.148438 -4.027344 5.148438 -7.175781 L 1.515625 -7.175781 C 1.515625 -1.179688 6.964844 0.304688 15.652344 0.304688 Z M 15.652344 0.304688 "/></g></g></g><g fill="#737373" fill-opacity="1"><g transform="translate(416.783339, 79.11311)"><g><path d="M 1.816406 0 L 5.449219 0 L 5.449219 -6.175781 L 18.46875 -6.175781 C 23.28125 -6.175781 26.582031 -8.960938 26.582031 -13.683594 C 26.582031 -18.40625 23.28125 -21.191406 18.46875 -21.191406 L 1.816406 -21.191406 Z M 5.449219 -9.203125 L 5.449219 -18.164062 L 16.953125 -18.164062 C 19.253906 -18.164062 22.949219 -18.164062 22.949219 -13.683594 C 22.949219 -9.203125 19.253906 -9.203125 16.953125 -9.203125 Z M 5.449219 -9.203125 "/></g></g></g><g fill="#737373" fill-opacity="1"><g transform="translate(445.145354, 79.11311)"><g><path d="M 15.136719 0.304688 C 24.433594 0.304688 28.457031 -3.269531 28.457031 -10.625 L 28.457031 -21.191406 L 24.824219 -21.191406 L 24.824219 -10.625 C 24.824219 -7.175781 24.007812 -2.726562 15.136719 -2.726562 C 6.265625 -2.726562 5.449219 -7.144531 5.449219 -10.625 L 5.449219 -21.191406 L 1.816406 -21.191406 L 1.816406 -10.625 C 1.816406 -3.238281 5.8125 0.304688 15.136719 0.304688 Z M 15.136719 0.304688 "/></g></g></g><g fill="#737373" fill-opacity="1"><g transform="translate(475.686716, 79.11311)"><g><path d="M 1.816406 0 L 21.191406 0 C 26.007812 0 28.09375 -2.484375 28.09375 -6.117188 C 28.09375 -8.71875 27.035156 -10.324219 25.21875 -11.261719 C 26.339844 -12.382812 26.882812 -13.894531 26.882812 -15.5 C 26.882812 -18.558594 25.402344 -21.191406 20.585938 -21.191406 L 1.816406 -21.191406 Z M 5.449219 -12.230469 L 5.449219 -18.164062 L 19.679688 -18.164062 C 21.675781 -18.164062 23.25 -18.164062 23.25 -15.199219 C 23.25 -12.230469 21.675781 -12.230469 19.707031 -12.230469 Z M 5.449219 -3.027344 L 5.449219 -9.203125 L 20.890625 -9.203125 C 22.886719 -9.203125 24.460938 -9.203125 24.460938 -6.117188 C 24.460938 -3.027344 22.886719 -3.027344 20.890625 -3.027344 Z M 5.449219 -3.027344 "/></g></g></g><g fill="#737373" fill-opacity="1"><g transform="translate(505.562175, 79.11311)"><g><path d="M 1.816406 0 L 23.613281 0 L 23.613281 -3.027344 L 5.449219 -3.027344 L 5.449219 -21.191406 L 1.816406 -21.191406 Z M 1.816406 0 "/></g></g></g><g fill="#737373" fill-opacity="1"><g transform="translate(530.957856, 79.11311)"><g><path d="M 1.816406 0 L 5.449219 0 L 5.449219 -21.191406 L 1.816406 -21.191406 Z M 1.816406 0 "/></g></g></g><g fill="#737373" fill-opacity="1"><g transform="translate(538.49495, 79.11311)"><g><path d="M 14.835938 0.304688 C 23.25 0.304688 27.367188 -3.148438 28.066406 -8.808594 L 24.402344 -8.808594 C 23.765625 -4.328125 20.253906 -2.726562 14.835938 -2.726562 C 8.6875 -2.726562 5.148438 -4.722656 5.148438 -10.625 C 5.148438 -16.5 8.660156 -18.46875 14.835938 -18.46875 C 20.285156 -18.46875 23.765625 -16.894531 24.402344 -12.441406 L 28.035156 -12.441406 C 27.367188 -18.074219 23.25 -21.496094 14.835938 -21.496094 C 5.511719 -21.496094 1.515625 -17.378906 1.515625 -10.625 C 1.515625 -3.84375 5.511719 0.304688 14.835938 0.304688 Z M 14.835938 0.304688 "/></g></g></g><g fill="#737373" fill-opacity="1"><g transform="translate(568.340133, 79.11311)"><g><path d="M 1.515625 0 L 5.539062 0 L 8.539062 -5.027344 L 23.734375 -5.027344 L 26.734375 0 L 30.757812 0 L 18.195312 -21.191406 L 14.078125 -21.191406 Z M 10.324219 -8.054688 L 16.136719 -17.863281 L 21.949219 -8.054688 Z M 10.324219 -8.054688 "/></g></g></g><g fill="#737373" fill-opacity="1"><g transform="translate(600.879254, 79.11311)"><g><path d="M 1.816406 0 L 16.953125 0 C 22.675781 0 27.488281 -3.390625 27.488281 -10.597656 C 27.488281 -17.800781 22.675781 -21.191406 16.953125 -21.191406 L 1.816406 -21.191406 Z M 5.449219 -3.027344 L 5.449219 -18.164062 L 15.136719 -18.164062 C 21.070312 -18.164062 23.855469 -16.652344 23.855469 -10.597656 C 23.855469 -4.542969 21.070312 -3.027344 15.136719 -3.027344 Z M 5.449219 -3.027344 "/></g></g></g><g fill="#737373" fill-opacity="1"><g transform="translate(630.14934, 79.11311)"><g><path d="M 14.835938 0.304688 C 24.128906 0.304688 28.15625 -3.875 28.15625 -10.625 C 28.15625 -17.347656 24.128906 -21.496094 14.835938 -21.496094 C 5.511719 -21.496094 1.515625 -17.378906 1.515625 -10.625 C 1.515625 -3.84375 5.511719 0.304688 14.835938 0.304688 Z M 14.835938 -2.726562 C 8.386719 -2.726562 5.148438 -4.722656 5.148438 -10.625 C 5.148438 -16.5 8.355469 -18.46875 14.835938 -18.46875 C 21.3125 -18.46875 24.523438 -16.46875 24.523438 -10.625 C 24.523438 -4.753906 21.285156 -2.726562 14.835938 -2.726562 Z M 14.835938 -2.726562 "/></g></g></g><g fill="#737373" fill-opacity="1"><g transform="translate(660.08533, 79.11311)"><g><path d="M 15.652344 0.304688 C 22.828125 0.304688 28.578125 -0.574219 28.578125 -6.117188 C 28.578125 -11.351562 23.402344 -11.714844 15.046875 -12.261719 C 7.71875 -12.746094 6.054688 -13.320312 6.054688 -15.5625 C 6.054688 -17.679688 7.71875 -18.46875 14.289062 -18.46875 C 21.3125 -18.46875 24.039062 -17.621094 24.039062 -14.378906 L 27.671875 -14.378906 C 27.671875 -19.496094 22.707031 -21.496094 14.894531 -21.496094 C 7.296875 -21.496094 2.421875 -20.40625 2.421875 -15.742188 C 2.421875 -11.109375 6.085938 -9.75 15.046875 -9.234375 C 23.34375 -8.75 24.945312 -8.355469 24.945312 -5.933594 C 24.945312 -3.632812 22.433594 -2.726562 15.953125 -2.726562 C 7.628906 -2.726562 5.148438 -4.027344 5.148438 -7.175781 L 1.515625 -7.175781 C 1.515625 -1.179688 6.964844 0.304688 15.652344 0.304688 Z M 15.652344 0.304688 "/></g></g></g><g fill="#737373" fill-opacity="1"><g transform="translate(416.783339, 121.296754)"><g><path d="M 1.816406 0 L 16.953125 0 C 22.675781 0 27.488281 -3.390625 27.488281 -10.597656 C 27.488281 -17.800781 22.675781 -21.191406 16.953125 -21.191406 L 1.816406 -21.191406 Z M 5.449219 -3.027344 L 5.449219 -18.164062 L 15.136719 -18.164062 C 21.070312 -18.164062 23.855469 -16.652344 23.855469 -10.597656 C 23.855469 -4.542969 21.070312 -3.027344 15.136719 -3.027344 Z M 5.449219 -3.027344 "/></g></g></g><g fill="#737373" fill-opacity="1"><g transform="translate(446.053425, 121.296754)"><g><path d="M 1.816406 0 L 24.21875 0 L 24.21875 -3.027344 L 5.449219 -3.027344 L 5.449219 -9.082031 L 24.21875 -9.082031 L 24.21875 -12.109375 L 5.449219 -12.109375 L 5.449219 -18.164062 L 24.21875 -18.164062 L 24.21875 -21.191406 L 1.816406 -21.191406 Z M 1.816406 0 "/></g></g></g><g fill="#737373" fill-opacity="1"><g transform="translate(472.054479, 121.296754)"><g/></g></g><g fill="#737373" fill-opacity="1"><g transform="translate(487.461445, 121.296754)"><g><path d="M 14.835938 0.304688 C 23.25 0.304688 27.367188 -3.148438 28.066406 -8.808594 L 24.402344 -8.808594 C 23.765625 -4.328125 20.253906 -2.726562 14.835938 -2.726562 C 8.6875 -2.726562 5.148438 -4.722656 5.148438 -10.625 C 5.148438 -16.5 8.660156 -18.46875 14.835938 -18.46875 C 20.285156 -18.46875 23.765625 -16.894531 24.402344 -12.441406 L 28.035156 -12.441406 C 27.367188 -18.074219 23.25 -21.496094 14.835938 -21.496094 C 5.511719 -21.496094 1.515625 -17.378906 1.515625 -10.625 C 1.515625 -3.84375 5.511719 0.304688 14.835938 0.304688 Z M 14.835938 0.304688 "/></g></g></g><g fill="#737373" fill-opacity="1"><g transform="translate(517.306628, 121.296754)"><g><path d="M 14.835938 0.304688 C 24.128906 0.304688 28.15625 -3.875 28.15625 -10.625 C 28.15625 -17.347656 24.128906 -21.496094 14.835938 -21.496094 C 5.511719 -21.496094 1.515625 -17.378906 1.515625 -10.625 C 1.515625 -3.84375 5.511719 0.304688 14.835938 0.304688 Z M 14.835938 -2.726562 C 8.386719 -2.726562 5.148438 -4.722656 5.148438 -10.625 C 5.148438 -16.5 8.355469 -18.46875 14.835938 -18.46875 C 21.3125 -18.46875 24.523438 -16.46875 24.523438 -10.625 C 24.523438 -4.753906 21.285156 -2.726562 14.835938 -2.726562 Z M 14.835938 -2.726562 "/></g></g></g><g fill="#737373" fill-opacity="1"><g transform="translate(547.242617, 121.296754)"><g><path d="M 1.816406 0 L 5.449219 0 L 5.449219 -6.175781 L 17.316406 -6.175781 L 21.132812 0 L 25.371094 0 L 21.3125 -6.539062 C 24.554688 -7.449219 26.582031 -9.960938 26.582031 -13.683594 C 26.582031 -18.40625 23.28125 -21.191406 18.46875 -21.191406 L 1.816406 -21.191406 Z M 5.449219 -9.203125 L 5.449219 -18.164062 L 16.953125 -18.164062 C 19.253906 -18.164062 22.949219 -18.164062 22.949219 -13.683594 C 22.949219 -9.203125 19.253906 -9.203125 16.953125 -9.203125 Z M 5.449219 -9.203125 "/></g></g></g><g fill="#737373" fill-opacity="1"><g transform="translate(575.604633, 121.296754)"><g><path d="M 1.816406 0 L 5.449219 0 L 5.449219 -6.175781 L 17.316406 -6.175781 L 21.132812 0 L 25.371094 0 L 21.3125 -6.539062 C 24.554688 -7.449219 26.582031 -9.960938 26.582031 -13.683594 C 26.582031 -18.40625 23.28125 -21.191406 18.46875 -21.191406 L 1.816406 -21.191406 Z M 5.449219 -9.203125 L 5.449219 -18.164062 L 16.953125 -18.164062 C 19.253906 -18.164062 22.949219 -18.164062 22.949219 -13.683594 C 22.949219 -9.203125 19.253906 -9.203125 16.953125 -9.203125 Z M 5.449219 -9.203125 "/></g></g></g><g fill="#737373" fill-opacity="1"><g transform="translate(603.966648, 121.296754)"><g><path d="M 1.816406 0 L 5.449219 0 L 5.449219 -21.191406 L 1.816406 -21.191406 Z M 1.816406 0 "/></g></g></g><g fill="#737373" fill-opacity="1"><g transform="translate(611.503742, 121.296754)"><g><path d="M 1.816406 0 L 16.953125 0 C 22.675781 0 27.488281 -3.390625 27.488281 -10.597656 C 27.488281 -17.800781 22.675781 -21.191406 16.953125 -21.191406 L 1.816406 -21.191406 Z M 5.449219 -3.027344 L 5.449219 -18.164062 L 15.136719 -18.164062 C 21.070312 -18.164062 23.855469 -16.652344 23.855469 -10.597656 C 23.855469 -4.542969 21.070312 -3.027344 15.136719 -3.027344 Z M 5.449219 -3.027344 "/></g></g></g><g fill="#737373" fill-opacity="1"><g transform="translate(640.773829, 121.296754)"><g><path d="M 1.515625 0 L 5.539062 0 L 8.539062 -5.027344 L 23.734375 -5.027344 L 26.734375 0 L 30.757812 0 L 18.195312 -21.191406 L 14.078125 -21.191406 Z M 10.324219 -8.054688 L 16.136719 -17.863281 L 21.949219 -8.054688 Z M 10.324219 -8.054688 "/></g></g></g><g fill="#737373" fill-opacity="1"><g transform="translate(673.31295, 121.296754)"><g><path d="M 15.652344 0.304688 C 22.828125 0.304688 28.578125 -0.574219 28.578125 -6.117188 C 28.578125 -11.351562 23.402344 -11.714844 15.046875 -12.261719 C 7.71875 -12.746094 6.054688 -13.320312 6.054688 -15.5625 C 6.054688 -17.679688 7.71875 -18.46875 14.289062 -18.46875 C 21.3125 -18.46875 24.039062 -17.621094 24.039062 -14.378906 L 27.671875 -14.378906 C 27.671875 -19.496094 22.707031 -21.496094 14.894531 -21.496094 C 7.296875 -21.496094 2.421875 -20.40625 2.421875 -15.742188 C 2.421875 -11.109375 6.085938 -9.75 15.046875 -9.234375 C 23.34375 -8.75 24.945312 -8.355469 24.945312 -5.933594 C 24.945312 -3.632812 22.433594 -2.726562 15.953125 -2.726562 C 7.628906 -2.726562 5.148438 -4.027344 5.148438 -7.175781 L 1.515625 -7.175781 C 1.515625 -1.179688 6.964844 0.304688 15.652344 0.304688 Z M 15.652344 0.304688 "/></g></g></g></svg>
