<svg xmlns="http://www.w3.org/2000/svg" xmlns:xlink="http://www.w3.org/1999/xlink" width="1080" zoomAndPan="magnify" viewBox="0 0 810 809.999993" height="1080" preserveAspectRatio="xMidYMid meet" version="1.2"><g id="f8af13b6e8"><path style=" stroke:none;fill-rule:nonzero;fill:#ffffff;fill-opacity:1;" d="M 108.171875 80.871094 L 108.171875 21.472656 C 108.171875 9.597656 117.769531 0 129.644531 0 L 680.386719 0 C 692.226562 0 701.828125 9.597656 701.828125 21.472656 L 701.828125 80.871094 L 108.171875 80.871094 "/><path style=" stroke:none;fill-rule:nonzero;fill:#ffffff;fill-opacity:1;" d="M 711.679688 113.550781 L 98.320312 113.550781 C 30.710938 397.71875 19.847656 664.832031 18.144531 750.816406 C 17.796875 767.015625 30.046875 780.691406 46.183594 782.238281 L 318.601562 808.257812 C 334.234375 809.742188 348.507812 799.320312 351.855469 783.972656 L 405 539.816406 L 458.144531 783.972656 C 461.492188 799.320312 475.765625 809.742188 491.394531 808.257812 L 763.8125 782.238281 C 779.949219 780.691406 792.203125 767.015625 791.855469 750.816406 C 790.148438 664.832031 779.285156 397.71875 711.679688 113.550781 "/></g></svg>