<svg xmlns="http://www.w3.org/2000/svg" xmlns:xlink="http://www.w3.org/1999/xlink" width="1080" zoomAndPan="magnify" viewBox="0 0 810 809.999993" height="1080" preserveAspectRatio="xMidYMid meet" version="1.2"><g id="5a8f2655a7"><path style=" stroke:none;fill-rule:evenodd;fill:#ffffff;fill-opacity:1;" d="M 184.089844 36.816406 C 184.089844 16.484375 200.574219 0 220.90625 0 L 589.089844 0 C 609.421875 0 625.90625 16.484375 625.90625 36.816406 L 625.90625 368.183594 C 625.90625 469.851562 543.484375 552.273438 441.816406 552.273438 L 368.179688 552.273438 C 266.507812 552.273438 184.089844 469.851562 184.089844 368.183594 Z M 257.726562 73.636719 L 257.726562 368.183594 C 257.726562 429.1875 307.175781 478.636719 368.179688 478.636719 L 441.816406 478.636719 C 502.820312 478.636719 552.269531 429.1875 552.269531 368.183594 L 552.269531 73.636719 Z M 257.726562 73.636719 "/><path style=" stroke:none;fill-rule:evenodd;fill:#ffffff;fill-opacity:1;" d="M 294.542969 515.453125 C 294.542969 495.121094 311.027344 478.636719 331.363281 478.636719 L 478.632812 478.636719 C 498.96875 478.636719 515.453125 495.121094 515.453125 515.453125 L 515.453125 662.726562 C 515.453125 683.0625 498.96875 699.546875 478.632812 699.546875 L 331.363281 699.546875 C 311.027344 699.546875 294.542969 683.0625 294.542969 662.726562 Z M 368.179688 552.273438 L 368.179688 625.910156 L 441.816406 625.910156 L 441.816406 552.273438 Z M 368.179688 552.273438 "/><path style=" stroke:none;fill-rule:evenodd;fill:#ffffff;fill-opacity:1;" d="M 184.089844 662.726562 C 184.089844 642.394531 200.574219 625.910156 220.90625 625.910156 L 589.089844 625.910156 C 609.421875 625.910156 625.90625 642.394531 625.90625 662.726562 L 625.90625 773.183594 C 625.90625 793.515625 609.421875 810 589.089844 810 L 220.90625 810 C 200.574219 810 184.089844 793.515625 184.089844 773.183594 Z M 257.726562 699.546875 L 257.726562 736.363281 L 552.269531 736.363281 L 552.269531 699.546875 Z M 257.726562 699.546875 "/><path style=" stroke:none;fill-rule:evenodd;fill:#ffffff;fill-opacity:1;" d="M 552.269531 110.453125 C 552.269531 90.121094 568.753906 73.636719 589.089844 73.636719 L 651.457031 73.636719 C 718.675781 73.636719 770.308594 133.167969 760.800781 199.710938 L 745.023438 310.167969 C 737.25 364.582031 690.648438 405 635.679688 405 L 589.089844 405 C 568.753906 405 552.269531 388.515625 552.269531 368.183594 Z M 625.90625 147.273438 L 625.90625 331.363281 L 635.679688 331.363281 C 654.003906 331.363281 669.535156 317.890625 672.128906 299.753906 L 687.90625 189.296875 C 691.074219 167.117188 673.863281 147.273438 651.457031 147.273438 Z M 625.90625 147.273438 "/><path style=" stroke:none;fill-rule:evenodd;fill:#ffffff;fill-opacity:1;" d="M 257.726562 110.453125 C 257.726562 90.121094 241.242188 73.636719 220.90625 73.636719 L 158.539062 73.636719 C 91.320312 73.636719 39.6875 133.167969 49.191406 199.710938 L 64.972656 310.167969 C 72.746094 364.582031 119.347656 405 174.316406 405 L 220.90625 405 C 241.242188 405 257.726562 388.515625 257.726562 368.183594 Z M 184.089844 147.273438 L 184.089844 331.363281 L 174.316406 331.363281 C 155.996094 331.363281 140.460938 317.890625 137.867188 299.753906 L 122.089844 189.296875 C 118.921875 167.117188 136.132812 147.273438 158.539062 147.273438 Z M 184.089844 147.273438 "/></g></svg>