<svg xmlns="http://www.w3.org/2000/svg" xmlns:xlink="http://www.w3.org/1999/xlink" width="1080" zoomAndPan="magnify" viewBox="0 0 810 809.999993" height="1080" preserveAspectRatio="xMidYMid meet" version="1.2"><defs><clipPath id="1d22aa070b"><path d="M 201 10.125 L 809 10.125 L 809 799 L 201 799 Z M 201 10.125 "/></clipPath></defs><g id="2d6c337197"><path style=" stroke:none;fill-rule:nonzero;fill:#ffffff;fill-opacity:1;" d="M 273.832031 348.777344 C 273.832031 334.402344 262.144531 322.714844 247.769531 322.714844 L 26.082031 322.714844 C 11.707031 322.714844 0.0195312 334.402344 0.0195312 348.777344 C 0.0195312 363.125 11.707031 374.816406 26.082031 374.816406 L 247.769531 374.816406 C 262.144531 374.816406 273.832031 363.125 273.832031 348.777344 "/><path style=" stroke:none;fill-rule:nonzero;fill:#ffffff;fill-opacity:1;" d="M 273.832031 595.996094 C 273.832031 581.621094 262.144531 569.933594 247.769531 569.933594 L 91.394531 569.933594 C 77.042969 569.933594 65.355469 581.621094 65.355469 595.996094 C 65.355469 610.371094 77.042969 622.058594 91.394531 622.058594 L 247.769531 622.058594 C 262.144531 622.058594 273.832031 610.371094 273.832031 595.996094 "/><path style=" stroke:none;fill-rule:nonzero;fill:#ffffff;fill-opacity:1;" d="M 247.769531 446.488281 L 145.523438 446.488281 C 131.144531 446.488281 119.457031 458.175781 119.457031 472.550781 C 119.457031 486.925781 131.144531 498.613281 145.523438 498.613281 L 247.769531 498.613281 C 261.082031 498.613281 272.085938 488.597656 273.628906 475.695312 L 273.65625 472.675781 C 273.679688 465.730469 271.019531 459.164062 266.125 454.21875 C 261.234375 449.25 254.691406 446.539062 247.769531 446.488281 "/><g clip-rule="nonzero" clip-path="url(#1d22aa070b)"><path style=" stroke:none;fill-rule:nonzero;fill:#ffffff;fill-opacity:1;" d="M 737.589844 236.082031 C 737.589844 236.082031 785.710938 176.324219 787.183594 172.496094 C 793.519531 156.601562 789.363281 140.527344 778.054688 130.105469 C 765.480469 118.546875 747.046875 117.328125 733.230469 126.023438 C 730.46875 127.75 674.691406 172.496094 674.691406 172.496094 C 625.960938 134.367188 567.828125 110.027344 506.5 102.042969 L 498.941406 101.078125 L 506.144531 63.53125 C 531.625 59.195312 551.042969 37.0625 551.042969 10.363281 L 366.929688 10.363281 C 366.929688 39.089844 389.394531 62.515625 417.710938 64.1875 L 424.761719 100.746094 L 417.203125 101.6875 C 338.050781 112.132812 266.226562 148.511719 211.589844 205.328125 C 198.457031 219.046875 197.671875 240.519531 209.84375 255.097656 C 224.015625 271.957031 249.722656 273.097656 265.011719 257.203125 C 313.230469 207.257812 379.683594 176.679688 449.960938 173.613281 C 599.898438 167.019531 727.5 284.023438 734.015625 434.242188 C 737.136719 506.953125 711.78125 576.625 662.519531 630.222656 C 613.363281 683.894531 546.203125 715.179688 473.414062 718.296875 C 416.519531 720.730469 361.429688 705.699219 314.523438 675.476562 C 308.363281 671.472656 301.316406 669.570312 294.191406 669.570312 C 286.207031 669.570312 278.117188 672.078125 271.273438 676.945312 C 249.898438 692.335938 249.546875 724.207031 270.816406 739.847656 C 279.082031 745.933594 286.738281 751.230469 292.898438 754.605469 C 345.53125 784.0625 405.136719 799.277344 467.25 798.3125 C 559.839844 796.839844 646.371094 759.394531 710.921875 692.84375 C 775.367188 626.316406 810.023438 538.644531 808.628906 446.058594 C 808.808594 370.378906 783.632812 295.941406 737.589844 236.082031 "/></g><path style=" stroke:none;fill-rule:nonzero;fill:#ffffff;fill-opacity:1;" d="M 498.867188 496.054688 C 501.984375 493.695312 504.851562 491.082031 507.460938 488.21875 C 508.753906 486.851562 509.894531 485.457031 510.933594 483.984375 L 517.273438 473.894531 L 601.875 338.636719 C 603.625 335.949219 604.765625 332.980469 605.273438 330.042969 C 607.277344 321.269531 604.664062 311.886719 597.972656 305.269531 C 594.144531 301.441406 589.453125 299.035156 584.511719 298.070312 C 577.640625 296.777344 570.363281 298.070312 564.175781 302.152344 L 434.824219 389.113281 C 428.765625 391.878906 423.289062 395.628906 418.421875 400.21875 L 418.246094 400.320312 C 408.179688 409.699219 401.132812 422.554688 399.050781 437.335938 C 394.183594 471.5625 418.167969 503.355469 452.472656 508.121094 C 468.976562 510.480469 485.480469 506.21875 498.867188 496.054688 "/></g></svg>