<svg xmlns="http://www.w3.org/2000/svg" xmlns:xlink="http://www.w3.org/1999/xlink" width="1080" zoomAndPan="magnify" viewBox="0 0 810 809.999993" height="1080" preserveAspectRatio="xMidYMid meet" version="1.2"><defs><clipPath id="e92544d2c1"><path d="M 144 393 L 506 393 L 506 770.980469 L 144 770.980469 Z M 144 393 "/></clipPath></defs><g id="65b402be66"><g clip-rule="nonzero" clip-path="url(#e92544d2c1)"><path style=" stroke:none;fill-rule:nonzero;fill:#ffffff;fill-opacity:1;" d="M 466.679688 492.226562 L 432.726562 465.34375 L 450.648438 423.109375 L 448.582031 423.109375 C 392.734375 423.109375 350.503906 408.96875 313.785156 393.289062 L 308.269531 408.457031 C 298.101562 436.039062 306.890625 466.894531 329.816406 484.988281 L 336.195312 489.988281 L 323.785156 519.296875 C 320.335938 527.394531 312.410156 532.570312 303.613281 532.570312 L 303.445312 532.570312 L 184.332031 532.046875 C 162.441406 531.1875 144.511719 549.628906 144.511719 571.523438 C 144.34375 593.414062 162.09375 611.34375 183.988281 611.34375 L 303.101562 611.863281 L 303.613281 611.863281 C 344.296875 611.863281 380.835938 587.726562 396.871094 550.152344 L 400.664062 541.011719 L 417.554688 554.460938 C 424.109375 559.628906 427.210938 568.25 425.3125 576.355469 L 392.5625 722.527344 C 387.734375 743.898438 401.179688 765.097656 422.554688 769.929688 C 425.484375 770.445312 428.417969 770.789062 431.171875 770.789062 C 449.441406 770.789062 465.820312 758.207031 469.957031 739.933594 L 502.707031 593.757812 C 511.152344 556.011719 497.023438 516.191406 466.679688 492.226562 Z M 466.679688 492.226562 "/></g><path style=" stroke:none;fill-rule:nonzero;fill:#ffffff;fill-opacity:1;" d="M 241.734375 184.023438 C 258.28125 217.808594 284.136719 245.734375 316.71875 264.523438 C 328.609375 271.59375 341.539062 276.9375 354.636719 281.070312 L 337.398438 328.304688 C 370.152344 342.613281 403.417969 354.160156 448.238281 354.160156 C 456.339844 354.160156 464.785156 353.816406 473.230469 352.949219 C 475.820312 352.78125 478.230469 352.433594 480.644531 351.921875 L 507.707031 287.792969 C 516.671875 286.070312 525.460938 283.832031 534.082031 280.902344 L 549.246094 275.734375 C 586.308594 262.804688 618.027344 239.011719 640.78125 206.953125 L 688.355469 139.726562 C 699.386719 124.214844 695.765625 102.667969 680.253906 91.632812 C 664.742188 80.601562 643.195312 84.21875 632.160156 99.730469 L 584.414062 166.964844 C 570.105469 187.296875 549.9375 202.296875 526.496094 210.570312 L 511.5 215.738281 C 497.878906 220.570312 483.75 222.808594 469.613281 222.464844 L 408.246094 220.914062 C 388.253906 220.570312 368.597656 214.878906 351.191406 204.882812 C 330.675781 192.988281 314.128906 175.238281 303.789062 153.859375 L 273.964844 92.492188 C 265.691406 75.433594 245.007812 68.363281 227.941406 76.46875 C 210.878906 84.910156 203.640625 105.421875 211.914062 122.65625 Z M 241.734375 184.023438 "/><path style=" stroke:none;fill-rule:nonzero;fill:#ffffff;fill-opacity:1;" d="M 435.734375 195.707031 C 477.710938 200.269531 515.4375 169.953125 520.007812 127.976562 C 524.578125 86.003906 494.257812 48.269531 452.28125 43.699219 C 410.308594 39.128906 372.574219 69.457031 368.003906 111.429688 C 363.441406 153.40625 393.761719 191.136719 435.734375 195.707031 Z M 435.734375 195.707031 "/><path style=" stroke:none;fill-rule:nonzero;fill:#ffffff;fill-opacity:1;" d="M 797.601562 324.929688 C 698.09375 278.113281 639.644531 306.679688 583.117188 334.289062 C 550.976562 349.992188 517.746094 366.222656 474.828125 370.125 C 401.691406 376.878906 354.128906 355.128906 308.105469 334.203125 C 278.90625 320.941406 251.332031 308.398438 218.835938 303.265625 C 203.960938 300.90625 189.738281 299.863281 176.226562 299.863281 C 72.09375 299.863281 9.597656 361.863281 6.664062 364.839844 C -0.0234375 371.625 0.0507812 382.53125 6.832031 389.214844 C 13.59375 395.882812 24.480469 395.847656 31.175781 389.082031 C 34.09375 386.136719 102.03125 319.792969 213.449219 337.300781 C 241.324219 341.710938 266.832031 353.308594 293.832031 365.582031 C 341.605469 387.3125 395.769531 411.875 477.945312 404.46875 C 527.183594 399.988281 564.941406 381.539062 598.25 365.261719 C 654.1875 337.925781 698.378906 316.328125 782.921875 356.136719 C 791.542969 360.195312 801.804688 356.492188 805.855469 347.875 C 809.910156 339.253906 806.214844 328.984375 797.601562 324.929688 Z M 797.601562 324.929688 "/></g></svg>