<svg xmlns="http://www.w3.org/2000/svg" xmlns:xlink="http://www.w3.org/1999/xlink" width="1080" zoomAndPan="magnify" viewBox="0 0 810 809.999993" height="1080" preserveAspectRatio="xMidYMid meet" version="1.2"><defs><clipPath id="8cb3f9d31d"><path d="M 3 3.683594 L 807 3.683594 L 807 806.183594 L 3 806.183594 Z M 3 3.683594 "/></clipPath></defs><g id="7462b7682c"><g clip-rule="nonzero" clip-path="url(#8cb3f9d31d)"><path style=" stroke:none;fill-rule:nonzero;fill:#ffffff;fill-opacity:1;" d="M 781.851562 690.273438 C 764.21875 690.273438 746.582031 690.273438 728.945312 690.273438 C 700.992188 690.273438 673.039062 690.273438 645.085938 690.273438 C 611.214844 690.273438 577.355469 690.273438 543.480469 690.273438 C 506.125 690.273438 468.785156 690.273438 431.425781 690.273438 C 393.976562 690.273438 356.539062 690.273438 319.085938 690.273438 C 283.929688 690.273438 248.785156 690.273438 213.628906 690.273438 C 184.117188 690.273438 154.609375 690.273438 125.097656 690.273438 C 103.742188 690.273438 82.367188 690.273438 61.007812 690.273438 C 50.949219 690.273438 40.902344 690.160156 30.839844 690.273438 C 30.40625 690.273438 29.957031 690.273438 29.527344 690.273438 C 29.078125 690.273438 28.644531 690.320312 28.210938 690.351562 C 12.339844 639.691406 0.0625 576.519531 4.941406 509.203125 C 16.207031 353.742188 110.6875 284.070312 148.011719 27.082031 C 149.957031 13.699219 161.15625 3.769531 174.394531 3.769531 L 183.300781 3.769531 C 200.035156 3.769531 212.617188 19.332031 209.503906 36.132812 C 192.285156 129.15625 165.230469 390.488281 405.015625 388.582031 C 644.800781 390.488281 617.746094 129.15625 600.542969 36.132812 C 597.429688 19.332031 609.992188 3.769531 626.730469 3.769531 L 635.636719 3.769531 C 648.859375 3.769531 660.074219 13.699219 662 27.066406 C 699.324219 284.070312 793.808594 353.742188 805.089844 509.1875 C 809.980469 576.484375 797.707031 639.628906 781.851562 690.273438 Z M 622.078125 734.71875 C 586.917969 734.71875 551.777344 734.71875 516.617188 734.71875 C 479.167969 734.71875 441.730469 734.71875 404.277344 734.71875 C 366.921875 734.71875 329.582031 734.71875 292.222656 734.71875 C 258.347656 734.71875 224.492188 734.71875 190.617188 734.71875 C 162.664062 734.71875 134.710938 734.71875 106.757812 734.71875 C 87.984375 734.71875 69.191406 734.71875 50.417969 734.71875 C 48.285156 734.71875 46.148438 734.71875 44.03125 734.71875 C 54.238281 760.121094 64.152344 779.90625 70.75 792.136719 C 75.402344 800.753906 84.40625 806.097656 94.191406 806.097656 L 715.835938 806.097656 C 725.625 806.097656 734.628906 800.753906 739.28125 792.136719 C 745.875 779.90625 755.808594 760.136719 766 734.71875 C 747.546875 734.71875 729.074219 734.71875 710.605469 734.71875 C 681.097656 734.71875 651.585938 734.71875 622.078125 734.71875 Z M 622.078125 734.71875 "/></g></g></svg>