<svg xmlns="http://www.w3.org/2000/svg" xmlns:xlink="http://www.w3.org/1999/xlink" width="364" zoomAndPan="magnify" viewBox="0 0 273 56.999997" height="76" preserveAspectRatio="xMidYMid meet" version="1.0"><defs><g/></defs><g fill="#ffffff" fill-opacity="1"><g transform="translate(11.509978, 40.824818)"><g><path d="M 23.421875 -0.953125 C 23.472656 -0.828125 23.5 -0.6875 23.5 -0.53125 C 23.5 -0.175781 23.273438 0 22.828125 0 L 16.015625 0 C 15.753906 0 15.550781 -0.0625 15.40625 -0.1875 C 15.269531 -0.320312 15.171875 -0.5625 15.109375 -0.90625 L 13.0625 -9.96875 C 13.019531 -10.113281 12.96875 -10.210938 12.90625 -10.265625 C 12.851562 -10.328125 12.734375 -10.359375 12.546875 -10.359375 L 10.4375 -10.359375 C 10.25 -10.359375 10.117188 -10.320312 10.046875 -10.25 C 9.972656 -10.1875 9.925781 -10.082031 9.90625 -9.9375 L 8.609375 -0.8125 C 8.554688 -0.457031 8.441406 -0.234375 8.265625 -0.140625 C 8.097656 -0.046875 7.789062 0 7.34375 0 L 1.4375 0 C 0.832031 0 0.578125 -0.363281 0.671875 -1.09375 L 4.109375 -25.46875 C 4.128906 -25.726562 4.179688 -25.890625 4.265625 -25.953125 C 4.347656 -26.023438 4.492188 -26.0625 4.703125 -26.0625 L 16.4375 -26.0625 C 19.550781 -26.0625 21.96875 -25.46875 23.6875 -24.28125 C 25.414062 -23.101562 26.28125 -21.460938 26.28125 -19.359375 C 26.28125 -17.648438 25.78125 -16.066406 24.78125 -14.609375 C 23.78125 -13.160156 22.488281 -12.117188 20.90625 -11.484375 C 20.59375 -11.367188 20.40625 -11.265625 20.34375 -11.171875 C 20.289062 -11.078125 20.289062 -10.945312 20.34375 -10.78125 Z M 14.640625 -15.59375 C 15.609375 -15.59375 16.410156 -15.921875 17.046875 -16.578125 C 17.691406 -17.234375 18.015625 -17.992188 18.015625 -18.859375 C 18.015625 -19.515625 17.773438 -20.007812 17.296875 -20.34375 C 16.816406 -20.6875 16.203125 -20.859375 15.453125 -20.859375 L 11.875 -20.859375 C 11.707031 -20.859375 11.585938 -20.8125 11.515625 -20.71875 C 11.453125 -20.625 11.394531 -20.4375 11.34375 -20.15625 L 10.75 -16.125 L 10.75 -15.953125 C 10.75 -15.804688 10.773438 -15.707031 10.828125 -15.65625 C 10.890625 -15.613281 10.992188 -15.59375 11.140625 -15.59375 Z M 14.640625 -15.59375 "/></g></g></g><g fill="#ffffff" fill-opacity="1"><g transform="translate(37.467869, 40.824818)"><g><path d="M 24.125 -10.078125 C 23.59375 -6.242188 22.273438 -3.546875 20.171875 -1.984375 C 18.078125 -0.429688 15.253906 0.34375 11.703125 0.34375 C 8.140625 0.34375 5.5625 -0.375 3.96875 -1.8125 C 2.375 -3.25 1.578125 -5.382812 1.578125 -8.21875 C 1.578125 -8.988281 1.660156 -9.984375 1.828125 -11.203125 L 3.828125 -25.46875 C 3.847656 -25.726562 3.898438 -25.890625 3.984375 -25.953125 C 4.066406 -26.023438 4.210938 -26.0625 4.421875 -26.0625 L 11.09375 -26.0625 C 11.3125 -26.0625 11.484375 -25.960938 11.609375 -25.765625 C 11.734375 -25.566406 11.773438 -25.347656 11.734375 -25.109375 L 9.625 -9.9375 C 9.53125 -9.1875 9.484375 -8.6875 9.484375 -8.4375 C 9.484375 -7.28125 9.738281 -6.457031 10.25 -5.96875 C 10.769531 -5.476562 11.535156 -5.234375 12.546875 -5.234375 C 13.828125 -5.234375 14.929688 -5.648438 15.859375 -6.484375 C 16.785156 -7.316406 17.375 -8.644531 17.625 -10.46875 L 19.734375 -25.46875 C 19.765625 -25.726562 19.816406 -25.890625 19.890625 -25.953125 C 19.972656 -26.023438 20.125 -26.0625 20.34375 -26.0625 L 25.609375 -26.0625 C 25.816406 -26.0625 25.984375 -25.960938 26.109375 -25.765625 C 26.242188 -25.566406 26.285156 -25.347656 26.234375 -25.109375 Z M 24.125 -10.078125 "/></g></g></g><g fill="#ffffff" fill-opacity="1"><g transform="translate(63.039374, 40.824818)"><g><path d="M 26.765625 -26.0625 C 27.085938 -26.0625 27.226562 -25.875 27.1875 -25.5 L 23.640625 -0.421875 C 23.617188 -0.253906 23.550781 -0.140625 23.4375 -0.078125 C 23.332031 -0.0234375 23.164062 0 22.9375 0 L 18.125 0 C 17.957031 0 17.816406 -0.0507812 17.703125 -0.15625 C 17.585938 -0.257812 17.445312 -0.441406 17.28125 -0.703125 L 9.375 -13.796875 C 9.300781 -13.921875 9.234375 -13.984375 9.171875 -13.984375 C 9.023438 -13.984375 8.941406 -13.828125 8.921875 -13.515625 L 7.09375 -0.671875 C 7.070312 -0.390625 7.007812 -0.207031 6.90625 -0.125 C 6.800781 -0.0390625 6.582031 0 6.25 0 L 1.1875 0 C 0.75 0 0.5625 -0.300781 0.625 -0.90625 L 4.109375 -25.46875 C 4.128906 -25.726562 4.1875 -25.890625 4.28125 -25.953125 C 4.375 -26.023438 4.550781 -26.0625 4.8125 -26.0625 L 10.53125 -26.0625 C 10.789062 -26.0625 10.992188 -25.992188 11.140625 -25.859375 C 11.296875 -25.734375 11.457031 -25.53125 11.625 -25.25 L 18.46875 -13.59375 C 18.59375 -13.40625 18.710938 -13.3125 18.828125 -13.3125 C 18.898438 -13.3125 18.960938 -13.351562 19.015625 -13.4375 C 19.078125 -13.519531 19.117188 -13.628906 19.140625 -13.765625 L 20.796875 -25.53125 C 20.816406 -25.769531 20.875 -25.914062 20.96875 -25.96875 C 21.0625 -26.03125 21.238281 -26.0625 21.5 -26.0625 Z M 26.765625 -26.0625 "/></g></g></g><g fill="#ffffff" fill-opacity="1"><g transform="translate(89.77003, 40.824818)"><g><path d="M 26.765625 -26.0625 C 27.085938 -26.0625 27.226562 -25.875 27.1875 -25.5 L 23.640625 -0.421875 C 23.617188 -0.253906 23.550781 -0.140625 23.4375 -0.078125 C 23.332031 -0.0234375 23.164062 0 22.9375 0 L 18.125 0 C 17.957031 0 17.816406 -0.0507812 17.703125 -0.15625 C 17.585938 -0.257812 17.445312 -0.441406 17.28125 -0.703125 L 9.375 -13.796875 C 9.300781 -13.921875 9.234375 -13.984375 9.171875 -13.984375 C 9.023438 -13.984375 8.941406 -13.828125 8.921875 -13.515625 L 7.09375 -0.671875 C 7.070312 -0.390625 7.007812 -0.207031 6.90625 -0.125 C 6.800781 -0.0390625 6.582031 0 6.25 0 L 1.1875 0 C 0.75 0 0.5625 -0.300781 0.625 -0.90625 L 4.109375 -25.46875 C 4.128906 -25.726562 4.1875 -25.890625 4.28125 -25.953125 C 4.375 -26.023438 4.550781 -26.0625 4.8125 -26.0625 L 10.53125 -26.0625 C 10.789062 -26.0625 10.992188 -25.992188 11.140625 -25.859375 C 11.296875 -25.734375 11.457031 -25.53125 11.625 -25.25 L 18.46875 -13.59375 C 18.59375 -13.40625 18.710938 -13.3125 18.828125 -13.3125 C 18.898438 -13.3125 18.960938 -13.351562 19.015625 -13.4375 C 19.078125 -13.519531 19.117188 -13.628906 19.140625 -13.765625 L 20.796875 -25.53125 C 20.816406 -25.769531 20.875 -25.914062 20.96875 -25.96875 C 21.0625 -26.03125 21.238281 -26.0625 21.5 -26.0625 Z M 26.765625 -26.0625 "/></g></g></g><g fill="#ffffff" fill-opacity="1"><g transform="translate(116.500686, 40.824818)"><g><path d="M 4.109375 -25.46875 C 4.128906 -25.726562 4.179688 -25.890625 4.265625 -25.953125 C 4.347656 -26.023438 4.492188 -26.0625 4.703125 -26.0625 L 23.8125 -26.0625 C 24.164062 -26.0625 24.34375 -25.851562 24.34375 -25.4375 C 24.34375 -25.289062 24.332031 -25.179688 24.3125 -25.109375 L 23.703125 -21.046875 C 23.660156 -20.765625 23.578125 -20.566406 23.453125 -20.453125 C 23.335938 -20.347656 23.128906 -20.296875 22.828125 -20.296875 L 11.9375 -20.296875 C 11.726562 -20.296875 11.570312 -20.253906 11.46875 -20.171875 C 11.363281 -20.097656 11.300781 -19.929688 11.28125 -19.671875 L 10.8125 -16.4375 L 10.78125 -16.1875 C 10.78125 -16.070312 10.804688 -15.992188 10.859375 -15.953125 C 10.921875 -15.921875 11.035156 -15.90625 11.203125 -15.90625 L 17.84375 -15.90625 C 18.070312 -15.90625 18.222656 -15.859375 18.296875 -15.765625 C 18.367188 -15.671875 18.378906 -15.519531 18.328125 -15.3125 L 17.703125 -10.71875 C 17.679688 -10.53125 17.632812 -10.40625 17.5625 -10.34375 C 17.488281 -10.28125 17.347656 -10.25 17.140625 -10.25 L 10.359375 -10.25 C 10.191406 -10.25 10.070312 -10.207031 10 -10.125 C 9.9375 -10.050781 9.878906 -9.90625 9.828125 -9.6875 L 9.34375 -6.21875 L 9.34375 -6.046875 C 9.34375 -5.859375 9.425781 -5.765625 9.59375 -5.765625 L 21.28125 -5.765625 C 21.519531 -5.765625 21.671875 -5.71875 21.734375 -5.625 C 21.804688 -5.53125 21.820312 -5.351562 21.78125 -5.09375 L 21.1875 -0.5625 C 21.132812 -0.351562 21.0625 -0.207031 20.96875 -0.125 C 20.875 -0.0390625 20.6875 0 20.40625 0 L 1.515625 0 C 1.203125 0 0.972656 -0.0625 0.828125 -0.1875 C 0.691406 -0.320312 0.625 -0.515625 0.625 -0.765625 L 0.671875 -1.09375 Z M 4.109375 -25.46875 "/></g></g></g><g fill="#ffffff" fill-opacity="1"><g transform="translate(140.070032, 40.824818)"><g><path d="M 23.421875 -0.953125 C 23.472656 -0.828125 23.5 -0.6875 23.5 -0.53125 C 23.5 -0.175781 23.273438 0 22.828125 0 L 16.015625 0 C 15.753906 0 15.550781 -0.0625 15.40625 -0.1875 C 15.269531 -0.320312 15.171875 -0.5625 15.109375 -0.90625 L 13.0625 -9.96875 C 13.019531 -10.113281 12.96875 -10.210938 12.90625 -10.265625 C 12.851562 -10.328125 12.734375 -10.359375 12.546875 -10.359375 L 10.4375 -10.359375 C 10.25 -10.359375 10.117188 -10.320312 10.046875 -10.25 C 9.972656 -10.1875 9.925781 -10.082031 9.90625 -9.9375 L 8.609375 -0.8125 C 8.554688 -0.457031 8.441406 -0.234375 8.265625 -0.140625 C 8.097656 -0.046875 7.789062 0 7.34375 0 L 1.4375 0 C 0.832031 0 0.578125 -0.363281 0.671875 -1.09375 L 4.109375 -25.46875 C 4.128906 -25.726562 4.179688 -25.890625 4.265625 -25.953125 C 4.347656 -26.023438 4.492188 -26.0625 4.703125 -26.0625 L 16.4375 -26.0625 C 19.550781 -26.0625 21.96875 -25.46875 23.6875 -24.28125 C 25.414062 -23.101562 26.28125 -21.460938 26.28125 -19.359375 C 26.28125 -17.648438 25.78125 -16.066406 24.78125 -14.609375 C 23.78125 -13.160156 22.488281 -12.117188 20.90625 -11.484375 C 20.59375 -11.367188 20.40625 -11.265625 20.34375 -11.171875 C 20.289062 -11.078125 20.289062 -10.945312 20.34375 -10.78125 Z M 14.640625 -15.59375 C 15.609375 -15.59375 16.410156 -15.921875 17.046875 -16.578125 C 17.691406 -17.234375 18.015625 -17.992188 18.015625 -18.859375 C 18.015625 -19.515625 17.773438 -20.007812 17.296875 -20.34375 C 16.816406 -20.6875 16.203125 -20.859375 15.453125 -20.859375 L 11.875 -20.859375 C 11.707031 -20.859375 11.585938 -20.8125 11.515625 -20.71875 C 11.453125 -20.625 11.394531 -20.4375 11.34375 -20.15625 L 10.75 -16.125 L 10.75 -15.953125 C 10.75 -15.804688 10.773438 -15.707031 10.828125 -15.65625 C 10.890625 -15.613281 10.992188 -15.59375 11.140625 -15.59375 Z M 14.640625 -15.59375 "/></g></g></g><g fill="#ffffff" fill-opacity="1"><g transform="translate(166.028655, 40.824818)"><g/></g></g><g fill="#ffffff" fill-opacity="1"><g transform="translate(173.053794, 40.824818)"><g/></g></g><g fill="#ffffff" fill-opacity="1"><g transform="translate(180.078933, 40.824818)"><g/></g></g><g fill="#ffffff" fill-opacity="1"><g transform="translate(187.107493, 40.824818)"><g><path d="M 10.5 -10.4375 C 10.3125 -10.4375 10.164062 -10.378906 10.0625 -10.265625 C 9.957031 -10.160156 9.894531 -9.96875 9.875 -9.6875 L 8.609375 -0.8125 C 8.554688 -0.457031 8.457031 -0.234375 8.3125 -0.140625 C 8.175781 -0.046875 7.898438 0 7.484375 0 L 1.328125 0 C 1.023438 0 0.828125 -0.0234375 0.734375 -0.078125 C 0.640625 -0.140625 0.59375 -0.265625 0.59375 -0.453125 L 0.625 -0.765625 L 4.109375 -25.46875 C 4.128906 -25.726562 4.179688 -25.890625 4.265625 -25.953125 C 4.347656 -26.023438 4.492188 -26.0625 4.703125 -26.0625 L 11.703125 -26.0625 C 11.835938 -26.0625 11.929688 -26.035156 11.984375 -25.984375 C 12.046875 -25.941406 12.078125 -25.863281 12.078125 -25.75 C 12.078125 -25.632812 12.066406 -25.539062 12.046875 -25.46875 L 10.890625 -17.078125 L 10.859375 -16.859375 C 10.859375 -16.597656 11.007812 -16.46875 11.3125 -16.46875 L 17.5 -16.46875 C 17.800781 -16.46875 18 -16.773438 18.09375 -17.390625 L 19.25 -25.53125 C 19.269531 -25.75 19.328125 -25.890625 19.421875 -25.953125 C 19.515625 -26.023438 19.664062 -26.0625 19.875 -26.0625 L 26.796875 -26.0625 C 26.941406 -26.0625 27.039062 -26.023438 27.09375 -25.953125 C 27.15625 -25.890625 27.1875 -25.75 27.1875 -25.53125 C 27.1875 -25.34375 27.175781 -25.179688 27.15625 -25.046875 L 23.703125 -0.671875 C 23.660156 -0.359375 23.597656 -0.164062 23.515625 -0.09375 C 23.429688 -0.03125 23.203125 0 22.828125 0 L 16.6875 0 C 16.351562 0 16.113281 -0.046875 15.96875 -0.140625 C 15.832031 -0.234375 15.765625 -0.394531 15.765625 -0.625 C 15.765625 -0.769531 15.78125 -0.890625 15.8125 -0.984375 L 17.078125 -10.109375 L 17.078125 -10.1875 C 17.078125 -10.351562 16.898438 -10.4375 16.546875 -10.4375 Z M 10.5 -10.4375 "/></g></g></g><g fill="#ffffff" fill-opacity="1"><g transform="translate(213.873272, 40.824818)"><g><path d="M 24.125 -10.078125 C 23.59375 -6.242188 22.273438 -3.546875 20.171875 -1.984375 C 18.078125 -0.429688 15.253906 0.34375 11.703125 0.34375 C 8.140625 0.34375 5.5625 -0.375 3.96875 -1.8125 C 2.375 -3.25 1.578125 -5.382812 1.578125 -8.21875 C 1.578125 -8.988281 1.660156 -9.984375 1.828125 -11.203125 L 3.828125 -25.46875 C 3.847656 -25.726562 3.898438 -25.890625 3.984375 -25.953125 C 4.066406 -26.023438 4.210938 -26.0625 4.421875 -26.0625 L 11.09375 -26.0625 C 11.3125 -26.0625 11.484375 -25.960938 11.609375 -25.765625 C 11.734375 -25.566406 11.773438 -25.347656 11.734375 -25.109375 L 9.625 -9.9375 C 9.53125 -9.1875 9.484375 -8.6875 9.484375 -8.4375 C 9.484375 -7.28125 9.738281 -6.457031 10.25 -5.96875 C 10.769531 -5.476562 11.535156 -5.234375 12.546875 -5.234375 C 13.828125 -5.234375 14.929688 -5.648438 15.859375 -6.484375 C 16.785156 -7.316406 17.375 -8.644531 17.625 -10.46875 L 19.734375 -25.46875 C 19.765625 -25.726562 19.816406 -25.890625 19.890625 -25.953125 C 19.972656 -26.023438 20.125 -26.0625 20.34375 -26.0625 L 25.609375 -26.0625 C 25.816406 -26.0625 25.984375 -25.960938 26.109375 -25.765625 C 26.242188 -25.566406 26.285156 -25.347656 26.234375 -25.109375 Z M 24.125 -10.078125 "/></g></g></g><g fill="#ffffff" fill-opacity="1"><g transform="translate(239.444777, 40.824818)"><g><path d="M 1.125 0 C 0.9375 0 0.804688 -0.0390625 0.734375 -0.125 C 0.660156 -0.207031 0.625 -0.34375 0.625 -0.53125 C 0.625 -0.71875 0.640625 -0.867188 0.671875 -0.984375 L 4.078125 -25.359375 C 4.097656 -25.617188 4.175781 -25.800781 4.3125 -25.90625 C 4.457031 -26.007812 4.660156 -26.0625 4.921875 -26.0625 L 15.390625 -26.0625 C 18.734375 -26.0625 21.289062 -25.523438 23.0625 -24.453125 C 24.832031 -23.390625 25.71875 -21.851562 25.71875 -19.84375 C 25.71875 -16.800781 23.898438 -14.671875 20.265625 -13.453125 C 20.097656 -13.398438 20.003906 -13.332031 19.984375 -13.25 C 19.960938 -13.175781 20.019531 -13.113281 20.15625 -13.0625 C 21.726562 -12.53125 22.867188 -11.84375 23.578125 -11 C 24.296875 -10.15625 24.65625 -9.097656 24.65625 -7.828125 C 24.65625 -4.878906 23.539062 -2.835938 21.3125 -1.703125 C 19.09375 -0.566406 16.21875 0 12.6875 0 Z M 14.5 -15.875 C 15.320312 -15.875 16.070312 -16.175781 16.75 -16.78125 C 17.425781 -17.394531 17.765625 -18.132812 17.765625 -19 C 17.765625 -19.5625 17.535156 -20 17.078125 -20.3125 C 16.628906 -20.632812 16.019531 -20.796875 15.25 -20.796875 L 12.1875 -20.796875 C 11.882812 -20.796875 11.664062 -20.742188 11.53125 -20.640625 C 11.40625 -20.535156 11.320312 -20.34375 11.28125 -20.0625 L 10.8125 -16.4375 L 10.78125 -16.15625 C 10.78125 -16.039062 10.804688 -15.960938 10.859375 -15.921875 C 10.921875 -15.890625 11.023438 -15.875 11.171875 -15.875 Z M 12.859375 -5.265625 C 13.460938 -5.265625 14.046875 -5.414062 14.609375 -5.71875 C 15.171875 -6.03125 15.632812 -6.441406 16 -6.953125 C 16.363281 -7.472656 16.546875 -8.046875 16.546875 -8.671875 C 16.546875 -9.234375 16.328125 -9.671875 15.890625 -9.984375 C 15.460938 -10.304688 14.847656 -10.46875 14.046875 -10.46875 L 10.578125 -10.46875 C 10.335938 -10.46875 10.171875 -10.414062 10.078125 -10.3125 C 9.984375 -10.207031 9.914062 -10.023438 9.875 -9.765625 L 9.3125 -5.828125 L 9.265625 -5.578125 C 9.265625 -5.441406 9.296875 -5.351562 9.359375 -5.3125 C 9.421875 -5.28125 9.53125 -5.265625 9.6875 -5.265625 Z M 12.859375 -5.265625 "/></g></g></g><g fill="#f4b120" fill-opacity="1"><g transform="translate(167.403975, 40.387699)"><g><path d="M 0.84375 5.78125 C 0.488281 5.78125 0.226562 5.648438 0.0625 5.390625 C -0.09375 5.128906 -0.148438 4.800781 -0.109375 4.40625 L 4.59375 -28.953125 C 4.632812 -29.285156 4.703125 -29.484375 4.796875 -29.546875 C 4.890625 -29.617188 5.097656 -29.65625 5.421875 -29.65625 L 8.6875 -29.65625 C 8.9375 -29.65625 9.144531 -29.5625 9.3125 -29.375 C 9.476562 -29.1875 9.535156 -28.988281 9.484375 -28.78125 L 4.6875 5.359375 C 4.664062 5.546875 4.617188 5.660156 4.546875 5.703125 C 4.484375 5.753906 4.332031 5.78125 4.09375 5.78125 Z M 0.84375 5.78125 "/></g></g></g><g fill="#f4b120" fill-opacity="1"><g transform="translate(175.984284, 40.387699)"><g><path d="M 0.84375 5.78125 C 0.488281 5.78125 0.226562 5.648438 0.0625 5.390625 C -0.09375 5.128906 -0.148438 4.800781 -0.109375 4.40625 L 4.59375 -28.953125 C 4.632812 -29.285156 4.703125 -29.484375 4.796875 -29.546875 C 4.890625 -29.617188 5.097656 -29.65625 5.421875 -29.65625 L 8.6875 -29.65625 C 8.9375 -29.65625 9.144531 -29.5625 9.3125 -29.375 C 9.476562 -29.1875 9.535156 -28.988281 9.484375 -28.78125 L 4.6875 5.359375 C 4.664062 5.546875 4.617188 5.660156 4.546875 5.703125 C 4.484375 5.753906 4.332031 5.78125 4.09375 5.78125 Z M 0.84375 5.78125 "/></g></g></g></svg>