<svg xmlns="http://www.w3.org/2000/svg" xmlns:xlink="http://www.w3.org/1999/xlink" width="170" zoomAndPan="magnify" viewBox="0 0 127.5 141.749996" height="189" preserveAspectRatio="xMidYMid meet" version="1.0"><defs><g/></defs><g fill="#ffffff" fill-opacity="1"><g transform="translate(12.061216, 116.020909)"><g><path d="M 33.671875 -1.359375 C 33.742188 -1.191406 33.78125 -0.988281 33.78125 -0.75 C 33.78125 -0.25 33.457031 0 32.8125 0 L 23.015625 0 C 22.648438 0 22.363281 -0.09375 22.15625 -0.28125 C 21.957031 -0.46875 21.804688 -0.8125 21.703125 -1.3125 L 18.78125 -14.34375 C 18.707031 -14.539062 18.628906 -14.679688 18.546875 -14.765625 C 18.460938 -14.847656 18.285156 -14.890625 18.015625 -14.890625 L 15 -14.890625 C 14.726562 -14.890625 14.539062 -14.835938 14.4375 -14.734375 C 14.332031 -14.640625 14.265625 -14.488281 14.234375 -14.28125 L 12.375 -1.15625 C 12.300781 -0.65625 12.140625 -0.335938 11.890625 -0.203125 C 11.640625 -0.0664062 11.191406 0 10.546875 0 L 2.0625 0 C 1.1875 0 0.816406 -0.519531 0.953125 -1.5625 L 5.90625 -36.59375 C 5.9375 -36.96875 6.007812 -37.203125 6.125 -37.296875 C 6.25 -37.398438 6.460938 -37.453125 6.765625 -37.453125 L 23.625 -37.453125 C 28.101562 -37.453125 31.578125 -36.601562 34.046875 -34.90625 C 36.523438 -33.207031 37.765625 -30.84375 37.765625 -27.8125 C 37.765625 -25.351562 37.046875 -23.082031 35.609375 -21 C 34.179688 -18.914062 32.320312 -17.421875 30.03125 -16.515625 C 29.59375 -16.335938 29.332031 -16.179688 29.25 -16.046875 C 29.164062 -15.921875 29.160156 -15.738281 29.234375 -15.5 Z M 21.046875 -22.421875 C 22.429688 -22.421875 23.585938 -22.890625 24.515625 -23.828125 C 25.441406 -24.773438 25.90625 -25.867188 25.90625 -27.109375 C 25.90625 -28.054688 25.554688 -28.769531 24.859375 -29.25 C 24.171875 -29.738281 23.289062 -29.984375 22.21875 -29.984375 L 17.0625 -29.984375 C 16.820312 -29.984375 16.648438 -29.914062 16.546875 -29.78125 C 16.453125 -29.644531 16.375 -29.378906 16.3125 -28.984375 L 15.453125 -23.171875 L 15.453125 -22.921875 C 15.453125 -22.710938 15.492188 -22.578125 15.578125 -22.515625 C 15.660156 -22.453125 15.800781 -22.421875 16 -22.421875 Z M 21.046875 -22.421875 "/></g></g></g><g fill="#ffffff" fill-opacity="1"><g transform="translate(19.275889, 65.661734)"><g><path d="M 33.671875 -1.359375 C 33.742188 -1.191406 33.78125 -0.988281 33.78125 -0.75 C 33.78125 -0.25 33.457031 0 32.8125 0 L 23.015625 0 C 22.648438 0 22.363281 -0.09375 22.15625 -0.28125 C 21.957031 -0.46875 21.804688 -0.8125 21.703125 -1.3125 L 18.78125 -14.34375 C 18.707031 -14.539062 18.628906 -14.679688 18.546875 -14.765625 C 18.460938 -14.847656 18.285156 -14.890625 18.015625 -14.890625 L 15 -14.890625 C 14.726562 -14.890625 14.539062 -14.835938 14.4375 -14.734375 C 14.332031 -14.640625 14.265625 -14.488281 14.234375 -14.28125 L 12.375 -1.15625 C 12.300781 -0.65625 12.140625 -0.335938 11.890625 -0.203125 C 11.640625 -0.0664062 11.191406 0 10.546875 0 L 2.0625 0 C 1.1875 0 0.816406 -0.519531 0.953125 -1.5625 L 5.90625 -36.59375 C 5.9375 -36.96875 6.007812 -37.203125 6.125 -37.296875 C 6.25 -37.398438 6.460938 -37.453125 6.765625 -37.453125 L 23.625 -37.453125 C 28.101562 -37.453125 31.578125 -36.601562 34.046875 -34.90625 C 36.523438 -33.207031 37.765625 -30.84375 37.765625 -27.8125 C 37.765625 -25.351562 37.046875 -23.082031 35.609375 -21 C 34.179688 -18.914062 32.320312 -17.421875 30.03125 -16.515625 C 29.59375 -16.335938 29.332031 -16.179688 29.25 -16.046875 C 29.164062 -15.921875 29.160156 -15.738281 29.234375 -15.5 Z M 21.046875 -22.421875 C 22.429688 -22.421875 23.585938 -22.890625 24.515625 -23.828125 C 25.441406 -24.773438 25.90625 -25.867188 25.90625 -27.109375 C 25.90625 -28.054688 25.554688 -28.769531 24.859375 -29.25 C 24.171875 -29.738281 23.289062 -29.984375 22.21875 -29.984375 L 17.0625 -29.984375 C 16.820312 -29.984375 16.648438 -29.914062 16.546875 -29.78125 C 16.453125 -29.644531 16.375 -29.378906 16.3125 -28.984375 L 15.453125 -23.171875 L 15.453125 -22.921875 C 15.453125 -22.710938 15.492188 -22.578125 15.578125 -22.515625 C 15.660156 -22.453125 15.800781 -22.421875 16 -22.421875 Z M 21.046875 -22.421875 "/></g></g></g><g fill="#ffffff" fill-opacity="1"><g transform="translate(58.429562, 101.901682)"><g><path d="M 2.09375 14.40625 C 1.21875 14.40625 0.578125 14.082031 0.171875 13.4375 C -0.234375 12.800781 -0.378906 11.988281 -0.265625 11 L 11.4375 -72.203125 C 11.550781 -73.023438 11.722656 -73.519531 11.953125 -73.6875 C 12.191406 -73.863281 12.71875 -73.953125 13.53125 -73.953125 L 21.65625 -73.953125 C 22.289062 -73.953125 22.8125 -73.71875 23.21875 -73.25 C 23.632812 -72.789062 23.78125 -72.296875 23.65625 -71.765625 L 11.703125 13.359375 C 11.640625 13.828125 11.519531 14.117188 11.34375 14.234375 C 11.175781 14.347656 10.800781 14.40625 10.21875 14.40625 Z M 2.09375 14.40625 "/></g></g></g><g fill="#ffffff" fill-opacity="1"><g transform="translate(79.820072, 101.901682)"><g><path d="M 2.09375 14.40625 C 1.21875 14.40625 0.578125 14.082031 0.171875 13.4375 C -0.234375 12.800781 -0.378906 11.988281 -0.265625 11 L 11.4375 -72.203125 C 11.550781 -73.023438 11.722656 -73.519531 11.953125 -73.6875 C 12.191406 -73.863281 12.71875 -73.953125 13.53125 -73.953125 L 21.65625 -73.953125 C 22.289062 -73.953125 22.8125 -73.71875 23.21875 -73.25 C 23.632812 -72.789062 23.78125 -72.296875 23.65625 -71.765625 L 11.703125 13.359375 C 11.640625 13.828125 11.519531 14.117188 11.34375 14.234375 C 11.175781 14.347656 10.800781 14.40625 10.21875 14.40625 Z M 2.09375 14.40625 "/></g></g></g></svg>