<?xml version="1.0" encoding="UTF-8"?>
<svg id="Camada_2" data-name="Camada 2" xmlns="http://www.w3.org/2000/svg" viewBox="0 0 99.78 40.87">
  <defs>
    <style>
      .cls-1 {
        fill: #231f20;
      }
    </style>
  </defs>
  <g id="Camada_1-2" data-name="Camada 1">
    <g>
      <path class="cls-1" d="M64.6,20.52C64.6,7.34,73.05.13,85.29.13c4.49,0,9.16,1.3,12.3,3.43l-5.02,9.22c-2.25-1.6-4.38-2.13-7.27-2.13-3.9,0-8.63,2.07-8.63,6.86v.12c2.01-2.6,5.56-4.02,9.17-4.02,7.1,0,13.95,4.67,13.95,13.07s-7.04,14.19-16.38,14.19c-12.95,0-18.8-8.81-18.8-20.34ZM87.66,27.16c0-2.54-3.13-3.43-5.49-3.43-2.01,0-3.96.36-5.56,1.6.24,2.65,1.89,5.03,6.03,5.03,3.01-.01,5.03-1.55,5.03-3.2h0Z"/>
      <path class="cls-1" d="M0,34.59l5.85-8.16c3.07,2.65,7.69,3.79,10.7,3.79,3.9,0,5.73-1.24,5.73-2.66s-.83-2.13-6.09-2.13c-1.71,0-5.14.06-5.73.12v-10.59c.77.06,4.32.06,5.73.06,3.79,0,5.44-.71,5.44-1.95,0-1.83-2.43-2.54-5.85-2.54-3.51,0-6.91,1.22-9.64,3.43L.53,6.5C4.02,2.66,9.4,0,17.09,0c10.88,0,16.44,4.43,16.44,10.94,0,4.2-3.67,7.92-8.69,8.75,4.37.47,9.34,3.79,9.34,9.22,0,7.04-6.92,11.83-17.15,11.83-7.81,0-13.72-2.6-17.03-6.15Z"/>
      <path class="cls-1" d="M32.11,20.4C32.11,7.21,40.56,0,52.8,0c4.49,0,9.16,1.3,12.3,3.43l-5.02,9.22c-2.25-1.6-4.38-2.13-7.27-2.13-3.9,0-8.63,2.07-8.63,6.86v.12c2.01-2.6,5.56-4.02,9.17-4.02,7.1,0,13.95,4.67,13.95,13.07s-7.04,14.19-16.38,14.19c-12.95,0-18.8-8.81-18.8-20.34ZM55.17,27.03c0-2.54-3.13-3.43-5.49-3.43-2.01,0-3.96.36-5.56,1.6.24,2.65,1.89,5.03,6.03,5.03,3.01-.01,5.03-1.55,5.03-3.2h0Z"/>
    </g>
  </g>
</svg>