<?xml version="1.0" encoding="UTF-8"?>
<svg id="Camada_2" data-name="Camada 2" xmlns="http://www.w3.org/2000/svg" viewBox="0 0 182.99 46.73">
  <defs>
    <style>
      .cls-1 {
        fill: #6e6f72;
      }

      .cls-2 {
        fill: #ee7035;
      }
    </style>
  </defs>
  <g id="Camada_1-2" data-name="Camada 1">
    <g>
      <g>
        <path class="cls-1" d="M2.72,30.55V.5h13.43c9.46,0,16.49,5.41,16.49,15s-7.03,15.06-16.45,15.06H2.72ZM23.4,15.5c0-4.06-2.34-7.07-7.21-7.07h-4.37v14.19h4.32c4.55,0,7.26-3.34,7.26-7.12Z"/>
        <path class="cls-1" d="M34.08,30.55V.5h22.8v7.93h-13.69v2.97h13.39v7.93h-13.39v3.29h13.7v7.93h-22.81Z"/>
        <path class="cls-1" d="M56.84,26.31l4.74-6.76c2.61,2.49,6.08,3.88,9.69,3.88,1.71,0,3.34-.45,3.34-1.62,0-2.88-16.76.05-16.76-11.81C57.83,4.91,62.07.05,70.32.05c4.91,0,9.33,1.4,12.75,4.19l-4.87,6.45c-2.56-1.89-5.65-2.93-8.83-2.97-1.79,0-2.3.59-2.3,1.35,0,2.86,16.72.41,16.72,11.58,0,6.62-4.91,10.46-12.98,10.46-6.4,0-10.77-1.89-13.97-4.78Z"/>
        <path class="cls-1" d="M104.56,30.55l-1.07-3.51h-10.82l-1.07,3.51h-10.32L92.35.5h11.45l11.07,30.05h-10.31ZM98.07,9.42l-2.97,9.69h5.95l-2.97-9.69Z"/>
        <path class="cls-1" d="M114.7,30.55V.5h22.8v7.93h-13.7v2.97h13.38v7.93h-13.38v11.22h-9.1Z"/>
        <path class="cls-1" d="M139.57,30.55V.5h9.1v30.05h-9.1Z"/>
        <path class="cls-1" d="M150.13,15.54c0-9.23,7.14-15.54,16.43-15.54s16.43,6.31,16.43,15.54-7.14,15.55-16.43,15.55-16.43-6.31-16.43-15.55ZM173.79,15.54c0-4.19-2.84-7.52-7.21-7.52s-7.21,3.34-7.21,7.52,2.82,7.53,7.19,7.53,7.21-3.34,7.21-7.53h.02Z"/>
      </g>
      <g>
        <path class="cls-2" d="M0,37.97c0-5.22,4-8.73,9.29-8.73,4.43,0,6.67,2.58,7.67,4.92l-4.41,2.03c-.47-1.42-1.77-2.4-3.27-2.46-2.46,0-4.1,1.88-4.1,4.21s1.65,4.21,4.1,4.21c1.5-.05,2.8-1.04,3.27-2.46l4.41,2.03c-.99,2.3-3.24,5-7.67,5-5.29,0-9.29-3.56-9.29-8.75Z"/>
        <path class="cls-2" d="M16.13,37.97c0-5.19,4.02-8.73,9.24-8.73s9.24,3.54,9.24,8.73-4.03,8.75-9.24,8.75-9.24-3.56-9.24-8.75ZM29.42,37.97c0-2.35-1.6-4.21-4.05-4.21s-4.06,1.86-4.06,4.21,1.6,4.21,4.05,4.21,4.06-1.86,4.06-4.21Z"/>
        <path class="cls-2" d="M44.21,46.41l-2.33-5.3h-1.85v5.32h-5.11v-16.91h9.01c3.95,0,6.08,2.63,6.08,5.8,0,2.91-1.7,4.46-3.04,5.12l3.06,5.97h-5.82ZM44.81,35.29c0-.91-.81-1.32-1.67-1.32h-3.11v2.66h3.11c.86,0,1.67-.4,1.67-1.34Z"/>
        <path class="cls-2" d="M59.85,46.41l-2.33-5.3h-1.85v5.32h-5.11v-16.91h9.03c3.95,0,6.08,2.63,6.08,5.8,0,2.91-1.7,4.46-3.04,5.12l3.06,5.97h-5.84ZM60.46,35.29c0-.91-.81-1.32-1.67-1.32h-3.11v2.66h3.11c.86,0,1.67-.4,1.67-1.34Z"/>
        <path class="cls-2" d="M66.2,46.41v-16.89h5.12v16.89h-5.12Z"/>
        <path class="cls-2" d="M72.53,46.41v-16.89h7.55c5.32,0,9.27,3.04,9.27,8.43s-3.95,8.46-9.24,8.46h-7.57ZM84.17,37.95c0-2.28-1.32-3.98-4.05-3.98h-2.46v7.98h2.43c2.54,0,4.08-1.87,4.08-4Z"/>
        <path class="cls-2" d="M100.16,46.41l-.61-1.97h-6.08l-.61,1.97h-5.8l6.24-16.89h6.43l6.21,16.89h-5.79ZM96.51,34.53l-1.67,5.44h3.34l-1.67-5.44Z"/>
        <path class="cls-2" d="M121.62,46.41l-6.23-8.56v8.56h-5.11v-16.89h5.27l5.87,8v-8h5.12v16.89h-4.91Z"/>
        <path class="cls-2" d="M126.84,37.97c0-5.19,4.02-8.73,9.24-8.73s9.24,3.54,9.24,8.73-4.02,8.75-9.24,8.75-9.24-3.56-9.24-8.75ZM140.13,37.97c0-2.35-1.59-4.21-4.05-4.21s-4.05,1.88-4.05,4.21,1.59,4.21,4.05,4.21,4.05-1.86,4.05-4.21Z"/>
        <path class="cls-2" d="M161.83,46.41l-.61-1.97h-6.08l-.61,1.97h-5.8l6.23-16.89h6.43l6.23,16.89h-5.8ZM158.18,34.53l-1.66,5.44h3.34l-1.68-5.44Z"/>
        <path class="cls-2" d="M176.31,46.41l-2.33-5.3h-1.85v5.32h-5.11v-16.91h9.01c3.95,0,6.08,2.63,6.08,5.8,0,2.91-1.7,4.46-3.04,5.12l3.06,5.97h-5.82ZM176.92,35.29c0-.91-.81-1.32-1.67-1.32h-3.11v2.66h3.11c.86,0,1.67-.4,1.67-1.34Z"/>
      </g>
    </g>
  </g>
</svg>