<?xml version="1.0" encoding="UTF-8"?>
<svg id="Camada_2" data-name="Camada 2" xmlns="http://www.w3.org/2000/svg" viewBox="0 0 99.95 41.04">
  <defs>
    <style>
      .cls-1 {
        fill: #231f20;
      }
    </style>
  </defs>
  <g id="Camada_1-2" data-name="Camada 1">
    <g>
      <path class="cls-1" d="M0,34.84l5.9-8.22c3.1,2.67,7.74,3.82,10.78,3.82,3.93,0,5.78-1.25,5.78-2.68s-.83-2.14-6.14-2.14c-1.73,0-5.18.06-5.78.12v-10.66c.77.06,4.35.06,5.78.06,3.82,0,5.48-.72,5.48-1.97,0-1.85-2.44-2.56-5.9-2.56-3.54,0-6.96,1.23-9.71,3.45L.54,6.55C4.05,2.68,9.47,0,17.22,0c10.96,0,16.56,4.47,16.56,11.02,0,4.23-3.69,7.98-8.76,8.82,4.41.48,9.41,3.82,9.41,9.29,0,7.09-6.97,11.91-17.27,11.91-7.87,0-13.82-2.62-17.16-6.19Z"/>
      <path class="cls-1" d="M32.34,20.55C32.34,7.27,40.86,0,53.19,0c4.53,0,9.23,1.31,12.39,3.45l-5.06,9.29c-2.26-1.61-4.41-2.15-7.33-2.15-3.93,0-8.7,2.08-8.7,6.91v.12c2.02-2.62,5.6-4.05,9.23-4.05,7.15,0,14.06,4.71,14.06,13.17s-7.09,14.29-16.5,14.29c-13.04,0-18.94-8.88-18.94-20.49ZM55.57,27.23c0-2.56-3.16-3.46-5.53-3.46-2.02,0-3.99.36-5.6,1.61.24,2.67,1.91,5.06,6.07,5.06,3.03-.01,5.07-1.56,5.07-3.22h0Z"/>
      <path class="cls-1" d="M65.64,35.44l6.43-8.46c2.74,2.26,6.61,3.45,10.07,3.45,3.99,0,5.6-1.61,5.6-3.28,0-1.79-1.55-3.27-5.24-3.27-3.04,0-5.36.83-7.39,2.74l-8.28-1.91V.6h30.38v10.48h-18.34v5.6c1.91-1.85,4.94-3.04,8.28-3.04,6.79,0,12.81,5.06,12.81,12.98,0,8.76-6.55,14.41-17.69,14.41-7.09,0-12.74-2.07-16.62-5.59Z"/>
    </g>
  </g>
</svg>