<svg xmlns="http://www.w3.org/2000/svg" xmlns:xlink="http://www.w3.org/1999/xlink" width="400" zoomAndPan="magnify" viewBox="0 0 300 30.000001" height="40" preserveAspectRatio="xMidYMid meet" version="1.0"><defs><g/></defs><g fill="#2939da" fill-opacity="1"><g transform="translate(4.868712, 22.385383)"><g><path d="M 0.53125 -21.484375 L 4.375 -21.484375 C 6.125 -21.484375 7.597656 -21.003906 8.796875 -20.046875 C 10.003906 -19.085938 10.609375 -17.726562 10.609375 -15.96875 C 10.609375 -13.59375 9.535156 -11.9375 7.390625 -11 L 7.390625 -10.734375 C 9.617188 -9.953125 10.734375 -8.28125 10.734375 -5.71875 C 10.734375 -3.894531 10.171875 -2.484375 9.046875 -1.484375 C 7.921875 -0.492188 6.5 0 4.78125 0 L 0.53125 0 Z M 4.5625 -18.25 L 4.5625 -12.34375 L 4.828125 -12.34375 C 5.316406 -12.34375 5.707031 -12.519531 6 -12.875 C 6.289062 -13.238281 6.4375 -13.78125 6.4375 -14.5 L 6.4375 -16.109375 C 6.4375 -16.828125 6.289062 -17.363281 6 -17.71875 C 5.707031 -18.070312 5.316406 -18.25 4.828125 -18.25 Z M 4.5625 -9.125 L 4.5625 -3.21875 L 4.828125 -3.21875 C 5.328125 -3.21875 5.742188 -3.40625 6.078125 -3.78125 C 6.410156 -4.15625 6.578125 -4.726562 6.578125 -5.5 L 6.578125 -6.84375 C 6.578125 -7.613281 6.410156 -8.1875 6.078125 -8.5625 C 5.742188 -8.9375 5.328125 -9.125 4.828125 -9.125 Z M 4.5625 -9.125 "/></g></g></g><g fill="#2939da" fill-opacity="1"><g transform="translate(15.820689, 22.385383)"><g><path d="M 0.375 -9.9375 L 0.375 -11.546875 C 0.375 -15.117188 0.835938 -17.710938 1.765625 -19.328125 C 2.703125 -20.941406 4.070312 -21.75 5.875 -21.75 C 7.6875 -21.75 9.054688 -20.941406 9.984375 -19.328125 C 10.921875 -17.710938 11.390625 -15.117188 11.390625 -11.546875 L 11.390625 -9.9375 C 11.390625 -6.351562 10.921875 -3.753906 9.984375 -2.140625 C 9.054688 -0.535156 7.6875 0.265625 5.875 0.265625 C 4.070312 0.265625 2.703125 -0.535156 1.765625 -2.140625 C 0.835938 -3.753906 0.375 -6.351562 0.375 -9.9375 Z M 4.8125 -17.15625 L 4.8125 -4.453125 C 4.8125 -4.023438 4.90625 -3.691406 5.09375 -3.453125 C 5.289062 -3.210938 5.550781 -3.09375 5.875 -3.09375 C 6.195312 -3.09375 6.457031 -3.210938 6.65625 -3.453125 C 6.851562 -3.691406 6.953125 -4.023438 6.953125 -4.453125 L 6.953125 -17.15625 C 6.953125 -17.582031 6.851562 -17.914062 6.65625 -18.15625 C 6.457031 -18.40625 6.195312 -18.53125 5.875 -18.53125 C 5.550781 -18.53125 5.289062 -18.40625 5.09375 -18.15625 C 4.90625 -17.914062 4.8125 -17.582031 4.8125 -17.15625 Z M 4.8125 -17.15625 "/></g></g></g><g fill="#2939da" fill-opacity="1"><g transform="translate(27.577974, 22.385383)"><g><path d="M 0.21875 -21.484375 L 9.609375 -21.484375 L 9.609375 -17.984375 L 6.921875 -17.984375 L 6.921875 0 L 2.90625 0 L 2.90625 -17.984375 L 0.21875 -17.984375 Z M 0.21875 -21.484375 "/></g></g></g><g fill="#2939da" fill-opacity="1"><g transform="translate(37.402559, 22.385383)"><g><path d="M 2.140625 -21.484375 L 8.046875 -21.484375 L 10.0625 -0.265625 L 10.0625 0 L 6.3125 0 L 5.859375 -5.09375 L 4.34375 -5.09375 L 3.890625 0 L 0.140625 0 L 0.140625 -0.265625 Z M 4.375 -8.59375 L 5.828125 -8.59375 L 5.234375 -15.96875 L 4.96875 -15.96875 Z M 4.375 -8.59375 "/></g></g></g><g fill="#2939da" fill-opacity="1"><g transform="translate(47.602941, 22.385383)"><g/></g></g><g fill="#2939da" fill-opacity="1"><g transform="translate(51.360971, 22.385383)"><g><path d="M 0.53125 -21.484375 L 4.515625 -21.484375 C 6.265625 -21.484375 7.71875 -20.90625 8.875 -19.75 C 10.03125 -18.59375 10.609375 -16.929688 10.609375 -14.765625 L 10.609375 -14.234375 C 10.609375 -12.066406 10.03125 -10.40625 8.875 -9.25 C 7.71875 -8.09375 6.28125 -7.515625 4.5625 -7.515625 L 4.5625 0 L 0.53125 0 Z M 4.5625 -18.25 L 4.5625 -10.734375 L 4.828125 -10.734375 C 5.992188 -10.734375 6.578125 -11.453125 6.578125 -12.890625 L 6.578125 -16.109375 C 6.578125 -17.535156 5.992188 -18.25 4.828125 -18.25 Z M 4.5625 -18.25 "/></g></g></g><g fill="#2939da" fill-opacity="1"><g transform="translate(62.178734, 22.385383)"><g><path d="M 0.53125 -21.484375 L 4.515625 -21.484375 C 6.242188 -21.484375 7.664062 -20.898438 8.78125 -19.734375 C 9.90625 -18.566406 10.46875 -16.972656 10.46875 -14.953125 C 10.46875 -13.660156 10.285156 -12.585938 9.921875 -11.734375 C 9.554688 -10.890625 8.976562 -10.082031 8.1875 -9.3125 L 10.203125 -0.265625 L 10.203125 0 L 6.3125 0 L 4.78125 -8.15625 L 4.375 -8.15625 L 4.5625 0 L 0.53125 0 Z M 4.5625 -18.25 L 4.5625 -11 L 4.703125 -11 C 5.203125 -11 5.613281 -11.1875 5.9375 -11.5625 C 6.269531 -11.945312 6.4375 -12.476562 6.4375 -13.15625 L 6.4375 -16.109375 C 6.4375 -16.785156 6.269531 -17.3125 5.9375 -17.6875 C 5.613281 -18.0625 5.203125 -18.25 4.703125 -18.25 Z M 4.5625 -18.25 "/></g></g></g><g fill="#2939da" fill-opacity="1"><g transform="translate(72.862284, 22.385383)"><g><path d="M 2.140625 -21.484375 L 8.046875 -21.484375 L 10.0625 -0.265625 L 10.0625 0 L 6.3125 0 L 5.859375 -5.09375 L 4.34375 -5.09375 L 3.890625 0 L 0.140625 0 L 0.140625 -0.265625 Z M 4.375 -8.59375 L 5.828125 -8.59375 L 5.234375 -15.96875 L 4.96875 -15.96875 Z M 4.375 -8.59375 "/></g></g></g><g fill="#2939da" fill-opacity="1"><g transform="translate(83.062666, 22.385383)"><g/></g></g><g fill="#2939da" fill-opacity="1"><g transform="translate(86.820695, 22.385383)"><g><path d="M 0.375 -11.546875 C 0.375 -15.109375 0.847656 -17.695312 1.796875 -19.3125 C 2.742188 -20.9375 4.128906 -21.75 5.953125 -21.75 C 7.535156 -21.75 8.742188 -21.164062 9.578125 -20 C 10.421875 -18.832031 10.84375 -17.222656 10.84375 -15.171875 L 10.84375 -13.421875 L 6.8125 -13.421875 L 6.8125 -17.296875 C 6.8125 -18.117188 6.492188 -18.53125 5.859375 -18.53125 C 5.160156 -18.53125 4.8125 -18.070312 4.8125 -17.15625 L 4.8125 -4.453125 C 4.8125 -3.546875 5.160156 -3.09375 5.859375 -3.09375 C 6.492188 -3.09375 6.8125 -3.503906 6.8125 -4.328125 L 6.8125 -8.1875 L 10.84375 -8.1875 L 10.84375 -6.3125 C 10.84375 -4.25 10.421875 -2.632812 9.578125 -1.46875 C 8.742188 -0.3125 7.535156 0.265625 5.953125 0.265625 C 4.128906 0.265625 2.742188 -0.539062 1.796875 -2.15625 C 0.847656 -3.78125 0.375 -6.375 0.375 -9.9375 Z M 0.375 -11.546875 "/></g></g></g><g fill="#2939da" fill-opacity="1"><g transform="translate(98.014285, 22.385383)"><g><path d="M 0.375 -9.9375 L 0.375 -11.546875 C 0.375 -15.117188 0.835938 -17.710938 1.765625 -19.328125 C 2.703125 -20.941406 4.070312 -21.75 5.875 -21.75 C 7.6875 -21.75 9.054688 -20.941406 9.984375 -19.328125 C 10.921875 -17.710938 11.390625 -15.117188 11.390625 -11.546875 L 11.390625 -9.9375 C 11.390625 -6.351562 10.921875 -3.753906 9.984375 -2.140625 C 9.054688 -0.535156 7.6875 0.265625 5.875 0.265625 C 4.070312 0.265625 2.703125 -0.535156 1.765625 -2.140625 C 0.835938 -3.753906 0.375 -6.351562 0.375 -9.9375 Z M 4.8125 -17.15625 L 4.8125 -4.453125 C 4.8125 -4.023438 4.90625 -3.691406 5.09375 -3.453125 C 5.289062 -3.210938 5.550781 -3.09375 5.875 -3.09375 C 6.195312 -3.09375 6.457031 -3.210938 6.65625 -3.453125 C 6.851562 -3.691406 6.953125 -4.023438 6.953125 -4.453125 L 6.953125 -17.15625 C 6.953125 -17.582031 6.851562 -17.914062 6.65625 -18.15625 C 6.457031 -18.40625 6.195312 -18.53125 5.875 -18.53125 C 5.550781 -18.53125 5.289062 -18.40625 5.09375 -18.15625 C 4.90625 -17.914062 4.8125 -17.582031 4.8125 -17.15625 Z M 4.8125 -17.15625 "/></g></g></g><g fill="#2939da" fill-opacity="1"><g transform="translate(109.77157, 22.385383)"><g><path d="M 0.53125 -21.484375 L 4.515625 -21.484375 C 6.242188 -21.484375 7.664062 -20.898438 8.78125 -19.734375 C 9.90625 -18.566406 10.46875 -16.972656 10.46875 -14.953125 C 10.46875 -13.660156 10.285156 -12.585938 9.921875 -11.734375 C 9.554688 -10.890625 8.976562 -10.082031 8.1875 -9.3125 L 10.203125 -0.265625 L 10.203125 0 L 6.3125 0 L 4.78125 -8.15625 L 4.375 -8.15625 L 4.5625 0 L 0.53125 0 Z M 4.5625 -18.25 L 4.5625 -11 L 4.703125 -11 C 5.203125 -11 5.613281 -11.1875 5.9375 -11.5625 C 6.269531 -11.945312 6.4375 -12.476562 6.4375 -13.15625 L 6.4375 -16.109375 C 6.4375 -16.785156 6.269531 -17.3125 5.9375 -17.6875 C 5.613281 -18.0625 5.203125 -18.25 4.703125 -18.25 Z M 4.5625 -18.25 "/></g></g></g><g fill="#2939da" fill-opacity="1"><g transform="translate(120.45512, 22.385383)"><g><path d="M 0.53125 -21.484375 L 4.515625 -21.484375 C 6.242188 -21.484375 7.664062 -20.898438 8.78125 -19.734375 C 9.90625 -18.566406 10.46875 -16.972656 10.46875 -14.953125 C 10.46875 -13.660156 10.285156 -12.585938 9.921875 -11.734375 C 9.554688 -10.890625 8.976562 -10.082031 8.1875 -9.3125 L 10.203125 -0.265625 L 10.203125 0 L 6.3125 0 L 4.78125 -8.15625 L 4.375 -8.15625 L 4.5625 0 L 0.53125 0 Z M 4.5625 -18.25 L 4.5625 -11 L 4.703125 -11 C 5.203125 -11 5.613281 -11.1875 5.9375 -11.5625 C 6.269531 -11.945312 6.4375 -12.476562 6.4375 -13.15625 L 6.4375 -16.109375 C 6.4375 -16.785156 6.269531 -17.3125 5.9375 -17.6875 C 5.613281 -18.0625 5.203125 -18.25 4.703125 -18.25 Z M 4.5625 -18.25 "/></g></g></g><g fill="#2939da" fill-opacity="1"><g transform="translate(131.13867, 22.385383)"><g><path d="M 0.53125 0 L 0.53125 -21.484375 L 7.78125 -21.484375 L 7.78125 -17.984375 L 4.5625 -17.984375 L 4.5625 -12.625 L 7.390625 -12.625 L 7.390625 -9.125 L 4.5625 -9.125 L 4.5625 -3.484375 L 7.78125 -3.484375 L 7.78125 0 Z M 0.53125 0 "/></g></g></g><g fill="#2939da" fill-opacity="1"><g transform="translate(139.245296, 22.385383)"><g><path d="M 0.53125 -21.484375 L 4.515625 -21.484375 C 6.242188 -21.484375 7.664062 -20.898438 8.78125 -19.734375 C 9.90625 -18.566406 10.46875 -16.972656 10.46875 -14.953125 C 10.46875 -13.660156 10.285156 -12.585938 9.921875 -11.734375 C 9.554688 -10.890625 8.976562 -10.082031 8.1875 -9.3125 L 10.203125 -0.265625 L 10.203125 0 L 6.3125 0 L 4.78125 -8.15625 L 4.375 -8.15625 L 4.5625 0 L 0.53125 0 Z M 4.5625 -18.25 L 4.5625 -11 L 4.703125 -11 C 5.203125 -11 5.613281 -11.1875 5.9375 -11.5625 C 6.269531 -11.945312 6.4375 -12.476562 6.4375 -13.15625 L 6.4375 -16.109375 C 6.4375 -16.785156 6.269531 -17.3125 5.9375 -17.6875 C 5.613281 -18.0625 5.203125 -18.25 4.703125 -18.25 Z M 4.5625 -18.25 "/></g></g></g></svg>