<svg xmlns="http://www.w3.org/2000/svg" xmlns:xlink="http://www.w3.org/1999/xlink" width="400" zoomAndPan="magnify" viewBox="0 0 300 30.000001" height="40" preserveAspectRatio="xMidYMid meet" version="1.0"><defs><clipPath id="bef72fa9ce"><path d="M 140 10 L 149.8125 10 L 149.8125 21 L 140 21 Z M 140 10 " clip-rule="nonzero"/></clipPath><clipPath id="84a312c2f5"><path d="M 93.199219 5 L 97 5 L 97 9 L 93.199219 9 Z M 93.199219 5 " clip-rule="nonzero"/></clipPath><clipPath id="5b5b3cdff9"><path d="M 141 0 L 149.8125 0 L 149.8125 11 L 141 11 Z M 141 0 " clip-rule="nonzero"/></clipPath><clipPath id="f3479b23ce"><path d="M 93.199219 0 L 118 0 L 118 4 L 93.199219 4 Z M 93.199219 0 " clip-rule="nonzero"/></clipPath><clipPath id="f5b1ecb138"><path d="M 93.199219 21 L 149.8125 21 L 149.8125 23 L 93.199219 23 Z M 93.199219 21 " clip-rule="nonzero"/></clipPath><clipPath id="7469afef3e"><path d="M 93.199219 28 L 149.8125 28 L 149.8125 29 L 93.199219 29 Z M 93.199219 28 " clip-rule="nonzero"/></clipPath><clipPath id="10615a1996"><path d="M 93.199219 10 L 103 10 L 103 21 L 93.199219 21 Z M 93.199219 10 " clip-rule="nonzero"/></clipPath><clipPath id="63327a5010"><path d="M 93.199219 23 L 149.8125 23 L 149.8125 28 L 93.199219 28 Z M 93.199219 23 " clip-rule="nonzero"/></clipPath></defs><path fill="#0c8a4b" d="M 113.402344 12.269531 L 113.402344 10.59375 L 109.242188 10.59375 L 109.242188 12.269531 L 110.09375 12.269531 L 110.09375 16.191406 L 106.707031 10.59375 L 103.472656 10.59375 L 103.472656 12.269531 L 104.269531 12.269531 L 104.269531 18.617188 L 103.472656 18.617188 L 103.472656 20.296875 L 107.628906 20.296875 L 107.628906 18.617188 L 106.773438 18.617188 L 106.773438 14.84375 L 110.164062 20.308594 L 112.617188 20.308594 L 112.617188 12.269531 Z M 113.402344 12.269531 " fill-opacity="1" fill-rule="nonzero"/><path fill="#0c8a4b" d="M 117.273438 12.269531 L 118.054688 12.269531 L 118.054688 10.59375 L 113.898438 10.59375 L 113.898438 12.269531 L 114.695312 12.269531 L 114.695312 18.617188 L 113.898438 18.617188 L 113.898438 20.296875 L 118.054688 20.296875 L 118.054688 18.617188 L 117.273438 18.617188 Z M 117.273438 12.269531 " fill-opacity="1" fill-rule="nonzero"/><path fill="#0c8a4b" d="M 131.957031 18.617188 L 131.210938 18.617188 L 130.5625 12.269531 L 131.320312 12.269531 L 131.320312 10.59375 L 127.007812 10.59375 L 125.371094 17.355469 L 123.914062 10.59375 L 119.242188 10.59375 L 119.242188 12.269531 L 119.984375 12.269531 L 119.324219 18.617188 L 118.539062 18.617188 L 118.539062 20.296875 L 121.910156 20.296875 L 121.910156 18.617188 L 121.195312 18.617188 L 121.804688 12.960938 L 123.402344 20.296875 L 126.320312 20.296875 L 128.167969 13.125 L 128.621094 18.617188 L 127.917969 18.617188 L 127.917969 20.296875 L 131.957031 20.296875 Z M 131.957031 18.617188 " fill-opacity="1" fill-rule="nonzero"/><path fill="#0c8a4b" d="M 135.785156 12.269531 L 138.027344 12.269531 L 138.195312 13.847656 L 140.164062 13.847656 L 140.164062 10.59375 L 132.433594 10.59375 L 132.433594 12.269531 L 133.207031 12.269531 L 133.207031 18.617188 L 132.433594 18.617188 L 132.433594 20.296875 L 140.125 20.296875 L 140.125 17.050781 L 138.167969 17.050781 L 137.988281 18.617188 L 135.785156 18.617188 L 135.785156 16.316406 L 138.027344 16.316406 L 138.027344 14.582031 L 135.785156 14.582031 Z M 135.785156 12.269531 " fill-opacity="1" fill-rule="nonzero"/><g clip-path="url(#bef72fa9ce)"><path fill="#0c8a4b" d="M 144.144531 18.617188 L 144.144531 12.269531 L 144.941406 12.269531 C 146.363281 12.269531 147.070312 13.308594 147.070312 15.398438 C 147.070312 17.542969 146.332031 18.617188 144.871094 18.617188 Z M 140.769531 10.59375 L 140.769531 12.269531 L 141.566406 12.269531 L 141.566406 18.617188 L 140.769531 18.617188 L 140.769531 20.296875 L 145.191406 20.296875 C 148.125 20.296875 149.777344 18.507812 149.777344 15.398438 C 149.777344 12.289062 148.125 10.59375 145.191406 10.59375 Z M 140.769531 10.59375 " fill-opacity="1" fill-rule="nonzero"/></g><g clip-path="url(#84a312c2f5)"><path fill="#64656e" d="M 96.023438 8.445312 C 95.738281 8.523438 95.441406 8.558594 95.144531 8.554688 C 94.226562 8.554688 93.707031 8.019531 93.707031 7.066406 C 93.707031 6.117188 94.265625 5.453125 95.15625 5.453125 C 95.429688 5.449219 95.703125 5.480469 95.96875 5.542969 L 96.039062 5.160156 C 95.734375 5.082031 95.425781 5.039062 95.113281 5.039062 C 93.976562 5.039062 93.199219 5.847656 93.199219 7.078125 C 93.199219 8.308594 93.90625 8.96875 95.058594 8.96875 C 95.410156 8.976562 95.761719 8.925781 96.101562 8.816406 Z M 96.023438 8.445312 " fill-opacity="1" fill-rule="nonzero"/></g><path fill="#64656e" d="M 98.28125 8.554688 C 97.5 8.554688 97.027344 7.984375 97.027344 7.015625 C 97.027344 6.042969 97.5 5.453125 98.28125 5.453125 C 99.0625 5.453125 99.550781 6.003906 99.550781 7 C 99.550781 7.992188 99.074219 8.554688 98.28125 8.554688 Z M 98.28125 8.96875 C 99.398438 8.96875 100.058594 8.214844 100.058594 6.992188 C 100.058594 5.769531 99.429688 5.039062 98.308594 5.039062 C 97.1875 5.039062 96.53125 5.777344 96.53125 7.023438 C 96.53125 8.273438 97.164062 8.96875 98.285156 8.96875 Z M 98.28125 8.96875 " fill-opacity="1" fill-rule="nonzero"/><path fill="#64656e" d="M 101.269531 7.023438 L 101.269531 5.484375 L 102.109375 5.484375 C 102.3125 5.46875 102.511719 5.550781 102.648438 5.699219 C 102.785156 5.851562 102.847656 6.054688 102.820312 6.253906 C 102.835938 6.460938 102.765625 6.660156 102.625 6.808594 C 102.480469 6.953125 102.285156 7.035156 102.082031 7.023438 Z M 103.398438 8.855469 L 102.660156 7.316406 C 103.160156 7.089844 103.429688 6.542969 103.308594 6.003906 C 103.1875 5.46875 102.707031 5.09375 102.160156 5.105469 L 100.738281 5.105469 L 100.738281 8.90625 L 101.242188 8.90625 L 101.242188 7.417969 L 102.1875 7.417969 L 102.84375 8.910156 L 103.386719 8.910156 Z M 103.398438 8.855469 " fill-opacity="1" fill-rule="nonzero"/><path fill="#64656e" d="M 104.617188 7.023438 L 104.617188 5.484375 L 105.460938 5.484375 C 105.660156 5.46875 105.859375 5.550781 105.996094 5.699219 C 106.132812 5.851562 106.199219 6.054688 106.171875 6.253906 C 106.183594 6.460938 106.113281 6.660156 105.972656 6.808594 C 105.832031 6.953125 105.632812 7.035156 105.433594 7.023438 Z M 106.75 8.855469 L 106.011719 7.316406 C 106.507812 7.089844 106.777344 6.542969 106.65625 6.003906 C 106.535156 5.46875 106.054688 5.09375 105.507812 5.105469 L 104.089844 5.105469 L 104.089844 8.90625 L 104.589844 8.90625 L 104.589844 7.417969 L 105.53125 7.417969 L 106.191406 8.910156 L 106.734375 8.910156 Z M 106.75 8.855469 " fill-opacity="1" fill-rule="nonzero"/><path fill="#64656e" d="M 107.460938 5.105469 L 107.964844 5.105469 L 107.964844 8.90625 L 107.460938 8.90625 Z M 107.460938 5.105469 " fill-opacity="1" fill-rule="nonzero"/><path fill="#64656e" d="M 114.355469 7.496094 L 113.136719 7.496094 L 113.761719 5.476562 Z M 115.300781 8.855469 L 114.09375 5.105469 L 113.460938 5.105469 L 112.199219 8.855469 L 112.199219 8.90625 L 112.699219 8.90625 L 113.011719 7.894531 L 114.464844 7.894531 L 114.761719 8.90625 L 115.296875 8.90625 Z M 115.300781 8.855469 " fill-opacity="1" fill-rule="nonzero"/><path fill="#64656e" d="M 115.742188 8.746094 C 116.121094 8.890625 116.527344 8.964844 116.933594 8.96875 C 117.800781 8.96875 118.320312 8.550781 118.320312 7.867188 C 118.320312 7.304688 118.007812 7.035156 117.09375 6.761719 C 116.644531 6.625 116.28125 6.492188 116.28125 6.121094 C 116.28125 5.746094 116.613281 5.441406 117.136719 5.441406 C 117.472656 5.449219 117.808594 5.503906 118.128906 5.601562 L 118.230469 5.21875 C 117.871094 5.101562 117.492188 5.039062 117.113281 5.039062 C 116.296875 5.039062 115.769531 5.492188 115.769531 6.164062 C 115.769531 6.832031 116.417969 7.078125 117.035156 7.253906 C 117.582031 7.402344 117.792969 7.574219 117.792969 7.878906 C 117.792969 8.292969 117.488281 8.554688 116.925781 8.554688 C 116.566406 8.542969 116.207031 8.480469 115.863281 8.371094 Z M 115.742188 8.746094 " fill-opacity="1" fill-rule="nonzero"/><path fill="#bcd02c" d="M 119.136719 7.5 L 119.136719 8.757812 C 122.265625 9.160156 125.390625 8.398438 128.296875 7.511719 C 131.28125 6.585938 133.75 4.207031 136.636719 3.78125 C 140.484375 3.214844 145.230469 4.902344 146.371094 4.441406 L 146.371094 3.855469 C 145.632812 4.246094 140.484375 3.472656 134.84375 5.171875 C 128.53125 7.074219 121.128906 8.191406 119.136719 7.5 " fill-opacity="1" fill-rule="nonzero"/><path fill="#64656e" d="M 144.433594 8.847656 C 144.421875 8.8125 144.386719 8.789062 144.347656 8.789062 C 144.308594 8.789062 144.261719 8.789062 144.234375 8.789062 C 144.210938 8.769531 144.183594 8.757812 144.152344 8.746094 C 144.152344 8.746094 144.109375 8.746094 144.097656 8.726562 C 144.082031 8.703125 144.058594 8.6875 144.03125 8.679688 C 144.011719 8.671875 143.988281 8.660156 143.96875 8.648438 C 143.945312 8.636719 143.921875 8.625 143.902344 8.609375 C 143.878906 8.597656 143.859375 8.585938 143.839844 8.566406 C 143.839844 8.566406 143.816406 8.566406 143.816406 8.550781 C 143.816406 8.53125 143.816406 8.460938 143.792969 8.449219 C 143.765625 8.441406 143.703125 8.449219 143.734375 8.410156 C 143.765625 8.371094 143.757812 8.347656 143.734375 8.378906 C 143.714844 8.410156 143.695312 8.410156 143.707031 8.4375 C 143.71875 8.460938 143.726562 8.480469 143.707031 8.460938 C 143.683594 8.445312 143.664062 8.445312 143.660156 8.40625 C 143.65625 8.371094 143.640625 8.3125 143.636719 8.296875 C 143.632812 8.28125 143.636719 8.296875 143.636719 8.269531 C 143.636719 8.132812 143.652344 8 143.683594 7.867188 C 143.734375 7.675781 143.8125 7.457031 143.828125 7.375 C 143.839844 7.332031 143.851562 7.289062 143.871094 7.25 C 143.871094 7.25 143.871094 7.25 143.871094 7.222656 C 143.871094 7.199219 143.898438 7.101562 143.914062 7.03125 C 143.925781 6.960938 143.953125 6.96875 143.957031 6.929688 C 143.976562 6.84375 144 6.753906 144.027344 6.667969 C 144.078125 6.554688 144.09375 6.429688 144.070312 6.308594 C 144.046875 6.222656 143.988281 6.160156 143.941406 6.042969 C 143.875 5.941406 143.800781 5.851562 143.714844 5.769531 C 143.691406 5.738281 143.5625 5.570312 143.394531 5.367188 C 143.226562 5.164062 143.199219 5.101562 143.175781 5.085938 C 143.148438 5.074219 143.148438 5.085938 143.132812 5.046875 C 143.113281 5.007812 143.074219 4.957031 143.050781 4.957031 C 143.03125 4.953125 143.023438 4.957031 143.019531 4.910156 C 143.011719 4.855469 143 4.804688 142.980469 4.757812 C 142.980469 4.734375 142.933594 4.734375 142.957031 4.726562 C 142.980469 4.71875 143.019531 4.707031 143.011719 4.667969 C 143 4.609375 142.984375 4.546875 142.96875 4.492188 C 142.945312 4.4375 142.933594 4.386719 142.933594 4.328125 C 142.933594 4.257812 142.933594 4.175781 142.933594 4.152344 C 142.933594 4.125 142.933594 4.035156 142.953125 4.003906 C 142.972656 3.972656 142.953125 3.921875 142.953125 3.921875 C 142.980469 3.933594 143.011719 3.933594 143.039062 3.921875 C 143.070312 3.894531 143.101562 3.871094 143.132812 3.847656 C 143.226562 3.773438 143.308594 3.683594 143.375 3.585938 C 143.460938 3.445312 143.582031 3.210938 143.605469 3.175781 C 143.628906 3.140625 143.648438 3.105469 143.664062 3.070312 C 143.675781 3.027344 143.699219 2.984375 143.734375 2.957031 C 143.761719 2.925781 143.808594 2.894531 143.808594 2.863281 C 143.808594 2.832031 143.808594 2.785156 143.808594 2.765625 C 143.808594 2.742188 143.808594 2.726562 143.808594 2.710938 C 143.8125 2.683594 143.8125 2.65625 143.808594 2.628906 C 143.792969 2.605469 143.777344 2.578125 143.765625 2.554688 L 143.714844 2.460938 C 143.695312 2.433594 143.667969 2.417969 143.632812 2.421875 L 143.59375 2.421875 C 143.59375 2.421875 143.59375 2.375 143.5625 2.371094 C 143.527344 2.367188 143.515625 2.398438 143.503906 2.425781 C 143.492188 2.449219 143.484375 2.476562 143.480469 2.480469 C 143.472656 2.484375 143.390625 2.550781 143.453125 2.5625 C 143.4375 2.574219 143.425781 2.585938 143.414062 2.601562 C 143.402344 2.652344 143.394531 2.699219 143.394531 2.75 C 143.394531 2.789062 143.40625 2.824219 143.417969 2.859375 C 143.433594 2.890625 143.433594 2.925781 143.417969 2.957031 C 143.398438 3 143.316406 3.097656 143.273438 3.160156 C 143.242188 3.210938 143.203125 3.257812 143.164062 3.300781 C 143.164062 3.300781 143.140625 3.300781 143.164062 3.300781 C 143.164062 3.273438 143.164062 3.242188 143.164062 3.214844 C 143.167969 3.179688 143.175781 3.144531 143.1875 3.109375 C 143.210938 3.035156 143.328125 2.902344 143.292969 2.734375 C 143.253906 2.609375 143.199219 2.488281 143.125 2.378906 C 143.078125 2.304688 142.820312 2.066406 142.835938 2.019531 L 142.835938 1.964844 C 142.824219 1.929688 142.832031 1.890625 142.855469 1.859375 C 142.882812 1.835938 142.917969 1.820312 142.953125 1.816406 C 143 1.816406 143.132812 1.757812 143.144531 1.710938 C 143.160156 1.667969 143.121094 1.617188 143.144531 1.585938 C 143.171875 1.550781 143.175781 1.53125 143.144531 1.507812 C 143.113281 1.488281 143.113281 1.488281 143.113281 1.488281 C 143.117188 1.476562 143.125 1.46875 143.132812 1.460938 C 143.152344 1.460938 143.175781 1.460938 143.164062 1.421875 C 143.148438 1.382812 143.105469 1.351562 143.125 1.328125 C 143.140625 1.300781 143.1875 1.285156 143.183594 1.242188 C 143.179688 1.199219 143.132812 1.203125 143.085938 1.160156 C 143.050781 1.128906 143.03125 1.085938 143.023438 1.042969 C 143.03125 1.015625 143.03125 0.984375 143.023438 0.957031 C 143 0.921875 142.980469 0.878906 142.964844 0.839844 C 142.941406 0.796875 142.910156 0.761719 142.867188 0.734375 L 142.816406 0.6875 C 142.835938 0.675781 142.84375 0.652344 142.835938 0.628906 C 142.835938 0.628906 142.835938 0.667969 142.8125 0.667969 C 142.824219 0.640625 142.824219 0.609375 142.8125 0.578125 C 142.8125 0.578125 142.8125 0.621094 142.8125 0.628906 C 142.777344 0.507812 142.679688 0.410156 142.558594 0.371094 C 142.578125 0.386719 142.589844 0.40625 142.601562 0.425781 C 142.53125 0.398438 142.457031 0.378906 142.378906 0.371094 C 142.429688 0.390625 142.480469 0.414062 142.527344 0.445312 C 142.433594 0.410156 142.328125 0.410156 142.234375 0.445312 C 142.277344 0.4375 142.320312 0.4375 142.363281 0.445312 C 142.28125 0.457031 142.207031 0.488281 142.140625 0.539062 C 142.191406 0.515625 142.25 0.5 142.304688 0.488281 C 142.25 0.511719 142.199219 0.542969 142.152344 0.582031 C 142.21875 0.558594 142.292969 0.542969 142.363281 0.539062 C 142.433594 0.539062 142.429688 0.539062 142.386719 0.574219 C 142.316406 0.601562 142.246094 0.640625 142.183594 0.679688 C 142.121094 0.730469 142.109375 0.722656 142.105469 0.710938 C 142.101562 0.703125 142.105469 0.671875 142.0625 0.683594 C 142.046875 0.683594 142.035156 0.683594 142.019531 0.683594 C 142.007812 0.6875 141.996094 0.6875 141.984375 0.683594 C 141.984375 0.683594 141.984375 0.605469 141.921875 0.578125 C 141.890625 0.554688 141.851562 0.554688 141.820312 0.578125 C 141.820312 0.578125 141.804688 0.578125 141.792969 0.578125 C 141.78125 0.578125 141.792969 0.59375 141.761719 0.578125 C 141.734375 0.558594 141.695312 0.542969 141.605469 0.625 C 141.589844 0.636719 141.578125 0.652344 141.566406 0.667969 C 141.492188 0.71875 141.421875 0.78125 141.363281 0.855469 C 141.273438 0.957031 141.214844 1.082031 141.191406 1.210938 C 141.171875 1.34375 141.09375 1.457031 140.976562 1.519531 C 141.089844 1.472656 141.183594 1.390625 141.25 1.289062 C 141.316406 1.167969 141.363281 0.992188 141.410156 0.984375 C 141.519531 0.960938 141.382812 1.125 141.320312 1.230469 C 141.257812 1.339844 141.480469 1.039062 141.609375 0.988281 C 141.742188 0.9375 141.632812 0.910156 141.769531 0.847656 C 141.78125 0.859375 141.789062 0.867188 141.804688 0.878906 C 141.8125 0.902344 141.8125 0.933594 141.804688 0.960938 C 141.789062 1.058594 141.800781 1.152344 141.839844 1.242188 C 141.878906 1.332031 141.929688 1.414062 141.996094 1.488281 C 142.058594 1.546875 142.140625 1.539062 142.195312 1.632812 C 142.222656 1.679688 142.242188 1.734375 142.246094 1.789062 C 142.246094 1.789062 142.183594 1.789062 142.113281 1.789062 C 142.015625 1.800781 141.914062 1.835938 141.828125 1.886719 C 141.796875 1.917969 141.761719 1.941406 141.722656 1.964844 C 141.695312 1.988281 141.664062 2.011719 141.640625 2.042969 C 141.640625 2.042969 141.605469 2.042969 141.585938 2.089844 C 141.566406 2.117188 141.542969 2.140625 141.515625 2.164062 C 141.488281 2.191406 141.441406 2.246094 141.429688 2.253906 C 141.417969 2.261719 141.402344 2.269531 141.402344 2.277344 C 141.398438 2.285156 141.398438 2.292969 141.402344 2.300781 C 141.402344 2.300781 141.175781 2.507812 141.046875 2.65625 C 140.945312 2.765625 140.855469 2.886719 140.78125 3.015625 C 140.75 3.074219 140.695312 3.179688 140.722656 3.21875 C 140.75 3.257812 140.824219 3.269531 140.917969 3.324219 C 141.03125 3.386719 141.152344 3.433594 141.273438 3.472656 C 141.375 3.503906 141.78125 3.601562 141.820312 3.609375 C 141.828125 3.652344 141.828125 3.691406 141.820312 3.734375 C 141.796875 3.765625 141.710938 3.820312 141.707031 3.855469 C 141.703125 3.886719 141.707031 3.902344 141.683594 3.921875 C 141.65625 3.945312 141.609375 3.976562 141.609375 4.015625 C 141.613281 4.054688 141.628906 4.105469 141.609375 4.121094 L 141.574219 4.1875 C 141.5625 4.21875 141.542969 4.246094 141.519531 4.273438 C 141.5 4.296875 141.464844 4.316406 141.457031 4.332031 C 141.453125 4.355469 141.445312 4.375 141.4375 4.394531 C 141.355469 4.519531 141.304688 4.660156 141.292969 4.808594 C 141.296875 4.894531 141.316406 4.984375 141.34375 5.066406 C 141.34375 5.089844 141.28125 5.15625 141.292969 5.191406 C 141.300781 5.226562 141.308594 5.261719 141.292969 5.28125 C 141.265625 5.289062 141.25 5.308594 141.25 5.335938 C 141.25 5.367188 141.25 5.375 141.230469 5.382812 C 141.210938 5.414062 141.195312 5.445312 141.179688 5.476562 C 141.15625 5.519531 141.0625 5.6875 141.023438 5.769531 C 140.988281 5.851562 140.929688 5.980469 140.917969 5.996094 C 140.839844 6.085938 140.75 6.167969 140.65625 6.246094 C 140.527344 6.308594 140.40625 6.390625 140.300781 6.488281 C 140.300781 6.488281 140.300781 6.488281 140.300781 6.515625 C 140.128906 6.679688 139.945312 6.84375 139.914062 6.875 C 139.882812 6.90625 139.625 7.210938 139.539062 7.316406 C 139.449219 7.425781 139.292969 7.621094 139.269531 7.640625 C 139.242188 7.664062 139.210938 7.691406 139.179688 7.710938 C 139.179688 7.710938 139.15625 7.710938 139.148438 7.710938 C 139.136719 7.710938 139.148438 7.710938 139.105469 7.710938 C 139.066406 7.71875 139.023438 7.726562 138.984375 7.742188 C 138.957031 7.761719 138.921875 7.769531 138.890625 7.765625 C 138.828125 7.761719 138.765625 7.78125 138.714844 7.816406 C 138.714844 7.84375 138.683594 7.867188 138.714844 8.015625 C 138.75 8.160156 138.800781 8.316406 138.816406 8.4375 C 138.832031 8.582031 138.867188 8.722656 138.914062 8.859375 C 138.972656 8.957031 139.046875 9.101562 139.105469 9.085938 C 139.152344 9.078125 139.191406 9.042969 139.199219 8.996094 C 139.199219 8.917969 139.191406 8.84375 139.183594 8.773438 C 139.183594 8.730469 139.183594 8.714844 139.183594 8.695312 C 139.183594 8.671875 139.222656 8.664062 139.226562 8.636719 C 139.222656 8.609375 139.222656 8.585938 139.226562 8.5625 C 139.242188 8.539062 139.253906 8.511719 139.257812 8.488281 C 139.257812 8.460938 139.257812 8.457031 139.277344 8.441406 C 139.296875 8.421875 139.277344 8.386719 139.3125 8.386719 C 139.347656 8.386719 139.3125 8.386719 139.3125 8.40625 C 139.3125 8.429688 139.292969 8.480469 139.3125 8.46875 C 139.335938 8.457031 139.339844 8.394531 139.351562 8.386719 C 139.355469 8.363281 139.355469 8.34375 139.351562 8.320312 C 139.355469 8.304688 139.355469 8.285156 139.351562 8.265625 C 139.351562 8.265625 139.3125 8.230469 139.332031 8.207031 C 139.347656 8.1875 139.414062 8.097656 139.429688 8.066406 C 139.449219 8.039062 139.453125 8.039062 139.429688 8.03125 C 139.496094 7.933594 139.574219 7.84375 139.660156 7.765625 C 139.773438 7.667969 139.894531 7.582031 140.015625 7.5 L 140.28125 7.320312 C 140.28125 7.320312 140.394531 7.253906 140.464844 7.203125 L 140.636719 7.089844 C 140.636719 7.089844 140.636719 7.089844 140.667969 7.089844 L 141.375 6.59375 C 141.441406 6.546875 141.667969 6.355469 141.75 6.277344 C 141.832031 6.199219 141.902344 6.132812 142.007812 6.042969 L 142.300781 5.804688 C 142.300781 5.804688 142.300781 5.785156 142.324219 5.804688 C 142.347656 5.828125 142.492188 5.933594 142.574219 5.988281 C 142.640625 6.042969 142.71875 6.089844 142.796875 6.128906 C 142.855469 6.144531 142.910156 6.175781 142.960938 6.207031 C 143.015625 6.238281 143.066406 6.273438 143.117188 6.3125 C 143.117188 6.3125 143.179688 6.386719 143.203125 6.421875 C 143.226562 6.46875 143.25 6.515625 143.269531 6.5625 C 143.269531 6.5625 143.320312 6.859375 143.3125 6.894531 C 143.304688 6.929688 143.253906 7.140625 143.253906 7.140625 C 143.242188 7.226562 143.238281 7.3125 143.234375 7.398438 C 143.234375 7.503906 143.234375 7.757812 143.234375 7.890625 C 143.230469 8 143.21875 8.113281 143.207031 8.222656 L 143.183594 8.296875 C 143.183594 8.296875 143.183594 8.296875 143.164062 8.296875 C 143.140625 8.296875 143.164062 8.335938 143.164062 8.359375 C 143.164062 8.386719 143.164062 8.390625 143.132812 8.390625 C 143.105469 8.390625 143.101562 8.390625 143.097656 8.40625 C 143.09375 8.425781 143.097656 8.5 143.074219 8.558594 C 143.070312 8.617188 143.070312 8.675781 143.074219 8.734375 C 143.074219 8.773438 143.097656 8.8125 143.132812 8.832031 C 143.21875 8.863281 143.304688 8.886719 143.398438 8.902344 C 143.527344 8.917969 143.652344 8.945312 143.78125 8.976562 C 143.976562 9.015625 144.179688 9.007812 144.375 8.953125 C 144.515625 8.902344 144.484375 8.832031 144.464844 8.785156 M 141.429688 3.066406 C 141.394531 3.050781 141.363281 3.027344 141.332031 3.003906 C 141.367188 2.964844 141.40625 2.929688 141.453125 2.902344 C 141.503906 2.871094 141.558594 2.835938 141.609375 2.796875 C 141.605469 2.832031 141.605469 2.863281 141.609375 2.898438 C 141.625 2.9375 141.636719 2.980469 141.640625 3.023438 C 141.65625 3.09375 141.675781 3.160156 141.707031 3.222656 C 141.605469 3.175781 141.507812 3.125 141.414062 3.066406 " fill-opacity="1" fill-rule="nonzero"/><g clip-path="url(#5b5b3cdff9)"><path fill="#64656e" d="M 142 8.378906 C 142.027344 8.445312 142.121094 8.402344 142.152344 8.34375 C 142.191406 8.253906 142.222656 8.164062 142.246094 8.066406 C 142.246094 8.03125 142.285156 8.03125 142.304688 8 C 142.328125 7.949219 142.359375 7.902344 142.394531 7.859375 C 142.464844 7.789062 142.542969 7.722656 142.628906 7.664062 C 142.703125 7.605469 142.726562 7.601562 142.746094 7.585938 C 142.769531 7.566406 142.769531 7.5625 142.746094 7.542969 C 142.726562 7.523438 142.714844 7.542969 142.816406 7.519531 C 143 7.472656 143.1875 7.445312 143.378906 7.4375 C 143.550781 7.445312 143.71875 7.464844 143.886719 7.496094 C 144.132812 7.539062 144.382812 7.566406 144.632812 7.578125 C 144.777344 7.574219 144.921875 7.582031 145.0625 7.601562 C 145.21875 7.640625 145.382812 7.652344 145.546875 7.640625 C 145.640625 7.621094 145.722656 7.558594 145.769531 7.472656 C 145.8125 7.417969 145.859375 7.351562 145.90625 7.277344 C 145.957031 7.207031 146.128906 6.996094 146.261719 6.828125 C 146.363281 6.691406 146.453125 6.550781 146.527344 6.398438 C 146.535156 6.394531 146.542969 6.390625 146.546875 6.382812 C 146.554688 6.359375 146.5625 6.335938 146.570312 6.3125 C 146.570312 6.3125 146.644531 6.402344 146.839844 6.609375 L 147.277344 7.078125 C 147.34375 7.140625 147.371094 7.230469 147.351562 7.320312 C 147.351562 7.503906 147.367188 7.6875 147.398438 7.867188 C 147.441406 8.085938 147.515625 8.292969 147.621094 8.488281 C 147.730469 8.683594 147.824219 8.890625 147.902344 9.101562 C 147.96875 9.265625 148.023438 9.4375 148.066406 9.609375 C 148.066406 9.652344 148.066406 9.648438 148.066406 9.648438 C 148.066406 9.648438 148.066406 9.671875 148.066406 9.789062 C 148.078125 9.871094 148.113281 9.941406 148.167969 10 C 148.191406 10.027344 148.191406 10 148.191406 10.042969 C 148.191406 10.0625 148.203125 10.078125 148.214844 10.085938 C 148.226562 10.097656 148.246094 10.105469 148.261719 10.101562 C 148.417969 10.042969 148.570312 9.972656 148.714844 9.886719 C 148.839844 9.8125 148.972656 9.746094 149.109375 9.695312 C 149.226562 9.644531 149.335938 9.578125 149.433594 9.496094 C 149.527344 9.417969 149.609375 9.324219 149.679688 9.226562 C 149.699219 9.171875 149.65625 9.132812 149.597656 9.128906 C 149.496094 9.160156 149.398438 9.203125 149.308594 9.253906 C 149.195312 9.296875 149.074219 9.308594 148.953125 9.292969 C 148.878906 9.296875 148.808594 9.285156 148.738281 9.257812 C 148.707031 9.253906 148.675781 9.253906 148.644531 9.257812 C 148.617188 9.257812 148.625 9.257812 148.605469 9.242188 L 148.578125 9.242188 C 148.578125 9.242188 148.605469 9.273438 148.550781 9.214844 C 148.488281 9.160156 148.433594 9.089844 148.398438 9.015625 C 148.378906 8.957031 148.304688 8.789062 148.265625 8.65625 C 148.226562 8.527344 148.183594 8.074219 148.15625 7.941406 C 148.128906 7.8125 148.042969 7.449219 148.035156 7.339844 C 148.027344 7.226562 148.0625 7.121094 148.058594 6.980469 C 148.054688 6.84375 147.988281 6.808594 147.898438 6.671875 C 147.816406 6.546875 147.746094 6.414062 147.691406 6.277344 C 147.605469 6.101562 147.472656 5.851562 147.472656 5.851562 C 147.472656 5.851562 147.449219 5.8125 147.425781 5.761719 C 147.398438 5.710938 147.402344 5.660156 147.386719 5.632812 C 147.367188 5.574219 147.359375 5.507812 147.359375 5.445312 C 147.34375 5.355469 147.292969 5.277344 147.222656 5.222656 C 147.199219 5.203125 147.199219 5.222656 147.199219 5.183594 C 147.203125 5.144531 147.1875 5.105469 147.160156 5.078125 C 147.132812 5.078125 147.121094 5.007812 147.101562 4.964844 C 147.078125 4.921875 147.050781 4.824219 147.050781 4.824219 L 147.070312 4.824219 C 147.070312 4.800781 147.070312 4.777344 147.070312 4.757812 C 147.089844 4.707031 147.105469 4.65625 147.113281 4.601562 C 147.117188 4.53125 147.117188 4.460938 147.113281 4.394531 C 147.113281 4.367188 147.113281 4.320312 147.113281 4.296875 C 147.113281 4.273438 147.113281 4.164062 147.113281 4.140625 C 147.105469 4.109375 147.105469 4.078125 147.113281 4.046875 C 147.117188 4.027344 147.125 4.011719 147.140625 4 C 147.183594 4.027344 147.238281 4.027344 147.277344 4 C 147.359375 3.929688 147.433594 3.855469 147.503906 3.777344 C 147.621094 3.679688 147.730469 3.574219 147.824219 3.460938 C 147.910156 3.324219 147.980469 3.183594 148.035156 3.035156 C 148.0625 2.984375 148.097656 2.9375 148.140625 2.898438 C 148.183594 2.859375 148.21875 2.8125 148.242188 2.761719 C 148.242188 2.710938 148.300781 2.683594 148.308594 2.636719 C 148.316406 2.609375 148.308594 2.578125 148.28125 2.5625 C 148.28125 2.5625 148.28125 2.519531 148.28125 2.496094 C 148.28125 2.472656 148.242188 2.472656 148.230469 2.46875 C 148.21875 2.464844 148.230469 2.46875 148.230469 2.4375 C 148.226562 2.421875 148.222656 2.402344 148.210938 2.382812 C 148.210938 2.382812 148.15625 2.367188 148.15625 2.367188 C 148.140625 2.355469 148.121094 2.355469 148.105469 2.367188 C 148.109375 2.355469 148.109375 2.347656 148.105469 2.339844 C 148.082031 2.3125 148.050781 2.292969 148.011719 2.28125 C 147.996094 2.269531 147.972656 2.269531 147.953125 2.28125 C 147.953125 2.234375 147.953125 2.191406 147.917969 2.191406 C 147.882812 2.191406 147.882812 2.191406 147.871094 2.226562 C 147.859375 2.265625 147.871094 2.265625 147.839844 2.28125 C 147.808594 2.300781 147.816406 2.308594 147.804688 2.347656 C 147.792969 2.386719 147.78125 2.421875 147.765625 2.457031 C 147.757812 2.476562 147.757812 2.503906 147.765625 2.523438 C 147.769531 2.566406 147.769531 2.609375 147.765625 2.648438 C 147.761719 2.699219 147.773438 2.746094 147.796875 2.789062 C 147.816406 2.8125 147.796875 2.859375 147.757812 2.914062 C 147.71875 2.96875 147.632812 3.117188 147.609375 3.164062 C 147.585938 3.210938 147.46875 3.226562 147.464844 3.1875 C 147.460938 3.144531 147.464844 3.054688 147.464844 3.054688 L 147.542969 3.015625 C 147.558594 3.015625 147.542969 2.984375 147.542969 2.953125 C 147.542969 2.921875 147.519531 2.800781 147.515625 2.769531 C 147.511719 2.691406 147.511719 2.613281 147.515625 2.535156 C 147.507812 2.429688 147.496094 2.328125 147.476562 2.222656 C 147.464844 2.132812 147.441406 2.046875 147.402344 1.964844 C 147.363281 1.910156 147.308594 1.867188 147.242188 1.847656 C 147.175781 1.804688 147.105469 1.777344 147.03125 1.757812 C 146.976562 1.742188 146.925781 1.722656 146.875 1.695312 C 146.882812 1.667969 146.890625 1.640625 146.902344 1.617188 C 146.917969 1.597656 146.925781 1.578125 146.929688 1.554688 C 146.929688 1.527344 146.929688 1.484375 146.929688 1.460938 C 146.929688 1.441406 147.050781 1.40625 147.070312 1.398438 C 147.09375 1.390625 147.164062 1.363281 147.179688 1.320312 C 147.191406 1.28125 147.179688 1.242188 147.152344 1.210938 C 147.152344 1.191406 147.171875 1.15625 147.183594 1.136719 C 147.195312 1.121094 147.160156 1.085938 147.136719 1.085938 C 147.113281 1.082031 147.1875 1.046875 147.199219 1.03125 C 147.210938 1.015625 147.210938 0.996094 147.199219 0.984375 C 147.195312 0.96875 147.195312 0.949219 147.199219 0.933594 C 147.199219 0.914062 147.210938 0.898438 147.230469 0.890625 C 147.230469 0.890625 147.265625 0.855469 147.269531 0.835938 C 147.273438 0.800781 147.253906 0.765625 147.21875 0.75 C 147.179688 0.726562 147.144531 0.699219 147.113281 0.667969 C 147.078125 0.636719 147.089844 0.625 147.113281 0.609375 C 147.125 0.59375 147.125 0.574219 147.113281 0.558594 C 147.105469 0.527344 147.089844 0.5 147.070312 0.476562 C 147.042969 0.445312 147.023438 0.414062 147.007812 0.378906 C 146.988281 0.339844 146.957031 0.304688 146.917969 0.277344 C 146.917969 0.277344 146.917969 0.277344 146.917969 0.238281 C 146.917969 0.203125 146.796875 0.125 146.566406 0.121094 C 146.347656 0.117188 146.136719 0.195312 145.976562 0.339844 C 145.871094 0.484375 145.828125 0.664062 145.859375 0.839844 C 145.898438 0.996094 146.128906 1.230469 146.164062 1.304688 C 146.195312 1.394531 146.203125 1.492188 146.191406 1.585938 C 146.1875 1.613281 146.175781 1.636719 146.15625 1.660156 L 146.121094 1.660156 C 146.085938 1.667969 146.050781 1.679688 146.019531 1.683594 C 145.992188 1.683594 145.988281 1.71875 145.953125 1.761719 C 145.921875 1.796875 145.886719 1.820312 145.84375 1.839844 C 145.789062 1.871094 145.742188 1.910156 145.695312 1.953125 C 145.671875 1.984375 145.640625 2 145.601562 2.003906 C 145.554688 2.023438 145.507812 2.050781 145.46875 2.082031 C 145.421875 2.125 145.371094 2.167969 145.320312 2.203125 C 145.269531 2.21875 145.285156 2.277344 145.269531 2.339844 C 145.25 2.398438 145.238281 2.382812 145.199219 2.40625 C 145.164062 2.429688 145.148438 2.480469 145.089844 2.558594 C 145.039062 2.628906 144.984375 2.695312 144.925781 2.761719 C 144.878906 2.800781 144.824219 2.875 144.804688 2.886719 C 144.78125 2.902344 144.804688 2.914062 144.804688 2.914062 C 144.773438 2.957031 144.75 3 144.726562 3.042969 C 144.675781 3.132812 144.625 3.21875 144.566406 3.304688 C 144.5 3.414062 144.476562 3.464844 144.507812 3.566406 C 144.523438 3.648438 144.582031 3.707031 144.660156 3.71875 L 144.941406 3.71875 C 145.082031 3.71875 145.222656 3.707031 145.359375 3.675781 L 145.675781 3.625 C 145.675781 3.625 145.707031 3.75 145.730469 3.8125 C 145.753906 3.871094 145.753906 3.886719 145.78125 3.957031 C 145.800781 4.054688 145.828125 4.148438 145.867188 4.242188 C 145.902344 4.300781 145.847656 4.363281 145.832031 4.382812 C 145.820312 4.40625 145.804688 4.457031 145.78125 4.515625 C 145.753906 4.574219 145.75 4.566406 145.726562 4.617188 C 145.683594 4.695312 145.65625 4.78125 145.636719 4.871094 C 145.625 4.972656 145.632812 5.074219 145.660156 5.171875 C 145.664062 5.199219 145.664062 5.226562 145.660156 5.253906 C 145.667969 5.300781 145.683594 5.34375 145.710938 5.382812 C 145.710938 5.429688 145.710938 5.425781 145.6875 5.492188 C 145.675781 5.542969 145.683594 5.601562 145.710938 5.648438 C 145.710938 5.703125 145.675781 5.71875 145.636719 5.8125 C 145.597656 5.90625 145.542969 6 145.539062 6.019531 C 145.535156 6.042969 145.578125 6.09375 145.578125 6.09375 C 145.496094 6.257812 145.441406 6.429688 145.417969 6.609375 C 145.414062 6.738281 145.367188 6.867188 145.285156 6.96875 C 145.175781 7.066406 145.117188 7.011719 145.015625 6.988281 C 144.863281 6.929688 144.703125 6.890625 144.542969 6.875 C 144.28125 6.851562 144.019531 6.882812 143.773438 6.96875 C 143.539062 7.023438 143.300781 7.046875 143.0625 7.046875 C 142.976562 7.054688 142.890625 7.035156 142.820312 6.988281 C 142.820312 6.988281 142.820312 6.964844 142.707031 6.910156 C 142.632812 6.859375 142.546875 6.832031 142.457031 6.820312 C 142.425781 6.820312 142.425781 6.820312 142.398438 6.820312 C 142.375 6.820312 142.351562 6.796875 142.324219 6.863281 C 142.265625 7.015625 142.21875 7.171875 142.179688 7.332031 C 142.15625 7.433594 142.019531 7.78125 141.988281 7.925781 C 141.96875 8.109375 141.980469 8.292969 142.023438 8.472656 M 145.527344 3.25 C 145.527344 3.25 145.324219 3.25 145.269531 3.25 C 145.210938 3.25 145.179688 3.199219 145.207031 3.1875 C 145.242188 3.171875 145.273438 3.152344 145.304688 3.132812 C 145.304688 3.132812 145.304688 3.132812 145.339844 3.132812 C 145.375 3.132812 145.394531 3.167969 145.414062 3.152344 L 145.472656 3.078125 C 145.488281 3.105469 145.503906 3.132812 145.515625 3.164062 C 145.515625 3.195312 145.539062 3.253906 145.515625 3.253906 " fill-opacity="1" fill-rule="nonzero"/></g><path fill="#bcd02c" d="M 142.476562 5.101562 C 141.035156 5.25 138.527344 5.746094 135.4375 5.644531 C 137.347656 6 139.28125 6 142.054688 5.773438 C 144.390625 5.5625 146.695312 5.113281 148.941406 4.4375 L 148.941406 3.511719 C 146.871094 4.34375 144.695312 4.878906 142.476562 5.101562 " fill-opacity="1" fill-rule="nonzero"/><g clip-path="url(#f3479b23ce)"><path fill="#bcd02c" d="M 107.753906 1.082031 C 102.855469 1.859375 97.671875 2.171875 93.234375 1.398438 L 93.234375 2.726562 C 98.101562 3.523438 103.074219 3.335938 107.871094 2.179688 C 112.082031 1.335938 115.160156 0.921875 117.660156 0.867188 C 114.5 0.386719 112.183594 0.375 107.753906 1.082031 " fill-opacity="1" fill-rule="nonzero"/></g><path fill="#bcd02c" d="M 117.644531 0.867188 C 118.101562 0.9375 118.578125 1.015625 119.0625 1.105469 C 122.097656 1.640625 126.085938 3.921875 130.9375 5.0625 C 132.40625 5.402344 133.902344 5.597656 135.410156 5.644531 C 133.257812 5.246094 131.148438 4.4375 127.886719 3.097656 C 124.335938 1.652344 121.796875 0.769531 117.628906 0.867188 " fill-opacity="1" fill-rule="nonzero"/><g clip-path="url(#f5b1ecb138)"><path fill="#64656e" d="M 93.207031 21.96875 L 149.8125 21.96875 L 149.8125 22.152344 L 93.207031 22.152344 Z M 93.207031 21.96875 " fill-opacity="1" fill-rule="nonzero"/></g><g clip-path="url(#7469afef3e)"><path fill="#64656e" d="M 93.207031 28.804688 L 149.8125 28.804688 L 149.8125 28.992188 L 93.207031 28.992188 Z M 93.207031 28.804688 " fill-opacity="1" fill-rule="nonzero"/></g><g clip-path="url(#10615a1996)"><path fill="#0c8a4b" d="M 102.988281 12.269531 L 102.988281 10.59375 L 98.824219 10.59375 L 98.824219 12.269531 L 99.605469 12.269531 L 99.605469 16.894531 C 99.605469 18.0625 99.101562 18.628906 98.09375 18.628906 C 97.089844 18.628906 96.5625 18.0625 96.5625 16.894531 L 96.5625 12.269531 L 97.347656 12.269531 L 97.347656 10.59375 L 93.207031 10.59375 L 93.207031 12.269531 L 93.992188 12.269531 L 93.992188 16.785156 C 93.992188 19.289062 95.371094 20.488281 98.113281 20.488281 C 100.855469 20.488281 102.191406 19.269531 102.191406 16.785156 L 102.191406 12.269531 Z M 102.988281 12.269531 " fill-opacity="1" fill-rule="nonzero"/></g><path fill="#64656e" d="M 109.421875 8.523438 L 109.421875 5.484375 L 110.132812 5.484375 C 111.015625 5.484375 111.445312 5.984375 111.445312 7 C 111.445312 8.015625 111.011719 8.523438 110.121094 8.523438 Z M 108.917969 5.105469 L 108.917969 8.90625 L 110.160156 8.90625 C 111.351562 8.90625 111.9375 8.261719 111.9375 7 C 111.9375 5.738281 111.34375 5.105469 110.160156 5.105469 Z M 108.917969 5.105469 " fill-opacity="1" fill-rule="nonzero"/><g clip-path="url(#63327a5010)"><path fill="#64656e" d="M 148.695312 26.878906 C 148.519531 27.015625 148.304688 27.089844 148.082031 27.085938 C 147.867188 27.089844 147.660156 27 147.519531 26.839844 C 147.375 26.679688 147.304688 26.464844 147.328125 26.25 C 147.328125 25.511719 147.792969 24.949219 148.414062 24.949219 C 148.597656 24.949219 148.78125 24.980469 148.953125 25.050781 Z M 148.796875 27.375 L 149.117188 27.375 L 149.472656 24.757812 C 149.128906 24.648438 148.769531 24.59375 148.40625 24.59375 C 147.96875 24.589844 147.550781 24.769531 147.246094 25.089844 C 146.941406 25.40625 146.785156 25.839844 146.808594 26.277344 C 146.78125 26.589844 146.890625 26.894531 147.105469 27.117188 C 147.320312 27.339844 147.621094 27.460938 147.933594 27.441406 C 148.226562 27.441406 148.507812 27.34375 148.742188 27.160156 Z M 144.496094 24.65625 L 144.183594 24.65625 L 143.800781 27.375 L 144.277344 27.375 L 144.582031 25.15625 C 144.796875 25.042969 145.03125 24.980469 145.273438 24.96875 C 145.628906 24.96875 145.785156 25.148438 145.785156 25.429688 C 145.785156 25.535156 145.773438 25.644531 145.757812 25.75 L 145.527344 27.375 L 146.019531 27.375 L 146.257812 25.664062 C 146.273438 25.546875 146.285156 25.425781 146.289062 25.308594 C 146.289062 25.101562 146.203125 24.902344 146.046875 24.765625 C 145.894531 24.628906 145.6875 24.566406 145.484375 24.59375 C 145.148438 24.597656 144.816406 24.703125 144.539062 24.894531 Z M 142.941406 27.378906 L 143.324219 24.640625 L 142.835938 24.640625 L 142.453125 27.363281 Z M 143.242188 23.402344 C 143.136719 23.398438 143.039062 23.4375 142.960938 23.511719 C 142.890625 23.582031 142.847656 23.683594 142.851562 23.789062 C 142.847656 23.867188 142.878906 23.945312 142.9375 24 C 142.996094 24.054688 143.078125 24.082031 143.15625 24.074219 C 143.261719 24.085938 143.367188 24.050781 143.445312 23.972656 C 143.519531 23.902344 143.558594 23.792969 143.550781 23.6875 C 143.550781 23.605469 143.515625 23.53125 143.457031 23.476562 C 143.398438 23.421875 143.320312 23.394531 143.242188 23.402344 M 141.148438 24.65625 L 140.824219 24.65625 L 140.472656 27.375 L 140.957031 27.375 L 141.265625 25.164062 C 141.484375 25.042969 141.730469 24.980469 141.976562 24.976562 C 142.0625 24.976562 142.144531 24.988281 142.226562 25.007812 L 142.332031 24.648438 C 142.238281 24.617188 142.144531 24.601562 142.046875 24.605469 C 141.746094 24.605469 141.457031 24.699219 141.210938 24.875 Z M 139.210938 26.878906 C 139.035156 27.015625 138.820312 27.089844 138.597656 27.085938 C 138.382812 27.089844 138.175781 27 138.03125 26.839844 C 137.886719 26.679688 137.820312 26.464844 137.84375 26.25 C 137.84375 25.511719 138.308594 24.949219 138.929688 24.949219 C 139.113281 24.949219 139.296875 24.980469 139.464844 25.050781 Z M 139.3125 27.375 L 139.632812 27.375 L 139.988281 24.757812 C 139.644531 24.648438 139.285156 24.59375 138.921875 24.59375 C 138.484375 24.589844 138.0625 24.769531 137.761719 25.089844 C 137.457031 25.40625 137.296875 25.839844 137.320312 26.277344 C 137.296875 26.589844 137.40625 26.894531 137.621094 27.117188 C 137.835938 27.339844 138.136719 27.460938 138.445312 27.441406 C 138.738281 27.441406 139.023438 27.34375 139.257812 27.160156 Z M 136.328125 24.988281 L 137.152344 24.988281 L 137.195312 24.65625 L 136.375 24.65625 L 136.492188 23.839844 L 136.109375 23.839844 L 135.882812 24.65625 L 135.425781 24.65625 L 135.386719 24.949219 L 135.832031 24.988281 L 135.625 26.441406 C 135.605469 26.5625 135.59375 26.691406 135.59375 26.816406 C 135.578125 26.992188 135.648438 27.167969 135.78125 27.289062 C 135.910156 27.410156 136.089844 27.46875 136.265625 27.441406 C 136.492188 27.441406 136.71875 27.390625 136.921875 27.296875 L 136.921875 26.992188 C 136.78125 27.050781 136.625 27.082031 136.472656 27.082031 C 136.367188 27.09375 136.265625 27.0625 136.1875 26.988281 C 136.113281 26.914062 136.074219 26.8125 136.078125 26.707031 C 136.082031 26.601562 136.089844 26.496094 136.109375 26.390625 Z M 134.121094 26.878906 C 133.945312 27.015625 133.730469 27.089844 133.507812 27.085938 C 133.292969 27.089844 133.085938 27 132.945312 26.839844 C 132.800781 26.679688 132.730469 26.464844 132.753906 26.25 C 132.753906 25.511719 133.21875 24.949219 133.839844 24.949219 C 134.023438 24.949219 134.207031 24.980469 134.378906 25.050781 Z M 134.226562 27.375 L 134.542969 27.375 L 134.898438 24.757812 C 134.554688 24.648438 134.195312 24.59375 133.835938 24.59375 C 133.394531 24.589844 132.976562 24.769531 132.671875 25.089844 C 132.371094 25.40625 132.210938 25.839844 132.234375 26.277344 C 132.210938 26.589844 132.316406 26.894531 132.53125 27.117188 C 132.75 27.339844 133.050781 27.457031 133.359375 27.441406 C 133.652344 27.441406 133.9375 27.34375 134.167969 27.160156 Z M 131.738281 26.917969 C 131.445312 26.996094 131.144531 27.035156 130.839844 27.035156 C 130.5 27.0625 130.164062 26.941406 129.921875 26.703125 C 129.679688 26.460938 129.550781 26.125 129.574219 25.78125 C 129.542969 25.300781 129.710938 24.824219 130.039062 24.472656 C 130.367188 24.117188 130.824219 23.914062 131.304688 23.914062 C 131.566406 23.914062 131.824219 23.945312 132.074219 24.003906 L 132.1875 23.609375 C 131.890625 23.542969 131.589844 23.507812 131.285156 23.503906 C 130.679688 23.492188 130.09375 23.734375 129.671875 24.171875 C 129.25 24.609375 129.03125 25.207031 129.066406 25.816406 C 129.035156 26.257812 129.199219 26.691406 129.511719 27.003906 C 129.824219 27.316406 130.257812 27.476562 130.699219 27.441406 C 131.066406 27.445312 131.433594 27.390625 131.785156 27.277344 Z M 126.554688 26.878906 C 126.378906 27.015625 126.160156 27.089844 125.9375 27.085938 C 125.726562 27.089844 125.519531 27 125.378906 26.839844 C 125.234375 26.679688 125.164062 26.464844 125.191406 26.25 C 125.191406 25.511719 125.652344 24.949219 126.273438 24.949219 C 126.457031 24.949219 126.636719 24.980469 126.808594 25.050781 Z M 126.65625 27.375 L 126.976562 27.375 L 127.332031 24.757812 C 126.988281 24.648438 126.628906 24.59375 126.265625 24.59375 C 125.828125 24.589844 125.40625 24.769531 125.105469 25.089844 C 124.804688 25.40625 124.644531 25.839844 124.667969 26.277344 C 124.640625 26.589844 124.75 26.894531 124.964844 27.117188 C 125.179688 27.339844 125.480469 27.457031 125.789062 27.441406 C 126.082031 27.441406 126.367188 27.34375 126.601562 27.160156 Z M 123.679688 24.996094 L 124.507812 24.996094 L 124.550781 24.664062 L 123.730469 24.664062 L 123.847656 23.847656 L 123.472656 23.847656 L 123.242188 24.664062 L 122.785156 24.664062 L 122.746094 24.957031 L 123.195312 24.996094 L 122.984375 26.445312 C 122.964844 26.570312 122.957031 26.695312 122.953125 26.824219 C 122.941406 27 123.011719 27.175781 123.140625 27.296875 C 123.273438 27.417969 123.453125 27.476562 123.628906 27.449219 C 123.855469 27.449219 124.078125 27.398438 124.285156 27.304688 L 124.285156 26.996094 C 124.140625 27.058594 123.984375 27.089844 123.828125 27.089844 C 123.726562 27.101562 123.621094 27.066406 123.546875 26.996094 C 123.472656 26.921875 123.429688 26.820312 123.433594 26.714844 C 123.4375 26.609375 123.449219 26.503906 123.46875 26.398438 Z M 120.429688 24.664062 L 120.117188 24.664062 L 119.738281 27.382812 L 120.230469 27.382812 L 120.53125 25.164062 C 120.746094 25.050781 120.980469 24.988281 121.222656 24.976562 C 121.578125 24.976562 121.738281 25.152344 121.738281 25.433594 C 121.734375 25.542969 121.726562 25.652344 121.710938 25.757812 L 121.480469 27.382812 L 121.96875 27.382812 L 122.207031 25.671875 C 122.226562 25.554688 122.238281 25.433594 122.238281 25.3125 C 122.242188 25.105469 122.152344 24.910156 122 24.769531 C 121.84375 24.632812 121.636719 24.570312 121.433594 24.597656 C 121.09375 24.605469 120.765625 24.710938 120.488281 24.902344 Z M 118.488281 26.878906 C 118.3125 27.015625 118.097656 27.089844 117.875 27.085938 C 117.660156 27.089844 117.457031 27 117.3125 26.839844 C 117.167969 26.679688 117.101562 26.464844 117.125 26.25 C 117.125 25.511719 117.585938 24.949219 118.191406 24.949219 C 118.375 24.949219 118.558594 24.980469 118.726562 25.050781 Z M 118.59375 27.375 L 118.910156 27.375 L 119.265625 24.757812 C 118.921875 24.648438 118.5625 24.59375 118.203125 24.59375 C 117.761719 24.589844 117.34375 24.769531 117.039062 25.089844 C 116.738281 25.40625 116.578125 25.839844 116.601562 26.277344 C 116.578125 26.589844 116.6875 26.894531 116.902344 27.117188 C 117.117188 27.339844 117.417969 27.457031 117.726562 27.441406 C 118.019531 27.441406 118.304688 27.34375 118.535156 27.160156 Z M 113.457031 27.253906 C 113.808594 27.378906 114.179688 27.441406 114.554688 27.441406 C 115.488281 27.441406 116.070312 26.984375 116.070312 26.234375 C 116.070312 25.117188 114.273438 25.480469 114.273438 24.644531 C 114.273438 24.207031 114.648438 23.914062 115.210938 23.914062 C 115.535156 23.917969 115.863281 23.964844 116.171875 24.058594 L 116.277344 23.664062 C 115.921875 23.554688 115.554688 23.503906 115.1875 23.503906 C 114.226562 23.503906 113.742188 24.070312 113.742188 24.695312 C 113.742188 25.882812 115.515625 25.515625 115.515625 26.292969 C 115.515625 26.761719 115.164062 27.007812 114.574219 27.007812 C 114.230469 27.007812 113.886719 26.957031 113.554688 26.859375 Z M 110.238281 27.082031 C 109.816406 27.082031 109.570312 26.800781 109.570312 26.3125 C 109.570312 25.519531 109.984375 24.949219 110.574219 24.949219 C 110.984375 24.949219 111.21875 25.21875 111.21875 25.710938 C 111.21875 26.515625 110.832031 27.082031 110.238281 27.082031 M 110.183594 27.441406 C 111.113281 27.441406 111.71875 26.75 111.71875 25.707031 C 111.75 25.402344 111.644531 25.101562 111.433594 24.882812 C 111.222656 24.667969 110.921875 24.558594 110.621094 24.589844 C 109.691406 24.589844 109.070312 25.28125 109.070312 26.324219 C 109.042969 26.628906 109.152344 26.929688 109.367188 27.144531 C 109.582031 27.363281 109.878906 27.46875 110.183594 27.441406 M 108.050781 24.988281 L 108.878906 24.988281 L 108.921875 24.65625 L 108.101562 24.65625 L 108.21875 23.839844 L 107.84375 23.839844 L 107.613281 24.65625 L 107.15625 24.65625 L 107.117188 24.949219 L 107.566406 24.988281 L 107.355469 26.441406 C 107.335938 26.5625 107.324219 26.691406 107.320312 26.816406 C 107.308594 26.992188 107.378906 27.167969 107.511719 27.289062 C 107.644531 27.410156 107.824219 27.46875 108 27.441406 C 108.226562 27.441406 108.449219 27.390625 108.65625 27.296875 L 108.65625 26.992188 C 108.511719 27.050781 108.355469 27.082031 108.199219 27.082031 C 108.097656 27.09375 107.992188 27.0625 107.917969 26.988281 C 107.84375 26.914062 107.800781 26.8125 107.808594 26.707031 C 107.8125 26.601562 107.824219 26.496094 107.84375 26.390625 Z M 106.226562 27.378906 L 106.605469 24.640625 L 106.117188 24.640625 L 105.734375 27.363281 Z M 106.523438 23.402344 C 106.417969 23.398438 106.320312 23.4375 106.246094 23.511719 C 106.171875 23.582031 106.132812 23.683594 106.132812 23.789062 C 106.132812 23.867188 106.164062 23.945312 106.222656 24 C 106.28125 24.054688 106.355469 24.082031 106.4375 24.074219 C 106.542969 24.085938 106.648438 24.050781 106.722656 23.972656 C 106.800781 23.902344 106.839844 23.792969 106.832031 23.6875 C 106.832031 23.605469 106.796875 23.53125 106.738281 23.476562 C 106.679688 23.421875 106.601562 23.394531 106.523438 23.402344 M 105.242188 24.65625 L 104.753906 24.65625 L 104.4375 26.859375 C 104.25 26.984375 104.027344 27.058594 103.800781 27.066406 C 103.476562 27.066406 103.304688 26.90625 103.304688 26.625 C 103.304688 26.53125 103.316406 26.4375 103.332031 26.34375 L 103.574219 24.65625 L 103.085938 24.65625 L 102.828125 26.386719 C 102.828125 26.515625 102.796875 26.636719 102.796875 26.722656 C 102.796875 27.171875 103.085938 27.4375 103.59375 27.4375 C 103.914062 27.433594 104.226562 27.328125 104.484375 27.132812 L 104.539062 27.371094 L 104.867188 27.371094 Z M 102.125 26.992188 C 101.917969 27.042969 101.703125 27.070312 101.488281 27.074219 C 101.253906 27.09375 101.023438 27.011719 100.851562 26.847656 C 100.683594 26.6875 100.589844 26.457031 100.601562 26.21875 C 100.578125 25.894531 100.691406 25.574219 100.910156 25.332031 C 101.128906 25.09375 101.433594 24.953125 101.757812 24.949219 C 101.960938 24.949219 102.164062 24.972656 102.363281 25.019531 L 102.453125 24.683594 C 102.207031 24.625 101.953125 24.59375 101.699219 24.59375 C 101.261719 24.582031 100.835938 24.753906 100.53125 25.070312 C 100.226562 25.386719 100.066406 25.820312 100.089844 26.261719 C 100.078125 26.589844 100.207031 26.90625 100.441406 27.132812 C 100.675781 27.355469 101 27.46875 101.324219 27.441406 C 101.613281 27.445312 101.902344 27.402344 102.175781 27.308594 Z M 98.929688 24.65625 L 98.605469 24.65625 L 98.234375 27.375 L 98.71875 27.375 L 99.027344 25.164062 C 99.246094 25.042969 99.492188 24.980469 99.738281 24.976562 C 99.820312 24.976562 99.90625 24.988281 99.988281 25.007812 L 100.09375 24.648438 C 100.003906 24.617188 99.90625 24.601562 99.808594 24.605469 C 99.511719 24.605469 99.214844 24.699219 98.972656 24.875 Z M 97.371094 27.378906 L 97.746094 24.640625 L 97.261719 24.640625 L 96.878906 27.363281 Z M 97.664062 23.402344 C 97.5625 23.398438 97.460938 23.4375 97.390625 23.511719 C 97.316406 23.582031 97.277344 23.683594 97.277344 23.789062 C 97.277344 23.867188 97.308594 23.945312 97.363281 24 C 97.421875 24.054688 97.5 24.082031 97.582031 24.074219 C 97.6875 24.085938 97.792969 24.050781 97.867188 23.972656 C 97.945312 23.902344 97.984375 23.792969 97.972656 23.6875 C 97.972656 23.605469 97.941406 23.53125 97.882812 23.476562 C 97.824219 23.421875 97.746094 23.394531 97.664062 23.402344 M 96.179688 26.917969 C 95.886719 26.996094 95.585938 27.035156 95.285156 27.035156 C 94.945312 27.0625 94.609375 26.941406 94.367188 26.703125 C 94.125 26.460938 93.996094 26.125 94.023438 25.78125 C 93.988281 25.300781 94.15625 24.824219 94.484375 24.46875 C 94.8125 24.113281 95.269531 23.914062 95.75 23.914062 C 96.011719 23.914062 96.269531 23.945312 96.519531 24.003906 L 96.636719 23.609375 C 96.339844 23.542969 96.035156 23.507812 95.730469 23.503906 C 95.121094 23.492188 94.539062 23.734375 94.117188 24.171875 C 93.695312 24.609375 93.472656 25.203125 93.507812 25.816406 C 93.476562 26.257812 93.640625 26.695312 93.953125 27.007812 C 94.269531 27.316406 94.703125 27.476562 95.144531 27.441406 C 95.511719 27.445312 95.878906 27.386719 96.230469 27.277344 Z M 96.179688 26.917969 " fill-opacity="1" fill-rule="nonzero"/></g><path fill="#0c8a4b" d="M 8.75 21.527344 L 8.75 21.179688 L 12.332031 21.179688 L 12.332031 21.527344 Z M 38.414062 25.738281 C 38.414062 26.457031 38.132812 27.144531 37.625 27.652344 C 37.121094 28.160156 36.433594 28.449219 35.714844 28.449219 L 29.601562 28.460938 C 28.886719 28.460938 28.199219 28.175781 27.691406 27.671875 C 27.183594 27.164062 26.894531 26.476562 26.894531 25.761719 L 26.855469 3.273438 C 26.855469 2.558594 27.136719 1.867188 27.644531 1.359375 C 28.148438 0.851562 28.835938 0.566406 29.554688 0.566406 L 35.667969 0.554688 C 36.382812 0.554688 37.070312 0.835938 37.578125 1.34375 C 38.085938 1.851562 38.375 2.535156 38.375 3.253906 Z M 33.390625 5.789062 C 33.390625 5.726562 33.339844 5.675781 33.277344 5.675781 L 31.992188 5.675781 C 31.929688 5.675781 31.878906 5.726562 31.878906 5.789062 L 31.878906 23.238281 C 31.878906 23.269531 31.890625 23.296875 31.910156 23.320312 C 31.933594 23.339844 31.960938 23.351562 31.992188 23.351562 L 33.277344 23.351562 C 33.304688 23.351562 33.335938 23.339844 33.359375 23.320312 C 33.378906 23.296875 33.390625 23.269531 33.390625 23.238281 Z M 8.753906 7.910156 L 8.753906 7.566406 L 12.3125 7.566406 L 12.3125 7.910156 Z M 18.722656 23.355469 C 18.722656 23.394531 18.742188 23.417969 18.785156 23.417969 L 20.222656 23.414062 C 20.277344 23.410156 20.304688 23.382812 20.304688 23.328125 L 20.3125 15.796875 C 20.3125 15.699219 20.390625 15.625 20.484375 15.625 L 25.289062 15.613281 C 25.355469 15.613281 25.390625 15.644531 25.390625 15.714844 C 25.410156 19.046875 25.414062 22.375 25.398438 25.699219 C 25.390625 27.1875 24.21875 28.457031 22.675781 28.464844 C 17.941406 28.484375 13.207031 28.488281 8.476562 28.484375 C 7.636719 28.484375 7.027344 28.394531 6.65625 28.21875 C 5.511719 27.675781 5.070312 26.410156 5.074219 25.167969 C 5.085938 18.207031 5.105469 11.246094 5.128906 4.28125 C 5.132812 3.277344 5.238281 2.546875 5.445312 2.097656 C 5.917969 1.078125 6.8125 0.566406 8.128906 0.570312 C 12.566406 0.578125 17 0.578125 21.4375 0.574219 C 23.179688 0.570312 24.457031 0.664062 25.140625 2.253906 C 25.304688 2.640625 25.390625 3.226562 25.394531 4.011719 C 25.40625 7.53125 25.40625 11.046875 25.390625 14.554688 C 25.390625 14.574219 25.382812 14.589844 25.367188 14.605469 C 25.355469 14.617188 25.335938 14.625 25.320312 14.625 L 20.453125 14.617188 C 20.355469 14.617188 20.308594 14.570312 20.308594 14.476562 L 20.296875 5.730469 C 20.296875 5.6875 20.273438 5.664062 20.234375 5.664062 L 18.789062 5.679688 C 18.753906 5.679688 18.738281 5.695312 18.738281 5.726562 Z M 14.167969 7.730469 L 14.167969 7.648438 C 14.167969 7.621094 14.179688 7.597656 14.195312 7.578125 C 14.214844 7.558594 14.238281 7.550781 14.265625 7.550781 L 16.972656 7.523438 C 17.003906 7.523438 17.03125 7.5 17.03125 7.464844 L 17.027344 5.777344 C 17.027344 5.746094 17.003906 5.722656 16.96875 5.722656 C 14.441406 5.710938 11.921875 5.714844 9.417969 5.726562 C 8.507812 5.730469 7.972656 5.757812 7.8125 5.800781 C 6.722656 6.109375 6.910156 7.414062 6.945312 8.363281 C 6.996094 9.824219 8.058594 9.734375 9.144531 9.734375 C 11.738281 9.734375 14.3125 9.734375 16.863281 9.730469 C 16.972656 9.730469 17.03125 9.671875 17.03125 9.5625 L 17.027344 8.066406 C 17.027344 7.957031 16.972656 7.90625 16.867188 7.90625 L 14.34375 7.90625 C 14.296875 7.90625 14.253906 7.886719 14.21875 7.855469 C 14.1875 7.820312 14.167969 7.777344 14.167969 7.730469 Z M 13.15625 10.875 C 13.085938 10.695312 12.984375 10.535156 12.855469 10.390625 C 12.800781 10.332031 12.730469 10.296875 12.652344 10.292969 C 11.339844 10.246094 10.027344 10.234375 8.71875 10.261719 C 7.769531 10.285156 6.945312 10.507812 6.949219 11.582031 C 6.953125 12.441406 6.945312 13.289062 6.929688 14.125 C 6.929688 14.175781 6.949219 14.222656 6.984375 14.261719 C 7.023438 14.296875 7.070312 14.316406 7.121094 14.316406 L 16.902344 14.320312 C 16.941406 14.320312 16.960938 14.300781 16.960938 14.261719 L 16.96875 12.511719 C 16.96875 12.464844 16.949219 12.441406 16.902344 12.441406 L 14.21875 12.394531 C 14.144531 12.394531 14.117188 12.359375 14.136719 12.289062 L 14.164062 12.195312 C 14.179688 12.136719 14.234375 12.097656 14.296875 12.097656 L 16.777344 12.109375 C 16.828125 12.109375 16.875 12.089844 16.914062 12.050781 C 16.949219 12.015625 16.96875 11.96875 16.96875 11.914062 L 16.976562 10.449219 C 16.976562 10.332031 16.917969 10.269531 16.800781 10.265625 C 15.855469 10.226562 14.859375 10.261719 13.808594 10.371094 C 13.640625 10.390625 13.46875 10.5625 13.292969 10.882812 C 13.242188 10.980469 13.195312 10.976562 13.15625 10.875 Z M 17.011719 15.8125 C 17.011719 15.535156 16.898438 15.265625 16.703125 15.070312 C 16.507812 14.875 16.242188 14.765625 15.964844 14.765625 L 7.972656 14.78125 C 7.695312 14.78125 7.429688 14.890625 7.234375 15.089844 C 7.035156 15.285156 6.925781 15.550781 6.925781 15.828125 L 6.929688 17.796875 C 6.929688 18.074219 7.042969 18.339844 7.238281 18.535156 C 7.433594 18.734375 7.703125 18.84375 7.980469 18.84375 L 15.96875 18.828125 C 16.246094 18.828125 16.511719 18.714844 16.710938 18.519531 C 16.90625 18.324219 17.015625 18.058594 17.015625 17.78125 Z M 13.132812 19.894531 C 13.003906 19.542969 12.796875 19.367188 12.503906 19.363281 C 11.253906 19.351562 10.003906 19.347656 8.753906 19.351562 C 7.859375 19.351562 6.972656 19.5 6.949219 20.527344 C 6.929688 21.449219 6.917969 22.363281 6.917969 23.261719 C 6.917969 23.316406 6.960938 23.359375 7.015625 23.359375 L 16.925781 23.359375 C 16.972656 23.359375 17.007812 23.328125 17.007812 23.28125 C 17.042969 22.402344 17.273438 20.238281 16.519531 19.628906 C 16.308594 19.453125 15.980469 19.363281 15.539062 19.355469 C 14.625 19.34375 13.722656 19.15625 13.308594 19.910156 C 13.292969 19.941406 13.253906 19.960938 13.21875 19.960938 C 13.179688 19.957031 13.148438 19.933594 13.132812 19.894531 Z M 14.167969 21.53125 L 14.167969 21.21875 L 15.164062 21.21875 L 15.164062 21.53125 Z M 8.742188 12.429688 L 8.742188 12.078125 L 12.335938 12.078125 L 12.335938 12.429688 Z M 62.953125 18.1875 C 64.554688 18.5625 64.839844 19.808594 64.851562 21.332031 C 64.863281 23.539062 64.863281 25.851562 64.851562 28.265625 C 64.851562 28.398438 64.78125 28.464844 64.648438 28.464844 L 59.988281 28.464844 C 59.953125 28.464844 59.917969 28.449219 59.894531 28.425781 C 59.867188 28.402344 59.855469 28.367188 59.855469 28.332031 L 59.847656 20.800781 C 59.847656 20.714844 59.78125 20.648438 59.699219 20.644531 L 58.476562 20.636719 C 58.367188 20.632812 58.308594 20.6875 58.308594 20.796875 L 58.308594 28.339844 C 58.308594 28.371094 58.292969 28.40625 58.269531 28.429688 C 58.246094 28.453125 58.214844 28.464844 58.179688 28.464844 L 53.382812 28.464844 C 53.359375 28.464844 53.339844 28.457031 53.324219 28.441406 C 53.308594 28.429688 53.296875 28.40625 53.296875 28.386719 L 53.296875 0.769531 C 53.296875 0.734375 53.324219 0.707031 53.363281 0.707031 C 56.035156 0.703125 58.714844 0.703125 61.402344 0.699219 C 63.515625 0.699219 64.816406 2.34375 64.851562 4.339844 C 64.882812 6.027344 64.875 9.664062 64.828125 15.25 C 64.816406 16.84375 64.398438 17.515625 62.945312 18.054688 C 62.917969 18.066406 62.898438 18.09375 62.902344 18.125 C 62.902344 18.15625 62.925781 18.179688 62.953125 18.1875 Z M 59.847656 5.851562 C 59.847656 5.816406 59.835938 5.78125 59.808594 5.757812 C 59.785156 5.734375 59.75 5.71875 59.714844 5.71875 L 58.441406 5.71875 C 58.40625 5.71875 58.375 5.734375 58.347656 5.757812 C 58.324219 5.78125 58.308594 5.816406 58.308594 5.851562 L 58.308594 15.421875 C 58.308594 15.496094 58.371094 15.554688 58.441406 15.554688 L 59.714844 15.554688 C 59.789062 15.554688 59.847656 15.496094 59.847656 15.421875 Z M 49.601562 18.050781 C 49.570312 18.058594 49.550781 18.085938 49.550781 18.117188 C 49.550781 18.148438 49.574219 18.175781 49.605469 18.179688 C 51.167969 18.414062 51.65625 19.691406 51.648438 21.121094 C 51.632812 23.53125 51.628906 25.945312 51.632812 28.363281 C 51.632812 28.414062 51.59375 28.453125 51.542969 28.453125 L 46.695312 28.464844 C 46.65625 28.464844 46.640625 28.449219 46.640625 28.410156 L 46.640625 20.742188 C 46.640625 20.714844 46.628906 20.691406 46.609375 20.671875 C 46.589844 20.652344 46.5625 20.640625 46.535156 20.640625 L 45.203125 20.644531 C 45.132812 20.644531 45.097656 20.679688 45.097656 20.75 L 45.089844 28.3125 C 45.089844 28.394531 45.023438 28.460938 44.941406 28.460938 L 40.300781 28.464844 C 40.164062 28.464844 40.097656 28.398438 40.097656 28.261719 L 40.105469 0.820312 C 40.105469 0.746094 40.140625 0.707031 40.214844 0.703125 C 42.804688 0.65625 45.386719 0.65625 47.964844 0.699219 C 48.675781 0.714844 49.234375 0.816406 49.640625 1.015625 C 51.183594 1.75 51.609375 2.992188 51.617188 4.714844 C 51.628906 8.207031 51.628906 11.695312 51.613281 15.1875 C 51.609375 16.703125 51.164062 17.769531 49.601562 18.050781 Z M 46.640625 5.820312 C 46.640625 5.796875 46.632812 5.769531 46.613281 5.753906 C 46.59375 5.734375 46.570312 5.722656 46.542969 5.722656 L 45.183594 5.722656 C 45.15625 5.722656 45.132812 5.734375 45.113281 5.753906 C 45.097656 5.769531 45.085938 5.796875 45.085938 5.820312 L 45.085938 15.472656 C 45.085938 15.5 45.097656 15.527344 45.113281 15.542969 C 45.132812 15.5625 45.15625 15.574219 45.183594 15.574219 L 46.542969 15.574219 C 46.570312 15.574219 46.59375 15.5625 46.613281 15.542969 C 46.632812 15.527344 46.640625 15.5 46.640625 15.472656 Z M 8.722656 16.980469 L 8.722656 16.648438 L 15.203125 16.648438 L 15.203125 16.980469 Z M 71.628906 20.769531 L 71.625 23.230469 C 71.625 23.265625 71.636719 23.300781 71.664062 23.324219 C 71.6875 23.347656 71.722656 23.363281 71.757812 23.359375 L 73.140625 23.351562 C 73.175781 23.351562 73.210938 23.363281 73.234375 23.386719 C 73.257812 23.414062 73.273438 23.445312 73.273438 23.480469 L 73.265625 28.339844 C 73.265625 28.375 73.253906 28.40625 73.230469 28.429688 C 73.203125 28.457031 73.171875 28.46875 73.136719 28.46875 L 66.691406 28.46875 C 66.65625 28.46875 66.625 28.457031 66.597656 28.429688 C 66.574219 28.40625 66.5625 28.375 66.5625 28.339844 L 66.5625 0.695312 C 66.5625 0.660156 66.578125 0.625 66.601562 0.601562 C 66.625 0.578125 66.660156 0.5625 66.691406 0.5625 L 73.144531 0.558594 C 73.179688 0.558594 73.210938 0.570312 73.234375 0.597656 C 73.261719 0.621094 73.273438 0.652344 73.273438 0.6875 L 73.269531 5.542969 C 73.269531 5.613281 73.210938 5.671875 73.140625 5.671875 L 71.761719 5.667969 C 71.6875 5.667969 71.628906 5.726562 71.628906 5.796875 L 71.628906 15.457031 C 71.628906 15.488281 71.644531 15.523438 71.667969 15.546875 C 71.695312 15.574219 71.726562 15.585938 71.761719 15.585938 L 73.140625 15.550781 C 73.175781 15.550781 73.210938 15.5625 73.234375 15.589844 C 73.261719 15.613281 73.273438 15.648438 73.273438 15.683594 L 73.265625 20.542969 C 73.265625 20.578125 73.25 20.609375 73.226562 20.632812 C 73.203125 20.660156 73.167969 20.671875 73.132812 20.671875 L 71.761719 20.640625 C 71.726562 20.640625 71.695312 20.652344 71.667969 20.675781 C 71.644531 20.703125 71.628906 20.734375 71.628906 20.769531 Z M 84.316406 18.070312 C 84.292969 18.078125 84.277344 18.097656 84.277344 18.121094 C 84.277344 18.148438 84.292969 18.167969 84.316406 18.171875 C 85.632812 18.457031 86.316406 19.296875 86.367188 20.691406 C 86.414062 22.109375 86.410156 24.664062 86.347656 28.355469 C 86.34375 28.433594 86.304688 28.472656 86.226562 28.472656 L 81.492188 28.472656 C 81.386719 28.472656 81.335938 28.421875 81.335938 28.316406 L 81.328125 20.726562 C 81.328125 20.703125 81.316406 20.679688 81.300781 20.664062 C 81.28125 20.648438 81.257812 20.636719 81.234375 20.636719 L 79.886719 20.648438 C 79.828125 20.648438 79.785156 20.695312 79.785156 20.75 L 79.785156 28.359375 C 79.785156 28.414062 79.742188 28.457031 79.683594 28.457031 L 74.859375 28.460938 C 74.828125 28.464844 74.796875 28.449219 74.773438 28.425781 C 74.75 28.40625 74.738281 28.375 74.738281 28.339844 L 74.746094 0.820312 C 74.746094 0.738281 74.789062 0.699219 74.871094 0.695312 C 77.472656 0.695312 80.089844 0.695312 82.734375 0.707031 C 83.359375 0.707031 83.863281 0.796875 84.25 0.972656 C 86.105469 1.820312 86.375 3.292969 86.378906 5.324219 C 86.390625 8.636719 86.398438 11.945312 86.40625 15.257812 C 86.410156 16.761719 85.710938 17.699219 84.316406 18.070312 Z M 81.328125 5.847656 C 81.328125 5.777344 81.273438 5.722656 81.203125 5.722656 L 79.910156 5.722656 C 79.839844 5.722656 79.785156 5.777344 79.785156 5.847656 L 79.785156 15.449219 C 79.785156 15.515625 79.839844 15.574219 79.910156 15.574219 L 81.203125 15.574219 C 81.273438 15.574219 81.328125 15.515625 81.328125 15.449219 Z M 81.328125 5.847656 " fill-opacity="1" fill-rule="nonzero"/></svg>