<?xml version="1.0" encoding="UTF-8"?>
<svg id="Camada_2" data-name="Camada 2" xmlns="http://www.w3.org/2000/svg" viewBox="0 0 451.13 95.22">
  <defs>
    <style>
      .cls-1 {
        fill: #6e6f72;
      }

      .cls-2 {
        fill: #231f20;
      }

      .cls-3 {
        fill: #ee7035;
      }
    </style>
  </defs>
  <g id="Camada_1-2" data-name="Camada 1">
    <g>
      <g>
        <path class="cls-1" d="M4.75,54.19V1.75h23.43c16.51,0,28.78,9.43,28.78,26.17s-12.27,26.27-28.7,26.27H4.75ZM40.84,27.93c0-7.08-4.09-12.34-12.58-12.34h-7.63v24.77h7.55c7.95,0,12.66-5.83,12.66-12.43Z"/>
        <path class="cls-1" d="M59.47,54.19V1.75h39.79v13.84h-23.89v5.19h23.36v13.83h-23.36v5.75h23.9v13.83h-39.8Z"/>
        <path class="cls-1" d="M99.18,46.8l8.26-11.8c4.55,4.35,10.61,6.77,16.91,6.77,2.98,0,5.82-.79,5.82-2.84,0-5.03-29.25.08-29.25-20.6,0-8.89,7.39-17.37,21.78-17.37,8.57,0,16.28,2.44,22.25,7.31l-8.5,11.25c-4.46-3.3-9.86-5.12-15.41-5.19-3.12,0-4.01,1.02-4.01,2.36,0,4.99,29.18.71,29.18,20.21,0,11.56-8.57,18.25-22.65,18.25-11.17,0-18.79-3.3-24.38-8.34Z"/>
        <path class="cls-1" d="M182.46,54.19l-1.87-6.13h-18.89l-1.87,6.13h-18.01L161.15,1.75h19.97l19.32,52.44h-17.98ZM171.13,17.32l-5.19,16.91h10.38l-5.19-16.91Z"/>
        <path class="cls-1" d="M200.15,54.19V1.75h39.79v13.84h-23.9v5.19h23.36v13.83h-23.36v19.58h-15.88Z"/>
        <path class="cls-1" d="M243.56,54.19V1.75h15.88v52.44h-15.88Z"/>
        <path class="cls-1" d="M261.99,28.01c0-16.11,12.46-27.13,28.66-27.13s28.66,11.01,28.66,27.13-12.46,27.13-28.66,27.13-28.66-11.01-28.66-27.13ZM303.27,28.01c0-7.31-4.95-13.13-12.58-13.13s-12.58,5.82-12.58,13.13,4.92,13.14,12.54,13.14,12.59-5.82,12.59-13.14h.03Z"/>
      </g>
      <g>
        <path class="cls-2" d="M315.34,47.34l8.01-11.17c4.21,3.63,10.52,5.19,14.65,5.19,5.34,0,7.85-1.7,7.85-3.64s-1.13-2.91-8.34-2.91c-2.35,0-7.04.08-7.85.16v-14.49c1.05.08,5.91.08,7.85.08,5.19,0,7.45-.97,7.45-2.67,0-2.51-3.32-3.48-8.01-3.48-4.8.01-9.46,1.67-13.19,4.69l-7.69-10.2c4.77-5.26,12.14-8.9,22.66-8.9,14.89,0,22.5,6.07,22.5,14.97,0,5.75-5.02,10.85-11.9,11.98,5.99.65,12.79,5.19,12.79,12.63,0,9.63-9.47,16.19-23.47,16.19-10.69,0-18.78-3.56-23.31-8.42Z"/>
        <path class="cls-2" d="M359.28,27.92c0-18.05,11.57-27.92,28.33-27.92,6.15,0,12.54,1.78,16.83,4.69l-6.88,12.63c-3.08-2.19-5.99-2.91-9.95-2.91-5.34,0-11.82,2.83-11.82,9.39v.16c2.75-3.56,7.61-5.5,12.54-5.5,9.71,0,19.1,6.39,19.1,17.89s-9.63,19.42-22.42,19.42c-17.72,0-25.73-12.06-25.73-27.84ZM390.84,36.99c0-3.48-4.29-4.7-7.52-4.7-2.75,0-5.42.49-7.61,2.19.32,3.63,2.59,6.88,8.25,6.88,4.12-.02,6.88-2.12,6.88-4.38h-.01Z"/>
        <path class="cls-2" d="M404.52,48.15l8.74-11.49c3.72,3.08,8.98,4.69,13.68,4.69,5.42,0,7.61-2.19,7.61-4.45,0-2.43-2.1-4.45-7.12-4.45-4.13,0-7.28,1.13-10.03,3.72l-11.25-2.59V.81h41.27v14.24h-24.92v7.61c2.59-2.51,6.72-4.13,11.25-4.13,9.23,0,17.4,6.88,17.4,17.63,0,11.9-8.9,19.58-24.04,19.58-9.63.01-17.32-2.82-22.58-7.59Z"/>
      </g>
    </g>
    <g>
      <path class="cls-3" d="M0,73.54c0-12.92,9.91-21.63,23.02-21.63,10.98,0,16.53,6.39,19.01,12.18l-10.92,5.04c-1.16-3.52-4.39-5.95-8.09-6.09-6.09,0-10.16,4.65-10.16,10.44s4.08,10.44,10.16,10.44c3.71-.14,6.93-2.57,8.09-6.09l10.92,5.02c-2.44,5.69-8.03,12.38-19.01,12.38-13.11,0-23.02-8.82-23.02-21.68Z"/>
      <path class="cls-3" d="M39.95,73.54c0-12.86,9.97-21.63,22.89-21.63s22.89,8.78,22.89,21.63-9.98,21.68-22.89,21.68-22.89-8.82-22.89-21.68ZM72.88,73.54c0-5.83-3.96-10.44-10.04-10.44s-10.05,4.61-10.05,10.44,3.96,10.44,10.04,10.44,10.05-4.6,10.05-10.44Z"/>
      <path class="cls-3" d="M109.5,94.43l-5.78-13.13h-4.58v13.17h-12.67v-41.87h22.32c9.79,0,15.06,6.52,15.06,14.36,0,7.21-4.2,11.04-7.52,12.67l7.59,14.79h-14.42ZM111,66.9c0-2.25-2.01-3.26-4.14-3.26h-7.72v6.58h7.72c2.13,0,4.14-1,4.14-3.32Z"/>
      <path class="cls-3" d="M148.25,94.43l-5.77-13.13h-4.58v13.17h-12.67v-41.87h22.37c9.78,0,15.05,6.52,15.05,14.36,0,7.21-4.2,11.04-7.52,12.67l7.59,14.79h-14.47ZM149.75,66.9c0-2.25-2.01-3.26-4.14-3.26h-7.72v6.58h7.72c2.13,0,4.14-1,4.14-3.32Z"/>
      <path class="cls-3" d="M163.98,94.43v-41.83h12.67v41.83h-12.67Z"/>
      <path class="cls-3" d="M179.66,94.43v-41.83h18.69c13.17,0,22.96,7.52,22.96,20.88s-9.79,20.95-22.89,20.95h-18.75ZM208.49,73.47c0-5.65-3.26-9.85-10.04-9.85h-6.09v19.76h6.02c6.3,0,10.11-4.64,10.11-9.92Z"/>
      <path class="cls-3" d="M248.08,94.43l-1.5-4.89h-15.06l-1.5,4.89h-14.36l15.46-41.83h15.93l15.39,41.83h-14.34ZM239.05,65.02l-4.14,13.48h8.28l-4.14-13.48Z"/>
      <path class="cls-3" d="M301.26,94.43l-15.43-21.2v21.2h-12.67v-41.83h13.05l14.54,19.82v-19.82h12.67v41.83h-12.17Z"/>
      <path class="cls-3" d="M314.17,73.54c0-12.86,9.97-21.63,22.89-21.63s22.89,8.78,22.89,21.63-9.97,21.68-22.89,21.68-22.89-8.82-22.89-21.68ZM347.1,73.54c0-5.83-3.95-10.44-10.03-10.44s-10.04,4.65-10.04,10.44,3.95,10.44,10.04,10.44,10.03-4.6,10.03-10.44Z"/>
      <path class="cls-3" d="M400.84,94.43l-1.5-4.89h-15.05l-1.5,4.89h-14.36l15.42-41.83h15.94l15.42,41.83h-14.36ZM391.81,65.02l-4.12,13.48h8.28l-4.16-13.48Z"/>
      <path class="cls-3" d="M436.71,94.43l-5.78-13.13h-4.58v13.17h-12.67v-41.87h22.32c9.79,0,15.06,6.52,15.06,14.36,0,7.21-4.2,11.04-7.52,12.67l7.59,14.79h-14.42ZM438.21,66.9c0-2.25-2.01-3.26-4.14-3.26h-7.72v6.58h7.72c2.13,0,4.14-1,4.14-3.32Z"/>
    </g>
  </g>
</svg>
