<svg xmlns="http://www.w3.org/2000/svg" xmlns:xlink="http://www.w3.org/1999/xlink" width="600" zoomAndPan="magnify" viewBox="0 0 450 60" height="80" preserveAspectRatio="xMidYMid meet" version="1.0"><defs><filter x="0%" y="0%" width="100%" height="100%" id="28b8c85ee8"><feColorMatrix values="0 0 0 0 1 0 0 0 0 1 0 0 0 0 1 0 0 0 1 0" color-interpolation-filters="sRGB"/></filter><mask id="e709b3a564"><g filter="url(#28b8c85ee8)"><rect x="-45" width="540" fill="#000000" y="-6" height="72" fill-opacity="0.3"/></g></mask><clipPath id="6cbf8bebce"><path d="M 4 0.238281 L 88 0.238281 L 88 24.960938 L 4 24.960938 Z M 4 0.238281 " clip-rule="nonzero"/></clipPath><clipPath id="e34e8c83df"><path d="M 1 0.238281 L 9 0.238281 L 9 24.960938 L 1 24.960938 Z M 1 0.238281 " clip-rule="nonzero"/></clipPath><clipPath id="df95779745"><path d="M 13 0.238281 L 21 0.238281 L 21 24.960938 L 13 24.960938 Z M 13 0.238281 " clip-rule="nonzero"/></clipPath><clipPath id="2583e2c6aa"><path d="M 25 0.238281 L 35 0.238281 L 35 24.960938 L 25 24.960938 Z M 25 0.238281 " clip-rule="nonzero"/></clipPath><clipPath id="5ffeaf4ef3"><path d="M 40 0.238281 L 51 0.238281 L 51 24.960938 L 40 24.960938 Z M 40 0.238281 " clip-rule="nonzero"/></clipPath><clipPath id="46c6f051ce"><path d="M 56 0.238281 L 60 0.238281 L 60 24.960938 L 56 24.960938 Z M 56 0.238281 " clip-rule="nonzero"/></clipPath><clipPath id="fe0988aad1"><path d="M 66 0.238281 L 76 0.238281 L 76 24.960938 L 66 24.960938 Z M 66 0.238281 " clip-rule="nonzero"/></clipPath><clipPath id="dcd01189d1"><path d="M 81 0.238281 L 91 0.238281 L 91 24.960938 L 81 24.960938 Z M 81 0.238281 " clip-rule="nonzero"/></clipPath><clipPath id="b9a857b847"><rect x="0" width="92" y="0" height="25"/></clipPath><clipPath id="c4019cf020"><path d="M 3.164062 30.855469 L 10.035156 30.855469 L 10.035156 33.691406 L 3.164062 33.691406 Z M 3.164062 33.691406 L 6.601562 33.691406 L 6.601562 37.1875 L 3.164062 37.1875 Z M 3.164062 37.1875 L 9.917969 37.1875 L 9.917969 40.023438 L 3.164062 40.023438 Z M 3.164062 40.023438 L 6.601562 40.023438 L 6.601562 54.457031 L 3.164062 54.457031 Z M 3.164062 40.023438 " clip-rule="nonzero"/></clipPath><clipPath id="6181357b48"><path d="M 15.246094 30.855469 L 18.683594 30.855469 L 18.683594 51.464844 L 15.246094 51.464844 Z M 15.246094 51.464844 L 22.207031 51.464844 L 22.207031 54.457031 L 15.246094 54.457031 Z M 15.246094 51.464844 " clip-rule="nonzero"/></clipPath><clipPath id="6e06d98797"><path d="M 27 30.476562 L 36.996094 30.476562 L 36.996094 54.835938 L 27 54.835938 Z M 27 30.476562 " clip-rule="nonzero"/></clipPath><clipPath id="c1659d0772"><path d="M 36.859375 49.765625 C 36.875 50.648438 36.808594 51.527344 36.660156 52.398438 C 36.53125 53.054688 36.28125 53.558594 35.914062 53.910156 C 35.480469 54.289062 34.976562 54.519531 34.40625 54.59375 C 33.582031 54.71875 32.757812 54.773438 31.925781 54.761719 C 31.09375 54.773438 30.265625 54.71875 29.445312 54.59375 C 28.875 54.523438 28.378906 54.292969 27.953125 53.910156 C 27.59375 53.558594 27.351562 53.058594 27.222656 52.398438 C 27.074219 51.53125 27.007812 50.652344 27.027344 49.769531 L 27.027344 35.519531 C 27.007812 34.640625 27.070312 33.769531 27.222656 32.902344 C 27.351562 32.253906 27.59375 31.753906 27.953125 31.40625 C 28.378906 31.023438 28.875 30.792969 29.445312 30.71875 C 30.265625 30.597656 31.09375 30.542969 31.925781 30.554688 C 32.757812 30.542969 33.582031 30.597656 34.40625 30.71875 C 34.976562 30.796875 35.480469 31.023438 35.914062 31.40625 C 36.28125 31.753906 36.53125 32.253906 36.660156 32.902344 C 36.808594 33.765625 36.871094 34.636719 36.855469 35.515625 L 36.855469 49.765625 Z M 33.394531 35.515625 C 33.398438 35.191406 33.382812 34.867188 33.347656 34.542969 C 33.335938 34.335938 33.265625 34.144531 33.140625 33.976562 C 33.019531 33.839844 32.871094 33.75 32.691406 33.707031 C 32.449219 33.652344 32.207031 33.628906 31.960938 33.632812 C 31.324219 33.632812 30.917969 33.753906 30.742188 33.992188 C 30.566406 34.230469 30.476562 34.738281 30.472656 35.515625 L 30.472656 49.765625 C 30.46875 50.097656 30.484375 50.433594 30.519531 50.765625 C 30.535156 50.980469 30.605469 51.171875 30.726562 51.347656 C 30.847656 51.496094 31 51.589844 31.183594 51.632812 C 31.425781 51.6875 31.667969 51.710938 31.914062 51.707031 C 32.175781 51.710938 32.433594 51.6875 32.691406 51.632812 C 32.882812 51.585938 33.035156 51.484375 33.148438 51.328125 C 33.269531 51.144531 33.339844 50.945312 33.355469 50.730469 C 33.390625 50.40625 33.40625 50.082031 33.402344 49.757812 L 33.402344 35.507812 Z M 33.394531 35.515625 " clip-rule="nonzero"/></clipPath><clipPath id="e3037ea520"><path d="M 42.628906 30.78125 L 52.679688 30.78125 L 52.679688 54.53125 L 42.628906 54.53125 Z M 42.628906 30.78125 " clip-rule="nonzero"/></clipPath><clipPath id="c37f757787"><path d="M 46.132812 54.457031 L 42.695312 54.457031 L 42.695312 30.855469 L 47.597656 30.855469 C 48.425781 30.84375 49.253906 30.898438 50.078125 31.019531 C 50.648438 31.097656 51.152344 31.328125 51.585938 31.710938 C 51.988281 32.117188 52.238281 32.605469 52.332031 33.171875 C 52.476562 33.996094 52.542969 34.828125 52.527344 35.667969 L 52.527344 38.144531 C 52.539062 38.660156 52.476562 39.164062 52.332031 39.65625 C 52.226562 40.003906 52.054688 40.316406 51.824219 40.597656 C 51.632812 40.820312 51.40625 40.996094 51.136719 41.121094 C 50.898438 41.222656 50.65625 41.308594 50.40625 41.371094 L 50.40625 41.492188 C 50.707031 41.5625 50.996094 41.667969 51.277344 41.804688 C 51.550781 41.945312 51.773438 42.144531 51.949219 42.398438 C 52.15625 42.714844 52.300781 43.058594 52.382812 43.429688 C 52.492188 43.964844 52.542969 44.5 52.535156 45.042969 L 52.535156 54.457031 L 49.0625 54.457031 L 49.0625 44.507812 C 49.0625 43.871094 48.980469 43.425781 48.820312 43.175781 C 48.664062 42.925781 48.28125 42.804688 47.6875 42.804688 L 46.132812 42.804688 Z M 46.132812 40.085938 L 47.6875 40.085938 C 48.242188 40.085938 48.613281 39.976562 48.792969 39.757812 C 48.972656 39.539062 49.0625 39.140625 49.0625 38.5625 L 49.0625 35.667969 C 49.066406 35.363281 49.050781 35.058594 49.015625 34.757812 C 48.996094 34.554688 48.933594 34.371094 48.820312 34.203125 C 48.707031 34.050781 48.558594 33.957031 48.371094 33.921875 C 48.117188 33.863281 47.859375 33.839844 47.597656 33.84375 L 46.132812 33.84375 Z M 46.132812 40.085938 " clip-rule="nonzero"/></clipPath><clipPath id="1dc3368039"><path d="M 58.484375 30.855469 L 61.917969 30.855469 L 61.917969 54.457031 L 58.484375 54.457031 Z M 58.484375 30.855469 " clip-rule="nonzero"/></clipPath><clipPath id="444a83d480"><path d="M 68.054688 30.78125 L 77.953125 30.78125 L 77.953125 54.53125 L 68.054688 54.53125 Z M 68.054688 30.78125 " clip-rule="nonzero"/></clipPath><clipPath id="6274f44e74"><path d="M 71.492188 45.523438 L 71.492188 54.457031 L 68.054688 54.457031 L 68.054688 30.855469 L 72.953125 30.855469 C 73.785156 30.84375 74.613281 30.898438 75.433594 31.019531 C 76.003906 31.097656 76.507812 31.320312 76.945312 31.695312 C 77.351562 32.097656 77.597656 32.578125 77.691406 33.144531 C 77.835938 33.980469 77.902344 34.820312 77.886719 35.667969 L 77.886719 40.714844 C 77.902344 41.570312 77.832031 42.414062 77.675781 43.253906 C 77.535156 43.894531 77.28125 44.382812 76.914062 44.71875 C 76.476562 45.089844 75.972656 45.3125 75.40625 45.375 C 74.59375 45.488281 73.773438 45.539062 72.953125 45.527344 Z M 71.492188 33.84375 L 71.492188 42.746094 L 72.953125 42.746094 C 73.207031 42.75 73.457031 42.726562 73.703125 42.667969 C 73.886719 42.632812 74.035156 42.535156 74.148438 42.386719 C 74.265625 42.207031 74.335938 42.011719 74.359375 41.804688 C 74.402344 41.480469 74.425781 41.15625 74.417969 40.828125 L 74.417969 35.664062 C 74.421875 35.355469 74.40625 35.046875 74.371094 34.738281 C 74.359375 34.535156 74.292969 34.351562 74.179688 34.183594 C 74.066406 34.046875 73.921875 33.957031 73.746094 33.917969 C 73.484375 33.859375 73.21875 33.835938 72.953125 33.84375 Z M 71.492188 33.84375 " clip-rule="nonzero"/></clipPath><clipPath id="f6d06bbc2b"><path d="M 83.128906 30.476562 L 92.871094 30.476562 L 92.871094 54.53125 L 83.128906 54.53125 Z M 83.128906 30.476562 " clip-rule="nonzero"/></clipPath><clipPath id="1f42862727"><path d="M 89.429688 54.457031 L 89.429688 49.203125 L 86.535156 49.203125 L 86.535156 54.457031 L 83.1875 54.457031 L 83.1875 35.515625 C 83.167969 34.640625 83.234375 33.773438 83.378906 32.914062 C 83.507812 32.257812 83.753906 31.753906 84.113281 31.40625 C 84.523438 31.027344 85.007812 30.796875 85.558594 30.714844 C 86.335938 30.59375 87.117188 30.539062 87.90625 30.550781 C 88.730469 30.539062 89.554688 30.597656 90.371094 30.730469 C 90.945312 30.816406 91.453125 31.046875 91.890625 31.433594 C 92.261719 31.78125 92.515625 32.28125 92.652344 32.925781 C 92.8125 33.78125 92.882812 34.644531 92.863281 35.515625 L 92.863281 54.457031 Z M 87.96875 33.632812 C 87.722656 33.628906 87.476562 33.652344 87.234375 33.707031 C 87.058594 33.75 86.910156 33.839844 86.789062 33.976562 C 86.664062 34.144531 86.59375 34.335938 86.578125 34.542969 C 86.546875 34.867188 86.53125 35.191406 86.535156 35.515625 L 86.535156 46.390625 L 89.425781 46.390625 L 89.425781 35.515625 C 89.433594 35.1875 89.410156 34.867188 89.367188 34.542969 C 89.34375 34.335938 89.273438 34.148438 89.160156 33.976562 C 89.039062 33.832031 88.886719 33.742188 88.703125 33.707031 C 88.457031 33.652344 88.207031 33.628906 87.957031 33.632812 Z M 87.96875 33.632812 " clip-rule="nonzero"/></clipPath></defs><g mask="url(#e709b3a564)"><g transform="matrix(1, 0, 0, 1, 2, 30)"><g clip-path="url(#b9a857b847)"><g clip-path="url(#6cbf8bebce)"><path fill="#004aad" d="M 6.242188 10.023438 L 6.242188 23.898438 L 4.601562 24.457031 L 4.601562 10.027344 Z M 85.75 16.164062 L 84.488281 16.164062 L 84.488281 16.390625 L 87.378906 16.382812 L 87.378906 5.5 C 87.382812 5.175781 87.363281 4.855469 87.320312 4.535156 C 87.296875 4.328125 87.230469 4.140625 87.113281 3.972656 C 86.996094 3.828125 86.847656 3.742188 86.667969 3.703125 C 86.421875 3.648438 86.175781 3.625 85.925781 3.628906 C 85.679688 3.625 85.4375 3.648438 85.199219 3.703125 L 85.125 3.726562 C 85.273438 3.769531 85.390625 3.851562 85.484375 3.972656 C 85.597656 4.144531 85.664062 4.335938 85.683594 4.539062 C 85.726562 4.859375 85.746094 5.179688 85.742188 5.503906 L 85.742188 16.160156 Z M 17.847656 21.464844 L 20.234375 21.464844 L 20.1875 21.488281 L 20.1875 24.4375 L 21.210938 23.867188 L 21.210938 21.039062 L 17.84375 21.039062 L 17.84375 1.238281 L 16.683594 0.863281 L 16.683594 21.464844 Z M 9.429688 9.988281 L 7.917969 10.023438 L 7.917969 7.1875 L 9.429688 7.289062 Z M 9.539062 1.253906 L 9.539062 3.691406 L 6.238281 3.691406 L 6.238281 7.191406 L 4.601562 7.191406 L 4.601562 3.691406 L 8.039062 3.691406 L 8.039062 0.867188 Z M 35.253906 19.78125 C 35.273438 20.660156 35.210938 21.539062 35.070312 22.410156 C 34.945312 23.066406 34.707031 23.566406 34.355469 23.917969 C 33.949219 24.296875 33.46875 24.527344 32.917969 24.605469 C 32.132812 24.726562 31.34375 24.78125 30.550781 24.769531 C 30.136719 24.769531 29.761719 24.757812 29.414062 24.738281 C 29.574219 24.738281 29.742188 24.738281 29.910156 24.738281 C 30.738281 24.753906 31.558594 24.703125 32.375 24.582031 C 32.945312 24.503906 33.445312 24.277344 33.875 23.894531 C 34.242188 23.546875 34.484375 23.042969 34.617188 22.386719 C 34.761719 21.515625 34.828125 20.640625 34.8125 19.761719 L 34.8125 5.523438 C 34.828125 4.648438 34.765625 3.777344 34.621094 2.914062 C 34.492188 2.265625 34.242188 1.769531 33.878906 1.421875 C 33.449219 1.039062 32.949219 0.808594 32.378906 0.734375 C 31.652344 0.621094 30.917969 0.566406 30.183594 0.570312 L 30.550781 0.570312 C 31.347656 0.558594 32.132812 0.613281 32.917969 0.734375 C 33.46875 0.8125 33.949219 1.042969 34.355469 1.421875 C 34.710938 1.769531 34.945312 2.269531 35.070312 2.917969 C 35.210938 3.78125 35.273438 4.652344 35.253906 5.53125 Z M 30.28125 3.65625 C 29.84375 3.691406 29.554688 3.804688 29.414062 4.003906 C 29.242188 4.242188 29.15625 4.75 29.15625 5.527344 L 29.15625 19.777344 C 29.152344 20.113281 29.167969 20.445312 29.199219 20.777344 C 29.210938 20.992188 29.277344 21.183594 29.398438 21.363281 C 29.507812 21.507812 29.648438 21.601562 29.824219 21.644531 C 29.910156 21.667969 29.996094 21.683594 30.082031 21.695312 L 29.886719 21.695312 C 29.640625 21.699219 29.398438 21.675781 29.15625 21.621094 C 28.976562 21.578125 28.828125 21.484375 28.714844 21.335938 C 28.589844 21.164062 28.519531 20.96875 28.503906 20.753906 C 28.472656 20.421875 28.457031 20.089844 28.460938 19.753906 L 28.460938 5.523438 C 28.460938 4.75 28.550781 4.238281 28.730469 4 C 28.90625 3.761719 29.3125 3.644531 29.945312 3.644531 C 30.066406 3.644531 30.179688 3.648438 30.285156 3.65625 Z M 56.070312 23.890625 L 56.070312 1.179688 L 56.484375 0.855469 L 56.484375 24.457031 Z M 65.265625 23.847656 L 65.265625 1.164062 L 66.054688 0.859375 L 66.054688 24.457031 Z M 70.300781 12.808594 C 70.433594 12.800781 70.566406 12.777344 70.695312 12.746094 C 70.875 12.707031 71.019531 12.613281 71.125 12.464844 C 71.234375 12.285156 71.300781 12.09375 71.324219 11.882812 C 71.367188 11.5625 71.382812 11.242188 71.378906 10.917969 L 71.378906 5.664062 C 71.382812 5.355469 71.371094 5.050781 71.335938 4.742188 C 71.324219 4.542969 71.261719 4.359375 71.152344 4.195312 C 71.046875 4.054688 70.90625 3.964844 70.738281 3.925781 C 70.488281 3.867188 70.234375 3.84375 69.976562 3.851562 L 70.964844 3.851562 C 71.230469 3.84375 71.492188 3.867188 71.75 3.925781 C 71.925781 3.964844 72.070312 4.054688 72.179688 4.191406 C 72.292969 4.359375 72.359375 4.542969 72.375 4.742188 C 72.40625 5.046875 72.421875 5.351562 72.417969 5.65625 L 72.417969 10.90625 C 72.421875 11.230469 72.402344 11.550781 72.359375 11.871094 C 72.335938 12.082031 72.265625 12.273438 72.152344 12.449219 C 72.039062 12.601562 71.890625 12.695312 71.707031 12.730469 C 71.460938 12.789062 71.214844 12.8125 70.964844 12.808594 Z M 85.75 23.820312 L 85.75 19.203125 L 87.390625 19.203125 L 87.390625 24.457031 L 85.75 23.824219 Z M 79.792969 23.808594 L 79.792969 5.640625 C 79.78125 4.738281 79.839844 3.84375 79.980469 2.953125 C 80.101562 2.300781 80.21875 2.105469 80.675781 1.757812 C 81.371094 1.234375 83.480469 0.605469 84.296875 0.605469 C 84.574219 0.605469 84.839844 0.605469 85.089844 0.621094 C 84.570312 0.636719 84.058594 0.6875 83.546875 0.773438 C 82.996094 0.851562 82.515625 1.082031 82.105469 1.457031 C 81.75 1.804688 81.507812 2.304688 81.378906 2.957031 C 81.234375 3.84375 81.171875 4.738281 81.1875 5.636719 L 81.1875 24.457031 L 79.792969 23.8125 Z M 79.792969 23.808594 " fill-opacity="1" fill-rule="nonzero"/></g><g clip-path="url(#e34e8c83df)"><path fill="#004aad" d="M 1.164062 24.457031 L 1.164062 0.855469 L 8.035156 0.855469 L 8.035156 3.691406 L 4.601562 3.691406 L 4.601562 7.1875 L 7.917969 7.1875 L 7.917969 10.023438 L 4.601562 10.023438 L 4.601562 24.457031 Z M 1.164062 24.457031 " fill-opacity="1" fill-rule="nonzero"/></g><g clip-path="url(#df95779745)"><path fill="#004aad" d="M 20.207031 24.457031 L 13.246094 24.457031 L 13.246094 0.855469 L 16.683594 0.855469 L 16.683594 21.464844 L 20.207031 21.464844 Z M 20.207031 24.457031 " fill-opacity="1" fill-rule="nonzero"/></g><g clip-path="url(#2583e2c6aa)"><path fill="#004aad" d="M 34.859375 19.765625 C 34.875 20.648438 34.808594 21.527344 34.660156 22.398438 C 34.53125 23.054688 34.28125 23.558594 33.914062 23.910156 C 33.480469 24.289062 32.976562 24.519531 32.40625 24.59375 C 31.582031 24.71875 30.757812 24.773438 29.925781 24.761719 C 29.09375 24.773438 28.265625 24.71875 27.445312 24.59375 C 26.875 24.523438 26.378906 24.292969 25.953125 23.910156 C 25.59375 23.558594 25.351562 23.058594 25.222656 22.398438 C 25.074219 21.53125 25.007812 20.652344 25.027344 19.769531 L 25.027344 5.519531 C 25.007812 4.640625 25.070312 3.769531 25.222656 2.902344 C 25.351562 2.253906 25.59375 1.753906 25.953125 1.40625 C 26.378906 1.023438 26.875 0.792969 27.445312 0.71875 C 28.265625 0.597656 29.09375 0.542969 29.925781 0.554688 C 30.757812 0.542969 31.582031 0.597656 32.40625 0.71875 C 32.976562 0.796875 33.480469 1.023438 33.914062 1.40625 C 34.28125 1.753906 34.53125 2.253906 34.660156 2.902344 C 34.808594 3.765625 34.871094 4.636719 34.855469 5.515625 L 34.855469 19.765625 Z M 31.394531 5.515625 C 31.398438 5.191406 31.382812 4.867188 31.347656 4.542969 C 31.335938 4.335938 31.265625 4.144531 31.140625 3.976562 C 31.019531 3.839844 30.871094 3.75 30.691406 3.707031 C 30.449219 3.652344 30.207031 3.628906 29.960938 3.632812 C 29.324219 3.632812 28.917969 3.753906 28.742188 3.992188 C 28.566406 4.230469 28.476562 4.738281 28.472656 5.515625 L 28.472656 19.765625 C 28.46875 20.097656 28.484375 20.433594 28.519531 20.765625 C 28.535156 20.980469 28.605469 21.171875 28.726562 21.347656 C 28.847656 21.496094 29 21.589844 29.183594 21.632812 C 29.425781 21.6875 29.667969 21.710938 29.914062 21.707031 C 30.175781 21.710938 30.433594 21.6875 30.691406 21.632812 C 30.882812 21.585938 31.035156 21.484375 31.148438 21.328125 C 31.269531 21.144531 31.339844 20.945312 31.355469 20.730469 C 31.390625 20.40625 31.40625 20.082031 31.402344 19.757812 L 31.402344 5.507812 Z M 31.394531 5.515625 " fill-opacity="1" fill-rule="nonzero"/></g><g clip-path="url(#5ffeaf4ef3)"><path fill="#004aad" d="M 44.132812 24.457031 L 40.695312 24.457031 L 40.695312 0.855469 L 45.597656 0.855469 C 46.425781 0.84375 47.253906 0.898438 48.078125 1.019531 C 48.648438 1.097656 49.152344 1.328125 49.585938 1.710938 C 49.988281 2.117188 50.238281 2.605469 50.332031 3.171875 C 50.476562 3.996094 50.542969 4.828125 50.527344 5.667969 L 50.527344 8.144531 C 50.539062 8.660156 50.476562 9.164062 50.332031 9.65625 C 50.226562 10.003906 50.054688 10.316406 49.824219 10.597656 C 49.632812 10.820312 49.40625 10.996094 49.136719 11.121094 C 48.898438 11.222656 48.65625 11.308594 48.40625 11.371094 L 48.40625 11.492188 C 48.707031 11.5625 48.996094 11.667969 49.277344 11.804688 C 49.550781 11.945312 49.773438 12.144531 49.949219 12.398438 C 50.15625 12.714844 50.300781 13.058594 50.382812 13.429688 C 50.492188 13.964844 50.542969 14.5 50.535156 15.042969 L 50.535156 24.457031 L 47.0625 24.457031 L 47.0625 14.507812 C 47.0625 13.871094 46.980469 13.425781 46.820312 13.175781 C 46.664062 12.925781 46.28125 12.804688 45.6875 12.804688 L 44.132812 12.804688 Z M 44.132812 10.085938 L 45.6875 10.085938 C 46.242188 10.085938 46.613281 9.976562 46.792969 9.757812 C 46.972656 9.539062 47.0625 9.140625 47.0625 8.5625 L 47.0625 5.667969 C 47.066406 5.363281 47.050781 5.058594 47.015625 4.757812 C 46.996094 4.554688 46.933594 4.371094 46.820312 4.203125 C 46.707031 4.050781 46.558594 3.957031 46.371094 3.921875 C 46.117188 3.863281 45.859375 3.839844 45.597656 3.84375 L 44.132812 3.84375 Z M 44.132812 10.085938 " fill-opacity="1" fill-rule="nonzero"/></g><g clip-path="url(#46c6f051ce)"><path fill="#004aad" d="M 56.484375 0.855469 L 59.917969 0.855469 L 59.917969 24.457031 L 56.484375 24.457031 Z M 56.484375 0.855469 " fill-opacity="1" fill-rule="nonzero"/></g><g clip-path="url(#fe0988aad1)"><path fill="#004aad" d="M 69.492188 15.523438 L 69.492188 24.457031 L 66.054688 24.457031 L 66.054688 0.855469 L 70.953125 0.855469 C 71.785156 0.84375 72.613281 0.898438 73.433594 1.019531 C 74.003906 1.097656 74.507812 1.320312 74.945312 1.695312 C 75.351562 2.097656 75.597656 2.578125 75.691406 3.144531 C 75.835938 3.980469 75.902344 4.820312 75.886719 5.667969 L 75.886719 10.714844 C 75.902344 11.570312 75.832031 12.414062 75.675781 13.253906 C 75.535156 13.894531 75.28125 14.382812 74.914062 14.71875 C 74.476562 15.089844 73.972656 15.3125 73.40625 15.375 C 72.59375 15.488281 71.773438 15.539062 70.953125 15.527344 Z M 69.492188 3.84375 L 69.492188 12.746094 L 70.953125 12.746094 C 71.207031 12.75 71.457031 12.726562 71.703125 12.667969 C 71.886719 12.632812 72.035156 12.535156 72.148438 12.386719 C 72.265625 12.207031 72.335938 12.011719 72.359375 11.804688 C 72.402344 11.480469 72.425781 11.15625 72.417969 10.828125 L 72.417969 5.664062 C 72.421875 5.355469 72.40625 5.046875 72.371094 4.738281 C 72.359375 4.535156 72.292969 4.351562 72.179688 4.183594 C 72.066406 4.046875 71.921875 3.957031 71.746094 3.917969 C 71.484375 3.859375 71.21875 3.835938 70.953125 3.84375 Z M 69.492188 3.84375 " fill-opacity="1" fill-rule="nonzero"/></g><g clip-path="url(#dcd01189d1)"><path fill="#004aad" d="M 87.429688 24.457031 L 87.429688 19.203125 L 84.535156 19.203125 L 84.535156 24.457031 L 81.1875 24.457031 L 81.1875 5.515625 C 81.167969 4.640625 81.234375 3.773438 81.378906 2.914062 C 81.507812 2.257812 81.753906 1.753906 82.113281 1.40625 C 82.523438 1.027344 83.007812 0.796875 83.558594 0.714844 C 84.335938 0.59375 85.117188 0.539062 85.90625 0.550781 C 86.730469 0.539062 87.554688 0.597656 88.371094 0.730469 C 88.945312 0.816406 89.453125 1.046875 89.890625 1.433594 C 90.261719 1.78125 90.515625 2.28125 90.652344 2.925781 C 90.8125 3.78125 90.882812 4.644531 90.863281 5.515625 L 90.863281 24.457031 Z M 85.96875 3.632812 C 85.722656 3.628906 85.476562 3.652344 85.234375 3.707031 C 85.058594 3.75 84.910156 3.839844 84.789062 3.976562 C 84.664062 4.144531 84.59375 4.335938 84.578125 4.542969 C 84.546875 4.867188 84.53125 5.191406 84.535156 5.515625 L 84.535156 16.390625 L 87.425781 16.390625 L 87.425781 5.515625 C 87.433594 5.1875 87.410156 4.867188 87.367188 4.542969 C 87.34375 4.335938 87.273438 4.148438 87.160156 3.976562 C 87.039062 3.832031 86.886719 3.742188 86.703125 3.707031 C 86.457031 3.652344 86.207031 3.628906 85.957031 3.632812 Z M 85.96875 3.632812 " fill-opacity="1" fill-rule="nonzero"/></g></g></g></g><path fill="#004aad" d="M 3.164062 54.457031 L 3.164062 30.855469 L 10.035156 30.855469 L 10.035156 33.691406 L 6.601562 33.691406 L 6.601562 37.1875 L 9.917969 37.1875 L 9.917969 40.023438 L 6.601562 40.023438 L 6.601562 54.457031 Z M 3.164062 54.457031 " fill-opacity="1" fill-rule="nonzero"/><g clip-path="url(#c4019cf020)"><path fill="#004aad" d="M 0 28.90625 L 13.777344 28.90625 L 13.777344 66.066406 L 0 66.066406 Z M 0 28.90625 " fill-opacity="1" fill-rule="evenodd"/></g><path fill="#004aad" d="M 22.207031 54.457031 L 15.246094 54.457031 L 15.246094 30.855469 L 18.683594 30.855469 L 18.683594 51.464844 L 22.207031 51.464844 Z M 22.207031 54.457031 " fill-opacity="1" fill-rule="nonzero"/><g clip-path="url(#6181357b48)"><path fill="#004aad" d="M 14.355469 28.90625 L 25.003906 28.90625 L 25.003906 66.066406 L 14.355469 66.066406 Z M 14.355469 28.90625 " fill-opacity="1" fill-rule="evenodd"/></g><path fill="#004aad" d="M 36.859375 49.765625 C 36.875 50.648438 36.808594 51.527344 36.660156 52.398438 C 36.53125 53.054688 36.28125 53.558594 35.914062 53.910156 C 35.480469 54.289062 34.976562 54.519531 34.40625 54.59375 C 33.582031 54.71875 32.757812 54.773438 31.925781 54.761719 C 31.09375 54.773438 30.265625 54.71875 29.445312 54.59375 C 28.875 54.523438 28.378906 54.292969 27.953125 53.910156 C 27.59375 53.558594 27.351562 53.058594 27.222656 52.398438 C 27.074219 51.53125 27.007812 50.652344 27.027344 49.769531 L 27.027344 35.519531 C 27.007812 34.640625 27.070312 33.769531 27.222656 32.902344 C 27.351562 32.253906 27.59375 31.753906 27.953125 31.40625 C 28.378906 31.023438 28.875 30.792969 29.445312 30.71875 C 30.265625 30.597656 31.09375 30.542969 31.925781 30.554688 C 32.757812 30.542969 33.582031 30.597656 34.40625 30.71875 C 34.976562 30.796875 35.480469 31.023438 35.914062 31.40625 C 36.28125 31.753906 36.53125 32.253906 36.660156 32.902344 C 36.808594 33.765625 36.871094 34.636719 36.855469 35.515625 L 36.855469 49.765625 Z M 33.394531 35.515625 C 33.398438 35.191406 33.382812 34.867188 33.347656 34.542969 C 33.335938 34.335938 33.265625 34.144531 33.140625 33.976562 C 33.019531 33.839844 32.871094 33.75 32.691406 33.707031 C 32.449219 33.652344 32.207031 33.628906 31.960938 33.632812 C 31.324219 33.632812 30.917969 33.753906 30.742188 33.992188 C 30.566406 34.230469 30.476562 34.738281 30.472656 35.515625 L 30.472656 49.765625 C 30.46875 50.097656 30.484375 50.433594 30.519531 50.765625 C 30.535156 50.980469 30.605469 51.171875 30.726562 51.347656 C 30.847656 51.496094 31 51.589844 31.183594 51.632812 C 31.425781 51.6875 31.667969 51.710938 31.914062 51.707031 C 32.175781 51.710938 32.433594 51.6875 32.691406 51.632812 C 32.882812 51.585938 33.035156 51.484375 33.148438 51.328125 C 33.269531 51.144531 33.339844 50.945312 33.355469 50.730469 C 33.390625 50.40625 33.40625 50.082031 33.402344 49.757812 L 33.402344 35.507812 Z M 33.394531 35.515625 " fill-opacity="1" fill-rule="nonzero"/><g clip-path="url(#6e06d98797)"><g clip-path="url(#c1659d0772)"><path fill="#004aad" d="M 26.28125 28.90625 L 40.054688 28.90625 L 40.054688 66.066406 L 26.28125 66.066406 Z M 26.28125 28.90625 " fill-opacity="1" fill-rule="evenodd"/></g></g><path fill="#004aad" d="M 46.132812 54.457031 L 42.695312 54.457031 L 42.695312 30.855469 L 47.597656 30.855469 C 48.425781 30.84375 49.253906 30.898438 50.078125 31.019531 C 50.648438 31.097656 51.152344 31.328125 51.585938 31.710938 C 51.988281 32.117188 52.238281 32.605469 52.332031 33.171875 C 52.476562 33.996094 52.542969 34.828125 52.527344 35.667969 L 52.527344 38.144531 C 52.539062 38.660156 52.476562 39.164062 52.332031 39.65625 C 52.226562 40.003906 52.054688 40.316406 51.824219 40.597656 C 51.632812 40.820312 51.40625 40.996094 51.136719 41.121094 C 50.898438 41.222656 50.65625 41.308594 50.40625 41.371094 L 50.40625 41.492188 C 50.707031 41.5625 50.996094 41.667969 51.277344 41.804688 C 51.550781 41.945312 51.773438 42.144531 51.949219 42.398438 C 52.15625 42.714844 52.300781 43.058594 52.382812 43.429688 C 52.492188 43.964844 52.542969 44.5 52.535156 45.042969 L 52.535156 54.457031 L 49.0625 54.457031 L 49.0625 44.507812 C 49.0625 43.871094 48.980469 43.425781 48.820312 43.175781 C 48.664062 42.925781 48.28125 42.804688 47.6875 42.804688 L 46.132812 42.804688 Z M 46.132812 40.085938 L 47.6875 40.085938 C 48.242188 40.085938 48.613281 39.976562 48.792969 39.757812 C 48.972656 39.539062 49.0625 39.140625 49.0625 38.5625 L 49.0625 35.667969 C 49.066406 35.363281 49.050781 35.058594 49.015625 34.757812 C 48.996094 34.554688 48.933594 34.371094 48.820312 34.203125 C 48.707031 34.050781 48.558594 33.957031 48.371094 33.921875 C 48.117188 33.863281 47.859375 33.839844 47.597656 33.84375 L 46.132812 33.84375 Z M 46.132812 40.085938 " fill-opacity="1" fill-rule="nonzero"/><g clip-path="url(#e3037ea520)"><g clip-path="url(#c37f757787)"><path fill="#004aad" d="M 41.328125 28.90625 L 55.105469 28.90625 L 55.105469 66.066406 L 41.328125 66.066406 Z M 41.328125 28.90625 " fill-opacity="1" fill-rule="evenodd"/></g></g><path fill="#004aad" d="M 58.484375 30.855469 L 61.917969 30.855469 L 61.917969 54.457031 L 58.484375 54.457031 Z M 58.484375 30.855469 " fill-opacity="1" fill-rule="nonzero"/><g clip-path="url(#1dc3368039)"><path fill="#004aad" d="M 56.363281 28.90625 L 63.253906 28.90625 L 63.253906 66.066406 L 56.363281 66.066406 Z M 56.363281 28.90625 " fill-opacity="1" fill-rule="evenodd"/></g><path fill="#004aad" d="M 71.492188 45.523438 L 71.492188 54.457031 L 68.054688 54.457031 L 68.054688 30.855469 L 72.953125 30.855469 C 73.785156 30.84375 74.613281 30.898438 75.433594 31.019531 C 76.003906 31.097656 76.507812 31.320312 76.945312 31.695312 C 77.351562 32.097656 77.597656 32.578125 77.691406 33.144531 C 77.835938 33.980469 77.902344 34.820312 77.886719 35.667969 L 77.886719 40.714844 C 77.902344 41.570312 77.832031 42.414062 77.675781 43.253906 C 77.535156 43.894531 77.28125 44.382812 76.914062 44.71875 C 76.476562 45.089844 75.972656 45.3125 75.40625 45.375 C 74.59375 45.488281 73.773438 45.539062 72.953125 45.527344 Z M 71.492188 33.84375 L 71.492188 42.746094 L 72.953125 42.746094 C 73.207031 42.75 73.457031 42.726562 73.703125 42.667969 C 73.886719 42.632812 74.035156 42.535156 74.148438 42.386719 C 74.265625 42.207031 74.335938 42.011719 74.359375 41.804688 C 74.402344 41.480469 74.425781 41.15625 74.417969 40.828125 L 74.417969 35.664062 C 74.421875 35.355469 74.40625 35.046875 74.371094 34.738281 C 74.359375 34.535156 74.292969 34.351562 74.179688 34.183594 C 74.066406 34.046875 73.921875 33.957031 73.746094 33.917969 C 73.484375 33.859375 73.21875 33.835938 72.953125 33.84375 Z M 71.492188 33.84375 " fill-opacity="1" fill-rule="nonzero"/><g clip-path="url(#444a83d480)"><g clip-path="url(#6274f44e74)"><path fill="#004aad" d="M 66.203125 28.90625 L 79.878906 28.90625 L 79.878906 66.066406 L 66.203125 66.066406 Z M 66.203125 28.90625 " fill-opacity="1" fill-rule="evenodd"/></g></g><path fill="#004aad" d="M 89.429688 54.457031 L 89.429688 49.203125 L 86.535156 49.203125 L 86.535156 54.457031 L 83.1875 54.457031 L 83.1875 35.515625 C 83.167969 34.640625 83.234375 33.773438 83.378906 32.914062 C 83.507812 32.257812 83.753906 31.753906 84.113281 31.40625 C 84.523438 31.027344 85.007812 30.796875 85.558594 30.714844 C 86.335938 30.59375 87.117188 30.539062 87.90625 30.550781 C 88.730469 30.539062 89.554688 30.597656 90.371094 30.730469 C 90.945312 30.816406 91.453125 31.046875 91.890625 31.433594 C 92.261719 31.78125 92.515625 32.28125 92.652344 32.925781 C 92.8125 33.78125 92.882812 34.644531 92.863281 35.515625 L 92.863281 54.457031 Z M 87.96875 33.632812 C 87.722656 33.628906 87.476562 33.652344 87.234375 33.707031 C 87.058594 33.75 86.910156 33.839844 86.789062 33.976562 C 86.664062 34.144531 86.59375 34.335938 86.578125 34.542969 C 86.546875 34.867188 86.53125 35.191406 86.535156 35.515625 L 86.535156 46.390625 L 89.425781 46.390625 L 89.425781 35.515625 C 89.433594 35.1875 89.410156 34.867188 89.367188 34.542969 C 89.34375 34.335938 89.273438 34.148438 89.160156 33.976562 C 89.039062 33.832031 88.886719 33.742188 88.703125 33.707031 C 88.457031 33.652344 88.207031 33.628906 87.957031 33.632812 Z M 87.96875 33.632812 " fill-opacity="1" fill-rule="nonzero"/><g clip-path="url(#f6d06bbc2b)"><g clip-path="url(#1f42862727)"><path fill="#004aad" d="M 80.90625 28.90625 L 94.582031 28.90625 L 94.582031 66.066406 L 80.90625 66.066406 Z M 80.90625 28.90625 " fill-opacity="1" fill-rule="evenodd"/></g></g><path fill="#004aad" d="M 23.753906 26.996094 L 22.9375 24.785156 L 22.339844 24.785156 L 22.339844 28.996094 L 23 28.996094 L 23 26.398438 L 23.5625 28.097656 L 23.929688 28.097656 L 24.503906 26.371094 L 24.503906 28.996094 L 25.167969 28.996094 L 25.167969 24.785156 L 24.5625 24.785156 Z M 23.753906 26.996094 " fill-opacity="1" fill-rule="nonzero"/><path fill="#004aad" d="M 29.0625 24.785156 L 28.027344 28.996094 L 28.726562 28.996094 L 28.894531 28.160156 L 29.871094 28.160156 L 30.042969 28.996094 L 30.734375 28.996094 L 29.714844 24.785156 Z M 29.023438 27.566406 L 29.382812 25.800781 L 29.742188 27.566406 Z M 29.023438 27.566406 " fill-opacity="1" fill-rule="nonzero"/><path fill="#004aad" d="M 35.746094 26.027344 C 35.746094 25.15625 35.441406 24.785156 34.671875 24.785156 L 33.605469 24.785156 L 33.605469 28.996094 L 34.269531 28.996094 L 34.269531 27.269531 L 34.640625 27.269531 L 35.191406 28.996094 L 35.882812 28.996094 L 35.25 27.125 C 35.632812 26.917969 35.746094 26.546875 35.746094 26.027344 Z M 34.679688 26.671875 L 34.273438 26.671875 L 34.273438 25.382812 L 34.679688 25.382812 C 35.035156 25.382812 35.089844 25.675781 35.089844 26.027344 C 35.089844 26.375 35.023438 26.667969 34.671875 26.667969 Z M 34.679688 26.671875 " fill-opacity="1" fill-rule="nonzero"/><path fill="#004aad" d="M 39.613281 24.785156 L 38.578125 28.996094 L 39.277344 28.996094 L 39.441406 28.160156 L 40.417969 28.160156 L 40.589844 28.996094 L 41.28125 28.996094 L 40.257812 24.785156 Z M 39.574219 27.566406 L 39.933594 25.800781 L 40.292969 27.566406 Z M 39.574219 27.566406 " fill-opacity="1" fill-rule="nonzero"/><path fill="#004aad" d="M 43.679688 25.382812 L 44.382812 25.382812 L 44.382812 28.996094 L 45.046875 28.996094 L 45.046875 25.382812 L 45.753906 25.382812 L 45.753906 24.785156 L 43.679688 24.785156 Z M 43.679688 25.382812 " fill-opacity="1" fill-rule="nonzero"/><path fill="#004aad" d="M 49.664062 24.738281 C 49.332031 24.71875 49.0625 24.839844 48.847656 25.097656 C 48.570312 25.433594 48.542969 25.890625 48.542969 26.890625 C 48.542969 27.890625 48.574219 28.347656 48.847656 28.683594 C 48.953125 28.796875 49.078125 28.886719 49.21875 28.949219 C 49.363281 29.011719 49.511719 29.042969 49.664062 29.042969 C 49.820312 29.042969 49.96875 29.011719 50.113281 28.949219 C 50.253906 28.886719 50.375 28.796875 50.480469 28.683594 C 50.765625 28.351562 50.785156 27.890625 50.785156 26.890625 C 50.785156 25.890625 50.761719 25.429688 50.480469 25.097656 C 50.269531 24.839844 49.996094 24.722656 49.664062 24.738281 Z M 49.984375 28.285156 C 49.910156 28.398438 49.800781 28.449219 49.664062 28.4375 C 49.53125 28.449219 49.425781 28.398438 49.351562 28.285156 C 49.226562 28.085938 49.199219 27.660156 49.199219 26.890625 C 49.199219 26.121094 49.222656 25.695312 49.351562 25.496094 C 49.421875 25.378906 49.527344 25.324219 49.664062 25.335938 C 49.804688 25.324219 49.910156 25.378906 49.984375 25.496094 C 50.109375 25.695312 50.125 26.121094 50.125 26.890625 C 50.125 27.660156 50.109375 28.085938 49.984375 28.285156 Z M 49.984375 28.285156 " fill-opacity="1" fill-rule="nonzero"/><path fill="#004aad" d="M 55.445312 27.285156 L 54.457031 24.785156 L 53.863281 24.785156 L 53.863281 28.996094 L 54.527344 28.996094 L 54.527344 26.492188 L 55.519531 28.996094 L 56.105469 28.996094 L 56.105469 24.785156 L 55.445312 24.785156 Z M 55.445312 27.285156 " fill-opacity="1" fill-rule="nonzero"/><path fill="#004aad" d="M 60.003906 24.785156 L 58.96875 28.996094 L 59.667969 28.996094 L 59.832031 28.160156 L 60.808594 28.160156 L 60.980469 28.996094 L 61.671875 28.996094 L 60.648438 24.785156 Z M 59.960938 27.566406 L 60.324219 25.800781 L 60.683594 27.566406 Z M 59.960938 27.566406 " fill-opacity="1" fill-rule="nonzero"/><path fill="#004aad" d="M 67.71875 24.785156 L 66.652344 24.785156 L 66.652344 28.996094 L 67.71875 28.996094 C 68.046875 29.011719 68.320312 28.898438 68.535156 28.648438 C 68.820312 28.335938 68.839844 27.855469 68.839844 26.882812 C 68.839844 25.914062 68.816406 25.449219 68.535156 25.132812 C 68.320312 24.882812 68.046875 24.765625 67.71875 24.785156 Z M 68.039062 28.226562 C 67.957031 28.347656 67.847656 28.40625 67.699219 28.398438 L 67.3125 28.398438 L 67.3125 25.382812 L 67.699219 25.382812 C 67.847656 25.375 67.957031 25.433594 68.039062 25.550781 C 68.167969 25.75 68.179688 26.152344 68.179688 26.882812 C 68.179688 27.617188 68.175781 28.039062 68.042969 28.226562 Z M 68.039062 28.226562 " fill-opacity="1" fill-rule="nonzero"/><path fill="#004aad" d="M 73.691406 25.382812 L 73.691406 24.785156 L 71.921875 24.785156 L 71.921875 28.996094 L 73.691406 28.996094 L 73.691406 28.398438 L 72.585938 28.398438 L 72.585938 27.175781 L 73.539062 27.175781 L 73.539062 26.578125 L 72.585938 26.578125 L 72.585938 25.382812 Z M 73.691406 25.382812 " fill-opacity="1" fill-rule="nonzero"/><path fill="#004aad" d="M 24.550781 56.78125 L 25.007812 56.78125 L 25.007812 60.527344 L 24.550781 60.527344 Z M 24.550781 56.78125 " fill-opacity="1" fill-rule="nonzero"/><path fill="#004aad" d="M 28.796875 60.527344 L 27.828125 57.964844 L 27.828125 60.527344 L 27.371094 60.527344 L 27.371094 56.78125 L 27.792969 56.78125 L 28.753906 59.34375 L 28.753906 56.78125 L 29.210938 56.78125 L 29.210938 60.527344 Z M 28.796875 60.527344 " fill-opacity="1" fill-rule="nonzero"/><path fill="#004aad" d="M 32.433594 57.183594 L 32.433594 60.527344 L 31.976562 60.527344 L 31.976562 57.183594 L 31.347656 57.183594 L 31.347656 56.78125 L 33.054688 56.78125 L 33.054688 57.183594 Z M 32.433594 57.183594 " fill-opacity="1" fill-rule="nonzero"/><path fill="#004aad" d="M 35.203125 60.527344 L 35.203125 56.78125 L 36.648438 56.78125 L 36.648438 57.183594 L 35.652344 57.183594 L 35.652344 58.441406 L 36.507812 58.441406 L 36.507812 58.847656 L 35.648438 58.847656 L 35.648438 60.121094 L 36.644531 60.121094 L 36.644531 60.527344 Z M 35.203125 60.527344 " fill-opacity="1" fill-rule="nonzero"/><path fill="#004aad" d="M 40.265625 60.527344 L 39.753906 58.917969 L 39.347656 58.917969 L 39.347656 60.527344 L 38.890625 60.527344 L 38.890625 56.78125 L 39.738281 56.78125 C 40.304688 56.78125 40.621094 57.027344 40.621094 57.847656 C 40.621094 58.367188 40.492188 58.671875 40.164062 58.824219 L 40.738281 60.527344 Z M 39.746094 57.183594 L 39.347656 57.183594 L 39.347656 58.515625 L 39.746094 58.515625 C 40.09375 58.515625 40.171875 58.246094 40.171875 57.847656 C 40.171875 57.445312 40.09375 57.183594 39.746094 57.183594 Z M 39.746094 57.183594 " fill-opacity="1" fill-rule="nonzero"/><path fill="#004aad" d="M 44.402344 60.527344 L 43.433594 57.964844 L 43.433594 60.527344 L 42.976562 60.527344 L 42.976562 56.78125 L 43.398438 56.78125 L 44.355469 59.34375 L 44.355469 56.78125 L 44.8125 56.78125 L 44.8125 60.527344 Z M 44.402344 60.527344 " fill-opacity="1" fill-rule="nonzero"/><path fill="#004aad" d="M 48.570312 60.527344 L 48.394531 59.644531 L 47.523438 59.644531 L 47.347656 60.527344 L 46.875 60.527344 L 47.746094 56.78125 L 48.183594 56.78125 L 49.050781 60.527344 Z M 47.964844 57.511719 L 47.613281 59.238281 L 48.308594 59.238281 Z M 47.964844 57.511719 " fill-opacity="1" fill-rule="nonzero"/><path fill="#004aad" d="M 52.511719 60.363281 C 52.347656 60.507812 52.152344 60.578125 51.933594 60.566406 C 51.675781 60.582031 51.460938 60.488281 51.292969 60.296875 C 51.042969 60.011719 51.015625 59.6875 51.015625 58.652344 C 51.015625 57.621094 51.042969 57.296875 51.292969 57.011719 C 51.457031 56.839844 51.660156 56.75 51.898438 56.738281 C 52.136719 56.726562 52.347656 56.800781 52.527344 56.957031 C 52.71875 57.167969 52.808594 57.417969 52.796875 57.703125 L 52.347656 57.703125 C 52.355469 57.546875 52.316406 57.402344 52.226562 57.273438 C 52.152344 57.179688 52.054688 57.136719 51.933594 57.144531 C 51.808594 57.136719 51.707031 57.183594 51.628906 57.285156 C 51.496094 57.464844 51.476562 57.765625 51.476562 58.65625 C 51.476562 59.546875 51.5 59.84375 51.628906 60.027344 C 51.707031 60.125 51.808594 60.171875 51.933594 60.167969 C 52.054688 60.171875 52.152344 60.128906 52.226562 60.035156 C 52.3125 59.90625 52.351562 59.761719 52.347656 59.605469 L 52.796875 59.605469 C 52.808594 59.898438 52.714844 60.152344 52.511719 60.363281 Z M 52.511719 60.363281 " fill-opacity="1" fill-rule="nonzero"/><path fill="#004aad" d="M 55.027344 56.78125 L 55.484375 56.78125 L 55.484375 60.527344 L 55.027344 60.527344 Z M 55.027344 56.78125 " fill-opacity="1" fill-rule="nonzero"/><path fill="#004aad" d="M 59.316406 60.296875 C 59.144531 60.476562 58.929688 60.566406 58.675781 60.566406 C 58.421875 60.566406 58.210938 60.476562 58.035156 60.296875 C 57.792969 60.027344 57.761719 59.6875 57.761719 58.652344 C 57.761719 57.621094 57.792969 57.28125 58.035156 57.011719 C 58.117188 56.925781 58.214844 56.855469 58.328125 56.808594 C 58.4375 56.761719 58.554688 56.738281 58.675781 56.738281 C 58.796875 56.738281 58.914062 56.761719 59.023438 56.808594 C 59.136719 56.855469 59.234375 56.925781 59.316406 57.011719 C 59.558594 57.28125 59.59375 57.621094 59.59375 58.652344 C 59.59375 59.683594 59.558594 60.027344 59.316406 60.296875 Z M 58.980469 57.285156 C 58.90625 57.183594 58.804688 57.136719 58.675781 57.144531 C 58.550781 57.136719 58.449219 57.183594 58.371094 57.285156 C 58.238281 57.464844 58.21875 57.765625 58.21875 58.65625 C 58.21875 59.546875 58.242188 59.84375 58.371094 60.027344 C 58.449219 60.125 58.550781 60.171875 58.675781 60.167969 C 58.804688 60.175781 58.90625 60.128906 58.980469 60.027344 C 59.113281 59.847656 59.132812 59.546875 59.132812 58.65625 C 59.132812 57.765625 59.113281 57.464844 58.980469 57.285156 Z M 58.980469 57.285156 " fill-opacity="1" fill-rule="nonzero"/><path fill="#004aad" d="M 63.289062 60.527344 L 62.320312 57.964844 L 62.320312 60.527344 L 61.863281 60.527344 L 61.863281 56.78125 L 62.285156 56.78125 L 63.246094 59.34375 L 63.246094 56.78125 L 63.703125 56.78125 L 63.703125 60.527344 Z M 63.289062 60.527344 " fill-opacity="1" fill-rule="nonzero"/><path fill="#004aad" d="M 67.460938 60.527344 L 67.28125 59.644531 L 66.414062 59.644531 L 66.234375 60.527344 L 65.761719 60.527344 L 66.632812 56.78125 L 67.070312 56.78125 L 67.941406 60.527344 Z M 66.851562 57.511719 L 66.5 59.238281 L 67.199219 59.238281 Z M 66.851562 57.511719 " fill-opacity="1" fill-rule="nonzero"/><path fill="#004aad" d="M 70.003906 60.527344 L 70.003906 56.78125 L 70.460938 56.78125 L 70.460938 60.121094 L 71.453125 60.121094 L 71.453125 60.527344 Z M 70.003906 60.527344 " fill-opacity="1" fill-rule="nonzero"/><path fill="#004aad" d="M 22.71875 58.910156 L 13.59375 58.910156 C 13.519531 58.914062 13.457031 58.890625 13.402344 58.84375 C 13.347656 58.792969 13.320312 58.730469 13.320312 58.65625 C 13.320312 58.582031 13.347656 58.519531 13.402344 58.472656 C 13.457031 58.421875 13.519531 58.398438 13.59375 58.40625 L 22.71875 58.40625 Z M 73.3125 58.910156 L 82.4375 58.910156 C 82.507812 58.914062 82.574219 58.890625 82.625 58.84375 C 82.679688 58.792969 82.707031 58.730469 82.707031 58.65625 C 82.707031 58.582031 82.679688 58.519531 82.625 58.472656 C 82.574219 58.421875 82.507812 58.398438 82.4375 58.40625 L 73.3125 58.40625 Z M 73.3125 58.910156 " fill-opacity="1" fill-rule="nonzero"/><path fill="#004aad" d="M 48.015625 19.949219 C 46.949219 19.976562 45.980469 20.75 44.910156 20.777344 C 43.835938 20.804688 42.652344 20.082031 41.582031 20.109375 C 40.515625 20.1875 39.628906 21.007812 38.5625 21.089844 C 37.496094 21.167969 36.246094 20.507812 35.175781 20.585938 C 34.121094 20.71875 33.320312 21.582031 32.261719 21.714844 C 31.207031 21.847656 29.894531 21.25 28.835938 21.378906 C 28.011719 21.53125 27.363281 22.042969 26.625 22.375 C 26.183594 22.59375 25.835938 22.628906 25.164062 22.597656 C 24.292969 22.53125 23.367188 22.347656 22.589844 22.488281 C 21.957031 22.632812 21.441406 22.957031 20.925781 23.308594 C 20.335938 23.75 19.234375 23.871094 18.257812 23.820312 C 17.65625 23.75 17.058594 23.777344 16.464844 23.902344 C 16.0625 24 15.691406 24.171875 15.355469 24.417969 C 14.46875 25.078125 12.519531 25.011719 11.195312 25.402344 C 9.59375 25.820312 7.96875 26.289062 6.367188 26.726562 C 17.867188 22.019531 32.316406 19.210938 48.015625 19.210938 C 63.710938 19.210938 78.160156 22.011719 89.664062 26.71875 C 88.0625 26.28125 86.433594 25.816406 84.835938 25.398438 C 83.507812 25.003906 81.5625 25.074219 80.671875 24.410156 C 80.339844 24.164062 79.96875 23.992188 79.5625 23.894531 C 78.972656 23.773438 78.375 23.746094 77.773438 23.8125 C 76.796875 23.867188 75.695312 23.742188 75.105469 23.300781 C 74.589844 22.953125 74.070312 22.625 73.441406 22.480469 C 72.664062 22.34375 71.734375 22.527344 70.867188 22.589844 C 70.191406 22.625 69.847656 22.589844 69.40625 22.367188 C 68.667969 22.035156 68.015625 21.519531 67.195312 21.375 C 66.136719 21.242188 64.824219 21.839844 63.765625 21.707031 C 62.710938 21.574219 61.910156 20.710938 60.851562 20.578125 C 59.785156 20.5 58.535156 21.164062 57.464844 21.082031 C 56.398438 21 55.515625 20.183594 54.449219 20.101562 C 53.382812 20.074219 52.191406 20.796875 51.121094 20.773438 C 50.050781 20.746094 49.085938 19.96875 48.015625 19.941406 Z M 48.015625 19.949219 " fill-opacity="1" fill-rule="evenodd"/><path fill="#004aad" d="M 43.851562 0.273438 L 44.71875 0.0273438 L 44.644531 0.621094 L 51.386719 0.621094 L 51.3125 0.0273438 L 52.179688 0.273438 L 55.609375 17.402344 L 55.28125 17.382812 L 54.871094 15.25 L 55.003906 17.371094 L 54.894531 17.371094 L 54.699219 14.335938 L 53.964844 10.480469 L 54.445312 17.332031 L 54.339844 17.332031 L 53.792969 9.574219 L 53.242188 6.699219 L 54.003906 17.3125 L 53.898438 17.3125 L 53.066406 5.800781 L 52.40625 2.308594 L 53.546875 17.285156 C 53.101562 17.265625 52.652344 17.25 52.199219 17.234375 L 52.046875 13.464844 L 51.691406 13.34375 L 51.632812 17.210938 L 51.296875 17.210938 L 51.398438 13.253906 L 50.820312 13.050781 L 45.15625 13.050781 L 44.5625 13.257812 L 44.664062 17.21875 L 44.320312 17.21875 L 44.273438 13.363281 L 43.96875 13.46875 L 43.828125 17.238281 C 43.378906 17.253906 42.929688 17.269531 42.480469 17.292969 L 43.625 2.308594 L 42.960938 5.789062 L 42.089844 17.304688 L 41.988281 17.304688 L 42.789062 6.691406 L 42.238281 9.566406 L 41.652344 17.332031 L 41.550781 17.332031 L 42.066406 10.480469 L 41.332031 14.335938 L 41.101562 17.363281 L 40.996094 17.363281 L 41.160156 15.25 L 40.75 17.382812 L 40.421875 17.402344 Z M 46.554688 13.351562 L 46.859375 13.265625 L 46.835938 13.472656 L 49.191406 13.472656 L 49.164062 13.273438 L 49.46875 13.359375 L 50.230469 17.195312 L 50.140625 17.195312 L 50.085938 16.925781 L 50.105469 17.191406 L 50.066406 17.191406 L 50.027344 16.609375 L 49.835938 15.605469 L 49.949219 17.191406 L 49.910156 17.191406 L 49.773438 15.289062 L 49.542969 14.070312 L 49.78125 17.1875 L 49.386719 17.1875 L 49.363281 16.578125 L 49.316406 16.558594 L 49.304688 17.1875 L 49.210938 17.1875 L 49.226562 16.53125 L 48.148438 16.925781 L 48.773438 17.164062 L 48.511719 17.164062 L 48.105469 17.011719 L 47.925781 17.011719 L 47.523438 17.164062 L 47.257812 17.164062 L 47.886719 16.925781 L 46.792969 16.507812 L 46.777344 16.507812 L 46.796875 17.164062 L 46.699219 17.164062 L 46.691406 16.539062 L 46.660156 16.554688 L 46.636719 17.160156 L 46.246094 17.160156 L 46.484375 14.046875 L 46.253906 15.265625 L 46.109375 17.167969 L 46.074219 17.167969 L 46.191406 15.578125 L 46.003906 16.582031 L 45.957031 17.167969 L 45.921875 17.167969 L 45.941406 16.898438 L 45.890625 17.167969 L 45.796875 17.167969 L 46.554688 13.335938 Z M 47.898438 16.832031 L 48.125 16.832031 L 48.996094 16.5 L 47.03125 16.5 L 47.902344 16.832031 Z M 47.898438 15.90625 L 48.113281 15.90625 L 49.097656 15.535156 L 46.925781 15.535156 L 47.910156 15.90625 Z M 48.113281 16.089844 L 47.898438 16.089844 L 46.984375 16.433594 L 49.027344 16.433594 L 48.117188 16.089844 Z M 47.894531 14.871094 L 48.117188 14.871094 L 49.277344 14.414062 L 49.277344 14.371094 L 46.738281 14.371094 L 46.738281 14.414062 L 47.90625 14.867188 Z M 48.085938 15.050781 L 47.925781 15.050781 L 46.871094 15.464844 L 49.144531 15.464844 L 48.089844 15.050781 Z M 47.875 16 L 46.78125 16.414062 L 46.761719 16.414062 L 46.742188 15.574219 L 47.875 16.003906 Z M 48.136719 16 L 49.25 15.578125 L 49.226562 16.410156 Z M 49.355469 16.367188 L 49.316406 16.382812 L 49.328125 15.664062 Z M 47.882812 14.96875 L 46.742188 15.417969 L 46.726562 14.640625 L 46.726562 14.519531 L 47.882812 14.976562 Z M 48.136719 14.96875 L 49.277344 14.523438 L 49.253906 15.410156 Z M 46.65625 16.363281 L 46.679688 16.375 L 46.679688 15.957031 L 46.664062 16.363281 Z M 48.324219 13.699219 L 48.082031 13.699219 L 48.082031 14.214844 L 48.324219 14.214844 Z M 48.71875 13.699219 L 48.480469 13.699219 L 48.480469 14.214844 L 48.71875 14.214844 Z M 49.128906 13.699219 L 48.890625 13.699219 L 48.890625 14.214844 L 49.128906 14.214844 Z M 47.695312 13.699219 L 47.9375 13.699219 L 47.9375 14.214844 L 47.695312 14.214844 Z M 47.300781 13.699219 L 47.539062 13.699219 L 47.539062 14.214844 L 47.300781 14.214844 Z M 46.890625 13.699219 L 47.128906 13.699219 L 47.128906 14.214844 L 46.890625 14.214844 Z M 47.6875 10.242188 L 48.332031 10.242188 L 48.332031 10.253906 L 50.832031 9.304688 L 45.195312 9.304688 L 47.695312 10.253906 L 47.695312 10.242188 Z M 48.269531 10.761719 L 47.75 10.761719 L 44.730469 11.914062 L 51.3125 11.914062 L 48.277344 10.761719 Z M 47.703125 7.59375 L 48.3125 7.59375 L 51.128906 6.527344 L 44.890625 6.527344 L 47.707031 7.59375 Z M 48.3125 8.113281 L 47.703125 8.113281 L 45.085938 9.101562 L 50.941406 9.101562 L 48.324219 8.113281 Z M 47.683594 4.625 L 48.328125 4.625 L 48.328125 4.640625 L 51.644531 3.339844 L 51.644531 3.21875 L 44.355469 3.21875 L 44.355469 3.328125 L 47.703125 4.640625 L 47.703125 4.628906 Z M 48.234375 5.144531 L 47.777344 5.144531 L 44.765625 6.328125 L 51.265625 6.328125 L 48.242188 5.144531 Z M 47.625 7.851562 L 44.503906 9.039062 L 44.457031 9.023438 L 44.394531 6.628906 L 47.636719 7.847656 Z M 44.121094 9.464844 L 44.210938 9.429688 L 44.246094 11.804688 L 44.03125 11.886719 Z M 44.464844 9.335938 L 44.5 9.320312 L 47.640625 10.515625 L 44.527344 11.703125 L 44.464844 9.339844 Z M 48.390625 7.847656 L 51.582031 6.652344 L 51.519531 9.035156 L 48.402344 7.851562 Z M 51.871094 8.902344 L 51.761719 8.945312 L 51.792969 6.890625 Z M 48.390625 10.519531 L 51.503906 9.335938 L 51.445312 11.679688 Z M 47.652344 4.910156 L 44.382812 6.195312 L 44.324219 3.964844 L 44.339844 3.609375 Z M 48.378906 4.910156 L 51.652344 3.625 L 51.582031 6.167969 L 48.382812 4.910156 Z M 51.894531 9.464844 L 51.757812 9.414062 L 51.722656 11.789062 L 51.988281 11.890625 Z M 44.144531 8.902344 L 44.203125 8.925781 L 44.1875 7.734375 Z M 51.414062 12.859375 L 51.429688 12.183594 L 51.292969 12.183594 L 51.292969 12.859375 Z M 44.539062 12.183594 L 44.554688 12.859375 L 44.738281 12.859375 L 44.738281 12.179688 Z M 50.425781 12.183594 L 50.820312 12.183594 L 50.820312 12.859375 L 50.429688 12.859375 L 50.429688 12.179688 Z M 49.558594 12.183594 L 49.945312 12.183594 L 49.945312 12.859375 L 49.558594 12.859375 L 49.558594 12.179688 Z M 48.6875 12.183594 L 49.078125 12.183594 L 49.078125 12.859375 L 48.6875 12.859375 L 48.6875 12.179688 Z M 47.820312 12.183594 L 48.210938 12.183594 L 48.210938 12.859375 L 47.820312 12.859375 L 47.820312 12.179688 Z M 46.953125 12.183594 L 47.34375 12.183594 L 47.34375 12.859375 L 46.953125 12.859375 L 46.953125 12.179688 Z M 46.085938 12.183594 L 46.472656 12.183594 L 46.472656 12.859375 L 46.085938 12.859375 L 46.085938 12.179688 Z M 45.214844 12.183594 L 45.605469 12.183594 L 45.605469 12.859375 L 45.214844 12.859375 L 45.214844 12.179688 Z M 48.914062 1.273438 L 48.230469 1.273438 L 48.230469 2.75 L 48.917969 2.75 L 48.917969 1.273438 Z M 50.042969 1.273438 L 49.359375 1.273438 L 49.359375 2.75 L 50.042969 2.75 Z M 51.222656 1.273438 L 50.539062 1.273438 L 50.539062 2.75 L 51.222656 2.75 Z M 47.113281 1.273438 L 47.796875 1.273438 L 47.796875 2.75 L 47.113281 2.75 Z M 45.984375 1.273438 L 46.667969 1.273438 L 46.667969 2.75 L 45.984375 2.75 Z M 44.800781 1.273438 L 45.492188 1.273438 L 45.492188 2.75 L 44.804688 2.75 L 44.804688 1.273438 Z M 44.800781 1.273438 " fill-opacity="1" fill-rule="evenodd"/><path fill="#004aad" d="M 57.75 17.5625 L 57.75 16.394531 C 57.75 15.675781 57.433594 15.046875 57.046875 14.992188 L 56.894531 14.96875 C 56.5 14.914062 56.175781 15.464844 56.175781 16.195312 C 56.175781 16.613281 56.175781 17.03125 56.175781 17.445312 C 55.945312 17.429688 55.71875 17.414062 55.484375 17.398438 L 55.484375 13.664062 L 58.40625 14.121094 L 58.40625 17.625 L 57.753906 17.570312 Z M 62.707031 7.121094 C 62.835938 7.160156 62.960938 7.199219 63.089844 7.234375 L 63.089844 7.714844 C 63.707031 7.9375 64.171875 8.671875 64.171875 8.910156 L 64.171875 8.9375 L 64.238281 8.953125 L 64.355469 8.980469 L 64.449219 9.003906 L 64.566406 9.03125 C 64.597656 9.039062 64.625 9.046875 64.660156 9.054688 C 64.691406 9.0625 64.734375 9.074219 64.773438 9.082031 L 64.863281 9.105469 L 64.980469 9.132812 L 65.070312 9.15625 L 65.1875 9.183594 L 65.277344 9.207031 L 65.390625 9.234375 L 65.480469 9.253906 L 65.59375 9.28125 L 65.683594 9.304688 L 65.792969 9.332031 L 65.882812 9.355469 L 65.96875 9.375 L 65.96875 8.746094 L 66.320312 8.84375 L 66.320312 9.453125 L 66.394531 9.472656 L 66.480469 9.492188 L 66.59375 9.519531 L 66.679688 9.542969 L 66.789062 9.566406 C 66.816406 9.566406 66.84375 9.582031 66.875 9.585938 L 66.980469 9.613281 L 67.070312 9.636719 L 67.175781 9.660156 L 67.261719 9.683594 L 67.367188 9.710938 L 67.453125 9.730469 L 67.566406 9.769531 L 67.652344 9.789062 L 67.757812 9.816406 L 67.839844 9.835938 L 67.949219 9.863281 L 68.03125 9.882812 L 68.136719 9.910156 L 68.21875 9.929688 L 68.320312 9.953125 L 68.402344 9.972656 L 68.507812 10 L 68.589844 10.019531 L 68.695312 10.042969 L 68.777344 10.0625 L 68.785156 10.0625 L 68.785156 9.453125 L 69.105469 9.542969 L 69.105469 10.140625 L 69.144531 10.148438 L 69.253906 10.175781 L 69.253906 10.957031 C 67.265625 10.5 65.152344 10.007812 62.90625 9.488281 L 55.171875 7.691406 L 55.171875 6.734375 L 55.335938 6.777344 L 55.453125 6.804688 L 55.519531 6.820312 L 55.519531 6.058594 L 55.984375 6.1875 L 55.984375 6.933594 L 56.136719 6.96875 L 56.257812 6.996094 L 56.398438 7.03125 L 56.515625 7.0625 L 56.660156 7.097656 L 56.777344 7.125 L 56.917969 7.160156 L 57.03125 7.1875 L 57.175781 7.222656 C 57.214844 7.234375 57.25 7.242188 57.292969 7.25 L 57.429688 7.285156 C 57.46875 7.296875 57.507812 7.304688 57.542969 7.3125 L 57.6875 7.347656 L 57.9375 7.410156 L 58.046875 7.433594 L 58.1875 7.46875 L 58.300781 7.496094 L 58.4375 7.53125 L 58.546875 7.554688 L 58.683594 7.589844 L 58.792969 7.617188 L 58.910156 7.644531 L 58.910156 6.9375 L 59.335938 7.054688 L 59.335938 7.753906 L 59.414062 7.769531 L 59.523438 7.796875 L 59.65625 7.832031 L 59.761719 7.855469 L 59.894531 7.886719 L 60 7.914062 L 60.132812 7.945312 L 60.234375 7.972656 L 60.367188 8.003906 C 60.402344 8.011719 60.433594 8.019531 60.472656 8.027344 L 60.601562 8.058594 L 60.703125 8.085938 L 60.835938 8.117188 C 60.867188 8.128906 60.902344 8.136719 60.9375 8.144531 L 61.066406 8.175781 L 61.167969 8.199219 L 61.296875 8.230469 L 61.398438 8.253906 L 61.527344 8.289062 L 61.589844 8.300781 L 61.589844 8.273438 C 61.589844 8.027344 62.085938 7.511719 62.71875 7.613281 L 62.71875 7.121094 Z M 60.773438 17.847656 L 60.773438 16.773438 C 60.773438 16.085938 60.484375 15.480469 60.125 15.429688 L 59.984375 15.410156 C 59.625 15.359375 59.324219 15.890625 59.324219 16.59375 L 59.324219 17.703125 L 58.6875 17.644531 L 58.6875 14.164062 L 61.375 14.585938 L 61.375 17.914062 L 60.765625 17.847656 Z M 63.5625 18.1875 L 63.5625 17.121094 C 63.5625 16.457031 63.296875 15.878906 62.964844 15.832031 L 62.835938 15.8125 C 62.5 15.765625 62.226562 16.277344 62.226562 16.953125 L 62.226562 18.019531 L 61.628906 17.945312 L 61.628906 14.628906 L 64.113281 15.011719 C 64.113281 15.621094 64.113281 16.230469 64.113281 16.851562 L 64.113281 18.261719 L 63.554688 18.1875 Z M 66.152344 18.5625 L 66.152344 17.441406 C 66.152344 16.804688 65.902344 16.246094 65.59375 16.203125 L 65.476562 16.1875 C 65.164062 16.140625 64.910156 16.644531 64.910156 17.285156 L 64.910156 18.375 L 64.363281 18.292969 L 64.363281 15.050781 L 66.667969 15.410156 L 66.667969 18.644531 Z M 68.550781 18.96875 L 68.550781 17.738281 C 68.550781 17.128906 68.320312 16.589844 68.03125 16.550781 L 67.921875 16.53125 C 67.632812 16.492188 67.394531 16.96875 67.394531 17.597656 L 67.394531 18.769531 L 66.890625 18.683594 L 66.890625 15.445312 L 69.027344 15.78125 L 69.027344 19.058594 Z M 55.328125 6.925781 L 55.328125 7.355469 L 55.445312 7.382812 L 55.445312 6.957031 Z M 55.59375 6.992188 L 55.59375 7.417969 L 55.710938 7.445312 L 55.710938 7.03125 L 55.59375 7 Z M 55.859375 7.058594 L 55.859375 7.488281 L 55.976562 7.515625 L 55.976562 7.085938 Z M 56.125 7.121094 L 56.125 7.542969 L 56.242188 7.570312 L 56.242188 7.148438 Z M 56.386719 7.1875 L 56.386719 7.605469 L 56.503906 7.632812 L 56.503906 7.214844 Z M 56.648438 7.246094 L 56.648438 7.667969 L 56.761719 7.695312 L 56.761719 7.277344 C 56.722656 7.277344 56.6875 7.257812 56.648438 7.246094 Z M 56.90625 7.308594 L 56.90625 7.730469 L 57.019531 7.757812 L 57.019531 7.335938 L 56.90625 7.304688 Z M 57.164062 7.371094 C 57.164062 7.511719 57.164062 7.652344 57.164062 7.789062 C 57.203125 7.800781 57.242188 7.808594 57.28125 7.816406 L 57.28125 7.402344 L 57.167969 7.371094 Z M 57.417969 7.433594 L 57.417969 7.851562 L 57.53125 7.875 L 57.53125 7.460938 C 57.492188 7.453125 57.457031 7.445312 57.417969 7.433594 Z M 57.671875 7.496094 L 57.671875 7.910156 C 57.710938 7.921875 57.75 7.929688 57.785156 7.9375 L 57.785156 7.523438 Z M 57.925781 7.558594 L 57.925781 7.96875 L 58.035156 7.996094 L 58.035156 7.582031 Z M 58.175781 7.617188 L 58.175781 8.03125 L 58.289062 8.054688 L 58.289062 7.640625 L 58.175781 7.613281 Z M 58.425781 7.679688 L 58.425781 8.09375 C 58.460938 8.105469 58.496094 8.113281 58.535156 8.121094 L 58.535156 7.707031 Z M 58.671875 7.738281 L 58.671875 8.148438 L 58.78125 8.171875 L 58.78125 7.765625 Z M 58.917969 7.796875 L 58.917969 8.203125 L 59.023438 8.230469 L 59.023438 7.824219 Z M 59.160156 7.855469 C 59.160156 7.992188 59.160156 8.128906 59.160156 8.261719 L 59.269531 8.289062 L 59.269531 7.882812 L 59.164062 7.855469 Z M 59.402344 7.914062 L 59.402344 8.320312 L 59.511719 8.347656 L 59.511719 7.941406 L 59.402344 7.917969 Z M 59.640625 7.972656 L 59.640625 8.378906 L 59.75 8.402344 L 59.75 8 L 59.648438 7.972656 Z M 59.882812 8.03125 L 59.882812 8.433594 L 59.988281 8.457031 L 59.988281 8.058594 Z M 60.117188 8.089844 L 60.117188 8.488281 L 60.222656 8.515625 L 60.222656 8.117188 Z M 60.355469 8.148438 L 60.355469 8.550781 L 60.460938 8.578125 L 60.460938 8.171875 Z M 60.589844 8.203125 L 60.589844 8.601562 L 60.691406 8.625 L 60.691406 8.226562 Z M 60.820312 8.261719 L 60.820312 8.65625 L 60.925781 8.679688 L 60.925781 8.285156 Z M 61.054688 8.316406 L 61.054688 8.710938 L 61.15625 8.738281 L 61.15625 8.339844 Z M 61.285156 8.371094 L 61.285156 8.765625 L 61.386719 8.789062 L 61.386719 8.398438 L 61.285156 8.375 Z M 61.511719 8.425781 L 61.511719 8.820312 L 61.613281 8.84375 L 61.613281 8.453125 Z M 61.738281 8.480469 L 61.738281 8.875 L 61.839844 8.898438 L 61.839844 8.503906 Z M 61.964844 8.535156 L 61.964844 8.925781 C 61.996094 8.9375 62.03125 8.941406 62.066406 8.949219 L 62.066406 8.558594 Z M 62.1875 8.589844 L 62.1875 8.980469 L 62.289062 9.003906 L 62.289062 8.613281 Z M 62.414062 8.644531 L 62.414062 9.035156 L 62.511719 9.054688 L 62.511719 8.667969 C 62.476562 8.667969 62.445312 8.652344 62.414062 8.644531 Z M 62.632812 8.699219 L 62.632812 9.085938 C 62.664062 9.09375 62.699219 9.101562 62.730469 9.109375 L 62.730469 8.722656 Z M 62.851562 8.75 L 62.851562 9.136719 C 62.886719 9.144531 62.917969 9.152344 62.949219 9.160156 L 62.949219 8.777344 Z M 63.070312 8.804688 L 63.070312 9.1875 C 63.101562 9.199219 63.132812 9.207031 63.167969 9.210938 L 63.167969 8.828125 C 63.136719 8.820312 63.101562 8.8125 63.070312 8.804688 Z M 63.289062 8.859375 L 63.289062 9.242188 C 63.320312 9.25 63.351562 9.253906 63.382812 9.261719 L 63.382812 8.882812 L 63.289062 8.855469 Z M 63.503906 8.910156 L 63.503906 9.292969 L 63.597656 9.316406 L 63.597656 8.933594 Z M 63.71875 8.960938 L 63.71875 9.34375 C 63.75 9.351562 63.78125 9.359375 63.8125 9.363281 L 63.8125 8.984375 C 63.78125 8.984375 63.75 8.96875 63.71875 8.960938 Z M 63.933594 9.011719 L 63.933594 9.394531 C 63.964844 9.394531 63.996094 9.410156 64.027344 9.414062 L 64.027344 9.035156 Z M 64.144531 9.066406 L 64.144531 9.441406 L 64.238281 9.464844 L 64.238281 9.085938 Z M 64.355469 9.117188 L 64.355469 9.492188 L 64.449219 9.515625 L 64.449219 9.136719 Z M 64.566406 9.167969 L 64.566406 9.542969 L 64.660156 9.566406 L 64.660156 9.1875 Z M 64.773438 9.21875 L 64.773438 9.59375 L 64.863281 9.613281 L 64.863281 9.238281 Z M 64.980469 9.269531 L 64.980469 9.640625 L 65.070312 9.660156 L 65.070312 9.289062 Z M 65.1875 9.316406 L 65.1875 9.691406 L 65.277344 9.710938 L 65.277344 9.339844 C 65.246094 9.332031 65.214844 9.324219 65.1875 9.316406 Z M 65.390625 9.367188 L 65.390625 9.738281 L 65.480469 9.757812 L 65.480469 9.386719 Z M 65.59375 9.414062 L 65.59375 9.785156 L 65.683594 9.808594 L 65.683594 9.4375 C 65.652344 9.4375 65.621094 9.425781 65.59375 9.414062 Z M 65.792969 9.464844 L 65.792969 9.835938 L 65.882812 9.855469 L 65.882812 9.488281 Z M 65.996094 9.511719 L 65.996094 9.882812 L 66.082031 9.902344 L 66.082031 9.535156 Z M 66.195312 9.5625 L 66.195312 9.921875 L 66.285156 9.945312 L 66.285156 9.582031 Z M 66.394531 9.609375 L 66.394531 9.976562 L 66.480469 9.996094 L 66.480469 9.628906 C 66.453125 9.628906 66.421875 9.617188 66.394531 9.609375 Z M 66.59375 9.65625 L 66.59375 10.023438 L 66.679688 10.042969 L 66.679688 9.679688 Z M 66.789062 9.703125 L 66.789062 10.074219 L 66.875 10.097656 L 66.875 9.726562 C 66.84375 9.726562 66.816406 9.710938 66.789062 9.703125 Z M 66.980469 9.75 L 66.980469 10.117188 L 67.070312 10.136719 L 67.070312 9.769531 Z M 67.175781 9.800781 L 67.175781 10.160156 L 67.261719 10.179688 L 67.261719 9.820312 Z M 67.367188 9.847656 L 67.367188 10.207031 L 67.453125 10.226562 L 67.453125 9.867188 Z M 67.558594 9.890625 L 67.558594 10.253906 L 67.644531 10.273438 L 67.644531 9.914062 L 67.566406 9.890625 Z M 67.75 9.9375 L 67.75 10.296875 L 67.835938 10.316406 C 67.835938 10.199219 67.835938 10.078125 67.835938 9.957031 L 67.753906 9.9375 Z M 67.941406 9.984375 L 67.941406 10.34375 L 68.023438 10.363281 L 68.023438 10.003906 Z M 68.128906 10.027344 L 68.128906 10.386719 L 68.210938 10.40625 L 68.210938 10.050781 Z M 68.3125 10.074219 L 68.3125 10.429688 L 68.398438 10.449219 L 68.398438 10.09375 Z M 68.5 10.121094 L 68.5 10.476562 L 68.582031 10.496094 L 68.582031 10.140625 Z M 68.6875 10.164062 L 68.6875 10.519531 L 68.769531 10.539062 L 68.769531 10.183594 Z M 68.871094 10.210938 L 68.871094 10.5625 L 68.953125 10.582031 L 68.953125 10.226562 L 68.871094 10.207031 Z M 69.054688 10.253906 L 69.054688 10.605469 C 69.082031 10.613281 69.109375 10.617188 69.136719 10.625 L 69.136719 10.273438 Z M 67.914062 11.738281 L 68.03125 11.761719 C 68.285156 11.816406 68.546875 12.3125 68.546875 12.851562 L 68.546875 15.195312 C 68.164062 15.136719 67.785156 15.074219 67.390625 15.007812 L 67.390625 12.621094 C 67.390625 12.074219 67.660156 11.683594 67.914062 11.738281 Z M 66.886719 15.261719 L 66.886719 10.585938 L 69.027344 11.078125 L 69.027344 15.601562 Z M 65.46875 11.210938 L 65.59375 11.238281 C 65.863281 11.296875 66.144531 11.816406 66.144531 12.371094 L 66.144531 14.808594 L 64.90625 14.605469 L 64.90625 12.125 C 64.90625 11.554688 65.191406 11.152344 65.46875 11.210938 Z M 64.359375 14.867188 L 64.359375 10.007812 L 66.664062 10.53125 L 66.664062 15.226562 L 64.359375 14.859375 Z M 62.828125 10.648438 L 62.96875 10.679688 C 63.257812 10.742188 63.5625 11.289062 63.5625 11.863281 L 63.5625 14.378906 C 63.121094 14.308594 62.675781 14.226562 62.222656 14.160156 L 62.222656 11.589844 C 62.222656 10.996094 62.535156 10.578125 62.832031 10.644531 Z M 61.628906 14.425781 L 61.628906 9.382812 L 64.113281 9.953125 L 64.113281 14.824219 Z M 59.980469 10.027344 L 60.132812 10.0625 C 60.445312 10.128906 60.777344 10.695312 60.773438 11.296875 C 60.773438 12.171875 60.773438 13.046875 60.773438 13.921875 L 59.324219 13.683594 L 59.324219 11.007812 C 59.324219 10.398438 59.667969 9.960938 59.984375 10.027344 Z M 58.6875 13.960938 L 58.6875 8.703125 L 61.375 9.320312 L 61.375 14.386719 Z M 56.886719 9.363281 C 56.941406 9.375 56.996094 9.386719 57.050781 9.398438 C 57.394531 9.472656 57.75 10.0625 57.75 10.691406 L 57.75 13.425781 L 56.175781 13.164062 L 56.175781 10.378906 C 56.175781 9.738281 56.542969 9.292969 56.886719 9.367188 Z M 55.484375 13.449219 L 55.484375 7.96875 L 58.40625 8.640625 L 58.40625 13.914062 L 55.484375 13.457031 Z M 55.484375 13.449219 " fill-opacity="1" fill-rule="evenodd"/><path fill="#004aad" d="M 39.195312 17.492188 L 39.195312 16.050781 C 39.195312 15.289062 38.636719 14.730469 37.957031 14.816406 L 37.695312 14.847656 C 37.035156 14.929688 36.5 15.597656 36.5 16.335938 C 36.5 16.792969 36.5 17.257812 36.5 17.71875 C 36.132812 17.757812 35.765625 17.792969 35.402344 17.832031 L 35.402344 14.042969 L 37.824219 13.714844 C 38.664062 13.601562 39.523438 13.480469 40.402344 13.359375 L 40.402344 17.410156 C 39.996094 17.433594 39.59375 17.460938 39.195312 17.492188 Z M 37.628906 8.894531 L 38.023438 8.820312 C 38.4375 8.738281 38.785156 9.050781 38.785156 9.515625 L 38.785156 9.617188 L 36.894531 9.964844 L 36.894531 9.867188 C 36.894531 9.640625 36.964844 9.4375 37.101562 9.257812 C 37.238281 9.078125 37.414062 8.957031 37.632812 8.898438 Z M 35.402344 10.484375 L 35.402344 8.984375 L 40.402344 7.984375 L 40.402344 9.582031 L 37.824219 10.046875 Z M 26.917969 10.988281 L 27.214844 10.929688 C 27.523438 10.867188 27.78125 11.148438 27.78125 11.554688 L 27.78125 11.640625 L 26.359375 11.902344 L 26.359375 11.816406 C 26.359375 11.417969 26.613281 11.046875 26.917969 10.988281 Z M 25.230469 12.328125 L 25.230469 11.019531 L 27.054688 10.652344 C 27.6875 10.527344 28.335938 10.394531 28.992188 10.261719 C 28.992188 10.726562 28.992188 11.1875 28.992188 11.644531 L 27.070312 12 L 25.242188 12.328125 Z M 29.152344 11.617188 L 32.09375 11.085938 L 35.277344 10.511719 L 35.277344 10.359375 L 32.046875 10.402344 L 29.15625 11.476562 L 29.15625 11.609375 Z M 31.726562 15.664062 L 32.460938 15.574219 L 32.460938 18.183594 C 32.21875 18.214844 31.972656 18.25 31.726562 18.285156 Z M 29.15625 15.816406 L 29.15625 14.902344 L 32.09375 14.488281 L 35.277344 14.054688 L 35.277344 15.054688 L 32.09375 15.453125 Z M 34.5 11.890625 C 34.359375 11.925781 34.242188 12.003906 34.15625 12.121094 C 34.070312 12.238281 34.027344 12.367188 34.03125 12.515625 L 34.03125 13.667969 L 34.972656 13.53125 L 34.972656 12.359375 C 34.972656 12.054688 34.757812 11.84375 34.5 11.882812 Z M 33.28125 12.09375 C 33.140625 12.128906 33.03125 12.203125 32.945312 12.316406 C 32.859375 12.433594 32.820312 12.558594 32.824219 12.703125 L 32.824219 13.839844 L 33.738281 13.707031 L 33.738281 12.5625 C 33.738281 12.257812 33.527344 12.050781 33.28125 12.09375 Z M 32.09375 12.289062 C 31.960938 12.328125 31.851562 12.402344 31.769531 12.515625 C 31.6875 12.625 31.648438 12.75 31.652344 12.890625 L 31.652344 14.007812 C 31.945312 13.96875 32.242188 13.925781 32.539062 13.882812 L 32.539062 12.75 C 32.539062 12.457031 32.335938 12.246094 32.09375 12.292969 Z M 30.945312 12.476562 C 30.816406 12.515625 30.710938 12.589844 30.632812 12.699219 C 30.550781 12.808594 30.515625 12.933594 30.519531 13.070312 L 30.519531 14.171875 L 31.378906 14.046875 L 31.378906 12.933594 C 31.378906 12.644531 31.183594 12.4375 30.945312 12.476562 Z M 29.832031 12.664062 C 29.605469 12.699219 29.421875 12.96875 29.421875 13.246094 L 29.421875 14.335938 L 30.253906 14.21875 L 30.253906 13.121094 C 30.253906 12.835938 30.0625 12.632812 29.832031 12.664062 Z M 29.160156 14.703125 L 29.160156 11.785156 L 32.09375 11.257812 L 35.277344 10.683594 L 35.277344 13.847656 L 32.09375 14.292969 L 29.15625 14.699219 Z M 25.15625 10.851562 L 27.070312 10.457031 L 29.09375 10.046875 L 29.09375 9.734375 L 27.039062 8.953125 C 26.398438 9.496094 25.769531 10.03125 25.15625 10.546875 Z M 28.097656 18.859375 L 28.097656 17.230469 C 28.097656 16.570312 27.675781 16.082031 27.164062 16.144531 L 26.96875 16.167969 C 26.46875 16.230469 26.0625 16.804688 26.0625 17.449219 L 26.0625 19.238281 L 25.230469 19.40625 L 25.230469 15.433594 L 27.058594 15.183594 L 28.996094 14.917969 L 28.996094 18.703125 C 28.691406 18.753906 28.390625 18.804688 28.089844 18.855469 Z M 26.855469 13.15625 L 27.277344 13.085938 C 27.734375 13.011719 28.097656 13.425781 28.097656 14 L 28.097656 14.488281 L 26.0625 14.792969 L 26.0625 14.308594 C 26.0625 13.746094 26.417969 13.226562 26.855469 13.15625 Z M 25.230469 15.25 L 25.230469 12.484375 L 27.058594 12.160156 L 28.996094 11.8125 L 28.996094 14.722656 L 27.070312 14.992188 L 25.242188 15.246094 Z M 35.300781 8.792969 L 37.828125 8.28125 L 40.519531 7.734375 L 40.519531 7.367188 L 37.789062 6.542969 C 36.945312 7.191406 36.113281 7.828125 35.300781 8.445312 Z M 37.546875 11.390625 L 38.109375 11.296875 C 38.703125 11.199219 39.195312 11.664062 39.195312 12.332031 L 39.195312 12.898438 C 38.28125 13.03125 37.382812 13.160156 36.5 13.289062 L 36.5 12.738281 C 36.5 12.09375 36.96875 11.488281 37.546875 11.390625 Z M 35.402344 13.828125 L 35.402344 10.664062 L 37.824219 10.234375 L 40.402344 9.777344 L 40.402344 13.140625 L 37.824219 13.5 L 35.402344 13.835938 Z M 35.402344 13.828125 " fill-opacity="1" fill-rule="evenodd"/><path fill="#004aad" d="M 17.222656 15.304688 L 17.222656 9.632812 L 24.378906 7.378906 L 24.378906 13.050781 L 22.550781 12.6875 L 22.550781 8.148438 L 19.074219 9.222656 L 19.074219 13.773438 L 17.238281 15.296875 Z M 22.773438 7.789062 L 24.246094 7.335938 L 24.246094 6.175781 L 22.773438 6.632812 Z M 24.164062 6.074219 L 24.164062 5.859375 C 24.164062 5.808594 24.117188 5.78125 24.058594 5.796875 L 24.035156 5.804688 C 23.972656 5.824219 23.9375 5.867188 23.929688 5.933594 L 23.929688 6.148438 Z M 24.164062 7.28125 L 24.164062 6.636719 C 24.164062 6.484375 24.117188 6.359375 24.058594 6.378906 L 24.035156 6.386719 C 23.976562 6.40625 23.929688 6.550781 23.929688 6.710938 L 23.929688 7.355469 L 24.164062 7.285156 Z M 23.683594 7.429688 L 23.683594 6.789062 C 23.683594 6.636719 23.613281 6.519531 23.53125 6.546875 L 23.5 6.558594 C 23.410156 6.585938 23.347656 6.738281 23.347656 6.898438 L 23.347656 7.542969 L 23.691406 7.433594 Z M 23.074219 7.625 L 23.074219 6.980469 C 23.074219 6.820312 23.027344 6.707031 22.96875 6.722656 L 22.945312 6.722656 C 22.886719 6.742188 22.839844 6.886719 22.839844 7.046875 L 22.839844 7.695312 L 23.074219 7.621094 Z M 23.074219 6.417969 L 23.074219 6.207031 C 23.074219 6.152344 23.027344 6.125 22.96875 6.144531 L 22.945312 6.144531 C 22.882812 6.164062 22.847656 6.207031 22.839844 6.273438 L 22.839844 6.496094 L 23.074219 6.421875 Z M 23.683594 6.226562 L 23.683594 6.015625 C 23.683594 5.960938 23.613281 5.941406 23.53125 5.96875 L 23.5 5.976562 C 23.410156 6.003906 23.347656 6.070312 23.347656 6.128906 L 23.347656 6.34375 L 23.691406 6.234375 Z M 23.796875 4.855469 L 23.796875 4.9375 L 23.554688 5.015625 L 23.554688 5.371094 C 23.941406 5.261719 24.246094 5.347656 24.246094 5.570312 L 24.246094 5.617188 L 22.777344 6.074219 L 22.777344 6.027344 C 22.777344 5.804688 23.082031 5.527344 23.46875 5.390625 L 23.46875 5.050781 L 23.226562 5.125 L 23.226562 5.050781 L 23.46875 4.972656 L 23.46875 4.792969 L 23.554688 4.765625 L 23.554688 4.941406 L 23.796875 4.863281 Z M 22.773438 6.578125 L 24.246094 6.117188 L 24.246094 5.671875 L 22.773438 6.128906 L 22.773438 6.585938 Z M 17.359375 9.503906 L 18.832031 9.046875 L 18.832031 7.886719 L 17.359375 8.34375 Z M 18.753906 7.789062 L 18.753906 7.574219 C 18.753906 7.523438 18.703125 7.492188 18.644531 7.511719 L 18.625 7.511719 C 18.558594 7.53125 18.523438 7.574219 18.515625 7.640625 L 18.515625 7.855469 L 18.753906 7.78125 Z M 18.753906 8.996094 L 18.753906 8.347656 C 18.753906 8.195312 18.703125 8.070312 18.644531 8.089844 L 18.625 8.089844 C 18.566406 8.109375 18.515625 8.253906 18.515625 8.414062 L 18.515625 9.0625 L 18.753906 8.984375 Z M 18.269531 9.148438 L 18.269531 8.496094 C 18.269531 8.34375 18.199219 8.230469 18.117188 8.257812 L 18.085938 8.265625 C 18 8.292969 17.933594 8.445312 17.933594 8.605469 L 17.933594 9.253906 L 18.277344 9.144531 Z M 17.660156 9.339844 L 17.660156 8.691406 C 17.660156 8.539062 17.613281 8.414062 17.554688 8.433594 L 17.53125 8.441406 C 17.472656 8.460938 17.425781 8.605469 17.425781 8.765625 L 17.425781 9.410156 L 17.660156 9.335938 Z M 17.660156 8.132812 L 17.660156 7.921875 C 17.660156 7.867188 17.613281 7.839844 17.554688 7.859375 L 17.53125 7.859375 C 17.46875 7.878906 17.433594 7.921875 17.425781 7.988281 L 17.425781 8.199219 L 17.660156 8.125 Z M 18.269531 7.941406 L 18.269531 7.730469 C 18.269531 7.675781 18.199219 7.65625 18.117188 7.683594 L 18.085938 7.691406 C 18 7.71875 17.933594 7.785156 17.933594 7.84375 L 17.933594 8.058594 Z M 18.386719 6.570312 L 18.386719 6.652344 L 18.144531 6.730469 L 18.144531 7.078125 C 18.527344 6.96875 18.832031 7.054688 18.832031 7.277344 L 18.832031 7.335938 L 17.363281 7.789062 L 17.363281 7.742188 C 17.363281 7.519531 17.667969 7.242188 18.054688 7.109375 L 18.054688 6.761719 L 17.8125 6.835938 L 17.8125 6.753906 L 18.054688 6.679688 L 18.054688 6.503906 L 18.144531 6.476562 L 18.144531 6.652344 L 18.390625 6.574219 Z M 17.359375 8.296875 L 18.832031 7.839844 L 18.832031 7.382812 L 17.359375 7.839844 Z M 20.796875 9.035156 C 21.089844 8.945312 21.324219 9.085938 21.324219 9.355469 C 21.289062 9.6875 21.117188 9.902344 20.796875 10.007812 C 20.507812 10.097656 20.269531 9.953125 20.269531 9.6875 C 20.304688 9.351562 20.480469 9.136719 20.796875 9.035156 Z M 20.796875 9.25 C 20.949219 9.199219 21.089844 9.28125 21.089844 9.429688 C 21.070312 9.613281 20.972656 9.734375 20.796875 9.789062 C 20.636719 9.839844 20.503906 9.761719 20.503906 9.613281 C 20.523438 9.425781 20.621094 9.308594 20.796875 9.25 Z M 17.535156 16.035156 L 16.910156 16.230469 L 16.910156 15.707031 L 17.535156 15.511719 L 17.535156 16.042969 Z M 17.535156 16.695312 L 16.910156 16.890625 L 16.910156 16.363281 L 17.535156 16.164062 Z M 17.535156 17.359375 L 16.910156 17.554688 L 16.910156 17.027344 L 17.535156 16.828125 Z M 17.535156 18.019531 L 16.910156 18.21875 L 16.910156 17.6875 L 17.535156 17.492188 Z M 17.535156 18.683594 L 16.910156 18.878906 L 16.910156 18.351562 L 17.535156 18.15625 Z M 17.535156 19.347656 L 16.910156 19.542969 L 16.910156 19.011719 L 17.535156 18.816406 Z M 17.535156 20.007812 L 16.910156 20.207031 L 16.910156 19.675781 L 17.535156 19.480469 Z M 17.535156 20.671875 L 16.910156 20.867188 L 16.910156 20.339844 L 17.535156 20.144531 Z M 16.910156 21.480469 L 16.910156 21 L 17.535156 20.804688 L 17.535156 21.296875 Z M 24.058594 19.652344 L 24.058594 19.417969 L 24.683594 19.222656 L 24.683594 19.527344 L 24.058594 19.660156 Z M 24.683594 13.785156 L 24.058594 13.984375 L 24.058594 13.449219 L 24.683594 13.253906 Z M 24.683594 14.449219 L 24.058594 14.640625 L 24.058594 14.109375 L 24.683594 13.914062 Z M 24.683594 15.113281 L 24.058594 15.308594 L 24.058594 14.773438 L 24.683594 14.578125 Z M 24.683594 15.773438 L 24.058594 15.972656 L 24.058594 15.441406 L 24.683594 15.246094 Z M 24.683594 16.4375 L 24.058594 16.636719 L 24.058594 16.105469 L 24.683594 15.910156 Z M 24.683594 17.101562 L 24.058594 17.296875 L 24.058594 16.769531 L 24.683594 16.570312 Z M 24.683594 17.761719 L 24.058594 17.960938 L 24.058594 17.429688 L 24.683594 17.234375 Z M 24.683594 18.425781 L 24.058594 18.621094 L 24.058594 18.09375 L 24.683594 17.894531 Z M 24.683594 19.085938 L 24.058594 19.285156 L 24.058594 18.753906 L 24.683594 18.554688 Z M 20.796875 13.710938 C 21.375 13.527344 21.839844 13.8125 21.839844 14.34375 C 21.839844 14.878906 21.375 15.457031 20.796875 15.636719 C 20.21875 15.820312 19.753906 15.535156 19.753906 15.003906 C 19.753906 14.46875 20.21875 13.890625 20.796875 13.710938 Z M 20.796875 14.140625 C 21.117188 14.039062 21.375 14.199219 21.375 14.492188 C 21.339844 14.859375 21.148438 15.097656 20.796875 15.207031 C 20.476562 15.308594 20.21875 15.152344 20.21875 14.855469 C 20.253906 14.488281 20.445312 14.25 20.796875 14.140625 Z M 18.496094 16.5625 L 23.097656 15.113281 L 23.097656 15.859375 L 18.496094 17.308594 Z M 18.609375 16.609375 L 18.695312 16.585938 L 18.695312 17.160156 L 18.609375 17.1875 Z M 22.898438 15.257812 L 22.984375 15.234375 L 22.984375 15.808594 L 22.898438 15.835938 Z M 22.683594 15.328125 L 22.769531 15.300781 L 22.769531 15.875 L 22.683594 15.902344 Z M 22.46875 15.394531 L 22.554688 15.367188 L 22.554688 15.945312 L 22.46875 15.972656 Z M 22.253906 15.460938 L 22.339844 15.433594 L 22.339844 16.011719 L 22.253906 16.039062 Z M 22.042969 15.53125 L 22.125 15.503906 L 22.125 16.078125 L 22.042969 16.105469 Z M 21.828125 15.597656 L 21.910156 15.570312 L 21.910156 16.148438 L 21.828125 16.171875 Z M 21.613281 15.664062 L 21.695312 15.636719 L 21.695312 16.214844 L 21.613281 16.242188 Z M 21.398438 15.730469 L 21.480469 15.707031 L 21.480469 16.28125 L 21.398438 16.308594 Z M 21.183594 15.800781 L 21.269531 15.773438 L 21.269531 16.351562 L 21.183594 16.375 Z M 20.96875 15.867188 L 21.054688 15.839844 L 21.054688 16.417969 L 20.96875 16.441406 Z M 20.753906 15.933594 L 20.839844 15.910156 L 20.839844 16.484375 L 20.753906 16.511719 Z M 20.539062 16.003906 L 20.625 15.976562 L 20.625 16.554688 L 20.539062 16.578125 Z M 20.324219 16.070312 L 20.410156 16.042969 L 20.410156 16.621094 L 20.324219 16.648438 Z M 20.113281 16.136719 L 20.195312 16.113281 L 20.195312 16.6875 L 20.113281 16.714844 Z M 19.898438 16.207031 L 19.980469 16.179688 L 19.980469 16.753906 L 19.898438 16.78125 Z M 19.683594 16.273438 L 19.765625 16.246094 L 19.765625 16.824219 L 19.683594 16.851562 Z M 19.46875 16.339844 L 19.550781 16.3125 L 19.550781 16.890625 L 19.46875 16.917969 Z M 19.253906 16.410156 L 19.335938 16.382812 L 19.335938 16.957031 L 19.253906 16.984375 Z M 19.039062 16.476562 L 19.121094 16.449219 L 19.121094 17.027344 L 19.039062 17.050781 L 19.039062 16.46875 Z M 18.824219 16.542969 L 18.90625 16.515625 L 18.90625 17.09375 L 18.824219 17.121094 Z M 22.207031 16.289062 L 23.097656 16.007812 L 23.097656 19.859375 C 22.800781 19.929688 22.503906 20 22.207031 20.066406 Z M 18.496094 17.457031 L 19.386719 17.179688 L 19.386719 20.78125 L 18.496094 21.023438 Z M 18.582031 11.167969 L 18.582031 10.175781 C 18.585938 10.121094 18.578125 10.070312 18.550781 10.019531 C 18.527344 9.972656 18.492188 9.929688 18.449219 9.898438 C 18.402344 9.867188 18.355469 9.851562 18.300781 9.84375 C 18.246094 9.839844 18.195312 9.847656 18.144531 9.871094 L 18.050781 9.902344 C 17.773438 9.996094 17.625 10.191406 17.609375 10.484375 L 17.609375 11.472656 Z M 18.417969 13.273438 L 18.417969 12.628906 C 18.421875 12.554688 18.390625 12.492188 18.328125 12.449219 C 18.261719 12.40625 18.195312 12.398438 18.125 12.429688 L 18.066406 12.449219 C 17.886719 12.515625 17.792969 12.640625 17.78125 12.832031 L 17.78125 13.480469 Z M 23.804688 11.574219 L 23.804688 10.933594 C 23.808594 10.855469 23.78125 10.792969 23.71875 10.75 C 23.652344 10.707031 23.585938 10.699219 23.515625 10.730469 L 23.457031 10.753906 C 23.273438 10.816406 23.179688 10.941406 23.167969 11.132812 L 23.167969 11.78125 L 23.804688 11.578125 Z M 23.972656 9.464844 L 23.972656 8.476562 C 23.976562 8.421875 23.964844 8.371094 23.941406 8.320312 C 23.917969 8.273438 23.882812 8.234375 23.839844 8.203125 C 23.792969 8.171875 23.742188 8.152344 23.691406 8.148438 C 23.636719 8.140625 23.582031 8.152344 23.535156 8.171875 L 23.4375 8.203125 C 23.164062 8.296875 23.015625 8.492188 23 8.785156 L 23 9.769531 Z M 21.738281 12.527344 L 20.785156 12.339844 L 19.863281 13.101562 L 19.863281 11.636719 C 19.882812 11.386719 19.96875 11.164062 20.121094 10.964844 C 20.277344 10.769531 20.472656 10.628906 20.710938 10.554688 L 20.890625 10.496094 C 21.359375 10.34375 21.738281 10.605469 21.738281 11.058594 Z M 21.738281 12.527344 " fill-opacity="1" fill-rule="evenodd"/><path fill="#004aad" d="M 10.859375 20.066406 L 11.070312 19.976562 L 11.070312 20.535156 L 11.949219 20.183594 L 11.949219 18.789062 L 11.890625 18.816406 L 11.890625 18.484375 L 11.949219 18.457031 L 11.949219 17.65625 L 12.175781 17.554688 L 12.175781 18.355469 L 13.472656 17.777344 L 14.859375 17.15625 L 14.859375 16.292969 L 15.121094 16.171875 L 15.121094 17.039062 L 15.207031 17.003906 L 15.207031 17.363281 L 15.121094 17.398438 L 15.121094 18.90625 L 16.222656 18.460938 L 16.222656 17.824219 L 16.496094 17.710938 L 16.496094 21.527344 L 16.222656 21.609375 L 16.222656 18.832031 L 15.121094 19.265625 L 15.121094 21.933594 L 14.859375 22.011719 L 14.859375 19.371094 L 13.472656 19.917969 L 12.175781 20.425781 L 12.175781 22.863281 L 11.949219 22.941406 L 11.949219 20.515625 L 11.070312 20.859375 L 11.070312 22.101562 C 11.070312 22.484375 11.070312 22.867188 11.070312 23.25 L 10.859375 23.320312 Z M 16.097656 17.628906 C 16.25 17.5625 16.417969 17.496094 16.578125 17.425781 L 16.578125 17.5625 L 16.097656 17.765625 Z M 14.761719 16.121094 L 15.21875 15.90625 L 15.21875 16.042969 L 14.761719 16.253906 Z M 11.878906 17.492188 L 12.265625 17.308594 L 12.265625 17.429688 L 11.878906 17.613281 Z M 10.785156 19.914062 L 11.152344 19.761719 L 11.152344 19.882812 L 10.785156 20.035156 Z M 16.144531 17.976562 C 15.828125 18.105469 15.203125 18.300781 15.203125 17.65625 L 15.203125 18.769531 L 16.144531 18.386719 Z M 11.121094 20.054688 C 11.371094 19.949219 11.882812 19.679688 11.882812 19.085938 L 11.882812 20.109375 L 11.121094 20.414062 L 11.121094 20.046875 Z M 12.167969 18.773438 L 13.464844 18.207031 C 13.921875 18.011719 14.378906 17.808594 14.855469 17.597656 L 14.855469 17.519531 L 13.464844 18.128906 L 12.167969 18.699219 Z M 12.644531 19.207031 L 13.472656 18.859375 L 14.339844 18.492188 C 14.574219 18.394531 14.777344 18.625 14.835938 19.027344 L 13.464844 19.578125 L 12.191406 20.089844 C 12.242188 19.667969 12.421875 19.296875 12.636719 19.207031 Z M 12.644531 17.417969 L 13.472656 17.03125 L 14.34375 16.621094 C 14.570312 16.515625 14.765625 16.71875 14.835938 17.09375 L 13.480469 17.699219 L 12.207031 18.269531 C 12.269531 17.867188 12.445312 17.507812 12.648438 17.414062 Z M 12.644531 17.417969 " fill-opacity="1" fill-rule="evenodd"/><path fill="#004aad" d="M 83.835938 20.605469 C 84.175781 20.722656 84.351562 20.964844 84.363281 21.324219 L 84.363281 22.042969 L 83.3125 21.738281 L 83.3125 21.023438 C 83.308594 20.957031 83.316406 20.890625 83.34375 20.832031 C 83.367188 20.769531 83.410156 20.714844 83.460938 20.671875 C 83.515625 20.632812 83.574219 20.605469 83.640625 20.59375 C 83.707031 20.582031 83.773438 20.585938 83.835938 20.609375 Z M 78.273438 17.992188 L 81.664062 18.933594 L 85.226562 19.929688 L 84.945312 20.082031 L 81.628906 19.15625 L 78.46875 18.273438 C 78.402344 18.175781 78.332031 18.085938 78.269531 17.992188 Z M 78.519531 17.140625 L 81.664062 17.996094 L 84.960938 18.886719 L 85.378906 19.851562 L 81.664062 18.820312 L 78.140625 17.84375 C 78.265625 17.609375 78.394531 17.378906 78.519531 17.140625 Z M 78.441406 18.359375 L 81.664062 19.265625 L 85.046875 20.214844 L 85.046875 20.320312 L 84.761719 20.242188 L 84.761719 20.730469 L 85.046875 20.8125 L 85.046875 20.9375 L 84.761719 20.855469 L 84.761719 21.328125 L 85.046875 21.410156 L 85.046875 21.53125 L 84.761719 21.449219 L 84.761719 21.925781 L 85.046875 22.007812 L 85.046875 22.132812 L 84.761719 22.046875 L 84.761719 22.523438 L 85.046875 22.605469 L 85.046875 22.730469 L 84.761719 22.644531 L 84.761719 23.121094 L 85.046875 23.203125 L 85.046875 23.339844 C 83.867188 22.921875 82.65625 22.519531 81.421875 22.140625 L 81.421875 20.464844 C 81.414062 20.113281 81.246094 19.878906 80.917969 19.761719 C 80.855469 19.742188 80.792969 19.738281 80.726562 19.75 C 80.664062 19.761719 80.605469 19.789062 80.554688 19.832031 C 80.503906 19.871094 80.464844 19.925781 80.441406 19.984375 C 80.417969 20.046875 80.410156 20.109375 80.417969 20.171875 L 80.417969 21.832031 C 79.765625 21.640625 79.105469 21.453125 78.4375 21.273438 L 78.4375 21.195312 L 78.691406 21.273438 L 78.691406 20.816406 L 78.4375 20.738281 L 78.4375 20.625 L 78.691406 20.699219 L 78.691406 20.242188 L 78.4375 20.167969 L 78.4375 20.054688 L 78.691406 20.128906 L 78.691406 19.671875 L 78.4375 19.597656 L 78.4375 19.480469 L 78.691406 19.554688 L 78.691406 19.097656 L 78.4375 19.023438 L 78.4375 18.910156 L 78.691406 18.980469 L 78.691406 18.523438 L 78.4375 18.453125 L 78.4375 18.347656 Z M 79.550781 19.371094 C 79.875 19.488281 80.039062 19.71875 80.042969 20.0625 L 80.042969 20.761719 L 79.058594 20.472656 L 79.058594 19.789062 C 79.058594 19.484375 79.28125 19.300781 79.550781 19.378906 Z M 82.335938 20.175781 C 82.667969 20.292969 82.839844 20.53125 82.851562 20.886719 L 82.851562 21.597656 L 81.824219 21.292969 L 81.824219 20.585938 C 81.816406 20.519531 81.824219 20.457031 81.851562 20.394531 C 81.875 20.335938 81.914062 20.28125 81.964844 20.242188 C 82.019531 20.199219 82.078125 20.171875 82.140625 20.160156 C 82.207031 20.148438 82.273438 20.152344 82.335938 20.171875 Z M 82.335938 20.175781 " fill-opacity="1" fill-rule="evenodd"/><path fill="#004aad" d="M 72.65625 17.058594 L 72.65625 17.6875 L 71.070312 17.3125 L 69.433594 16.925781 L 69.433594 16.273438 L 71.070312 16.671875 Z M 72.769531 13.839844 L 73.957031 14.160156 L 75.097656 14.464844 L 75.097656 18.273438 L 73.949219 17.996094 L 72.769531 17.71875 Z M 75.097656 18.449219 C 74.734375 18.644531 74.351562 18.695312 73.949219 18.601562 C 73.480469 18.492188 73.085938 18.257812 72.773438 17.894531 L 73.949219 18.171875 L 75.097656 18.441406 Z M 73.046875 14.457031 C 73.144531 14.484375 73.222656 14.699219 73.222656 14.929688 L 73.222656 15.964844 L 72.871094 15.882812 L 72.871094 14.839844 C 72.871094 14.601562 72.953125 14.433594 73.046875 14.457031 Z M 73.808594 11.941406 C 73.917969 11.976562 74.027344 12.011719 74.136719 12.042969 C 74.136719 12.09375 74.136719 12.140625 74.128906 12.1875 C 74.078125 12.164062 74.027344 12.144531 73.976562 12.128906 C 73.925781 12.113281 73.875 12.101562 73.824219 12.09375 C 73.824219 12.042969 73.824219 11.992188 73.824219 11.941406 Z M 75.0625 13.675781 C 74.996094 13.003906 74.535156 12.355469 73.972656 12.183594 C 73.398438 12.003906 72.90625 12.382812 72.839844 13.042969 L 73.960938 13.363281 L 75.054688 13.667969 Z M 72.695312 13.121094 L 73.960938 13.46875 L 75.179688 13.8125 C 75.15625 13.914062 75.136719 14.015625 75.117188 14.117188 L 73.957031 13.796875 L 72.761719 13.464844 C 72.742188 13.347656 72.71875 13.226562 72.703125 13.109375 Z M 72.695312 13.507812 C 73.121094 13.625 73.542969 13.742188 73.957031 13.855469 L 75.171875 14.191406 C 75.152344 14.265625 75.128906 14.34375 75.109375 14.410156 L 73.953125 14.097656 C 73.558594 13.992188 73.160156 13.882812 72.753906 13.773438 C 72.734375 13.683594 72.714844 13.597656 72.695312 13.507812 Z M 74.84375 14.925781 C 74.9375 14.949219 75.011719 15.152344 75.011719 15.378906 L 75.011719 16.386719 L 74.671875 16.308594 L 74.671875 15.292969 C 74.671875 15.066406 74.75 14.898438 74.84375 14.921875 Z M 73.960938 14.679688 C 74.195312 14.769531 74.308594 14.941406 74.300781 15.191406 L 74.300781 16.214844 L 73.617188 16.054688 L 73.617188 15.019531 C 73.617188 14.785156 73.769531 14.632812 73.960938 14.679688 Z M 75.210938 17.6875 L 75.210938 18.296875 L 76.667969 18.640625 L 78.089844 18.976562 L 78.089844 18.378906 L 76.667969 18.035156 Z M 75.210938 18.476562 L 75.210938 18.578125 C 74.828125 18.777344 74.425781 18.832031 74.003906 18.742188 L 74.003906 20.113281 C 74.773438 20.277344 75.5 20.441406 76.191406 20.605469 C 76.855469 20.757812 77.488281 20.925781 78.089844 21.082031 L 78.089844 19.148438 L 76.667969 18.816406 L 75.210938 18.472656 Z M 72.65625 17.867188 L 72.65625 17.949219 C 72.992188 18.328125 73.402344 18.582031 73.894531 18.710938 L 73.894531 20.082031 C 73.226562 19.945312 72.535156 19.804688 71.808594 19.667969 C 71.058594 19.519531 70.265625 19.375 69.433594 19.226562 L 69.433594 17.113281 L 71.070312 17.5 L 72.65625 17.871094 Z M 72.65625 17.867188 " fill-opacity="1" fill-rule="evenodd"/></svg>