<svg xmlns="http://www.w3.org/2000/svg" xmlns:xlink="http://www.w3.org/1999/xlink" width="363" zoomAndPan="magnify" viewBox="0 0 272.25 60" height="80" preserveAspectRatio="xMidYMid meet" version="1.0"><defs><clipPath id="ef2fcd4540"><path d="M 63.375 5 L 263 5 L 263 55 L 63.375 55 Z M 63.375 5 " clip-rule="nonzero"/></clipPath><clipPath id="800de25df2"><path d="M 1 5 L 62.078125 5 L 62.078125 55 L 1 55 Z M 1 5 " clip-rule="nonzero"/></clipPath></defs><path fill="#8b1dff" d="M 70.5 17.871094 L 98.402344 17.855469 L 98.402344 22.753906 L 70.503906 22.769531 Z M 85.25 45.351562 C 83.328125 45.355469 81.660156 44.976562 80.238281 44.214844 C 78.816406 43.457031 77.714844 42.335938 76.941406 40.851562 C 76.164062 39.367188 75.773438 37.550781 75.773438 35.394531 L 75.757812 10.523438 L 80.855469 10.519531 L 80.867188 35.28125 C 80.871094 37.136719 81.347656 38.472656 82.3125 39.289062 C 83.269531 40.105469 84.601562 40.511719 86.300781 40.507812 C 87.074219 40.507812 87.703125 40.433594 88.183594 40.285156 L 88.183594 45.015625 C 87.371094 45.238281 86.394531 45.351562 85.25 45.351562 Z M 85.25 45.351562 " fill-opacity="1" fill-rule="nonzero"/><g clip-path="url(#ef2fcd4540)"><path fill="#8b1dff" d="M 97.9375 17.855469 L 108.878906 17.847656 L 108.886719 22.746094 L 97.9375 22.75 Z M 96.417969 15.128906 C 96.417969 12.976562 96.800781 11.160156 97.578125 9.675781 C 98.351562 8.191406 99.449219 7.066406 100.871094 6.308594 C 102.292969 5.546875 103.964844 5.164062 105.882812 5.164062 C 107.027344 5.164062 108.023438 5.273438 108.875 5.492188 L 108.875 10.226562 C 108.359375 10.078125 107.714844 10.003906 106.941406 10.003906 C 105.242188 10.003906 103.910156 10.414062 102.953125 11.230469 C 101.992188 12.046875 101.511719 13.363281 101.515625 15.183594 L 101.535156 45.007812 L 96.4375 45.011719 Z M 121.027344 45.554688 C 117.890625 45.554688 115.285156 44.761719 113.21875 43.164062 C 111.148438 41.570312 109.984375 39.421875 109.726562 36.710938 L 114.429688 36.710938 C 114.582031 38.082031 115.234375 39.203125 116.398438 40.074219 C 117.5625 40.945312 119.011719 41.382812 120.746094 41.378906 C 122.484375 41.378906 123.867188 40.988281 124.902344 40.210938 C 125.933594 39.429688 126.449219 38.429688 126.449219 37.203125 C 126.449219 36.164062 126.171875 35.367188 125.617188 34.808594 C 125.0625 34.253906 124.332031 33.847656 123.429688 33.589844 C 122.523438 33.328125 121.371094 33.070312 119.96875 32.8125 C 117.972656 32.476562 116.339844 32.101562 115.066406 31.675781 C 113.761719 31.238281 112.660156 30.496094 111.769531 29.449219 C 110.84375 28.394531 110.382812 26.902344 110.378906 24.972656 C 110.378906 23.5625 110.785156 22.273438 111.597656 21.101562 C 112.410156 19.933594 113.5625 19.015625 115.054688 18.347656 C 116.550781 17.679688 118.257812 17.34375 120.179688 17.34375 C 122.984375 17.339844 125.375 18.0625 127.351562 19.507812 C 129.328125 20.953125 130.464844 22.902344 130.761719 25.347656 L 125.832031 25.351562 C 125.648438 24.238281 125.027344 23.300781 123.976562 22.542969 C 122.925781 21.78125 121.675781 21.40625 120.238281 21.40625 C 118.6875 21.40625 117.441406 21.730469 116.5 22.378906 C 115.558594 23.03125 115.089844 23.894531 115.089844 24.96875 C 115.089844 25.894531 115.359375 26.621094 115.894531 27.140625 C 116.429688 27.660156 117.132812 28.039062 118 28.277344 C 118.867188 28.519531 119.984375 28.75 121.351562 28.972656 C 123.378906 29.269531 125.0625 29.617188 126.390625 30.027344 C 127.71875 30.433594 128.863281 31.191406 129.824219 32.304688 C 130.785156 33.417969 131.265625 35.03125 131.269531 37.144531 C 131.269531 38.703125 130.828125 40.125 129.941406 41.402344 C 129.058594 42.683594 127.828125 43.695312 126.261719 44.4375 C 124.691406 45.179688 122.949219 45.554688 121.027344 45.554688 Z M 137.238281 17.832031 L 142.386719 17.828125 L 142.410156 54.832031 L 137.261719 54.835938 Z M 140.625 31.40625 C 140.621094 28.550781 141.109375 26.054688 142.085938 23.921875 C 143.0625 21.789062 144.457031 20.144531 146.265625 18.996094 C 148.074219 17.84375 150.199219 17.265625 152.632812 17.265625 C 155.03125 17.25 157.25 17.878906 159.28125 19.152344 C 161.3125 20.414062 162.910156 22.128906 164.074219 24.300781 C 165.238281 26.46875 165.820312 28.832031 165.824219 31.394531 C 165.824219 33.953125 165.246094 36.320312 164.082031 38.488281 C 162.921875 40.660156 161.324219 42.378906 159.296875 43.636719 C 157.265625 44.914062 155.050781 45.546875 152.652344 45.535156 C 150.214844 45.535156 148.089844 44.964844 146.28125 43.8125 C 144.46875 42.664062 143.074219 41.023438 142.097656 38.890625 C 141.117188 36.757812 140.625 34.265625 140.625 31.40625 Z M 151.582031 22.164062 C 149.847656 22.164062 148.28125 22.5625 146.878906 23.363281 C 145.46875 24.15625 144.371094 25.261719 143.585938 26.675781 C 142.789062 28.085938 142.394531 29.664062 142.398438 31.40625 C 142.398438 33.1875 142.792969 34.773438 143.589844 36.164062 C 144.382812 37.566406 145.484375 38.660156 146.886719 39.445312 C 148.292969 40.242188 149.859375 40.640625 151.597656 40.636719 C 153.292969 40.636719 154.84375 40.226562 156.246094 39.410156 C 157.65625 38.597656 158.765625 37.484375 159.570312 36.070312 C 160.378906 34.660156 160.785156 33.101562 160.785156 31.394531 C 160.785156 29.6875 160.375 28.132812 159.5625 26.71875 C 158.757812 25.308594 157.648438 24.195312 156.238281 23.382812 C 154.832031 22.570312 153.28125 22.164062 151.582031 22.164062 Z M 183.261719 17.246094 C 185.808594 17.246094 188.152344 17.863281 190.296875 19.105469 C 192.453125 20.347656 194.144531 22.054688 195.367188 24.222656 C 196.605469 26.394531 197.226562 28.796875 197.226562 31.425781 C 197.226562 34.027344 196.609375 36.398438 195.375 38.550781 C 194.148438 40.710938 192.460938 42.410156 190.3125 43.648438 C 188.171875 44.890625 185.824219 45.515625 183.277344 45.515625 C 180.65625 45.515625 178.285156 44.898438 176.160156 43.65625 C 174.023438 42.417969 172.351562 40.722656 171.144531 38.566406 C 169.925781 36.417969 169.3125 34.042969 169.3125 31.445312 C 169.3125 28.8125 169.917969 26.410156 171.136719 24.238281 C 172.335938 22.070312 174.003906 20.363281 176.148438 19.117188 C 178.265625 17.871094 180.636719 17.25 183.261719 17.246094 Z M 183.265625 22.144531 C 181.601562 22.144531 180.089844 22.554688 178.722656 23.371094 C 177.339844 24.191406 176.261719 25.304688 175.484375 26.710938 C 174.691406 28.121094 174.296875 29.699219 174.296875 31.441406 C 174.296875 33.148438 174.695312 34.695312 175.488281 36.085938 C 176.273438 37.480469 177.355469 38.582031 178.730469 39.398438 C 180.097656 40.214844 181.613281 40.621094 183.273438 40.617188 C 184.933594 40.617188 186.449219 40.210938 187.8125 39.390625 C 189.1875 38.574219 190.269531 37.472656 191.050781 36.078125 C 191.84375 34.6875 192.242188 33.136719 192.242188 31.429688 C 192.238281 29.6875 191.839844 28.109375 191.046875 26.699219 C 190.265625 25.296875 189.1875 24.1875 187.804688 23.367188 C 186.4375 22.550781 184.925781 22.144531 183.265625 22.144531 Z M 202.863281 17.789062 L 208.015625 17.789062 L 208.03125 44.945312 L 202.882812 44.949219 Z M 206.25 28.972656 C 206.25 26.746094 206.636719 24.753906 207.410156 22.992188 C 208.183594 21.230469 209.265625 19.835938 210.648438 18.816406 C 212.03125 17.796875 213.628906 17.285156 215.4375 17.28125 C 216.210938 17.28125 217.042969 17.394531 217.929688 17.613281 L 217.933594 22.34375 C 216.972656 22.050781 216.085938 21.902344 215.273438 21.902344 C 213.972656 21.890625 212.753906 22.203125 211.621094 22.847656 C 210.511719 23.480469 209.636719 24.390625 208.992188 25.578125 C 208.347656 26.765625 208.023438 28.121094 208.023438 29.640625 Z M 219.976562 17.78125 L 237.644531 17.769531 L 237.648438 22.667969 L 219.980469 22.679688 Z M 234.726562 45.261719 C 232.808594 45.261719 231.136719 44.882812 229.714844 44.121094 C 228.292969 43.363281 227.195312 42.242188 226.417969 40.757812 C 225.640625 39.277344 225.25 37.457031 225.25 35.304688 L 225.234375 10.429688 L 230.332031 10.429688 L 230.347656 35.191406 C 230.347656 37.046875 230.828125 38.382812 231.789062 39.199219 C 232.746094 40.011719 234.078125 40.417969 235.777344 40.417969 C 236.550781 40.417969 237.179688 40.34375 237.660156 40.195312 L 237.660156 44.925781 C 236.851562 45.148438 235.871094 45.261719 234.726562 45.261719 Z M 252.339844 45.472656 C 249.199219 45.472656 246.597656 44.679688 244.527344 43.085938 C 242.460938 41.492188 241.292969 39.339844 241.035156 36.632812 L 245.742188 36.628906 C 245.890625 38 246.546875 39.125 247.710938 39.996094 C 248.875 40.867188 250.324219 41.300781 252.058594 41.300781 C 253.792969 41.300781 255.175781 40.910156 256.210938 40.128906 C 257.242188 39.347656 257.761719 38.347656 257.761719 37.125 C 257.757812 36.085938 257.480469 35.285156 256.929688 34.730469 C 256.371094 34.171875 255.644531 33.769531 254.738281 33.507812 C 253.597656 33.195312 252.445312 32.9375 251.277344 32.730469 C 249.285156 32.398438 247.648438 32.019531 246.375 31.59375 C 245.070312 31.15625 243.972656 30.414062 243.078125 29.371094 C 242.15625 28.3125 241.691406 26.820312 241.691406 24.890625 C 241.679688 23.46875 242.085938 22.179688 242.90625 21.023438 C 243.71875 19.851562 244.871094 18.933594 246.367188 18.265625 C 247.863281 17.597656 249.570312 17.261719 251.488281 17.261719 C 254.292969 17.261719 256.6875 17.984375 258.664062 19.425781 C 260.636719 20.875 261.773438 22.820312 262.074219 25.269531 L 257.144531 25.273438 C 256.957031 24.160156 256.339844 23.222656 255.285156 22.460938 C 254.234375 21.703125 252.988281 21.324219 251.546875 21.324219 C 249.996094 21.324219 248.75 21.652344 247.808594 22.300781 C 246.867188 22.949219 246.398438 23.8125 246.398438 24.886719 C 246.398438 25.816406 246.667969 26.539062 247.203125 27.058594 C 247.738281 27.578125 248.441406 27.957031 249.308594 28.199219 C 250.175781 28.4375 251.292969 28.667969 252.660156 28.890625 C 254.691406 29.1875 256.371094 29.539062 257.703125 29.945312 C 259.03125 30.351562 260.175781 31.113281 261.136719 32.226562 C 262.097656 33.339844 262.578125 34.949219 262.578125 37.066406 C 262.59375 38.625 262.148438 40.046875 261.253906 41.324219 C 260.367188 42.601562 259.140625 43.613281 257.570312 44.359375 C 256.003906 45.097656 254.257812 45.472656 252.339844 45.472656 Z M 53.449219 22.761719 L 2.039062 22.761719 L 3.769531 17.535156 L 55.183594 17.535156 Z M 8.285156 48.375 L 1.347656 48.382812 L 13.488281 34.640625 C 19.445312 28.253906 23.609375 27.636719 31.183594 27.636719 L 51.652344 27.636719 L 49.917969 32.863281 L 29.035156 32.863281 C 24.582031 32.863281 21.4375 33.828125 17.371094 38.117188 Z M 8.285156 48.375 " fill-opacity="1" fill-rule="nonzero"/></g><g clip-path="url(#800de25df2)"><path fill="#8b1dff" d="M 98.453125 17.855469 L 109.394531 17.847656 L 109.398438 22.746094 L 98.453125 22.75 Z M 96.933594 15.128906 C 96.933594 12.976562 97.316406 11.160156 98.09375 9.675781 C 98.867188 8.191406 99.964844 7.066406 101.386719 6.308594 C 102.808594 5.546875 104.476562 5.164062 106.398438 5.164062 C 107.542969 5.164062 108.539062 5.273438 109.390625 5.492188 L 109.390625 10.226562 C 108.875 10.078125 108.230469 10.003906 107.453125 10.003906 C 105.753906 10.003906 104.425781 10.414062 103.464844 11.230469 C 102.507812 12.046875 102.027344 13.363281 102.03125 15.183594 L 102.046875 45.007812 L 96.953125 45.011719 Z M 121.542969 45.554688 C 118.40625 45.554688 115.800781 44.761719 113.734375 43.164062 C 111.664062 41.570312 110.5 39.421875 110.242188 36.710938 L 114.945312 36.710938 C 115.09375 38.082031 115.75 39.203125 116.914062 40.074219 C 118.078125 40.945312 119.527344 41.382812 121.261719 41.378906 C 122.996094 41.378906 124.382812 40.988281 125.417969 40.210938 C 126.449219 39.429688 126.964844 38.429688 126.964844 37.203125 C 126.964844 36.164062 126.6875 35.367188 126.132812 34.808594 C 125.578125 34.253906 124.847656 33.847656 123.945312 33.589844 C 123.039062 33.328125 121.886719 33.070312 120.480469 32.8125 C 118.488281 32.476562 116.855469 32.101562 115.578125 31.675781 C 114.277344 31.238281 113.175781 30.496094 112.285156 29.449219 C 111.359375 28.394531 110.898438 26.902344 110.894531 24.972656 C 110.894531 23.5625 111.300781 22.273438 112.113281 21.101562 C 112.921875 19.933594 114.078125 19.015625 115.570312 18.347656 C 117.066406 17.679688 118.773438 17.34375 120.695312 17.34375 C 123.5 17.339844 125.890625 18.0625 127.867188 19.507812 C 129.84375 20.953125 130.980469 22.902344 131.277344 25.347656 L 126.347656 25.351562 C 126.164062 24.238281 125.542969 23.300781 124.492188 22.542969 C 123.4375 21.78125 122.191406 21.40625 120.753906 21.40625 C 119.203125 21.40625 117.957031 21.730469 117.015625 22.378906 C 116.074219 23.03125 115.601562 23.894531 115.605469 24.96875 C 115.605469 25.894531 115.875 26.621094 116.410156 27.140625 C 116.945312 27.660156 117.648438 28.039062 118.515625 28.277344 C 119.382812 28.519531 120.5 28.75 121.867188 28.972656 C 123.894531 29.269531 125.578125 29.617188 126.90625 30.027344 C 128.234375 30.433594 129.378906 31.191406 130.339844 32.304688 C 131.300781 33.417969 131.78125 35.03125 131.785156 37.144531 C 131.785156 38.703125 131.34375 40.125 130.457031 41.402344 C 129.574219 42.683594 128.34375 43.695312 126.777344 44.4375 C 125.207031 45.179688 123.460938 45.554688 121.542969 45.554688 Z M 137.753906 17.832031 L 142.902344 17.828125 L 142.925781 54.832031 L 137.777344 54.835938 Z M 141.140625 31.40625 C 141.136719 28.550781 141.625 26.054688 142.601562 23.921875 C 143.578125 21.789062 144.972656 20.144531 146.78125 18.996094 C 148.589844 17.84375 150.710938 17.265625 153.148438 17.265625 C 155.546875 17.25 157.765625 17.878906 159.796875 19.152344 C 161.828125 20.414062 163.425781 22.128906 164.589844 24.300781 C 165.753906 26.46875 166.335938 28.832031 166.339844 31.394531 C 166.339844 33.953125 165.761719 36.320312 164.597656 38.488281 C 163.4375 40.660156 161.839844 42.378906 159.8125 43.636719 C 157.78125 44.914062 155.566406 45.546875 153.167969 45.535156 C 150.726562 45.535156 148.605469 44.964844 146.796875 43.8125 C 144.984375 42.664062 143.589844 41.023438 142.613281 38.890625 C 141.632812 36.757812 141.140625 34.265625 141.140625 31.40625 Z M 152.097656 22.164062 C 150.363281 22.164062 148.796875 22.5625 147.394531 23.363281 C 145.984375 24.15625 144.886719 25.261719 144.101562 26.675781 C 143.304688 28.085938 142.910156 29.664062 142.910156 31.40625 C 142.914062 33.1875 143.308594 34.773438 144.105469 36.164062 C 144.898438 37.566406 146 38.660156 147.402344 39.445312 C 148.804688 40.242188 150.375 40.640625 152.113281 40.636719 C 153.808594 40.636719 155.359375 40.226562 156.761719 39.410156 C 158.171875 38.597656 159.28125 37.484375 160.085938 36.070312 C 160.894531 34.660156 161.300781 33.101562 161.300781 31.394531 C 161.300781 29.6875 160.890625 28.132812 160.078125 26.71875 C 159.273438 25.308594 158.164062 24.195312 156.753906 23.382812 C 155.347656 22.570312 153.796875 22.164062 152.097656 22.164062 Z M 183.777344 17.246094 C 186.324219 17.246094 188.667969 17.863281 190.8125 19.105469 C 192.96875 20.347656 194.660156 22.054688 195.882812 24.222656 C 197.121094 26.394531 197.742188 28.796875 197.742188 31.425781 C 197.742188 34.027344 197.125 36.398438 195.890625 38.550781 C 194.664062 40.710938 192.976562 42.410156 190.824219 43.648438 C 188.6875 44.890625 186.339844 45.515625 183.792969 45.515625 C 181.171875 45.515625 178.800781 44.898438 176.675781 43.65625 C 174.539062 42.417969 172.867188 40.722656 171.660156 38.566406 C 170.441406 36.417969 169.828125 34.042969 169.828125 31.445312 C 169.828125 28.8125 170.433594 26.410156 171.652344 24.238281 C 172.851562 22.070312 174.519531 20.363281 176.660156 19.117188 C 178.78125 17.871094 181.152344 17.25 183.777344 17.246094 Z M 183.78125 22.144531 C 182.117188 22.144531 180.605469 22.554688 179.238281 23.371094 C 177.855469 24.191406 176.777344 25.304688 176 26.710938 C 175.207031 28.121094 174.8125 29.699219 174.8125 31.441406 C 174.8125 33.148438 175.210938 34.695312 176.003906 36.085938 C 176.789062 37.480469 177.871094 38.582031 179.246094 39.398438 C 180.613281 40.214844 182.128906 40.621094 183.789062 40.617188 C 185.449219 40.617188 186.964844 40.210938 188.328125 39.390625 C 189.703125 38.574219 190.785156 37.472656 191.566406 36.078125 C 192.359375 34.6875 192.757812 33.136719 192.757812 31.429688 C 192.753906 29.6875 192.355469 28.109375 191.5625 26.699219 C 190.78125 25.296875 189.703125 24.1875 188.320312 23.367188 C 186.953125 22.550781 185.441406 22.144531 183.78125 22.144531 Z M 203.378906 17.789062 L 208.53125 17.789062 L 208.546875 44.945312 L 203.398438 44.949219 Z M 206.765625 28.972656 C 206.765625 26.746094 207.152344 24.753906 207.925781 22.992188 C 208.699219 21.230469 209.78125 19.835938 211.164062 18.816406 C 212.546875 17.796875 214.144531 17.285156 215.953125 17.28125 C 216.726562 17.28125 217.558594 17.394531 218.445312 17.613281 L 218.449219 22.34375 C 217.488281 22.050781 216.601562 21.902344 215.789062 21.902344 C 214.488281 21.890625 213.269531 22.203125 212.136719 22.847656 C 211.027344 23.480469 210.152344 24.390625 209.507812 25.578125 C 208.863281 26.765625 208.539062 28.121094 208.539062 29.640625 Z M 220.492188 17.78125 L 238.160156 17.769531 L 238.164062 22.667969 L 220.496094 22.679688 Z M 235.242188 45.261719 C 233.324219 45.261719 231.652344 44.882812 230.230469 44.121094 C 228.808594 43.363281 227.710938 42.242188 226.933594 40.757812 C 226.15625 39.277344 225.765625 37.457031 225.765625 35.304688 L 225.75 10.429688 L 230.847656 10.429688 L 230.863281 35.191406 C 230.863281 37.046875 231.34375 38.382812 232.304688 39.199219 C 233.261719 40.011719 234.59375 40.417969 236.292969 40.417969 C 237.066406 40.417969 237.695312 40.34375 238.171875 40.195312 L 238.175781 44.925781 C 237.367188 45.148438 236.386719 45.261719 235.242188 45.261719 Z M 252.855469 45.472656 C 249.714844 45.472656 247.113281 44.679688 245.042969 43.085938 C 242.972656 41.492188 241.808594 39.339844 241.550781 36.632812 L 246.257812 36.628906 C 246.40625 38 247.0625 39.125 248.226562 39.996094 C 249.390625 40.867188 250.839844 41.300781 252.574219 41.300781 C 254.308594 41.300781 255.691406 40.910156 256.726562 40.128906 C 257.757812 39.347656 258.277344 38.347656 258.277344 37.125 C 258.273438 36.085938 257.996094 35.285156 257.445312 34.730469 C 256.886719 34.171875 256.160156 33.769531 255.253906 33.507812 C 254.113281 33.195312 252.957031 32.9375 251.792969 32.730469 C 249.796875 32.398438 248.164062 32.019531 246.890625 31.59375 C 245.585938 31.15625 244.488281 30.414062 243.59375 29.371094 C 242.667969 28.3125 242.207031 26.820312 242.207031 24.890625 C 242.195312 23.46875 242.601562 22.179688 243.421875 21.023438 C 244.234375 19.851562 245.386719 18.933594 246.882812 18.265625 C 248.378906 17.597656 250.082031 17.261719 252.003906 17.261719 C 254.808594 17.261719 257.203125 17.984375 259.179688 19.425781 C 261.152344 20.875 262.289062 22.820312 262.589844 25.269531 L 257.660156 25.273438 C 257.472656 24.160156 256.855469 23.222656 255.800781 22.460938 C 254.75 21.703125 253.503906 21.324219 252.0625 21.324219 C 250.511719 21.324219 249.265625 21.652344 248.324219 22.300781 C 247.382812 22.949219 246.914062 23.8125 246.914062 24.886719 C 246.914062 25.816406 247.183594 26.539062 247.71875 27.058594 C 248.253906 27.578125 248.957031 27.957031 249.824219 28.199219 C 250.691406 28.4375 251.808594 28.667969 253.175781 28.890625 C 255.207031 29.1875 256.886719 29.539062 258.21875 29.945312 C 259.546875 30.351562 260.691406 31.113281 261.652344 32.226562 C 262.613281 33.339844 263.09375 34.949219 263.09375 37.066406 C 263.105469 38.625 262.664062 40.046875 261.769531 41.324219 C 260.882812 42.601562 259.65625 43.613281 258.085938 44.359375 C 256.519531 45.097656 254.773438 45.472656 252.855469 45.472656 Z M 53.964844 22.761719 L 2.550781 22.761719 L 4.285156 17.535156 L 55.699219 17.535156 Z M 8.800781 48.375 L 1.863281 48.382812 L 14.003906 34.640625 C 19.960938 28.253906 24.125 27.636719 31.699219 27.636719 L 52.167969 27.636719 L 50.433594 32.863281 L 29.550781 32.863281 C 25.097656 32.863281 21.953125 33.828125 17.886719 38.117188 Z M 8.800781 48.375 " fill-opacity="1" fill-rule="nonzero"/></g></svg>