<svg xmlns="http://www.w3.org/2000/svg" xmlns:xlink="http://www.w3.org/1999/xlink" width="600" zoomAndPan="magnify" viewBox="0 0 450 60" height="80" preserveAspectRatio="xMidYMid meet" version="1.0"><defs><clipPath id="47a22cb0ea"><path d="M 0.410156 0 L 73 0 L 73 60 L 0.410156 60 Z M 0.410156 0 " clip-rule="nonzero"/></clipPath><clipPath id="1e027ce8cc"><path d="M 217.058594 30 L 248 30 L 248 60 L 217.058594 60 Z M 217.058594 30 " clip-rule="nonzero"/></clipPath></defs><path fill="#009cde" d="M 152.992188 58.65625 C 153.386719 59.058594 154.605469 60 156.8125 60 C 159.304688 60 160.816406 58.183594 160.816406 56.382812 C 160.816406 54.007812 158.710938 52.941406 157.390625 52.398438 C 156.046875 51.839844 155.539062 51.347656 155.539062 50.703125 C 155.539062 50.230469 155.996094 49.8125 156.609375 49.8125 C 157.644531 49.8125 158.882812 50.773438 159.035156 50.859375 C 159.1875 50.980469 159.492188 50.824219 159.613281 50.632812 L 160.476562 49.289062 C 160.542969 49.167969 160.578125 48.851562 160.375 48.730469 C 159.867188 48.34375 158.507812 47.417969 156.742188 47.417969 C 154.132812 47.417969 152.824219 49.167969 152.824219 50.894531 C 152.824219 52.992188 154.65625 54.164062 156.117188 54.757812 C 157.269531 55.230469 157.863281 55.789062 157.863281 56.523438 C 157.863281 57.132812 157.371094 57.570312 156.691406 57.570312 C 155.574219 57.570312 154.351562 56.644531 154.28125 56.609375 C 154.164062 56.523438 153.839844 56.488281 153.707031 56.714844 L 152.910156 58.164062 C 152.773438 58.410156 152.824219 58.480469 152.992188 58.65625 Z M 152.992188 58.65625 " fill-opacity="1" fill-rule="nonzero"/><path fill="#009cde" d="M 146.832031 54.878906 C 148.308594 54.269531 149.34375 52.976562 149.34375 51.367188 C 149.34375 49.289062 147.679688 47.59375 145.644531 47.59375 L 140.570312 47.59375 C 140.382812 47.59375 140.246094 47.75 140.246094 47.925781 L 140.246094 59.492188 C 140.246094 59.667969 140.382812 59.828125 140.570312 59.828125 L 142.589844 59.828125 C 142.757812 59.828125 142.914062 59.667969 142.914062 59.492188 L 142.914062 55.039062 L 144.082031 55.039062 L 146.339844 59.667969 C 146.375 59.738281 146.476562 59.828125 146.609375 59.828125 L 148.867188 59.828125 C 149.15625 59.828125 149.273438 59.546875 149.15625 59.320312 Z M 145.261719 52.820312 L 142.753906 52.820312 L 142.753906 50.09375 L 145.261719 50.09375 C 145.957031 50.09375 146.550781 50.6875 146.550781 51.421875 C 146.550781 52.152344 145.957031 52.820312 145.261719 52.820312 Z M 145.261719 52.820312 " fill-opacity="1" fill-rule="nonzero"/><path fill="#009cde" d="M 130.757812 47.417969 C 127.363281 47.417969 124.667969 50.230469 124.667969 53.726562 C 124.667969 57.222656 127.363281 60 130.757812 60 C 134.152344 60 136.863281 57.222656 136.863281 53.726562 C 136.863281 50.234375 134.148438 47.417969 130.757812 47.417969 Z M 130.757812 57.203125 C 128.90625 57.203125 127.382812 55.632812 127.382812 53.726562 C 127.382812 51.820312 128.90625 50.214844 130.757812 50.214844 C 132.609375 50.214844 134.148438 51.804688 134.148438 53.726562 C 134.148438 55.648438 132.625 57.203125 130.757812 57.203125 Z M 130.757812 57.203125 " fill-opacity="1" fill-rule="nonzero"/><path fill="#009cde" d="M 114.835938 58.726562 C 115.125 59.089844 115.9375 60 117.414062 60 C 119.402344 60 121.0625 58.601562 121.0625 56.171875 L 121.0625 47.925781 C 121.0625 47.75 120.929688 47.59375 120.742188 47.59375 L 118.671875 47.59375 C 118.484375 47.59375 118.347656 47.75 118.347656 47.925781 L 118.347656 56.15625 C 118.347656 57.03125 117.820312 57.484375 117.347656 57.484375 C 116.871094 57.484375 116.683594 57.328125 116.480469 57.117188 C 116.347656 56.976562 116.160156 56.996094 116.023438 57.117188 L 114.871094 58.289062 C 114.769531 58.410156 114.75 58.585938 114.835938 58.726562 Z M 114.835938 58.726562 " fill-opacity="1" fill-rule="nonzero"/><path fill="#009cde" d="M 112.882812 59.371094 L 107.570312 47.609375 C 107.519531 47.503906 107.402344 47.417969 107.28125 47.417969 L 107.113281 47.417969 C 106.996094 47.417969 106.875 47.503906 106.824219 47.609375 L 101.511719 59.371094 C 101.414062 59.597656 101.546875 59.828125 101.800781 59.828125 L 103.667969 59.828125 C 104.007812 59.828125 104.195312 59.617188 104.28125 59.40625 L 104.890625 58.007812 L 109.507812 58.007812 L 110.117188 59.390625 C 110.269531 59.722656 110.40625 59.828125 110.710938 59.828125 L 112.59375 59.828125 C 112.847656 59.828125 112.984375 59.597656 112.882812 59.371094 Z M 105.910156 55.632812 L 107.183594 52.746094 L 107.199219 52.746094 L 108.488281 55.632812 Z M 105.910156 55.632812 " fill-opacity="1" fill-rule="nonzero"/><path fill="#009cde" d="M 85.847656 59.441406 C 85.8125 59.667969 85.964844 59.828125 86.167969 59.828125 L 88.171875 59.828125 C 88.339844 59.828125 88.476562 59.6875 88.492188 59.546875 L 89.242188 54.148438 L 89.277344 54.148438 L 92.140625 59.808594 C 92.191406 59.914062 92.328125 60 92.429688 60 L 92.734375 60 C 92.820312 60 92.972656 59.914062 93.023438 59.808594 L 95.875 54.148438 L 95.910156 54.148438 L 96.671875 59.546875 C 96.691406 59.6875 96.84375 59.828125 96.996094 59.828125 L 98.996094 59.828125 C 99.199219 59.828125 99.355469 59.667969 99.320312 59.441406 L 97.402344 47.699219 C 97.386719 47.542969 97.234375 47.417969 97.097656 47.417969 L 96.824219 47.417969 C 96.742188 47.417969 96.589844 47.488281 96.535156 47.59375 L 92.601562 55.144531 L 92.566406 55.144531 L 88.628906 47.59375 C 88.578125 47.488281 88.425781 47.417969 88.339844 47.417969 L 88.070312 47.417969 C 87.933594 47.417969 87.78125 47.542969 87.765625 47.699219 Z M 85.847656 59.441406 " fill-opacity="1" fill-rule="nonzero"/><path fill="#009cde" d="M 181.640625 43.6875 C 181.640625 43.863281 181.792969 44.019531 181.964844 44.019531 L 183.984375 44.019531 C 184.167969 44.019531 184.304688 43.863281 184.304688 43.6875 L 184.304688 37.167969 L 184.320312 37.167969 L 191.023438 44.105469 C 191.058594 44.140625 191.191406 44.195312 191.246094 44.195312 L 191.515625 44.195312 C 191.683594 44.195312 191.835938 44.054688 191.835938 43.878906 L 191.835938 32.121094 C 191.835938 31.945312 191.683594 31.789062 191.515625 31.789062 L 189.480469 31.789062 C 189.292969 31.789062 189.15625 31.945312 189.15625 32.121094 L 189.15625 38.324219 L 189.140625 38.324219 L 182.371094 31.613281 L 181.945312 31.613281 C 181.773438 31.613281 181.621094 31.753906 181.621094 31.925781 Z M 181.640625 43.6875 " fill-opacity="1" fill-rule="nonzero"/><path fill="#009cde" d="M 172.246094 31.613281 C 168.851562 31.613281 166.15625 34.425781 166.15625 37.921875 C 166.15625 41.417969 168.851562 44.195312 172.246094 44.195312 C 175.640625 44.195312 178.351562 41.417969 178.351562 37.921875 C 178.351562 34.425781 175.640625 31.613281 172.246094 31.613281 Z M 172.246094 41.398438 C 170.394531 41.398438 168.871094 39.824219 168.871094 37.921875 C 168.871094 36.015625 170.394531 34.40625 172.246094 34.40625 C 174.09375 34.40625 175.640625 36 175.640625 37.921875 C 175.640625 39.84375 174.109375 41.398438 172.246094 41.398438 Z M 172.246094 41.398438 " fill-opacity="1" fill-rule="nonzero"/><path fill="#009cde" d="M 152.679688 43.6875 C 152.679688 43.863281 152.835938 44.019531 153.003906 44.019531 L 155.023438 44.019531 C 155.210938 44.019531 155.34375 43.863281 155.34375 43.6875 L 155.34375 39.09375 L 160.195312 39.09375 L 160.195312 43.6875 C 160.195312 43.863281 160.332031 44.019531 160.519531 44.019531 L 162.539062 44.019531 C 162.710938 44.019531 162.863281 43.863281 162.863281 43.6875 L 162.863281 32.121094 C 162.863281 31.945312 162.710938 31.789062 162.539062 31.789062 L 160.519531 31.789062 C 160.332031 31.789062 160.195312 31.945312 160.195312 32.121094 L 160.195312 36.523438 L 155.34375 36.523438 L 155.34375 32.121094 C 155.34375 31.945312 155.210938 31.789062 155.023438 31.789062 L 153.003906 31.789062 C 152.835938 31.789062 152.679688 31.945312 152.679688 32.121094 Z M 152.679688 43.6875 " fill-opacity="1" fill-rule="nonzero"/><path fill="#009cde" d="M 143.613281 43.6875 C 143.613281 43.863281 143.765625 44.019531 143.933594 44.019531 L 145.972656 44.019531 C 146.144531 44.019531 146.296875 43.863281 146.296875 43.6875 L 146.296875 34.355469 L 148.71875 34.355469 C 148.90625 34.355469 149.042969 34.199219 149.042969 34.023438 L 149.042969 32.121094 C 149.042969 31.945312 148.90625 31.789062 148.71875 31.789062 L 141.1875 31.789062 C 141 31.789062 140.863281 31.945312 140.863281 32.121094 L 140.863281 34.023438 C 140.863281 34.199219 141 34.355469 141.1875 34.355469 L 143.613281 34.355469 Z M 143.613281 43.6875 " fill-opacity="1" fill-rule="nonzero"/><path fill="#009cde" d="M 139.046875 43.566406 L 133.734375 31.804688 C 133.683594 31.699219 133.566406 31.613281 133.445312 31.613281 L 133.277344 31.613281 C 133.15625 31.613281 133.039062 31.699219 132.988281 31.804688 L 127.675781 43.566406 C 127.574219 43.792969 127.710938 44.019531 127.964844 44.019531 L 129.832031 44.019531 C 130.171875 44.019531 130.359375 43.808594 130.445312 43.601562 L 131.054688 42.203125 L 135.671875 42.203125 L 136.277344 43.582031 C 136.433594 43.914062 136.570312 44.019531 136.875 44.019531 L 138.757812 44.019531 C 139.011719 44.019531 139.148438 43.792969 139.046875 43.566406 Z M 132.074219 39.824219 L 133.34375 36.941406 L 133.363281 36.941406 L 134.652344 39.824219 L 132.070312 39.824219 Z M 132.074219 39.824219 " fill-opacity="1" fill-rule="nonzero"/><path fill="#009cde" d="M 122.789062 39.074219 C 124.265625 38.460938 125.300781 37.167969 125.300781 35.5625 C 125.300781 33.480469 123.636719 31.785156 121.601562 31.785156 L 116.527344 31.785156 C 116.339844 31.785156 116.207031 31.945312 116.207031 32.121094 L 116.207031 43.6875 C 116.207031 43.863281 116.339844 44.019531 116.527344 44.019531 L 118.546875 44.019531 C 118.714844 44.019531 118.871094 43.863281 118.871094 43.6875 L 118.871094 39.230469 L 120.039062 39.230469 L 122.296875 43.863281 C 122.332031 43.933594 122.433594 44.019531 122.570312 44.019531 L 124.824219 44.019531 C 125.113281 44.019531 125.234375 43.738281 125.113281 43.511719 Z M 121.378906 37.011719 L 118.871094 37.011719 L 118.871094 34.285156 L 121.378906 34.285156 C 122.078125 34.285156 122.671875 34.882812 122.671875 35.613281 C 122.671875 36.347656 122.078125 37.011719 121.378906 37.011719 Z M 121.378906 37.011719 " fill-opacity="1" fill-rule="nonzero"/><path fill="#009cde" d="M 112.882812 43.566406 L 107.570312 31.804688 C 107.519531 31.699219 107.398438 31.613281 107.28125 31.613281 L 107.113281 31.613281 C 106.992188 31.613281 106.875 31.699219 106.824219 31.804688 L 101.511719 43.566406 C 101.410156 43.792969 101.546875 44.019531 101.800781 44.019531 L 103.667969 44.019531 C 104.007812 44.019531 104.195312 43.808594 104.277344 43.601562 L 104.890625 42.203125 L 109.503906 42.203125 L 110.113281 43.582031 C 110.269531 43.914062 110.40625 44.019531 110.710938 44.019531 L 112.59375 44.019531 C 112.847656 44.019531 112.984375 43.792969 112.882812 43.566406 Z M 105.90625 39.824219 L 107.179688 36.941406 L 107.195312 36.941406 L 108.484375 39.824219 Z M 105.90625 39.824219 " fill-opacity="1" fill-rule="nonzero"/><path fill="#009cde" d="M 85.847656 43.636719 C 85.8125 43.863281 85.964844 44.019531 86.167969 44.019531 L 88.171875 44.019531 C 88.339844 44.019531 88.476562 43.878906 88.492188 43.738281 L 89.242188 38.339844 L 89.277344 38.339844 L 92.140625 44.003906 C 92.191406 44.109375 92.328125 44.195312 92.429688 44.195312 L 92.734375 44.195312 C 92.820312 44.195312 92.972656 44.109375 93.023438 44.003906 L 95.875 38.339844 L 95.910156 38.339844 L 96.671875 43.738281 C 96.691406 43.878906 96.84375 44.019531 96.996094 44.019531 L 98.996094 44.019531 C 99.199219 44.019531 99.355469 43.863281 99.320312 43.636719 L 97.402344 31.890625 C 97.386719 31.734375 97.234375 31.613281 97.097656 31.613281 L 96.824219 31.613281 C 96.742188 31.613281 96.589844 31.683594 96.535156 31.789062 L 92.601562 39.335938 L 92.566406 39.335938 L 88.628906 31.789062 C 88.578125 31.683594 88.425781 31.613281 88.339844 31.613281 L 88.070312 31.613281 C 87.933594 31.613281 87.78125 31.734375 87.765625 31.890625 Z M 85.847656 43.636719 " fill-opacity="1" fill-rule="nonzero"/><path fill="#009cde" d="M 143.921875 15.980469 L 139.78125 15.980469 C 139.609375 15.980469 139.476562 16.136719 139.476562 16.3125 L 139.476562 27.882812 C 139.476562 28.054688 139.609375 28.214844 139.78125 28.214844 L 143.921875 28.214844 C 147.195312 28.214844 149.878906 25.46875 149.878906 22.078125 C 149.878906 18.6875 147.195312 15.980469 143.921875 15.980469 Z M 143.75 25.628906 L 142.121094 25.628906 L 142.121094 18.550781 L 143.75 18.550781 C 145.667969 18.550781 147.058594 20.105469 147.058594 22.078125 C 147.058594 24.054688 145.667969 25.628906 143.75 25.628906 Z M 143.75 25.628906 " fill-opacity="1" fill-rule="nonzero"/><path fill="#009cde" d="M 129.261719 27.882812 C 129.261719 28.054688 129.398438 28.214844 129.585938 28.214844 L 135.964844 28.214844 C 136.148438 28.214844 136.285156 28.054688 136.285156 27.882812 L 136.285156 25.976562 C 136.285156 25.800781 136.148438 25.644531 135.964844 25.644531 L 131.925781 25.644531 L 131.925781 16.3125 C 131.925781 16.136719 131.773438 15.980469 131.601562 15.980469 L 129.582031 15.980469 C 129.398438 15.980469 129.261719 16.136719 129.261719 16.3125 Z M 129.261719 27.882812 " fill-opacity="1" fill-rule="nonzero"/><path fill="#009cde" d="M 122.789062 23.269531 C 124.265625 22.65625 125.300781 21.363281 125.300781 19.757812 C 125.300781 17.675781 123.636719 15.980469 121.601562 15.980469 L 116.527344 15.980469 C 116.339844 15.980469 116.207031 16.136719 116.207031 16.3125 L 116.207031 27.882812 C 116.207031 28.054688 116.339844 28.214844 116.527344 28.214844 L 118.546875 28.214844 C 118.714844 28.214844 118.871094 28.054688 118.871094 27.882812 L 118.871094 23.425781 L 120.039062 23.425781 L 122.296875 28.054688 C 122.332031 28.125 122.433594 28.214844 122.570312 28.214844 L 124.824219 28.214844 C 125.113281 28.214844 125.234375 27.933594 125.113281 27.707031 Z M 121.378906 21.207031 L 118.871094 21.207031 L 118.871094 18.480469 L 121.378906 18.480469 C 122.078125 18.480469 122.671875 19.074219 122.671875 19.808594 C 122.671875 20.542969 122.078125 21.207031 121.378906 21.207031 Z M 121.378906 21.207031 " fill-opacity="1" fill-rule="nonzero"/><path fill="#009cde" d="M 107.167969 15.804688 C 103.777344 15.804688 101.078125 18.621094 101.078125 22.113281 C 101.078125 25.609375 103.777344 28.386719 107.167969 28.386719 C 110.5625 28.386719 113.277344 25.609375 113.277344 22.113281 C 113.277344 18.617188 110.5625 15.804688 107.167969 15.804688 Z M 107.167969 25.59375 C 105.320312 25.59375 103.792969 24.019531 103.792969 22.113281 C 103.792969 20.207031 105.320312 18.601562 107.167969 18.601562 C 109.019531 18.601562 110.5625 20.191406 110.5625 22.113281 C 110.5625 24.035156 109.035156 25.59375 107.167969 25.59375 Z M 107.167969 25.59375 " fill-opacity="1" fill-rule="nonzero"/><path fill="#009cde" d="M 88.628906 28.144531 C 88.664062 28.28125 88.800781 28.386719 88.933594 28.386719 L 89.207031 28.386719 C 89.324219 28.386719 89.445312 28.300781 89.496094 28.195312 L 92.582031 21.046875 L 92.632812 21.046875 L 95.738281 28.195312 C 95.789062 28.300781 95.910156 28.386719 96.027344 28.386719 L 96.296875 28.386719 C 96.433594 28.386719 96.570312 28.28125 96.605469 28.144531 L 99.8125 16.402344 C 99.878906 16.15625 99.742188 15.980469 99.503906 15.980469 L 97.519531 15.980469 C 97.382812 15.980469 97.25 16.105469 97.214844 16.226562 L 95.753906 22.148438 L 95.6875 22.148438 L 93.058594 16 C 93.023438 15.894531 92.921875 15.804688 92.769531 15.804688 L 92.464844 15.804688 C 92.328125 15.804688 92.226562 15.894531 92.175781 16 L 89.546875 22.148438 L 89.476562 22.148438 L 88.019531 16.226562 C 87.984375 16.105469 87.847656 15.980469 87.714844 15.980469 L 85.730469 15.980469 C 85.492188 15.980469 85.355469 16.15625 85.421875 16.402344 Z M 88.628906 28.144531 " fill-opacity="1" fill-rule="nonzero"/><path fill="#009cde" d="M 155.699219 0.175781 L 148.164062 0.175781 C 147.980469 0.175781 147.84375 0.332031 147.84375 0.507812 L 147.84375 2.414062 C 147.84375 2.585938 147.980469 2.746094 148.164062 2.746094 L 150.59375 2.746094 L 150.59375 12.078125 C 150.59375 12.25 150.746094 12.40625 150.917969 12.40625 L 152.953125 12.40625 C 153.121094 12.40625 153.273438 12.25 153.273438 12.078125 L 153.273438 2.746094 L 155.699219 2.746094 C 155.886719 2.746094 156.023438 2.585938 156.023438 2.414062 L 156.023438 0.507812 C 156.023438 0.332031 155.886719 0.175781 155.699219 0.175781 Z M 155.699219 0.175781 " fill-opacity="1" fill-rule="nonzero"/><path fill="#009cde" d="M 144.644531 0.175781 L 137.113281 0.175781 C 136.925781 0.175781 136.789062 0.332031 136.789062 0.507812 L 136.789062 2.414062 C 136.789062 2.585938 136.925781 2.746094 137.113281 2.746094 L 139.535156 2.746094 L 139.535156 12.078125 C 139.535156 12.25 139.691406 12.40625 139.859375 12.40625 L 141.894531 12.40625 C 142.066406 12.40625 142.21875 12.25 142.21875 12.078125 L 142.21875 2.746094 L 144.644531 2.746094 C 144.832031 2.746094 144.96875 2.585938 144.96875 2.414062 L 144.96875 0.507812 C 144.96875 0.332031 144.832031 0.175781 144.644531 0.175781 Z M 144.644531 0.175781 " fill-opacity="1" fill-rule="nonzero"/><path fill="#009cde" d="M 128.375 0 C 124.980469 0 122.285156 2.8125 122.285156 6.308594 C 122.285156 9.804688 124.980469 12.582031 128.375 12.582031 C 131.769531 12.582031 134.484375 9.804688 134.484375 6.308594 C 134.484375 2.8125 131.769531 0 128.375 0 Z M 128.375 9.789062 C 126.527344 9.789062 125 8.214844 125 6.308594 C 125 4.40625 126.527344 2.796875 128.375 2.796875 C 130.222656 2.796875 131.769531 4.386719 131.769531 6.308594 C 131.769531 8.230469 130.242188 9.789062 128.375 9.789062 Z M 128.375 9.789062 " fill-opacity="1" fill-rule="nonzero"/><path fill="#009cde" d="M 117.207031 6.1875 C 118.003906 5.75 119.175781 4.769531 119.175781 3.425781 C 119.175781 1.589844 117.53125 0.175781 115.527344 0.175781 L 111.574219 0.175781 C 111.386719 0.175781 111.25 0.332031 111.25 0.507812 L 111.25 12.078125 C 111.25 12.25 111.386719 12.40625 111.574219 12.40625 L 115.78125 12.40625 C 117.804688 12.40625 119.484375 10.992188 119.484375 9.035156 C 119.484375 7.425781 118.109375 6.570312 117.207031 6.1875 Z M 113.898438 2.691406 L 115.222656 2.691406 C 115.867188 2.691406 116.410156 3.179688 116.410156 3.878906 C 116.410156 4.578125 115.867188 5.136719 115.222656 5.136719 L 113.898438 5.136719 Z M 115.441406 9.90625 L 113.898438 9.90625 L 113.898438 7.410156 L 115.273438 7.410156 C 115.9375 7.410156 116.664062 7.933594 116.664062 8.632812 C 116.664062 9.332031 116.105469 9.90625 115.441406 9.90625 Z M 115.441406 9.90625 " fill-opacity="1" fill-rule="nonzero"/><path fill="#009cde" d="M 105.4375 6.1875 C 106.234375 5.75 107.40625 4.769531 107.40625 3.425781 C 107.40625 1.589844 105.757812 0.175781 103.757812 0.175781 L 99.804688 0.175781 C 99.617188 0.175781 99.480469 0.332031 99.480469 0.507812 L 99.480469 12.078125 C 99.480469 12.25 99.617188 12.40625 99.804688 12.40625 L 104.011719 12.40625 C 106.03125 12.40625 107.710938 10.992188 107.710938 9.035156 C 107.710938 7.425781 106.335938 6.570312 105.4375 6.1875 Z M 102.128906 2.691406 L 103.453125 2.691406 C 104.09375 2.691406 104.636719 3.179688 104.636719 3.878906 C 104.636719 4.578125 104.09375 5.136719 103.453125 5.136719 L 102.128906 5.136719 Z M 103.671875 9.90625 L 102.128906 9.90625 L 102.128906 7.410156 L 103.5 7.410156 C 104.164062 7.410156 104.894531 7.933594 104.894531 8.632812 C 104.894531 9.332031 104.335938 9.90625 103.671875 9.90625 Z M 103.671875 9.90625 " fill-opacity="1" fill-rule="nonzero"/><path fill="#009cde" d="M 91.425781 0.191406 C 91.375 0.0859375 91.257812 0 91.136719 0 L 90.96875 0 C 90.847656 0 90.726562 0.0898438 90.679688 0.191406 L 85.367188 11.953125 C 85.265625 12.179688 85.402344 12.40625 85.65625 12.40625 L 87.523438 12.40625 C 87.859375 12.40625 88.046875 12.199219 88.132812 11.988281 L 88.746094 10.589844 L 93.359375 10.589844 L 93.96875 11.972656 C 94.121094 12.304688 94.257812 12.410156 94.5625 12.410156 L 96.445312 12.410156 C 96.703125 12.410156 96.835938 12.179688 96.734375 11.953125 Z M 89.761719 8.214844 L 91.035156 5.332031 L 91.050781 5.332031 L 92.339844 8.214844 Z M 89.761719 8.214844 " fill-opacity="1" fill-rule="nonzero"/><g clip-path="url(#47a22cb0ea)"><path fill="#009cde" d="M 10.035156 19.988281 C 4.71875 19.988281 0.410156 24.425781 0.410156 29.902344 L 0.410156 49.894531 C 0.410156 55.371094 4.71875 59.808594 10.035156 59.808594 L 63.25 59.808594 C 68.5625 59.808594 72.871094 55.371094 72.871094 49.894531 L 72.871094 10.019531 C 72.871094 4.542969 68.5625 0.105469 63.25 0.105469 L 0.410156 0.105469 L 0.410156 10.046875 L 60.101562 10.046875 C 61.824219 10.046875 63.222656 11.484375 63.222656 13.261719 L 63.222656 46.65625 C 63.222656 48.429688 61.824219 49.871094 60.101562 49.871094 L 13.179688 49.871094 C 11.460938 49.871094 10.0625 48.429688 10.0625 46.65625 L 10.0625 33.140625 C 10.0625 31.367188 11.457031 29.929688 13.179688 29.929688 L 53.570312 29.929688 L 53.570312 19.988281 Z M 10.035156 19.988281 " fill-opacity="1" fill-rule="nonzero"/></g><path fill="#0096d6" d="M 401.65625 30.371094 L 404.585938 30.371094 L 405.9375 33.296875 L 407.285156 30.371094 L 410.148438 30.371094 L 407.210938 35.355469 L 407.210938 38.644531 L 404.597656 38.644531 L 404.597656 35.355469 Z M 401.65625 30.371094 " fill-opacity="1" fill-rule="nonzero"/><path fill="#0096d6" d="M 414.125 38.820312 C 413.449219 38.820312 412.832031 38.714844 412.273438 38.503906 C 411.714844 38.292969 411.230469 37.996094 410.824219 37.613281 C 410.417969 37.226562 410.105469 36.769531 409.882812 36.246094 C 409.660156 35.71875 409.550781 35.140625 409.550781 34.507812 C 409.550781 33.875 409.664062 33.320312 409.894531 32.796875 C 410.121094 32.277344 410.445312 31.820312 410.859375 31.433594 C 411.273438 31.042969 411.757812 30.742188 412.3125 30.523438 C 412.867188 30.304688 413.472656 30.195312 414.125 30.195312 C 414.777344 30.195312 415.417969 30.300781 415.976562 30.511719 C 416.535156 30.722656 417.019531 31.019531 417.425781 31.402344 C 417.832031 31.789062 418.144531 32.246094 418.367188 32.769531 C 418.589844 33.296875 418.699219 33.875 418.699219 34.507812 C 418.699219 35.136719 418.585938 35.695312 418.355469 36.214844 C 418.128906 36.738281 417.804688 37.195312 417.390625 37.582031 C 416.976562 37.972656 416.492188 38.273438 415.9375 38.492188 C 415.382812 38.710938 414.777344 38.820312 414.125 38.820312 Z M 415.964844 34.519531 C 415.964844 34.128906 415.886719 33.78125 415.730469 33.480469 C 415.574219 33.179688 415.359375 32.941406 415.082031 32.769531 C 414.808594 32.601562 414.488281 32.515625 414.125 32.515625 C 413.761719 32.515625 413.453125 32.597656 413.171875 32.765625 C 412.890625 32.933594 412.675781 33.164062 412.519531 33.464844 C 412.363281 33.761719 412.285156 34.105469 412.285156 34.496094 C 412.285156 34.890625 412.363281 35.234375 412.519531 35.539062 C 412.675781 35.839844 412.890625 36.074219 413.167969 36.246094 C 413.441406 36.414062 413.761719 36.5 414.125 36.5 C 414.488281 36.5 414.808594 36.417969 415.082031 36.25 C 415.359375 36.085938 415.574219 35.851562 415.730469 35.550781 C 415.886719 35.25 415.964844 34.90625 415.964844 34.519531 Z M 415.964844 34.519531 " fill-opacity="1" fill-rule="nonzero"/><path fill="#0096d6" d="M 419.296875 30.371094 L 421.964844 30.371094 L 421.964844 34.8125 C 421.964844 35.386719 422.070312 35.8125 422.277344 36.085938 C 422.484375 36.363281 422.800781 36.5 423.230469 36.5 C 424.070312 36.5 424.492188 35.9375 424.492188 34.8125 L 424.492188 30.371094 L 427.160156 30.371094 L 427.160156 34.988281 C 427.160156 36.226562 426.824219 37.179688 426.152344 37.835938 C 425.480469 38.492188 424.511719 38.820312 423.238281 38.820312 C 421.96875 38.820312 420.996094 38.488281 420.316406 37.828125 C 419.636719 37.167969 419.296875 36.222656 419.296875 34.988281 Z M 419.296875 30.371094 " fill-opacity="1" fill-rule="nonzero"/><path fill="#0096d6" d="M 428.195312 30.371094 L 431.441406 30.371094 C 432.515625 30.371094 433.347656 30.628906 433.941406 31.144531 C 434.53125 31.660156 434.828125 32.378906 434.828125 33.308594 C 434.828125 33.761719 434.722656 34.171875 434.511719 34.546875 C 434.300781 34.921875 434.035156 35.238281 433.714844 35.5 L 435.621094 38.644531 L 432.757812 38.644531 L 431.550781 36.226562 L 430.710938 36.226562 L 430.710938 38.644531 L 428.195312 38.644531 Z M 431.09375 34.332031 C 431.890625 34.332031 432.289062 33.984375 432.289062 33.289062 C 432.289062 32.933594 432.195312 32.671875 432.007812 32.507812 C 431.820312 32.34375 431.515625 32.265625 431.09375 32.265625 L 430.710938 32.265625 L 430.710938 34.332031 Z M 431.09375 34.332031 " fill-opacity="1" fill-rule="nonzero"/><path fill="#0096d6" d="M 401.765625 40.957031 L 404.574219 40.957031 L 405.480469 45.738281 L 406.773438 41.066406 L 408.953125 41.066406 L 410.269531 45.617188 L 411.152344 40.957031 L 413.960938 40.957031 L 411.542969 49.234375 L 409.203125 49.234375 L 407.839844 44.574219 L 406.523438 49.234375 L 404.183594 49.234375 Z M 401.765625 40.957031 " fill-opacity="1" fill-rule="nonzero"/><path fill="#0096d6" d="M 418.480469 49.40625 C 417.804688 49.40625 417.1875 49.304688 416.628906 49.09375 C 416.070312 48.882812 415.589844 48.585938 415.183594 48.199219 C 414.773438 47.816406 414.460938 47.359375 414.238281 46.832031 C 414.019531 46.304688 413.90625 45.726562 413.90625 45.097656 C 413.90625 44.464844 414.019531 43.910156 414.25 43.386719 C 414.480469 42.863281 414.800781 42.410156 415.214844 42.019531 C 415.628906 41.632812 416.113281 41.328125 416.667969 41.109375 C 417.222656 40.894531 417.828125 40.785156 418.480469 40.785156 C 419.132812 40.785156 419.773438 40.890625 420.332031 41.101562 C 420.890625 41.308594 421.375 41.609375 421.78125 41.992188 C 422.1875 42.378906 422.5 42.832031 422.722656 43.359375 C 422.945312 43.886719 423.054688 44.464844 423.054688 45.09375 C 423.054688 45.726562 422.941406 46.28125 422.710938 46.804688 C 422.484375 47.328125 422.164062 47.78125 421.75 48.171875 C 421.335938 48.558594 420.851562 48.863281 420.292969 49.082031 C 419.738281 49.296875 419.136719 49.40625 418.480469 49.40625 Z M 420.320312 45.105469 C 420.320312 44.714844 420.242188 44.367188 420.085938 44.066406 C 419.929688 43.765625 419.714844 43.53125 419.441406 43.359375 C 419.164062 43.1875 418.84375 43.105469 418.480469 43.105469 C 418.117188 43.105469 417.808594 43.1875 417.527344 43.355469 C 417.25 43.523438 417.03125 43.753906 416.875 44.050781 C 416.71875 44.347656 416.640625 44.695312 416.640625 45.085938 C 416.640625 45.476562 416.71875 45.824219 416.875 46.125 C 417.03125 46.425781 417.246094 46.664062 417.523438 46.832031 C 417.796875 47.003906 418.117188 47.089844 418.480469 47.089844 C 418.84375 47.089844 419.164062 47.007812 419.441406 46.839844 C 419.714844 46.671875 419.929688 46.4375 420.085938 46.136719 C 420.242188 45.835938 420.320312 45.492188 420.320312 45.109375 Z M 420.320312 45.105469 " fill-opacity="1" fill-rule="nonzero"/><path fill="#0096d6" d="M 424.035156 40.957031 L 427.28125 40.957031 C 428.355469 40.957031 429.1875 41.214844 429.78125 41.730469 C 430.371094 42.246094 430.667969 42.96875 430.667969 43.898438 C 430.667969 44.347656 430.5625 44.761719 430.351562 45.132812 C 430.140625 45.507812 429.875 45.824219 429.554688 46.085938 L 431.460938 49.234375 L 428.597656 49.234375 L 427.390625 46.816406 L 426.550781 46.816406 L 426.550781 49.234375 L 424.035156 49.234375 Z M 426.933594 44.921875 C 427.730469 44.921875 428.128906 44.574219 428.128906 43.875 C 428.128906 43.519531 428.035156 43.261719 427.847656 43.097656 C 427.660156 42.933594 427.355469 42.851562 426.933594 42.851562 L 426.550781 42.851562 L 426.550781 44.921875 Z M 426.933594 44.921875 " fill-opacity="1" fill-rule="nonzero"/><path fill="#0096d6" d="M 432.171875 40.957031 L 434.839844 40.957031 L 434.839844 47.109375 L 438.136719 47.109375 L 438.136719 49.234375 L 432.171875 49.234375 Z M 432.171875 40.957031 " fill-opacity="1" fill-rule="nonzero"/><path fill="#0096d6" d="M 439.0625 40.957031 L 442.480469 40.957031 C 444.058594 40.957031 445.253906 41.308594 446.074219 42.015625 C 446.898438 42.71875 447.304688 43.746094 447.304688 45.09375 C 447.304688 45.960938 447.113281 46.699219 446.730469 47.320312 C 446.34375 47.941406 445.792969 48.417969 445.074219 48.742188 C 444.355469 49.070312 443.492188 49.230469 442.480469 49.230469 L 439.0625 49.230469 Z M 442.363281 47.164062 C 443.835938 47.164062 444.574219 46.476562 444.574219 45.097656 C 444.574219 43.714844 443.835938 43.027344 442.363281 43.027344 L 441.675781 43.027344 L 441.675781 47.164062 Z M 442.363281 47.164062 " fill-opacity="1" fill-rule="nonzero"/><path fill="#0096d6" d="M 447.703125 48.972656 C 447.46875 48.753906 447.351562 48.476562 447.351562 48.132812 C 447.351562 47.792969 447.46875 47.511719 447.703125 47.296875 C 447.933594 47.078125 448.238281 46.96875 448.617188 46.96875 C 448.992188 46.96875 449.300781 47.078125 449.53125 47.296875 C 449.761719 47.511719 449.878906 47.792969 449.878906 48.132812 C 449.878906 48.476562 449.761719 48.753906 449.53125 48.972656 C 449.296875 49.191406 448.992188 49.300781 448.617188 49.300781 C 448.238281 49.300781 447.933594 49.191406 447.703125 48.972656 Z M 447.703125 48.972656 " fill-opacity="1" fill-rule="nonzero"/><path fill="#0096d6" d="M 402.367188 51.546875 L 405.609375 51.546875 C 406.683594 51.546875 407.519531 51.804688 408.109375 52.320312 C 408.703125 52.835938 408.996094 53.558594 408.996094 54.488281 C 408.996094 54.9375 408.890625 55.347656 408.679688 55.722656 C 408.46875 56.097656 408.207031 56.414062 407.886719 56.675781 L 409.792969 59.824219 L 406.929688 59.824219 L 405.71875 57.40625 L 404.882812 57.40625 L 404.882812 59.824219 L 402.367188 59.824219 Z M 405.261719 55.511719 C 406.058594 55.511719 406.460938 55.160156 406.460938 54.464844 C 406.460938 54.109375 406.367188 53.851562 406.175781 53.6875 C 405.988281 53.523438 405.683594 53.441406 405.261719 53.441406 L 404.882812 53.441406 L 404.882812 55.507812 L 405.261719 55.507812 Z M 405.261719 55.511719 " fill-opacity="1" fill-rule="nonzero"/><path fill="#0096d6" d="M 410.171875 51.546875 L 412.839844 51.546875 L 412.839844 55.988281 C 412.839844 56.5625 412.945312 56.988281 413.152344 57.265625 C 413.359375 57.539062 413.675781 57.679688 414.105469 57.679688 C 414.945312 57.679688 415.367188 57.117188 415.367188 55.992188 L 415.367188 51.546875 L 418.035156 51.546875 L 418.035156 56.164062 C 418.035156 57.40625 417.699219 58.355469 417.027344 59.011719 C 416.355469 59.667969 415.386719 59.996094 414.113281 59.996094 C 412.84375 59.996094 411.867188 59.667969 411.191406 59.007812 C 410.511719 58.347656 410.171875 57.398438 410.171875 56.164062 Z M 410.171875 51.546875 " fill-opacity="1" fill-rule="nonzero"/><path fill="#0096d6" d="M 419.289062 51.546875 L 421.519531 51.546875 L 424.742188 55.925781 L 424.742188 51.546875 L 427.148438 51.546875 L 427.148438 59.824219 L 424.917969 59.824219 L 421.695312 55.457031 L 421.695312 59.824219 L 419.289062 59.824219 Z M 419.289062 51.546875 " fill-opacity="1" fill-rule="nonzero"/><path fill="#0096d6" d="M 430.960938 51.546875 L 433.628906 51.546875 L 433.628906 59.824219 L 430.960938 59.824219 Z M 430.960938 51.546875 " fill-opacity="1" fill-rule="nonzero"/><path fill="#0096d6" d="M 436.980469 53.667969 L 434.554688 53.667969 L 434.554688 51.546875 L 442.078125 51.546875 L 442.078125 53.667969 L 439.652344 53.667969 L 439.652344 59.820312 L 436.980469 59.820312 Z M 436.980469 53.667969 " fill-opacity="1" fill-rule="nonzero"/><path fill="#0096d6" d="M 441.761719 59.5625 C 441.527344 59.34375 441.410156 59.0625 441.410156 58.722656 C 441.410156 58.378906 441.527344 58.101562 441.761719 57.882812 C 441.992188 57.664062 442.296875 57.554688 442.675781 57.554688 C 443.050781 57.554688 443.355469 57.664062 443.589844 57.882812 C 443.820312 58.101562 443.9375 58.378906 443.9375 58.722656 C 443.9375 59.0625 443.820312 59.34375 443.589844 59.5625 C 443.355469 59.777344 443.050781 59.886719 442.675781 59.886719 C 442.296875 59.886719 441.992188 59.777344 441.761719 59.5625 Z M 441.761719 59.5625 " fill-opacity="1" fill-rule="nonzero"/><path fill="#e4002b" d="M 324.871094 30.195312 L 318.929688 30.195312 L 318.929688 51.054688 L 324.871094 51.054688 Z M 324.871094 30.195312 " fill-opacity="1" fill-rule="nonzero"/><path fill="#eeb33b" d="M 336.800781 38.601562 L 306.996094 38.601562 L 306.996094 44.542969 L 336.800781 44.542969 Z M 336.800781 38.601562 " fill-opacity="1" fill-rule="nonzero"/><path fill="#000000" d="M 336.800781 50.160156 L 306.996094 50.160156 L 306.996094 59.996094 L 336.800781 59.996094 Z M 336.800781 50.160156 " fill-opacity="1" fill-rule="nonzero"/><path fill="#ffffff" d="M 366.605469 30.195312 L 336.800781 30.195312 L 336.800781 59.996094 L 366.605469 59.996094 Z M 366.605469 30.195312 " fill-opacity="1" fill-rule="nonzero"/><path fill="#ea0029" d="M 346.390625 34.089844 L 347.476562 37.242188 L 350.75 36.605469 L 348.5625 39.121094 L 350.75 41.636719 L 347.476562 41 L 346.390625 44.152344 L 345.308594 41 L 342.035156 41.636719 L 344.222656 39.121094 L 342.035156 36.605469 L 345.308594 37.242188 Z M 346.390625 34.089844 " fill-opacity="1" fill-rule="nonzero"/><path fill="#ea0029" d="M 357.011719 34.089844 L 358.097656 37.242188 L 361.371094 36.605469 L 359.183594 39.121094 L 361.371094 41.636719 L 358.097656 41 L 357.011719 44.152344 L 355.925781 41 L 352.652344 41.636719 L 354.84375 39.121094 L 352.652344 36.605469 L 355.925781 37.242188 Z M 357.011719 34.089844 " fill-opacity="1" fill-rule="nonzero"/><path fill="#ea0029" d="M 346.390625 46.039062 L 347.476562 49.191406 L 350.75 48.554688 L 348.5625 51.070312 L 350.75 53.585938 L 347.476562 52.949219 L 346.390625 56.105469 L 345.308594 52.949219 L 342.035156 53.585938 L 344.222656 51.070312 L 342.035156 48.554688 L 345.308594 49.191406 Z M 346.390625 46.039062 " fill-opacity="1" fill-rule="nonzero"/><path fill="#ea0029" d="M 357.011719 46.039062 L 358.097656 49.191406 L 361.371094 48.554688 L 359.183594 51.070312 L 361.371094 53.585938 L 358.097656 52.949219 L 357.011719 56.105469 L 355.925781 52.949219 L 352.652344 53.585938 L 354.84375 51.070312 L 352.652344 48.554688 L 355.925781 49.191406 Z M 357.011719 46.039062 " fill-opacity="1" fill-rule="nonzero"/><path fill="#009cde" d="M 366.605469 30.195312 L 336.800781 30.195312 L 336.800781 32.191406 L 366.605469 32.191406 Z M 366.605469 30.195312 " fill-opacity="1" fill-rule="nonzero"/><path fill="#009cde" d="M 366.605469 58 L 336.800781 58 L 336.800781 59.996094 L 366.605469 59.996094 Z M 366.605469 58 " fill-opacity="1" fill-rule="nonzero"/><path fill="#ea0029" d="M 277.191406 39.984375 L 297.855469 59.996094 L 302.667969 59.996094 L 277.191406 35.4375 Z M 277.191406 39.984375 " fill-opacity="1" fill-rule="nonzero"/><path fill="#004f71" d="M 306.996094 30.195312 L 282.625 30.195312 L 306.996094 53.554688 Z M 306.996094 30.195312 " fill-opacity="1" fill-rule="nonzero"/><path fill="#004f71" d="M 277.191406 59.996094 L 294.363281 59.996094 L 277.191406 43.320312 Z M 277.191406 59.996094 " fill-opacity="1" fill-rule="nonzero"/><path fill="#ffd100" d="M 266.164062 30.195312 L 256.703125 30.195312 L 256.703125 36.15625 L 266.164062 36.15625 Z M 266.164062 30.195312 " fill-opacity="1" fill-rule="nonzero"/><path fill="#009cde" d="M 270.636719 36.15625 L 262.292969 36.15625 L 262.292969 42.117188 L 270.636719 42.117188 Z M 270.636719 36.15625 " fill-opacity="1" fill-rule="nonzero"/><path fill="#ffd100" d="M 262.289062 42.117188 L 251.1875 42.117188 L 251.1875 48.074219 L 262.289062 48.074219 Z M 262.289062 42.117188 " fill-opacity="1" fill-rule="nonzero"/><path fill="#009cde" d="M 277.191406 48.074219 L 261.695312 48.074219 L 261.695312 54.035156 L 277.191406 54.035156 Z M 277.191406 48.074219 " fill-opacity="1" fill-rule="nonzero"/><path fill="#ffd100" d="M 266.164062 54.035156 L 247.390625 54.035156 L 247.390625 59.996094 L 266.164062 59.996094 Z M 266.164062 54.035156 " fill-opacity="1" fill-rule="nonzero"/><g clip-path="url(#1e027ce8cc)"><path fill="#7ccc6c" d="M 247.390625 30.195312 L 217.585938 30.195312 L 217.585938 59.996094 L 247.390625 59.996094 Z M 247.390625 30.195312 " fill-opacity="1" fill-rule="nonzero"/></g><path fill="#e4002b" d="M 218.253906 59.996094 C 218.253906 52.136719 224.628906 45.765625 232.488281 45.765625 C 240.347656 45.765625 246.71875 52.136719 246.71875 59.996094 Z M 218.253906 59.996094 " fill-opacity="1" fill-rule="nonzero"/><path fill="#000000" d="M 396.410156 30.195312 L 396.410156 32.191406 L 375.570312 32.191406 L 375.550781 32.148438 L 374.851562 30.195312 Z M 396.410156 30.195312 " fill-opacity="1" fill-rule="nonzero"/><path fill="#64ccc9" d="M 396.410156 34.167969 L 396.410156 36.164062 L 377.160156 36.164062 L 376.363281 34.167969 Z M 396.410156 34.167969 " fill-opacity="1" fill-rule="nonzero"/><path fill="#000000" d="M 396.410156 38.140625 L 396.410156 40.226562 L 378.789062 40.226562 L 377.953125 38.140625 Z M 396.410156 38.140625 " fill-opacity="1" fill-rule="nonzero"/><path fill="#64ccc9" d="M 396.410156 42.109375 L 396.410156 44.105469 L 386.925781 44.105469 L 389.925781 42.109375 Z M 396.410156 42.109375 " fill-opacity="1" fill-rule="nonzero"/><path fill="#000000" d="M 396.410156 46.085938 L 396.410156 48.082031 L 381.636719 48.082031 L 381.519531 47.703125 L 383.957031 46.085938 Z M 396.410156 46.085938 " fill-opacity="1" fill-rule="nonzero"/><path fill="#64ccc9" d="M 396.410156 50.058594 L 396.410156 52.050781 L 382.917969 52.050781 L 382.273438 50.058594 Z M 396.410156 50.058594 " fill-opacity="1" fill-rule="nonzero"/><path fill="#000000" d="M 396.410156 54.027344 L 396.410156 56.023438 L 384.199219 56.023438 L 383.554688 54.027344 Z M 396.410156 54.027344 " fill-opacity="1" fill-rule="nonzero"/><path fill="#64ccc9" d="M 396.410156 58 L 396.410156 59.996094 L 385.5 59.996094 L 385.316406 59.488281 L 384.839844 58 Z M 396.410156 58 " fill-opacity="1" fill-rule="nonzero"/><path fill="#64ccc9" d="M 377.230469 59.996094 L 366.605469 59.996094 L 366.605469 52.660156 L 374.339844 58 Z M 377.230469 59.996094 " fill-opacity="1" fill-rule="nonzero"/><path fill="#0096d6" d="M 385.5 59.996094 L 385.480469 59.996094 L 385.316406 59.488281 Z M 385.5 59.996094 " fill-opacity="1" fill-rule="nonzero"/><path fill="#64ccc9" d="M 392.757812 40.226562 L 392.640625 40.308594 L 389.925781 42.109375 L 386.925781 44.109375 L 383.953125 46.085938 L 381.515625 47.703125 L 381.636719 48.082031 L 382.273438 50.058594 L 382.917969 52.050781 L 383.554688 54.027344 L 384.199219 56.023438 L 384.839844 58 L 385.316406 59.488281 L 385.480469 59.996094 L 377.230469 59.996094 L 376.585938 58 L 375.949219 56.023438 L 375.304688 54.027344 L 374.871094 52.671875 L 374.828125 52.542969 L 374.667969 52.050781 L 374.027344 50.058594 L 373.390625 48.082031 L 373.269531 47.703125 L 374.828125 46.667969 L 375.707031 46.085938 L 378.675781 44.109375 L 381.675781 42.109375 L 384.386719 40.308594 L 384.503906 40.226562 Z M 392.757812 40.226562 " fill-opacity="1" fill-rule="nonzero"/><path fill="#64ccc9" d="M 378.789062 40.226562 L 370.542969 40.226562 L 366.605469 30.40625 L 366.605469 30.195312 L 374.855469 30.195312 L 375.550781 32.148438 L 375.570312 32.191406 L 376.363281 34.167969 L 377.160156 36.164062 L 377.953125 38.140625 Z M 378.789062 40.226562 " fill-opacity="1" fill-rule="nonzero"/></svg>